<svg width="61" height="60" viewBox="0 0 61 60" fill="none" xmlns="http://www.w3.org/2000/svg">
<g id="24-hours_5359039 1">
<path id="Vector" d="M27.3834 30.9249L27.3991 30.9102C27.4298 30.8811 27.6041 30.7271 28.559 29.9258C29.3677 29.273 30.129 28.5635 30.8371 27.8028C31.7069 26.7732 32.148 25.7356 32.148 24.7191C32.1677 24.182 32.0634 23.6476 31.8431 23.1573C31.6229 22.667 31.2926 22.2341 30.8779 21.8921C30.0539 21.2445 29.0275 20.909 27.9801 20.945C25.3966 20.945 23.9109 22.2767 23.6835 24.7963L23.6301 25.3895L26.308 25.6574L26.3153 25.0011C26.2888 24.5386 26.4448 24.0842 26.7498 23.7355C26.9099 23.5838 27.0999 23.4672 27.3076 23.3933C27.5154 23.3193 27.7363 23.2895 27.9562 23.3059C28.3694 23.2898 28.7736 23.429 29.0894 23.6961C29.2292 23.8183 29.339 23.971 29.4105 24.1423C29.482 24.3137 29.5132 24.4992 29.5016 24.6845C29.4844 25.0228 29.3802 25.3509 29.1991 25.6372C28.8786 26.1579 28.4868 26.6313 28.0352 27.0434C27.7696 27.3013 27.268 27.7309 26.542 28.3229C24.4241 30.0655 23.3945 31.5985 23.3945 33.0104V33.6118H32.1475V31.0599H27.2388C27.2853 31.0152 27.3335 30.9702 27.3834 30.9249Z" fill="#5C75C9"/>
<path id="Vector_2" d="M41.0876 28.3891V20.9941H39.0291L33.5273 28.8V30.8801H38.4773V33.6115H41.0876V30.8801H42.6263V28.3891H41.0876ZM36.664 28.3891L38.4771 25.7745V28.3891H36.664Z" fill="#5C75C9"/>
<path id="Vector_3" d="M54.767 27.2781C54.767 22.975 53.491 18.7686 51.1004 15.1908C48.7098 11.6129 45.3118 8.82432 41.3364 7.17761C37.3609 5.53091 32.9863 5.10006 28.766 5.93954C24.5456 6.77902 20.669 8.85113 17.6263 11.8938C14.5836 14.9366 12.5114 18.8132 11.672 23.0336C10.8325 27.2539 11.2633 31.6284 12.91 35.6039C14.5567 39.5794 17.3453 42.9773 20.9232 45.368C24.501 47.7586 28.7074 49.0346 33.0105 49.0346C33.3548 49.0346 33.6967 49.0257 34.037 49.0098C33.5517 47.9652 33.0623 46.9025 32.5893 45.8722C28.5396 45.7825 24.6298 44.3738 21.4534 41.8602C18.277 39.3465 16.0075 35.8651 14.9895 31.9444C13.9715 28.0238 14.2605 23.878 15.8126 20.1365C17.3648 16.395 20.0954 13.2621 23.5898 11.2135C27.0842 9.16486 31.1517 8.31232 35.1746 8.78533C39.1976 9.25833 42.9563 11.031 45.8803 13.8343C48.8043 16.6376 50.7337 20.3184 51.3757 24.3179C52.0177 28.3174 51.3372 32.4171 49.4376 35.9947L46.8979 34.3541L47.2914 41.997L54.4211 39.2155L52.0973 37.7138C53.8533 34.5162 54.7718 30.9262 54.767 27.2781Z" fill="#60AC71"/>
<path id="Vector_4" d="M32.3991 42.3679L29.3895 44.1798C29.3895 44.1798 25.2814 42.8439 20.4305 37.2875C15.8 31.5454 15.1986 27.2678 15.1986 27.2678L17.5048 24.6193L21.4554 22.3553L17.2819 12.0146L12.0101 13.4C11.0114 13.6596 10.0942 14.1666 9.34317 14.8743C7.48979 16.6457 6.0866 18.8343 5.25051 21.2579C3.78918 27.3789 14.3168 41.4072 14.3168 41.4072L15.3108 42.5917L15.3282 42.5767C18.3164 45.9421 27.2977 55.3954 33.5794 55.0192C36.1116 54.6168 38.5109 53.6151 40.5774 52.0975C41.4047 51.4807 42.0633 50.6655 42.4922 49.727L44.772 44.7761L35.3136 38.8698L32.3991 42.3679Z" fill="#5C75C9"/>
<path id="Vector_5" d="M32.5273 42.2118L35.3134 38.8701L44.7716 44.7759L42.8593 48.9288L32.5273 42.2118Z" fill="#7691ED"/>
<path id="Vector_6" d="M17.6802 24.5181L21.4551 22.3548L17.2813 12.0146L12.8594 13.1767L17.6802 24.5181Z" fill="#7691ED"/>
<path id="Vector_7" d="M47.2712 21.3382C51.8673 21.3382 55.5931 17.6124 55.5931 13.0163C55.5931 8.4202 51.8673 4.69434 47.2712 4.69434C42.6751 4.69434 38.9492 8.4202 38.9492 13.0163C38.9492 17.6124 42.6751 21.3382 47.2712 21.3382Z" fill="#E2E5EB"/>
<path id="Vector_8" d="M45.2016 7.48773L49.2833 7.46289L47.457 11.1932H51.0936L45.8502 19.3476L46.5664 13.3452H43.4492L45.2016 7.48773Z" fill="#60AC71"/>
</g>
</svg>
