<svg width="22" height="22" viewBox="0 0 22 22" fill="none" xmlns="http://www.w3.org/2000/svg">
<g id="android">
<path id="image 25 (Traced)" fill-rule="evenodd" clip-rule="evenodd" d="M8.36417 3.01321C8.28775 3.0458 8.27378 3.09265 8.27329 3.31809L8.27283 3.53467L8.71222 3.99051L9.1516 4.44634L8.97876 4.59956C8.59823 4.9369 8.22269 5.4384 7.98577 5.92564C7.77308 6.36305 7.60304 7.04855 7.60304 7.46851V7.65207H11.5H15.397V7.45222C15.397 7.0705 15.2593 6.47712 15.0695 6.04139C14.8138 5.45419 14.4326 4.95391 13.9455 4.56629L13.7879 4.4409L14.214 4.00577C14.4483 3.76645 14.6608 3.53023 14.6863 3.48084C14.7914 3.27683 14.6252 3.01478 14.3907 3.01478C14.2675 3.01478 14.2504 3.02898 13.7371 3.55565L13.2099 4.09653L12.9258 3.95029C12.511 3.73674 12.252 3.67666 11.6624 3.65714C10.9768 3.63444 10.4668 3.72135 9.93434 3.95154L9.75261 4.03013L9.53743 3.80038C9.41909 3.67403 9.20737 3.44431 9.06696 3.28991L8.81165 3.00918L8.61074 3.00145C8.50026 2.99723 8.38929 3.00252 8.36417 3.01321ZM10.1909 5.97884V6.30723H9.87119H9.55152V5.97884V5.65045H9.87119H10.1909V5.97884ZM13.4485 5.97884V6.30723H13.1288H12.8091V5.97884V5.65045H13.1288H13.4485V5.97884ZM5.69415 8.36518C5.3928 8.47577 5.20279 8.65535 5.06655 8.95834L5 9.10637V11.656V14.2056L5.10022 14.4147C5.20922 14.6422 5.36497 14.801 5.59136 14.9156C5.79474 15.0186 6.15925 15.0157 6.36923 14.9096C6.57212 14.807 6.76812 14.5995 6.86719 14.3824L6.94848 14.2043V11.6553V9.10637L6.86786 8.92973C6.6538 8.46072 6.12582 8.20677 5.69415 8.36518ZM7.60304 11.7345C7.60304 15.4484 7.59577 15.2801 7.76434 15.4657C7.911 15.6272 8.02526 15.6586 8.46765 15.6586H8.87802L8.88749 16.9338L8.89696 18.209L8.99718 18.418C9.34544 19.1444 10.2832 19.2031 10.7001 18.5247C10.8497 18.2813 10.8599 18.1755 10.8603 16.8705L10.8607 15.6586H11.5H12.1393L12.1397 16.8705C12.1401 18.1755 12.1503 18.2813 12.2999 18.5247C12.7168 19.2031 13.6546 19.1444 14.0028 18.418L14.103 18.209L14.1125 16.9338L14.122 15.6586H14.5323C14.9747 15.6586 15.089 15.6272 15.2357 15.4657C15.4042 15.2801 15.397 15.4484 15.397 11.7345V8.30885H11.5H7.60304V11.7345ZM16.7457 8.36518C16.4443 8.47577 16.2543 8.65535 16.1181 8.95834L16.0515 9.10637V11.6553V14.2043L16.1328 14.3824C16.2319 14.5995 16.4279 14.807 16.6308 14.9096C16.8407 15.0157 17.2053 15.0186 17.4086 14.9156C17.635 14.801 17.7908 14.6422 17.8998 14.4147L18 14.2056V11.656V9.10637L17.9194 8.92973C17.7053 8.46072 17.1773 8.20677 16.7457 8.36518Z" fill="#2C2C35"/>
</g>
</svg>
