<svg width="32" height="32" viewBox="0 0 32 32" fill="none" xmlns="http://www.w3.org/2000/svg">
<g id="android">
<path id="image 25 (Traced)" fill-rule="evenodd" clip-rule="evenodd" d="M10.7283 0.0264284C10.5755 0.0916062 10.5476 0.185307 10.5466 0.636173L10.5457 1.06934L11.4244 1.98101L12.3032 2.89269L11.9575 3.19912C11.1965 3.8738 10.4454 4.8768 9.97154 5.85127C9.54616 6.72611 9.20609 8.09709 9.20609 8.93703V9.30414H17H24.7939V8.90444C24.7939 8.141 24.5185 6.95423 24.139 6.08277C23.6277 4.90839 22.8653 3.90782 21.8909 3.13257L21.5758 2.8818L22.4279 2.01154C22.8966 1.5329 23.3217 1.06045 23.3726 0.961686C23.5828 0.553668 23.2504 0.0295559 22.7815 0.0295559C22.5351 0.0295559 22.5008 0.0579538 21.4741 1.11131L20.4198 2.19306L19.8516 1.90057C19.0219 1.47348 18.504 1.35332 17.3248 1.31428C15.9537 1.26887 14.9335 1.4427 13.8687 1.90307L13.5052 2.06026L13.0749 1.60077C12.8382 1.34806 12.4147 0.888627 12.1339 0.579814L11.6233 0.0183593L11.2215 0.0029093C11.0005 -0.00553505 10.7786 0.00503602 10.7283 0.0264284ZM14.3817 5.95767V6.61446H13.7424H13.103V5.95767V5.30089H13.7424H14.3817V5.95767ZM20.897 5.95767V6.61446H20.2576H19.6183V5.95767V5.30089H20.2576H20.897V5.95767ZM5.38829 10.7304C4.7856 10.9515 4.40559 11.3107 4.13311 11.9167L4 12.2127V17.3119V22.4111L4.20045 22.8294C4.41844 23.2843 4.72995 23.602 5.18273 23.8312C5.58947 24.0371 6.31851 24.0314 6.73846 23.8191C7.14423 23.614 7.53624 23.199 7.73438 22.7648L7.89696 22.4085V17.3106V12.2127L7.73572 11.8595C7.3076 10.9214 6.25165 10.4135 5.38829 10.7304ZM9.20609 17.469C9.20609 24.8967 9.19154 24.5601 9.52868 24.9314C9.82199 25.2544 10.0505 25.3171 10.9353 25.3171H11.756L11.775 27.8676L11.7939 30.418L11.9944 30.8361C12.6909 32.2888 14.5664 32.4063 15.4002 31.0494C15.6993 30.5626 15.7198 30.3509 15.7206 27.741L15.7213 25.3171H17H18.2787L18.2794 27.741C18.2802 30.3509 18.3007 30.5626 18.5998 31.0494C19.4336 32.4063 21.3091 32.2888 22.0056 30.8361L22.2061 30.418L22.225 27.8676L22.244 25.3171H23.0647C23.9495 25.3171 24.178 25.2544 24.4713 24.9314C24.8085 24.5601 24.7939 24.8967 24.7939 17.469V10.6177H17H9.20609V17.469ZM27.4913 10.7304C26.8886 10.9515 26.5086 11.3107 26.2362 11.9167L26.103 12.2127V17.3106V22.4085L26.2656 22.7648C26.4638 23.199 26.8558 23.614 27.2615 23.8191C27.6815 24.0314 28.4105 24.0371 28.8173 23.8312C29.2701 23.602 29.5816 23.2843 29.7996 22.8294L30 22.4111V17.3119V12.2127L29.8388 11.8595C29.4106 10.9214 28.3547 10.4135 27.4913 10.7304Z" fill="#5C75C9"/>
</g>
</svg>
