<svg width="22" height="22" viewBox="0 0 22 22" fill="none" xmlns="http://www.w3.org/2000/svg">
<g id="apple">
<path id="Vector" d="M15.6916 11.5955C15.6733 9.59748 17.3627 8.62547 17.4399 8.58021C16.4832 7.21455 15.0002 7.02796 14.479 7.01308C13.2336 6.88476 12.0254 7.74272 11.3909 7.74272C10.7438 7.74272 9.76673 7.02548 8.71374 7.04656C7.35869 7.06701 6.09098 7.83508 5.39576 9.02779C3.96091 11.4597 5.03099 15.0335 6.40571 16.9992C7.09334 17.9619 7.89687 19.0368 8.94867 18.999C9.97763 18.9575 10.3619 18.3568 11.6037 18.3568C12.834 18.3568 13.1949 18.999 14.2675 18.9749C15.3719 18.9575 16.0672 18.0078 16.7308 17.0364C17.5254 15.933 17.8445 14.8463 17.8572 14.7905C17.8313 14.7818 15.7126 13.9902 15.6916 11.5955Z" fill="#2C2C35"/>
<path id="Vector_2" d="M13.5416 5.37972C14.1228 4.74361 14.5205 3.87821 14.4101 3C13.5688 3.03259 12.5167 3.50924 11.9109 4.13138C11.3748 4.67959 10.896 5.57818 11.0197 6.42322C11.9647 6.48491 12.935 6.00593 13.5416 5.37972Z" fill="#2C2C35"/>
</g>
</svg>
