<svg width="32" height="32" viewBox="0 0 32 32" fill="none" xmlns="http://www.w3.org/2000/svg">
<g id="apple">
<path id="Vector" d="M25.3833 17.1909C25.3466 13.195 28.7253 11.2509 28.8798 11.1604C26.9663 8.42911 24.0004 8.05592 22.9581 8.02616C20.4671 7.76952 18.0508 9.48543 16.7818 9.48543C15.4876 9.48543 13.5335 8.05096 11.4275 8.09312C8.71738 8.13403 6.18195 9.67016 4.79152 12.0556C1.92181 16.9194 4.06199 24.0669 6.81142 27.9984C8.18667 29.9238 9.79374 32.0737 11.8973 31.9981C13.9553 31.915 14.7239 30.7136 17.2073 30.7136C19.668 30.7136 20.3899 31.9981 22.5351 31.9497C24.7438 31.915 26.1343 30.0156 27.4615 28.0728C29.0508 25.8659 29.6891 23.6925 29.7144 23.5809C29.6625 23.5636 25.4251 21.9803 25.3833 17.1909Z" fill="#5C75C9"/>
<path id="Vector_2" d="M21.0832 4.75944C22.2457 3.48722 23.041 1.75643 22.8203 0C21.1376 0.0651822 19.0335 1.01847 17.8217 2.26275C16.7496 3.35919 15.792 5.15635 16.0394 6.84643C17.9294 6.96981 19.87 6.01187 21.0832 4.75944Z" fill="#5C75C9"/>
</g>
</svg>
