<svg width="24" height="24" viewBox="0 0 24 24" fill="none" xmlns="http://www.w3.org/2000/svg">
<g id="icon:question">
<path id="Vector" d="M17.2681 8H16.9166V10.7319C16.9166 12.756 15.2699 14.4027 13.2459 14.4027H8V14.7542C8 16.2606 9.22557 17.486 10.7319 17.486H16.3439L19.2301 19.8912C19.3161 19.9628 19.4229 20 19.5307 20C19.7888 20 20 19.7906 20 19.5306V10.7319C20 9.22325 18.7794 8 17.2681 8Z" fill="#2C2C35"/>
<path id="Vector_2" d="M16 10.3169V5.95959C16 4.32227 14.6749 3 13.0404 3H5.95959C4.32227 3 3 4.32505 3 5.95959V15.4915C3 15.773 3.22883 16 3.50838 16C3.62518 16 3.74092 15.9597 3.83402 15.882L6.96073 13.2765H13.0404C14.6723 13.2765 16 11.949 16 10.3169ZM9.5 11.0979C9.21926 11.0979 8.99148 10.8701 8.99148 10.5893C8.99148 10.3086 9.21926 10.0808 9.5 10.0808C9.78061 10.0808 10.0085 10.3086 10.0085 10.5893C10.0085 10.8701 9.78061 11.0979 9.5 11.0979ZM10.0085 8.84886V8.95533C10.0085 9.23607 9.78074 9.46385 9.5 9.46385C9.21912 9.46385 8.99148 9.23607 8.99148 8.95533V8.41066C8.99148 8.12979 9.21912 7.90215 9.5 7.90215C9.97038 7.90215 10.3531 7.5193 10.3531 7.04893C10.3531 6.57842 9.97038 6.19571 9.5 6.19571C9.2717 6.19571 9.05756 6.28443 8.89653 6.44546C8.7355 6.60649 8.64678 6.82062 8.64678 7.04826C8.64678 7.32914 8.41914 7.55718 8.13826 7.55718C7.85739 7.55718 7.62975 7.32967 7.62975 7.04893C7.62975 6.54968 7.82428 6.07944 8.17733 5.72639C8.53051 5.37321 8.99996 5.17867 9.49934 5.17867C10.5312 5.17867 11.3701 6.01772 11.3701 7.04893C11.3701 7.904 10.7934 8.62691 10.0085 8.84886Z" fill="#2C2C35"/>
</g>
</svg>
