<svg width="150" height="150" viewBox="0 0 150 150" fill="none" xmlns="http://www.w3.org/2000/svg">
<g id="illustration">
<g clip-path="url(#clip0_1263_50140)">
<rect width="150" height="150" rx="75" fill="#E55D5D"/>
<g id="OBJECTS">
<g id="Group">
<g id="Group_2">
<g id="Group_3">
<path id="Vector" d="M100.213 58.7124C101.247 57.2519 101.991 55.5508 102.337 53.6749C103.609 46.7708 99.0456 40.142 92.1445 38.8691C90.4789 38.562 88.8297 38.5976 87.2676 38.9215C85.7891 36.0178 83.0258 33.81 79.575 33.1735C73.6897 32.0882 68.4284 36.2182 67.3435 42.1058L67.5524 42.5311C64.2669 43.3214 61.8246 46.2784 61.8246 49.8078C61.8246 51.2884 62.2561 52.6675 62.9976 53.8293C57.8252 54.4699 53.8203 58.879 53.8203 64.227C53.8203 70.0155 58.8348 72.7983 64.2969 74.7079C69.0528 76.3706 86.7621 81.6403 86.7621 81.6403C93.6635 82.9132 102.814 77.2547 104.087 70.3506C104.906 65.9038 103.302 61.5731 100.213 58.7124Z" fill="#453447"/>
</g>
<g id="Group_4">
<g id="Group_5">
<g id="Group_6">
<path id="Vector_2" d="M32.1155 62.4611C28.5334 60.726 24.2968 61.4522 24.2968 61.4522C24.2968 61.4522 18.0424 60.5439 17.7859 61.5361C17.2334 63.6738 22.103 65.6928 22.103 65.6928L32.1155 62.4611Z" fill="#F7888A"/>
</g>
<g id="Group_7">
<path id="Vector_3" d="M26.4083 67.7097C20.664 67.6459 17.4916 65.2586 17.0364 63.2142C16.8105 62.2003 17.6859 61.5011 18.29 62.6236C18.8077 63.586 20.3732 64.6854 20.5277 64.6695C19.7378 63.9972 18.7222 63.0123 18.4513 62.1946C17.9908 60.8047 18.1935 59.3479 19.1215 58.9655C19.4883 58.8143 19.7153 59.2362 19.7153 59.2362C19.7153 59.2362 19.8189 57.9945 20.6428 58.057C21.7559 58.1415 21.7706 59.682 21.7706 59.682C21.7706 59.682 21.5792 58.4227 22.6139 58.5082C23.3481 58.5689 23.5189 59.7521 23.8912 60.8759C24.3517 62.2657 27.5023 62.5637 28.0836 62.3277C28.6649 62.092 31.1568 61.4577 32.824 62.9602C35.9961 65.8189 40.0619 81.0636 40.0619 81.0636L30.8245 87.9006L26.4083 67.7097Z" fill="#FDB6B4"/>
</g>
<g id="Group_8">
<path id="Vector_4" d="M21.8957 64.0203C21.8768 64.0203 21.8575 64.0161 21.8394 64.0074C20.9125 63.5646 20.0553 62.6396 19.7198 61.9945C19.4003 61.3803 19.5818 59.3121 19.5896 59.2245C19.5962 59.1526 19.6589 59.0995 19.7316 59.106C19.8035 59.1126 19.8566 59.1761 19.8501 59.2481C19.7983 59.8246 19.7157 61.4203 19.9518 61.8739C20.2227 62.3945 21.0223 63.3273 21.9521 63.7718C22.0175 63.8029 22.045 63.8811 22.0138 63.9462C21.9911 63.9928 21.9446 64.0203 21.8957 64.0203Z" fill="#6E3530"/>
</g>
<g id="Group_9">
<path id="Vector_5" d="M24.0091 63.3935C23.9902 63.3935 23.9709 63.3893 23.9529 63.3807C23.0262 62.9378 22.169 62.0131 21.833 61.3677C21.5122 60.7511 21.6424 59.709 21.6481 59.6648C21.6575 59.5931 21.7229 59.5431 21.7946 59.5518C21.8662 59.5609 21.9167 59.6266 21.9075 59.6982C21.9062 59.7082 21.7823 60.7035 22.0649 61.2469C22.3358 61.7674 23.1357 62.7005 24.0656 63.1447C24.1309 63.1758 24.1584 63.2538 24.1273 63.3189C24.1048 63.366 24.058 63.3935 24.0091 63.3935Z" fill="#6E3530"/>
</g>
</g>
<g id="Group_10">
<path id="Vector_6" d="M108.419 83.9409C103.231 80.1551 92.6423 68.0704 85.6123 67.4473C83.9027 66.8682 80.6064 65.8485 76.7945 65.166C71.443 64.208 65.3219 64.3477 64.3199 64.3783C64.3146 64.3778 64.311 64.3765 64.3058 64.3757C55.8629 62.8964 42.636 85.0145 42.636 85.0145C42.636 85.0145 40.1626 74.7713 37.5779 72.2765C37.5779 72.2765 38.5943 70.1681 37.8386 69.7797C37.0829 69.3912 27.8028 71.593 26.3968 72.3268C25.0915 73.008 27.3622 75.271 27.3622 75.271C27.3622 75.271 28.4834 91.9728 35.2818 98.0522C43.1956 105.13 48.5118 99.6868 55.4482 89.9661C55.568 97.2946 57.0315 109.296 60.5911 109.719C66.9627 110.476 81.0659 110.537 87.8082 109.894C90.1059 109.674 92.3507 98.2609 93.0999 92.1828C100.387 98.189 109.269 102.085 112.293 100.46C115.929 98.5065 114.641 88.4816 108.419 83.9409Z" fill="#5C75C9"/>
</g>
<g id="Group_11">
<path id="Vector_7" d="M55.4526 90.0982C55.3909 90.0982 55.336 90.0543 55.3242 89.9915C53.7038 81.2823 58.1459 75.6147 58.1912 75.5587C58.2361 75.5022 58.3185 75.4936 58.375 75.5383C58.4312 75.5833 58.4404 75.6657 58.3954 75.7222C58.3512 75.7777 53.9839 81.3574 55.5816 89.9436C55.5946 90.0145 55.5478 90.083 55.477 90.0961C55.4686 90.0974 55.4605 90.0982 55.4526 90.0982Z" fill="#453447"/>
</g>
<g id="Group_12">
<path id="Vector_8" d="M93.1037 92.3143C93.0752 92.3143 93.0465 92.3051 93.0224 92.2858C91.7098 91.2399 91.0665 90.0785 91.0396 90.0298C91.0048 89.9665 91.0281 89.887 91.0914 89.8522C91.1546 89.8172 91.2341 89.8407 91.2689 89.904C91.2752 89.9155 91.9161 91.0699 93.1853 92.0812C93.2418 92.1262 93.251 92.2084 93.2062 92.2649C93.1804 92.2973 93.1422 92.3143 93.1037 92.3143Z" fill="#483C57"/>
</g>
<g id="Group_13">
<path id="Vector_9" d="M106.98 82.8027C106.98 82.8027 105.375 90.9775 106.524 93.2755C107.672 95.5736 108.914 84.2611 108.914 84.2611L106.98 82.8027Z" fill="#453447"/>
</g>
<g id="Group_14">
<path id="Vector_10" d="M42.6406 85.0142C42.6406 85.0142 44.1614 89.6841 44.2074 91.0439C44.2074 91.0439 45.08 85.6268 43.6534 83.3926L42.6406 85.0142Z" fill="#453447"/>
</g>
<g id="Group_15">
<path id="Vector_11" d="M27.8886 75.0506C27.851 75.0506 27.8138 75.0346 27.7879 75.0032C27.7419 74.9478 27.7495 74.8656 27.8047 74.8193C27.8183 74.8081 28.1498 74.5352 28.9714 74.1622C29.0373 74.1319 29.1147 74.1617 29.1445 74.2273C29.1743 74.293 29.1453 74.3707 29.0794 74.4005C28.2955 74.7565 27.9749 75.0181 27.9718 75.0207C27.9477 75.0409 27.9179 75.0506 27.8886 75.0506ZM30.2409 73.9333C30.1868 73.9333 30.1361 73.8993 30.1172 73.8452C30.0937 73.7769 30.1301 73.7026 30.1983 73.679C30.5908 73.5441 31.0139 73.4146 31.456 73.2942C31.5253 73.2751 31.5975 73.3165 31.6166 73.3861C31.6357 73.4559 31.5944 73.5276 31.5248 73.5467C31.0881 73.6657 30.6703 73.7934 30.2833 73.9265C30.2694 73.931 30.255 73.9333 30.2409 73.9333ZM32.7598 73.2411C32.6997 73.2411 32.6455 73.1993 32.6322 73.1383C32.6168 73.0677 32.6615 72.9979 32.7318 72.9827C33.1437 72.8927 33.5767 72.8074 34.0194 72.7295C34.0905 72.7167 34.1582 72.7643 34.1708 72.8354C34.1833 72.9066 34.136 72.9743 34.0649 72.9869C33.6258 73.0643 33.1962 73.1488 32.7878 73.238C32.7786 73.2401 32.769 73.2411 32.7598 73.2411ZM35.3333 72.7852C35.269 72.7852 35.2133 72.7378 35.2039 72.6727C35.194 72.601 35.2436 72.5351 35.315 72.5249C35.7365 72.4655 36.1743 72.4109 36.6159 72.3619C36.6897 72.3551 36.7521 72.4061 36.7603 72.4776C36.7681 72.5492 36.7166 72.6138 36.6447 72.622C36.2056 72.6706 35.7708 72.725 35.3519 72.7839C35.3454 72.7849 35.3393 72.7852 35.3333 72.7852Z" fill="#BB4765"/>
</g>
<g id="Group_16">
<g id="Group_17">
<path id="Vector_12" d="M67.4641 103.86L64.2891 104.564L64.4479 105.281L67.6229 104.576L67.4641 103.86Z" fill="white" fill-opacity="0.16"/>
</g>
<g id="Group_18">
<path id="Vector_13" d="M85.4797 83.8855L82.3047 84.5898L82.4635 85.3062L85.6385 84.6019L85.4797 83.8855Z" fill="white" fill-opacity="0.16"/>
</g>
<g id="Group_19">
<path id="Vector_14" d="M100.206 90.3327L97.0312 91.0371L97.19 91.7535L100.365 91.0491L100.206 90.3327Z" fill="white" fill-opacity="0.16"/>
</g>
<g id="Group_20">
<path id="Vector_15" d="M89.175 105.637L86 106.342L86.1588 107.058L89.3338 106.354L89.175 105.637Z" fill="white" fill-opacity="0.16"/>
</g>
<g id="Group_21">
<path id="Vector_16" d="M75.964 82.6578L75.2344 82.7324L75.5651 85.9689L76.2948 85.8943L75.964 82.6578Z" fill="white" fill-opacity="0.16"/>
</g>
<g id="Group_22">
<path id="Vector_17" d="M40.9093 86.2437L40.1797 86.3184L40.5104 89.5548L41.2401 89.4802L40.9093 86.2437Z" fill="white" fill-opacity="0.16"/>
</g>
<g id="Group_23">
<path id="Vector_18" d="M81.8186 74.9291L79.6875 77.3867L80.2416 77.8676L82.3726 75.4099L81.8186 74.9291Z" fill="white" fill-opacity="0.16"/>
</g>
<g id="Group_24">
<path id="Vector_19" d="M89.2824 72.5658L86.0312 72.6484L86.0499 73.382L89.301 73.2993L89.2824 72.5658Z" fill="white" fill-opacity="0.16"/>
</g>
<g id="Group_25">
<path id="Vector_20" d="M66.1953 90.3508L66.1328 93.6035L66.8661 93.6176L66.9286 90.3648L66.1953 90.3508Z" fill="white" fill-opacity="0.16"/>
</g>
<g id="Group_26">
<path id="Vector_21" d="M58.1374 98.8636L57.5469 99.2988L59.476 101.918L60.0665 101.483L58.1374 98.8636Z" fill="white" fill-opacity="0.16"/>
</g>
<g id="Group_27">
<path id="Vector_22" d="M31.9267 78.0951L31.7188 78.7988L34.8375 79.7212L35.0454 79.0175L31.9267 78.0951Z" fill="white" fill-opacity="0.16"/>
</g>
<g id="Group_28">
<path id="Vector_23" d="M75.1061 103.614L74.5156 104.049L76.4448 106.668L77.0353 106.233L75.1061 103.614Z" fill="white" fill-opacity="0.16"/>
</g>
<g id="Group_29">
<path id="Vector_24" d="M71.9171 96.629L69.3672 98.6484L69.8224 99.2238L72.3724 97.2044L71.9171 96.629Z" fill="white" fill-opacity="0.16"/>
</g>
<g id="Group_30">
<path id="Vector_25" d="M65.272 81.2463L64.75 81.7617L67.0343 84.0772L67.5563 83.5618L65.272 81.2463Z" fill="white" fill-opacity="0.16"/>
</g>
<g id="Group_31">
<path id="Vector_26" d="M51.0904 83.3907L47.9062 84.0527L48.0555 84.7712L51.2396 84.1091L51.0904 83.3907Z" fill="white" fill-opacity="0.16"/>
</g>
<g id="Group_32">
<path id="Vector_27" d="M72.6487 72.2052L69.5078 73.0488L69.698 73.7575L72.8389 72.9139L72.6487 72.2052Z" fill="white" fill-opacity="0.16"/>
</g>
<g id="Group_33">
<path id="Vector_28" d="M91.6861 79.637L91.1641 80.1523L93.4483 82.4681L93.9704 81.9527L91.6861 79.637Z" fill="white" fill-opacity="0.16"/>
</g>
<g id="Group_34">
<path id="Vector_29" d="M55.8345 68.1526L55.3125 68.668L57.2056 70.5869L57.7276 70.0715L55.8345 68.1526Z" fill="white" fill-opacity="0.16"/>
</g>
<g id="Group_35">
<path id="Vector_30" d="M88.7739 93.0474L88.0547 93.1914L88.6927 96.3817L89.412 96.2377L88.7739 93.0474Z" fill="white" fill-opacity="0.16"/>
</g>
<g id="Group_36">
<path id="Vector_31" d="M103.68 82.9361L102.961 83.0801L103.599 86.2704L104.318 86.1264L103.68 82.9361Z" fill="white" fill-opacity="0.16"/>
</g>
<g id="Group_37">
<path id="Vector_32" d="M73.2573 91.715L73.2109 92.4473L76.4565 92.6529L76.5029 91.9206L73.2573 91.715Z" fill="white" fill-opacity="0.16"/>
</g>
<g id="Group_38">
<path id="Vector_33" d="M33.5339 88.1119L31.2031 90.3809L31.7146 90.9067L34.0454 88.6378L33.5339 88.1119Z" fill="white" fill-opacity="0.16"/>
</g>
<g id="Group_39">
<path id="Vector_34" d="M61.2196 85.2593L58.3281 86.748L58.6638 87.4004L61.5552 85.9117L61.2196 85.2593Z" fill="white" fill-opacity="0.16"/>
</g>
<g id="Group_40">
<path id="Vector_35" d="M40.7693 97.3082L40.6562 98.0332L43.8693 98.5349L43.9824 97.8099L40.7693 97.3082Z" fill="white" fill-opacity="0.16"/>
</g>
<g id="Group_41">
<path id="Vector_36" d="M61.3998 96.1696L60.8047 95.6525L61.5416 93.5684L62.2329 93.8129L61.3998 96.1696Z" fill="white" fill-opacity="0.16"/>
</g>
<g id="Group_42">
<path id="Vector_37" d="M59.2277 77.2213L57.7266 80.1074L58.3772 80.4461L59.8784 77.56L59.2277 77.2213Z" fill="white" fill-opacity="0.16"/>
</g>
<g id="Group_43">
<path id="Vector_38" d="M83.6805 98.3893L82.1797 101.275L82.8303 101.614L84.3312 98.7279L83.6805 98.3893Z" fill="white" fill-opacity="0.16"/>
</g>
<g id="Group_44">
<path id="Vector_39" d="M50.6102 91.0768L49.1094 93.9629L49.76 94.3015L51.2609 91.4154L50.6102 91.0768Z" fill="white" fill-opacity="0.16"/>
</g>
<g id="Group_45">
<path id="Vector_40" d="M56.9646 93.3926L57.0229 94.1541L55.6854 94.7076L55.625 93.8927L56.9646 93.3926Z" fill="white" fill-opacity="0.16"/>
</g>
</g>
</g>
<g id="Group_46">
<g id="Group_47">
<path id="Vector_41" d="M63.9014 49.9692C63.6828 50.8304 64.2037 51.7059 65.0645 51.9243C65.9253 52.143 66.8005 51.6219 67.0191 50.7608C67.2377 49.8996 66.7168 49.0241 65.856 48.8056C64.9949 48.5872 64.12 49.1078 63.9014 49.9692Z" fill="#EFC53D"/>
</g>
<g id="Group_48">
<path id="Vector_42" d="M80.4328 65.9436L80.8201 54.2832L71.8104 56.3409L70.6465 64.4816C70.6465 64.4816 68.8873 64.4005 66.5234 64.3547C71.5254 71.2518 81.5272 69.4249 83.9995 66.9267C82.7533 66.4919 80.4328 65.9436 80.4328 65.9436Z" fill="#FDB6B4"/>
</g>
<g id="Group_49">
<path id="Vector_43" d="M78.6417 57.6002C78.6417 57.6002 75.5172 63.0122 71.1797 60.7581L71.8148 56.3398L78.6417 57.6002Z" fill="#F7888A"/>
</g>
<g id="Group_50">
<path id="Vector_44" d="M86.4425 49.4205C86.7434 43.5244 82.2096 38.5006 76.316 38.1995C70.4223 37.8984 65.4006 42.434 65.0996 48.3301C64.7987 54.2262 69.3324 59.2499 75.2261 59.551C81.1197 59.8521 86.1415 55.3165 86.4425 49.4205Z" fill="#FDB6B4"/>
</g>
<g id="Group_51">
<path id="Vector_45" d="M77.175 47.2609C77.0586 47.7192 77.3358 48.1851 77.7939 48.3012C78.252 48.4176 78.7177 48.1404 78.8338 47.682C78.9502 47.2237 78.673 46.7578 78.2149 46.6417C77.757 46.5255 77.2913 46.8026 77.175 47.2609Z" fill="#090929"/>
</g>
<g id="Group_52">
<path id="Vector_46" d="M72.9482 50.0572C72.9375 50.0572 72.9268 50.0559 72.9158 50.053C72.3887 49.9191 72.0686 49.3813 72.2022 48.8536C72.3364 48.3263 72.874 48.0061 73.4014 48.1397C73.4715 48.1575 73.5138 48.2287 73.4961 48.2988C73.4783 48.3686 73.4064 48.4102 73.3371 48.3935C72.9509 48.2949 72.5544 48.5306 72.4559 48.918C72.3575 49.3057 72.5926 49.7012 72.9801 49.7995C73.0502 49.8173 73.0926 49.8885 73.0748 49.9586C73.0599 50.0177 73.0066 50.0572 72.9482 50.0572Z" fill="#6E3530"/>
</g>
<g id="Group_53">
<path id="Vector_47" d="M68.9172 45.1673C68.8008 45.6256 69.078 46.0912 69.5361 46.2076C69.9942 46.324 70.4599 46.0467 70.576 45.5884C70.6924 45.1301 70.4152 44.6642 69.9571 44.5478C69.4992 44.4319 69.0335 44.7092 68.9172 45.1673Z" fill="#090929"/>
</g>
<g id="Group_54">
<path id="Vector_48" d="M71.701 55.0429C71.6707 55.0429 71.6404 55.0327 71.6158 55.0112C71.5611 54.9641 71.5549 54.8817 71.6017 54.8268C71.621 54.8043 73.5667 52.5993 77.1988 53.9703C77.2665 53.996 77.3005 54.0713 77.2751 54.1388C77.2495 54.2066 77.1742 54.2406 77.1067 54.2149C73.652 52.9109 71.8741 54.9113 71.8001 54.9971C71.7743 55.0274 71.7377 55.0429 71.701 55.0429Z" fill="#6E3530"/>
</g>
<g id="Group_55">
<path id="Vector_49" d="M78.3906 38.5137C78.3906 38.5137 79.3246 48.1164 86.4229 49.6106C86.4229 49.6106 89.299 40.3511 78.3906 38.5137Z" fill="#453447"/>
</g>
<g id="Group_56">
<path id="Vector_50" d="M78.3929 38.5128C78.3929 38.5128 73.6676 43.9832 67.7031 41.5428C67.7031 41.5428 71.2698 35.3654 78.3929 38.5128Z" fill="#453447"/>
</g>
<g id="Group_57">
<g id="Group_58">
<path id="Vector_51" d="M74.8599 46.6053C74.7185 46.6053 74.5822 46.5286 74.5121 46.395C74.4575 46.2927 74.2643 46.0178 74.0263 45.9667C73.9743 45.9555 73.8145 45.9215 73.546 46.1289C73.3747 46.2613 73.1284 46.2296 72.9958 46.058C72.8635 45.8864 72.8951 45.64 73.0667 45.5077C73.53 45.1498 73.9379 45.143 74.1981 45.2011C74.834 45.3418 75.1716 45.9623 75.208 46.0324C75.3076 46.2247 75.2325 46.4617 75.0401 46.5613C74.9823 46.5912 74.9206 46.6053 74.8599 46.6053Z" fill="white"/>
</g>
<g id="Group_59">
<path id="Vector_52" d="M85.2419 50.7183C85.1788 50.7183 85.115 50.7028 85.0557 50.6709L81.1198 48.5402C80.9292 48.4369 80.8583 48.1989 80.9614 48.0084C81.0644 47.818 81.3021 47.7468 81.493 47.8502L85.4288 49.9806C85.6194 50.0839 85.6903 50.3219 85.587 50.5124C85.5162 50.6434 85.3812 50.7183 85.2419 50.7183Z" fill="white"/>
</g>
<g id="Group_60">
<path id="Vector_53" d="M78.0104 51.2261C77.7057 51.2261 77.3964 51.1887 77.0879 51.1105C76.1167 50.8638 75.2996 50.2535 74.7871 49.3921C74.2745 48.5307 74.1281 47.5209 74.3747 46.5491C74.8838 44.5432 76.9286 43.3253 78.9342 43.8346C80.939 44.3439 82.1562 46.3901 81.6474 48.396C81.2164 50.0932 79.6857 51.2261 78.0104 51.2261ZM78.0112 44.504C76.686 44.504 75.4753 45.4 75.1348 46.7424C74.9398 47.511 75.0556 48.3094 75.4609 48.9908C75.8662 49.672 76.5123 50.1549 77.2806 50.3498C78.8662 50.7526 80.4843 49.7895 80.8867 48.2029C81.2894 46.6166 80.3266 44.9982 78.7407 44.5956C78.497 44.5336 78.252 44.504 78.0112 44.504Z" fill="white"/>
</g>
<g id="Group_61">
<path id="Vector_54" d="M69.7592 49.1319C69.4546 49.1319 69.1453 49.0945 68.8367 49.0163C66.8316 48.507 65.6147 46.4606 66.1235 44.455C66.6324 42.4491 68.6775 41.2319 70.683 41.7407C72.6881 42.25 73.9053 44.2959 73.3962 46.302C72.9653 47.9987 71.4345 49.1319 69.7592 49.1319ZM69.76 42.4096C68.4348 42.4096 67.2241 43.3055 66.8837 44.648C66.481 46.2343 67.4438 47.8528 69.0294 48.2556C70.6148 48.6585 72.2329 47.6953 72.6353 46.1087C73.038 44.5222 72.0752 42.904 70.4895 42.5011C70.2458 42.4391 70.0008 42.4096 69.76 42.4096Z" fill="white"/>
</g>
</g>
<g id="Group_62">
<path id="Vector_55" d="M84.1562 54.3877C84.1562 54.3877 84.5989 55.6721 87.2266 55.8903C92.1268 56.2965 91.9647 50.1873 89.3457 49.1208C86.7266 48.054 84.1858 51.4241 84.1858 51.4241L84.1562 54.3877Z" fill="#FDB6B4"/>
</g>
<g id="Group_63">
<path id="Vector_56" d="M85.8183 52.7908C85.7702 52.7908 85.7239 52.7641 85.7012 52.7181C85.669 52.6535 85.6954 52.575 85.7603 52.5428L88.6696 51.0978C88.7344 51.0654 88.8126 51.092 88.8448 51.1569C88.8769 51.2215 88.8505 51.3 88.7857 51.3322L85.8764 52.7775C85.8578 52.7864 85.838 52.7908 85.8183 52.7908Z" fill="#6E3530"/>
</g>
<g id="Group_64">
<path id="Vector_57" d="M85.667 55.4966C85.4484 56.3578 85.9693 57.2333 86.8301 57.4518C87.6909 57.6705 88.5661 57.1494 88.7844 56.2882C89.003 55.4271 88.4822 54.5515 87.6214 54.3331C86.7608 54.1144 85.8856 54.6352 85.667 55.4966Z" fill="#EFC53D"/>
</g>
<g id="Group_65">
<g id="Group_66">
<path id="Vector_58" d="M74.7713 38.9844C74.623 39.6412 74.0906 41.0423 73.7253 41.3826C73.4257 41.6618 69.9461 42.5216 68.1656 41.3248C66.3852 40.1281 66.1486 39.2148 66.1486 39.2148C66.1242 39.0262 69.9432 39.7472 74.7713 38.9844Z" fill="#282029"/>
</g>
<g id="Group_67">
<path id="Vector_59" d="M78.2109 40.7591C78.7132 40.3108 79.9605 39.4802 80.4553 39.4156C80.8613 39.3627 84.1924 40.6859 84.946 42.6952C85.6996 44.7044 85.3618 45.585 85.3618 45.585C85.2721 45.7526 82.5832 42.9455 78.2109 40.7591Z" fill="#282029"/>
</g>
</g>
</g>
<g id="Group_68">
<g id="Group_69">
<path id="Vector_60" d="M101.24 149.991C100.594 141.001 100.809 125.934 86.3796 113.121C86.3796 113.121 90.2543 111.275 89.0423 109.892C87.8826 108.569 81.233 109.912 73.9397 109.892C67.6207 109.876 60.6043 108.233 58.8803 110.334C57.7698 111.687 60.7437 113.121 60.7437 113.121C51.4314 119.999 44.5201 141.1 43.0391 149.991L71.105 149.997L73.6714 138.944L73.3647 150L101.24 149.991Z" fill="#FFD65A"/>
</g>
<g id="Group_70">
<path id="Vector_61" d="M96.6461 127.586C95.4718 127.586 91.8037 126.247 83.8475 113.268C83.8096 113.207 83.8292 113.126 83.8906 113.088C83.9521 113.049 84.0326 113.07 84.0705 113.131C93.6725 128.795 96.9206 127.288 96.9531 127.271C97.0156 127.237 97.0951 127.26 97.1301 127.321C97.1651 127.383 97.1453 127.461 97.0838 127.498C97.0582 127.513 96.9196 127.586 96.6461 127.586Z" fill="white"/>
</g>
<g id="Group_71">
<path id="Vector_62" d="M52.1671 128.305C50.9212 128.305 50.1574 127.914 50.1087 127.888C50.0449 127.854 50.0206 127.775 50.0541 127.712C50.0875 127.648 50.167 127.623 50.2306 127.657C50.2478 127.666 51.9956 128.554 54.514 127.585C57.2093 126.548 61.2012 123.202 64.9124 113.154C64.9375 113.086 65.0128 113.051 65.0805 113.077C65.1483 113.102 65.183 113.177 65.1579 113.245C61.409 123.394 57.3456 126.78 54.5971 127.834C53.6691 128.189 52.8465 128.305 52.1671 128.305Z" fill="white"/>
</g>
<g id="Group_72">
<path id="Vector_63" d="M74.5559 126.792C74.5515 126.792 74.5473 126.791 74.5429 126.791C73.7192 126.708 73.0412 126.311 72.5279 125.609C70.1572 122.369 71.9487 113.688 72.0261 113.32C72.041 113.249 72.11 113.205 72.1809 113.219C72.2515 113.234 72.2967 113.303 72.2818 113.374C72.263 113.463 70.4368 122.308 72.7389 125.454C73.1805 126.058 73.7537 126.414 74.4445 126.515L76.3447 113.102C76.3549 113.031 76.4214 112.983 76.4928 112.991C76.5641 113.001 76.6138 113.067 76.6039 113.139L74.6856 126.679C74.6762 126.744 74.6203 126.792 74.5559 126.792Z" fill="white"/>
</g>
<g id="Group_73">
<path id="Vector_64" d="M85.7884 113.252H61.4667C61.3945 113.252 61.3359 113.193 61.3359 113.121C61.3359 113.049 61.3945 112.99 61.4667 112.99H85.7884C85.8606 112.99 85.9191 113.049 85.9191 113.121C85.9191 113.193 85.8608 113.252 85.7884 113.252Z" fill="white"/>
</g>
<g id="Group_74">
<path id="Vector_65" d="M73.678 139.076C73.6638 139.076 73.6497 139.073 73.6359 139.069L71.4012 138.311C71.333 138.288 71.2964 138.214 71.3194 138.145C71.3426 138.077 71.4166 138.041 71.4852 138.063L73.6819 138.808L76.4406 138.061C76.5104 138.043 76.5823 138.084 76.6008 138.153C76.6197 138.223 76.5786 138.295 76.5088 138.314L73.7117 139.071C73.701 139.074 73.6895 139.076 73.678 139.076Z" fill="white"/>
</g>
</g>
<g id="Group_75">
<g id="Group_76">
<g id="Group_77">
<path id="Vector_66" d="M116.102 68.3328C119.427 66.1459 123.722 66.3136 123.722 66.3136C123.722 66.3136 129.805 64.5984 130.189 65.5485C131.015 67.5959 126.45 70.232 126.45 70.232L116.102 68.3328Z" fill="#F7888A"/>
</g>
<g id="Group_78">
<path id="Vector_67" d="M122.422 72.7931C128.109 71.9814 130.943 69.2012 131.129 67.1147C131.221 66.0799 130.262 65.5007 129.809 66.6925C129.421 67.7143 128.012 69.0084 127.857 69.0126C128.552 68.2432 129.431 67.1343 129.593 66.2881C129.869 64.8501 129.478 63.432 128.508 63.1739C128.125 63.0718 127.955 63.5197 127.955 63.5197C127.955 63.5197 127.69 62.302 126.881 62.4712C125.789 62.7001 125.975 64.2291 125.975 64.2291C125.975 64.2291 126.001 62.9557 124.986 63.1754C124.266 63.3313 124.25 64.5268 124.027 65.6896C123.752 67.1275 120.667 67.8333 120.06 67.6753C119.453 67.5173 116.9 67.2131 115.442 68.9202C112.669 72.1679 108.656 89.3678 108.656 89.3678L118.531 91.98L122.422 72.7931Z" fill="#FDB6B4"/>
</g>
<g id="Group_79">
<path id="Vector_68" d="M126.404 68.5474C126.362 68.5474 126.32 68.5264 126.295 68.488C126.255 68.4273 126.272 68.3465 126.333 68.307C127.197 67.7453 127.868 66.716 128.069 66.1648C128.244 65.6842 127.955 64.1129 127.828 63.5481C127.813 63.4775 127.857 63.4076 127.927 63.3919C127.999 63.376 128.068 63.4204 128.084 63.4908C128.103 63.5769 128.552 65.6037 128.315 66.2542C128.066 66.9378 127.337 67.9664 126.476 68.5264C126.454 68.5406 126.429 68.5474 126.404 68.5474Z" fill="#6E3530"/>
</g>
<g id="Group_80">
<path id="Vector_69" d="M124.225 68.2009C124.182 68.2009 124.14 68.1799 124.115 68.1412C124.076 68.0808 124.093 67.9997 124.153 67.9602C125.017 67.3986 125.689 66.3692 125.89 65.8178C126.099 65.2423 125.847 64.2715 125.844 64.2618C125.826 64.192 125.867 64.1206 125.937 64.102C126.007 64.0837 126.079 64.125 126.097 64.1949C126.108 64.238 126.373 65.2543 126.135 65.9072C125.886 66.5908 125.157 67.6196 124.296 68.1797C124.274 68.1941 124.249 68.2009 124.225 68.2009Z" fill="#6E3530"/>
</g>
</g>
<g id="Group_81">
<path id="Vector_70" d="M122.643 79.217C122.643 79.217 118.68 100.699 110.878 101.051C98.7612 101.599 112.639 75.1362 112.639 75.1362C112.639 75.1362 111.675 73.1887 112.151 72.8502C114.095 71.4682 121.894 74.9842 124.141 77.1073C124.784 77.7155 122.643 79.217 122.643 79.217Z" fill="#5C75C9"/>
</g>
<g id="Group_82">
<g id="Group_83">
<path id="Vector_71" d="M113.801 75.4304C113.794 75.4304 113.787 75.4299 113.78 75.4288C113.379 75.3642 113.144 75.3415 113.142 75.3412C113.07 75.3344 113.017 75.2706 113.024 75.1986C113.031 75.1267 113.094 75.0726 113.167 75.0809C113.177 75.0817 113.412 75.1045 113.822 75.1707C113.893 75.1822 113.942 75.2494 113.93 75.3206C113.92 75.3849 113.864 75.4304 113.801 75.4304Z" fill="#453447"/>
</g>
<g id="Group_84">
<path id="Vector_72" d="M120.779 77.9459C120.756 77.9459 120.732 77.9399 120.711 77.9268C120.367 77.7167 120.004 77.5143 119.634 77.3249C119.57 77.2919 119.544 77.2132 119.577 77.1488C119.61 77.0847 119.689 77.0594 119.753 77.0918C120.129 77.2841 120.497 77.4897 120.847 77.7034C120.909 77.7411 120.928 77.8216 120.891 77.8831C120.866 77.9237 120.823 77.9459 120.779 77.9459ZM118.568 76.8122C118.551 76.8122 118.533 76.8088 118.517 76.8017C118.145 76.6426 117.758 76.4917 117.366 76.3528C117.298 76.3287 117.262 76.2539 117.286 76.1859C117.31 76.1176 117.385 76.0823 117.453 76.1064C117.85 76.2471 118.243 76.4001 118.619 76.5613C118.686 76.5895 118.717 76.6664 118.688 76.7329C118.667 76.7823 118.618 76.8122 118.568 76.8122ZM116.225 75.9795C116.213 75.9795 116.201 75.9779 116.189 75.9743C115.794 75.8597 115.391 75.7558 114.992 75.6648C114.922 75.6489 114.878 75.5788 114.894 75.5084C114.91 75.4378 114.98 75.393 115.05 75.4098C115.454 75.5016 115.861 75.6067 116.262 75.7226C116.331 75.7428 116.371 75.8152 116.351 75.8848C116.335 75.9424 116.282 75.9795 116.225 75.9795Z" fill="#453447"/>
</g>
<g id="Group_85">
<path id="Vector_73" d="M122.336 79.0374C122.307 79.0374 122.278 79.028 122.254 79.0083C122.085 78.8718 121.914 78.7402 121.741 78.6133C121.683 78.5707 121.67 78.4888 121.713 78.4305C121.755 78.3721 121.837 78.3596 121.896 78.4022C122.072 78.5315 122.246 78.6654 122.419 78.8046C122.475 78.8501 122.484 78.9322 122.438 78.9885C122.412 79.0209 122.374 79.0374 122.336 79.0374Z" fill="#453447"/>
</g>
</g>
<g id="Group_86">
<g id="Group_87">
<path id="Vector_74" d="M117.722 81.8875L118.289 81.4219L116.225 78.9073L115.658 79.373L117.722 81.8875Z" fill="white" fill-opacity="0.19"/>
</g>
<g id="Group_88">
<path id="Vector_75" d="M114.782 90.069L114.477 90.7363L117.429 92.0896L117.734 91.4223L114.782 90.069Z" fill="white" fill-opacity="0.19"/>
</g>
<g id="Group_89">
<path id="Vector_76" d="M111.897 84.1093L111.273 83.7227L109.563 86.4842L110.187 86.8708L111.897 84.1093Z" fill="white" fill-opacity="0.19"/>
</g>
<g id="Group_90">
<path id="Vector_77" d="M108.438 97.2506L108.68 97.9434L111.75 96.8707L111.508 96.178L108.438 97.2506Z" fill="white" fill-opacity="0.19"/>
</g>
</g>
</g>
<path id="Vector_78" d="M84.4113 66.2862C84.2061 66.2174 83.9838 66.3281 83.9148 66.5334C83.8795 66.6383 80.5748 76.2832 74.352 77.4983C74.1368 76.8589 73.5339 76.3977 72.8221 76.3977C72.1618 76.3977 71.5952 76.7943 71.3447 77.362C65.7759 75.5099 66.0279 64.4349 66.0316 64.3141C66.0379 64.0975 65.8677 63.9167 65.6511 63.9104C65.4386 63.9023 65.2542 64.0744 65.2474 64.291C65.232 64.8161 64.9723 76.286 71.214 78.1522C71.2843 78.9799 71.977 79.63 72.8224 79.63C73.6207 79.63 74.282 79.05 74.4127 78.2888C81.1289 77.0823 84.5078 67.2332 84.6587 66.7832C84.7272 66.5774 84.6166 66.355 84.4113 66.2862Z" fill="#EFC53D"/>
</g>
<g id="Group_91">
<g id="Group_92">
<path id="Vector_79" d="M110.449 56.9548C111.982 56.5292 114.486 58.9816 114.596 60.5009C114.553 61.8811 111.898 64.9924 110.169 64.0099C108.498 63.0598 105.904 60.5671 108.272 58.6475C109.036 57.8991 109.466 57.2595 110.449 56.9548ZM114.876 52.5969C116.941 50.1822 119.139 51.9176 121.479 52.4167C123.707 52.6226 125.083 49.7121 123.153 48.221C121.202 46.1976 120.444 47.6115 118.562 47.9545C116.445 47.8668 114.85 43.1059 117.279 42.534C122.348 39.4656 129.618 44.125 129.475 49.9023C129.794 55.5704 123.472 59.4671 118.749 56.7494C117.638 58.2039 116.269 57.6247 115.127 56.3827C113.711 55.1966 113.41 53.7958 114.876 52.5969Z" fill="white"/>
</g>
<g id="Group_93">
<path id="Vector_80" d="M38.4457 40.0928C38.3683 41.6822 35.2546 43.2899 33.7777 42.9177C32.4816 42.4426 30.3627 38.9446 31.8383 37.6108C33.2647 36.3219 36.4449 34.642 37.523 37.4933C37.9934 38.4544 38.4656 39.0631 38.4457 40.0928ZM41.1905 45.6665C42.8335 48.3862 40.4963 49.9286 39.2877 51.9944C38.3927 54.0455 40.7225 56.2664 42.7435 54.9022C45.2765 53.685 44.173 52.5204 44.4387 50.6249C44.8605 48.9167 49.1491 48.782 49.6809 50.0709C52.0971 56.0548 44.9912 62.4991 39.1622 60.3781C33.6825 58.9014 31.9706 51.6729 36.0333 48.0402C35.002 46.5287 35.9815 45.4104 37.5188 44.7159C39.0898 43.7433 40.5136 43.8976 41.1905 45.6665Z" fill="white"/>
</g>
</g>
</g>
</g>
</g>
</g>
<defs>
<clipPath id="clip0_1263_50140">
<rect width="150" height="150" rx="75" fill="white"/>
</clipPath>
</defs>
</svg>
