<svg width="165" height="30" viewBox="0 0 165 30" fill="none" xmlns="http://www.w3.org/2000/svg">
<path fill-rule="evenodd" clip-rule="evenodd" d="M12.882 0.587322C11.5842 0.728454 9.63305 1.32273 8.22318 2.00627C5.30463 3.42125 3.01158 5.71049 1.57559 8.64314C0.910836 10.0009 0.137168 12.3501 0.298317 12.5222C0.331616 12.5578 0.650402 12.3657 1.00692 12.0953C1.89148 11.4247 3.90393 10.4565 5.01548 10.1669C7.59814 9.49389 10.6719 9.82742 13.0946 11.0431L13.6893 11.3416L13.0746 11.9554L12.4601 12.5694L11.4873 12.1829C8.90612 11.1576 6.16964 11.2555 3.64075 12.4641C2.53455 12.9927 1.14775 14.0632 0.418835 14.9512L0 15.4613L0.184521 16.8584C0.596023 19.9752 1.97182 22.8009 4.17536 25.0553C6.34729 27.2774 8.76406 28.6096 11.6951 29.2005L13.1814 29.5L13.7783 29.0279C15.5308 27.6415 16.8502 25.6312 17.3939 23.5192C17.7169 22.264 17.6361 19.5449 17.2419 18.4079C16.7285 16.9269 16.0358 15.7232 15.1269 14.7326L14.2078 13.7306L16.4312 11.492L18.6545 9.25344L18.7249 8.44738C18.8072 7.5037 19.2189 6.96893 20.052 6.72267C21.1825 6.38869 22.5051 7.31543 22.5051 8.44174C22.5051 9.6007 21.7208 10.418 20.5619 10.4669C19.9273 10.4936 19.8065 10.5807 18.2363 12.1443L16.5799 13.7936L17.1094 14.4866C17.8168 15.4121 18.4278 16.6475 18.863 18.0318C19.1645 18.9912 19.221 19.4956 19.221 21.2306C19.221 22.9631 19.1642 23.4722 18.8633 24.4347C18.3968 25.927 17.6321 27.3697 16.6866 28.542L15.9253 29.4857L16.504 29.3892C19.9125 28.8215 22.5699 27.4732 24.8776 25.1408C26.7688 23.2293 28.0425 20.9405 28.7213 18.2345C29.1281 16.6123 29.0823 13.1583 28.6314 11.4658C26.7459 4.38843 20.1054 -0.198287 12.882 0.587322ZM7.2734 15.1842C8.06555 15.5214 8.4879 16.09 8.55908 16.9153C8.66936 18.1936 7.82222 19.12 6.54296 19.12C4.28366 19.12 3.6994 16.1137 5.77922 15.1904C6.36944 14.9283 6.66943 14.9271 7.2734 15.1842ZM13.5886 21.2548C15.2554 22.9199 13.2843 25.5866 11.1874 24.5035C10.243 24.0157 9.85361 22.6695 10.3691 21.674C10.9809 20.4923 12.6124 20.2799 13.5886 21.2548Z" fill="#5C75C9"/>
<path d="M150.453 7.5625C152.057 5.98958 154.099 5.20312 156.578 5.20312C159.047 5.20312 161.068 5.98438 162.641 7.54688C164.214 9.11979 165 11.1562 165 13.6562C165 13.7292 164.974 14.1458 164.922 14.9062H151.203C151.484 16.25 152.188 17.3125 153.312 18.0938C154.417 18.8854 155.844 19.2812 157.594 19.2812C159.833 19.2812 161.672 18.75 163.109 17.6875L163.688 20.375C162.125 21.5312 160.094 22.1094 157.594 22.1094C154.667 22.1094 152.344 21.3281 150.625 19.7656C148.896 18.224 148.031 16.1875 148.031 13.6562C148.031 11.1771 148.839 9.14583 150.453 7.5625ZM151.203 12.1875H161.953C161.839 10.9792 161.276 9.97917 160.266 9.1875C159.224 8.38542 157.995 7.98438 156.578 7.98438C155.224 7.98438 154.068 8.36458 153.109 9.125C152.13 9.89583 151.495 10.9167 151.203 12.1875Z" fill="#2C2C35"/>
<path d="M137.609 22.0781C134.953 22.0781 132.896 20.9688 131.438 18.75H131.344V28.7969H128.359V5.59375H130.094L131.047 9.01562H131.156C131.812 7.81771 132.708 6.88021 133.844 6.20312C134.979 5.51562 136.234 5.17188 137.609 5.17188C139.766 5.17188 141.573 5.96354 143.031 7.54688C144.479 9.14062 145.214 11.1667 145.234 13.625C145.234 16.0938 144.51 18.1146 143.062 19.6875C141.604 21.2812 139.786 22.0781 137.609 22.0781ZM140.625 9.5625C139.573 8.51042 138.281 7.98438 136.75 7.98438C135.219 7.98438 133.938 8.51042 132.906 9.5625C131.865 10.6146 131.344 11.9688 131.344 13.625C131.344 15.2604 131.87 16.6146 132.922 17.6875C133.964 18.75 135.25 19.2812 136.781 19.2812C138.302 19.2812 139.583 18.75 140.625 17.6875C141.667 16.6354 142.188 15.2812 142.188 13.625C142.188 11.9688 141.667 10.6146 140.625 9.5625Z" fill="#2C2C35"/>
<path d="M118.297 17.9375L123.125 5.59375H126.141L119.312 23.0625C118.385 25.4062 117.391 27.0052 116.328 27.8594C115.255 28.7135 113.714 29.1406 111.703 29.1406C110.984 29.1406 110.312 29.0573 109.688 28.8906V26.1094C110.365 26.3177 111.099 26.4219 111.891 26.4219C113.078 26.4219 114.021 26.1198 114.719 25.5156C115.406 24.9219 116.01 23.901 116.531 22.4531L116.688 22L109.812 5.59375H112.984L118.203 17.9375H118.297Z" fill="#2C2C35"/>
<path d="M103.188 18.4531C103.729 19.0781 104.583 19.3906 105.75 19.3906C106.917 19.3906 107.938 19.1979 108.812 18.8125L109.172 21.5C109.141 21.5 108.964 21.5469 108.641 21.6406C108.276 21.7448 107.99 21.8177 107.781 21.8594C107.021 22.026 106.234 22.1094 105.422 22.1094C103.505 22.1094 102.016 21.5729 100.953 20.5C99.8802 19.4375 99.3438 17.9688 99.3438 16.0938V8.1875H95.4062V5.59375H99.4062L100.141 0.859375H102.359V5.59375H109.141V8.1875H102.359V15.5781C102.359 16.8802 102.635 17.8385 103.188 18.4531Z" fill="#2C2C35"/>
<path d="M84.8125 7.98438C83.3438 7.98438 82.1146 8.49479 81.125 9.51562C80.125 10.5469 79.625 11.8542 79.625 13.4375V21.6875H76.6094V5.59375H78.3438L79.2969 9.01562H79.4062C80.0417 7.81771 80.9167 6.88542 82.0312 6.21875C83.1562 5.54167 84.401 5.20312 85.7656 5.20312C87.8594 5.20312 89.5938 5.96354 90.9688 7.48438C92.3438 9.01562 93.0312 10.9635 93.0312 13.3281V21.6875H90.0625V13.4375C90.0625 11.8542 89.5625 10.5469 88.5625 9.51562C87.5417 8.49479 86.2917 7.98438 84.8125 7.98438Z" fill="#5C75C9"/>
<path d="M65.3906 22.0781C62.7344 22.0781 60.6771 20.9688 59.2188 18.75H59.125V28.7969H56.1406V5.59375H57.875L58.8281 9.01562H58.9375C59.5938 7.81771 60.4896 6.88021 61.625 6.20312C62.7604 5.51562 64.0156 5.17188 65.3906 5.17188C67.5469 5.17188 69.3542 5.96354 70.8125 7.54688C72.2604 9.14062 72.9948 11.1667 73.0156 13.625C73.0156 16.0938 72.2917 18.1146 70.8438 19.6875C69.3854 21.2812 67.5677 22.0781 65.3906 22.0781ZM68.4062 9.5625C67.3542 8.51042 66.0625 7.98438 64.5312 7.98438C63 7.98438 61.7188 8.51042 60.6875 9.5625C59.6458 10.6146 59.125 11.9688 59.125 13.625C59.125 15.2604 59.651 16.6146 60.7031 17.6875C61.7448 18.75 63.0312 19.2812 64.5625 19.2812C66.0833 19.2812 67.3646 18.75 68.4062 17.6875C69.4479 16.6354 69.9688 15.2812 69.9688 13.625C69.9688 11.9688 69.4479 10.6146 68.4062 9.5625Z" fill="#5C75C9"/>
<path d="M45.375 18.1719H45.5156L50.6875 5.59375H53.8906L47.1719 21.6875H43.7188L37 5.59375H40.1719L45.375 18.1719Z" fill="#5C75C9"/>
</svg>
