<svg width="22" height="22" viewBox="0 0 22 22" fill="none" xmlns="http://www.w3.org/2000/svg">
<g id="browser">
<g id="Group">
<path id="Vector" d="M7.2439 5.75069H10.6204V2.05469C9.2329 2.27369 8.0164 3.68106 7.2439 5.75069Z" fill="#2C2C35"/>
<path id="Vector_2" d="M10.6205 10.6105V6.53125H6.98298C6.62261 7.7425 6.40361 9.13037 6.37061 10.6105H10.6205Z" fill="#2C2C35"/>
<path id="Vector_3" d="M11.3796 2.05469V5.75106H14.7561C13.9833 3.68106 12.7675 2.27369 11.3796 2.05469Z" fill="#2C2C35"/>
<path id="Vector_4" d="M5.612 11.3896H2C2.06037 12.8746 2.462 14.2704 3.12688 15.4955C3.167 15.4809 3.209 15.4693 3.25437 15.4693H6.18762C5.84637 14.2441 5.64275 12.8641 5.612 11.3896Z" fill="#2C2C35"/>
<path id="Vector_5" d="M16.3878 11.3896C16.357 12.8641 16.1538 14.2441 15.8125 15.4693H18.7454C18.7907 15.4693 18.8327 15.4809 18.8729 15.4955C19.5381 14.2704 19.9401 12.8746 20.0001 11.3896H16.3878Z" fill="#2C2C35"/>
<path id="Vector_6" d="M10.6204 11.3896H6.37085C6.40347 12.8698 6.62285 14.2576 6.98322 15.4693H10.6207L10.6204 11.3896Z" fill="#2C2C35"/>
<path id="Vector_7" d="M5.612 10.6098C5.64275 9.13528 5.84637 7.75528 6.18762 6.53053H3.25437C3.209 6.53053 3.167 6.51891 3.12688 6.50391C2.462 7.72941 2.06037 9.12478 2 10.6098H5.612Z" fill="#2C2C35"/>
<path id="Vector_8" d="M15.6291 10.6105C15.5965 9.13 15.3771 7.7425 15.0168 6.53125H11.3796V10.6105H15.6291Z" fill="#2C2C35"/>
<path id="Vector_9" d="M6.43051 5.75038C7.00876 4.08313 7.85851 2.76875 8.87739 2C6.69564 2.54375 4.82251 3.905 3.58276 5.75038H6.43051Z" fill="#2C2C35"/>
<path id="Vector_10" d="M6.43051 16.25H3.58276C4.82251 18.0954 6.69564 19.4566 8.87739 20.0004C7.85851 19.2316 7.00876 17.9173 6.43051 16.25Z" fill="#2C2C35"/>
<path id="Vector_11" d="M15.5694 5.75038H18.4176C17.1774 3.905 15.3043 2.54375 13.1226 2C14.1414 2.76875 14.9912 4.08313 15.5694 5.75038Z" fill="#2C2C35"/>
<path id="Vector_12" d="M15.5694 16.25C14.9912 17.9173 14.1414 19.2316 13.1226 20.0004C15.3039 19.4566 17.1774 18.0954 18.4172 16.25H15.5694Z" fill="#2C2C35"/>
<path id="Vector_13" d="M18.7454 6.53053H15.8125C16.1538 7.75528 16.357 9.13566 16.3878 10.6098H20.0001C19.9401 9.12478 19.5381 7.72941 18.8729 6.50391C18.8331 6.51853 18.7907 6.53053 18.7454 6.53053Z" fill="#2C2C35"/>
<path id="Vector_14" d="M14.7561 16.25H11.3796V19.946C12.7675 19.727 13.9833 18.32 14.7561 16.25Z" fill="#2C2C35"/>
<path id="Vector_15" d="M11.3796 11.3896V15.4693H15.0168C15.3771 14.258 15.5965 12.8698 15.6291 11.3896H11.3796Z" fill="#2C2C35"/>
<path id="Vector_16" d="M10.6204 19.946V16.25H7.2439C8.0164 18.32 9.2329 19.727 10.6204 19.946Z" fill="#2C2C35"/>
</g>
</g>
</svg>
