<svg width="14" height="14" viewBox="0 0 14 14" fill="none" xmlns="http://www.w3.org/2000/svg">
<g id="check_9778608 1">
<g id="Group">
<path id="Vector" d="M5.51647 11.1528C5.45959 11.1528 5.40244 11.1312 5.35897 11.0877L1.81521 7.54395C1.72826 7.45699 1.72826 7.31617 1.81521 7.22922L3.16463 5.8798C3.25158 5.79285 3.3924 5.79285 3.47936 5.8798L5.47217 7.87262C5.4965 7.89695 5.53615 7.89695 5.56076 7.87262L10.5206 2.91273C10.5625 2.8709 10.6191 2.84766 10.6781 2.84766C10.7372 2.84766 10.7938 2.87117 10.8356 2.91273L12.1851 4.26215C12.272 4.3491 12.272 4.48992 12.1851 4.57688L5.67397 11.0877C5.63049 11.1312 5.57334 11.1528 5.51647 11.1528Z" fill="#2C2C35"/>
</g>
</g>
</svg>
