<svg width="24" height="24" viewBox="0 0 24 24" fill="none" xmlns="http://www.w3.org/2000/svg">
<circle cx="12" cy="12" r="12" fill="#B3BAEA" fill-opacity="0.5"/>
<circle cx="12" cy="12" r="9" fill="#5C75C9"/>
<path d="M10.7284 15.5591C10.6796 15.5591 10.6307 15.5406 10.5934 15.5033L7.5559 12.4658C7.48137 12.3913 7.48137 12.2706 7.5559 12.1961L8.71254 11.0394C8.78707 10.9649 8.90777 10.9649 8.9823 11.0394L10.6904 12.7475C10.7113 12.7684 10.7453 12.7684 10.7664 12.7475L15.0177 8.49621C15.0536 8.46035 15.1021 8.44043 15.1527 8.44043C15.2033 8.44043 15.2518 8.46059 15.2877 8.49621L16.4443 9.65285C16.5189 9.72738 16.5189 9.84809 16.4443 9.92262L10.8634 15.5033C10.8261 15.5406 10.7771 15.5591 10.7284 15.5591Z" fill="white"/>
</svg>
