<svg width="22" height="22" viewBox="0 0 22 22" fill="none" xmlns="http://www.w3.org/2000/svg">
<g id="chrome">
<g id="Group">
<g id="Group_2">
<path id="Vector" d="M11 13C12.1046 13 13 12.1046 13 11C13 9.89543 12.1046 9 11 9C9.89543 9 9 9.89543 9 11C9 12.1046 9.89543 13 11 13Z" fill="#2C2C35"/>
</g>
</g>
<g id="Group_3">
<g id="Group_4">
<path id="Vector_2" d="M11.0001 3C8.81648 3 6.83988 3.8768 5.39648 5.29422L7.93508 9.68981C8.44406 8.50039 9.62387 7.66602 11.0001 7.66641H18.2657C17.0001 4.91461 14.2267 3 11.0001 3Z" fill="#2C2C35"/>
</g>
</g>
<g id="Group_5">
<g id="Group_6">
<path id="Vector_3" d="M18.7373 8.99902L13.666 8.99961C14.4422 10.0354 14.575 11.4742 13.8868 12.6662L10.252 18.9618C10.4986 18.9844 10.7473 18.9994 11 18.9994C15.417 18.9994 19 15.4188 19 10.9996C19 10.3076 18.9028 9.63961 18.7373 8.99902Z" fill="#2C2C35"/>
</g>
</g>
<g id="Group_7">
<g id="Group_8">
<path id="Vector_4" d="M8.1134 12.6662L4.48059 6.37402C3.5516 7.68063 3 9.27441 3 10.9996C2.99961 14.6774 5.4832 17.7664 8.86199 18.702L11.3984 14.3088C10.114 14.463 8.80078 13.8582 8.1134 12.6662Z" fill="#2C2C35"/>
</g>
</g>
</g>
</svg>
