<svg width="32" height="32" viewBox="0 0 32 32" fill="none" xmlns="http://www.w3.org/2000/svg">
<g id="chrome_754475 1" clip-path="url(#clip0_326_1619)">
<g id="Group">
<g id="Group_2">
<path id="Vector" d="M16 20C18.2091 20 20 18.2091 20 16C20 13.7909 18.2091 12 16 12C13.7909 12 12 13.7909 12 16C12 18.2091 13.7909 20 16 20Z" fill="#5C75C9"/>
</g>
</g>
<g id="Group_3">
<g id="Group_4">
<path id="Vector_2" d="M16.0002 0C11.633 0 7.67977 1.75359 4.79297 4.58844L9.87016 13.3796C10.8881 11.0008 13.2477 9.33203 16.0002 9.33281H30.5313C28.0002 3.82922 22.4534 0 16.0002 0Z" fill="#5C75C9"/>
</g>
</g>
<g id="Group_5">
<g id="Group_6">
<path id="Vector_3" d="M31.4747 11.999L21.332 12.0002C22.8844 14.0718 23.1499 16.9494 21.7735 19.3334L14.5039 31.9246C14.9971 31.9698 15.4947 31.9998 15.9999 31.9998C24.8339 31.9998 31.9999 24.8386 31.9999 16.0002C31.9999 14.6162 31.8055 13.2802 31.4747 11.999Z" fill="#5C75C9"/>
</g>
</g>
<g id="Group_7">
<g id="Group_8">
<path id="Vector_4" d="M10.2268 19.3334L2.96117 6.74902C1.1032 9.36223 9.21446e-08 12.5498 9.21446e-08 16.0002C-0.000781158 23.3558 4.96641 29.5338 11.724 31.405L16.7968 22.6186C14.228 22.927 11.6016 21.7174 10.2268 19.3334Z" fill="#5C75C9"/>
</g>
</g>
</g>
<defs>
<clipPath id="clip0_326_1619">
<rect width="32" height="32" fill="white"/>
</clipPath>
</defs>
</svg>
