<svg width="22" height="16" viewBox="0 0 22 16" fill="none" xmlns="http://www.w3.org/2000/svg">
<g id="discord-6 1">
<path id="Vector" d="M17.4848 2.1824C19.5711 5.23337 20.6014 8.67479 20.2163 12.6366C20.2147 12.6534 20.2059 12.6688 20.192 12.6789C18.6121 13.8328 17.0814 14.533 15.5722 14.9974C15.5604 15.001 15.5478 15.0008 15.5362 14.9969C15.5246 14.993 15.5144 14.9855 15.5073 14.9756C15.1586 14.4931 14.8418 13.9844 14.5642 13.4501C14.5483 13.4187 14.5628 13.3808 14.5956 13.3684C15.0988 13.1798 15.5772 12.9538 16.0374 12.6862C16.0737 12.6651 16.076 12.6134 16.0425 12.5886C15.9448 12.5165 15.8481 12.4407 15.7555 12.3649C15.7382 12.3509 15.7149 12.3482 15.6952 12.3576C12.7075 13.7299 9.43449 13.7299 6.41138 12.3576C6.39176 12.3489 6.36843 12.3518 6.35158 12.3656C6.25921 12.4414 6.16223 12.5165 6.06548 12.5886C6.03199 12.6134 6.03477 12.6651 6.07125 12.6862C6.53146 12.9488 7.00991 13.1798 7.51238 13.3693C7.54493 13.3817 7.56041 13.4187 7.54424 13.4501C7.27269 13.985 6.95588 14.4938 6.60073 14.9763C6.58526 14.9958 6.55986 15.0048 6.53585 14.9974C5.03376 14.533 3.50304 13.8328 1.92313 12.6789C1.90997 12.6688 1.9005 12.6527 1.89912 12.636C1.57723 9.20901 2.23325 5.73911 4.62804 2.18172C4.63382 2.1723 4.64259 2.16495 4.65275 2.16059C5.8311 1.62269 7.0935 1.22697 8.41294 1.00097C8.43695 0.997293 8.46097 1.00832 8.47343 1.02945C8.63646 1.31654 8.82281 1.6847 8.94888 1.98557C10.3397 1.77428 11.7522 1.77428 13.172 1.98557C13.2981 1.69113 13.478 1.31654 13.6403 1.02945C13.6461 1.01897 13.6551 1.01057 13.6659 1.00545C13.6768 1.00034 13.689 0.998769 13.7008 1.00097C15.021 1.22766 16.2834 1.62338 17.4608 2.16059C17.4712 2.16495 17.4797 2.1723 17.4848 2.1824ZM9.65594 8.69822C9.67049 7.68513 8.92787 6.84682 7.99568 6.84682C7.0711 6.84682 6.33564 7.67778 6.33564 8.69822C6.33564 9.71842 7.08565 10.5494 7.99568 10.5494C8.92048 10.5494 9.65594 9.71842 9.65594 8.69822ZM15.7941 8.69822C15.8086 7.68513 15.066 6.84682 14.134 6.84682C13.2092 6.84682 12.4738 7.67778 12.4738 8.69822C12.4738 9.71842 13.2238 10.5494 14.134 10.5494C15.066 10.5494 15.7941 9.71842 15.7941 8.69822Z" fill="#2C2C35"/>
</g>
</svg>
