<svg width="348" height="230" viewBox="0 0 348 230" fill="none" xmlns="http://www.w3.org/2000/svg">
<rect x="69" y="15" width="204" height="206" rx="102" fill="#2C2C35"/>
<path d="M165.882 85.9325L124 70.1209L124.06 61.9072L165.942 77.7189L165.882 85.9325Z" fill="#D03C4B"/>
<path d="M165.945 77.7181L124.062 61.9065L178.396 51.3701L220.278 67.1818L165.945 77.7181Z" fill="#CF6161"/>
<path d="M220.277 67.1836L220.216 75.3968L165.883 85.9336L165.943 77.7199L220.277 67.1836Z" fill="#E55D5D"/>
<path d="M187.93 73.4586V81.6603L197.528 79.7992L197.501 71.6025L187.93 73.4586Z" fill="#FFEB76"/>
<path d="M187.933 73.4603L146.539 57.554L155.727 55.7725L197.504 71.6043L187.933 73.4603Z" fill="#FFE45F"/>
<path d="M140.648 68.1689V76.4052L148.106 79.2207L148.534 71.1457L140.648 68.1689Z" fill="#FFD05E"/>
<path d="M140.648 68.166L194.04 57.2822L200.85 59.8537L148.534 71.1428L140.648 68.166Z" fill="#FFE45F"/>
<path d="M174.2 63.0896L170.75 61.8464C172.956 57.5282 180.73 50.2373 194.372 53.5492C203.121 55.6734 208.637 54.9092 213.412 50.9111L212.743 54.9262L217.801 54.6097C211.357 60.0055 203.6 61.226 192.645 58.5662C180.81 55.6924 174.372 62.7528 174.2 63.0896Z" fill="#FFDB45"/>
<path d="M167.641 64.5525L171.589 63.4944C169.844 59.03 162.862 51.1935 148.927 53.4849C139.989 54.9551 134.574 53.7864 130.236 49.4512L131.633 53.1188L125.477 52.8114C131.331 58.6624 138.93 60.4506 150.121 58.6101C162.212 56.6213 167.505 64.2043 167.641 64.5525Z" fill="#FFDB45"/>
<path d="M168.668 61.1948C168.679 61.2372 168.685 61.2618 168.685 61.2618C156.941 61.7772 150.06 56.2376 151.484 52.072C150.372 50.4021 147.985 45.7187 153.38 42.3691C152.647 42.5415 151.886 42.774 151.094 43.0771C136.766 48.5628 147.839 64.3926 171.283 63.34C171.283 63.34 171.279 63.3 171.271 63.2311L168.668 61.1948Z" fill="#FFD05E"/>
<path d="M151.48 52.0722C151.951 50.6935 153.331 49.4654 155.747 48.6573C164.542 45.7142 168.387 60.1092 168.664 61.1954L171.267 63.2317C171.079 61.4953 168.326 38.8562 153.376 42.3698C147.981 45.7189 150.368 50.4024 151.48 52.0722Z" fill="#FFD05E"/>
<path d="M190.938 43.078C187.453 41.7442 184.56 41.7354 182.156 42.5745C186.475 44.0229 195.679 48.2499 189.953 55.7984C189.681 56.2037 189.349 56.6022 188.953 56.9885C188.949 56.9929 188.945 56.9972 188.941 57.0016C188.946 56.9972 188.949 56.9933 188.953 56.9885C186.309 59.5632 180.956 61.5832 173.656 61.2627C173.656 61.2627 173.662 61.2322 173.676 61.1779L170.775 63.1144C170.758 63.261 170.75 63.3414 170.75 63.3414C194.193 64.3932 205.266 48.5633 190.938 43.078Z" fill="#FFD05E"/>
<path d="M186.281 48.6577C190.778 50.1623 191.75 53.1213 189.952 55.7981C195.678 48.2496 186.474 44.0226 182.154 42.5742C173.066 45.7459 171.008 61.0734 170.773 63.1141L173.674 61.1776C173.963 59.9582 177.532 45.7305 186.281 48.6577Z" fill="#FFD05E"/>
<path d="M175.454 62.6382C175.454 64.5438 171.894 65.6225 169.626 65.6225C167.357 65.6225 166.406 64.0779 166.406 62.1719C166.406 60.2664 168.921 59.0244 171.189 59.0244C173.458 59.0244 175.454 60.7327 175.454 62.6382Z" fill="#FFD05E"/>
<path d="M167.253 64.7124C166.722 64.2794 166.352 63.7231 166.128 63.1142C165.908 62.5081 165.858 61.8077 166.14 61.1576C166.418 60.515 166.999 59.9548 167.695 59.6748C167.858 59.5848 168.034 59.525 168.215 59.4771L168.749 59.3297C169.117 59.2774 169.485 59.2398 169.848 59.2314C169.538 59.4097 169.223 59.5436 168.924 59.6898L168.502 59.9366C168.362 60.0155 168.218 60.0852 168.106 60.1874C167.986 60.2813 167.867 60.3712 167.742 60.454L167.45 60.7587C167.337 60.8498 167.291 60.9754 167.21 61.0811C167.175 61.1366 167.126 61.1865 167.1 61.2455L167.027 61.4246C166.822 61.8972 166.78 62.434 166.845 62.9902C166.916 63.5469 167.062 64.1185 167.253 64.7124Z" fill="white"/>
<path d="M173.398 59.5918C173.941 59.7332 174.407 60.0046 174.817 60.331C175.218 60.6634 175.564 61.0699 175.759 61.5524C175.952 62.033 175.957 62.5919 175.736 63.0689C175.533 63.5586 175.074 63.9076 174.599 64.1386C174.783 63.6846 174.999 63.3074 175.018 62.9128C175.061 62.5293 175.003 62.1684 174.864 61.804C174.566 61.0719 173.988 60.3825 173.398 59.5918Z" fill="white"/>
<path d="M200.266 58.1941C201.372 58.1791 202.453 58.149 203.527 58.0935C204.6 58.0297 205.664 57.9442 206.712 57.7988L207.499 57.6874L208.275 57.5409C208.538 57.5024 208.792 57.4414 209.047 57.3792C209.298 57.3115 209.564 57.2723 209.813 57.1954C210.835 56.9339 211.802 56.5647 212.811 56.1689C212.038 56.8301 211.105 57.3864 210.079 57.7718C209.056 58.1589 207.968 58.4318 206.863 58.5804C205.755 58.7179 204.637 58.7721 203.527 58.7095C202.42 58.6489 201.314 58.5039 200.266 58.1941Z" fill="white"/>
<path d="M132.617 55.5137C134.53 56.0473 136.38 56.552 138.276 56.8939L138.986 57.0183C139.223 57.0583 139.463 57.0769 139.701 57.1138C140.176 57.1954 140.658 57.2116 141.139 57.2647C142.107 57.3372 143.072 57.3182 144.089 57.2885C143.17 57.6391 142.153 57.8415 141.13 57.8831C140.106 57.9239 139.076 57.8467 138.078 57.6684C137.083 57.4759 136.111 57.2132 135.191 56.8531C134.273 56.4958 133.389 56.0683 132.617 55.5137Z" fill="white"/>
<path d="M179.398 46.1544C179.921 45.2872 180.791 44.5713 181.795 44.0504C182.8 43.5183 183.967 43.2093 185.15 43.0889C186.339 43.0081 187.531 43.1067 188.656 43.3789C189.221 43.5025 189.751 43.714 190.288 43.8876C190.799 44.1177 191.303 44.3546 191.783 44.6157C191.214 44.5143 190.674 44.3776 190.133 44.2544L189.311 44.1146C189.037 44.0745 188.774 43.9957 188.496 43.9826C187.946 43.9387 187.411 43.8368 186.864 43.8507C186.321 43.8071 185.784 43.8507 185.246 43.8769C184.177 43.9731 183.134 44.2124 182.146 44.5915C181.16 44.9742 180.23 45.4912 179.398 46.1544Z" fill="white"/>
<path d="M146.031 49.0475C146.219 48.0064 146.854 47.0354 147.667 46.2165C148.483 45.3885 149.53 44.7345 150.653 44.2286C151.788 43.7322 153.017 43.4295 154.254 43.2457C154.873 43.1562 155.504 43.1371 156.123 43.0928C156.749 43.1062 157.372 43.1221 157.988 43.172C157.379 43.298 156.776 43.3859 156.177 43.4794C155.586 43.6129 154.993 43.7132 154.414 43.8494C153.846 44.021 153.254 44.1157 152.712 44.3288C152.438 44.4255 152.152 44.498 151.883 44.6022L151.087 44.9314C150.04 45.3877 149.065 45.9535 148.204 46.6365C147.35 47.3258 146.59 48.1169 146.031 49.0475Z" fill="white"/>
<path d="M184.742 68.3496C185.638 68.5651 186.516 68.8139 187.386 69.0789C188.258 69.3408 189.121 69.6185 189.976 69.9113C190.835 70.1973 191.681 70.5059 192.529 70.8134C193.372 71.1287 194.215 71.4448 195.048 71.78L195.316 71.8877L195.307 72.1132C195.291 72.5454 195.286 72.9776 195.26 73.4102C195.232 73.8424 195.219 74.275 195.18 74.7072C195.118 75.5721 195.031 76.4365 194.896 77.3017C194.753 76.4377 194.658 75.5736 194.588 74.7092C194.545 74.277 194.527 73.8448 194.496 73.413C194.466 72.9808 194.457 72.5485 194.436 72.1163L194.696 72.4495C193.84 72.1571 192.995 71.8457 192.15 71.5336C191.31 71.2135 190.468 70.895 189.639 70.5535C188.806 70.2187 187.98 69.8689 187.164 69.5032C186.345 69.14 185.535 68.7612 184.742 68.3496Z" fill="white"/>
<path d="M163.705 195.001L124.047 180.028L124.414 129.888L164.073 144.86L163.705 195.001Z" fill="#D03C4B"/>
<path d="M215.042 134.973L214.675 185.113L163.703 194.998L164.071 144.857L215.042 134.973Z" fill="#E55D5D"/>
<path d="M124.414 129.884L164.073 144.857L176.024 142.539L175.229 120.03L124.414 129.884Z" fill="#E55D5D"/>
<path d="M175.384 120L175.227 120.03L176.022 142.539L215.042 134.972L175.384 120Z" fill="#D03C4B"/>
<path d="M184.516 140.893V190.962L195.144 188.901V138.832L184.516 140.893Z" fill="#FFD05E"/>
<path d="M139.219 135.477V185.756L147.644 188.937L148.101 138.83L139.219 135.477Z" fill="#FFD05E"/>
<path d="M193.613 139.129L192.966 139.254C192.954 139.519 192.941 139.784 192.931 140.049C192.857 141.831 192.837 143.613 192.828 145.395C192.836 147.177 192.856 148.96 192.93 150.742C192.998 152.524 193.099 154.306 193.292 156.088C193.485 154.306 193.586 152.524 193.654 150.742C193.728 148.96 193.748 147.177 193.756 145.395C193.746 143.613 193.726 141.831 193.653 140.049C193.641 139.743 193.626 139.436 193.613 139.129Z" fill="white"/>
<path d="M194.702 93.0239H197.934L186.286 114.56H183.054L194.702 93.0239ZM182.99 104.704C181.817 104.704 180.814 104.437 179.982 103.904C179.171 103.349 178.542 102.613 178.094 101.696C177.646 100.779 177.422 99.7759 177.422 98.6879C177.422 97.5785 177.646 96.5759 178.094 95.6799C178.542 94.7625 179.171 94.0372 179.982 93.5039C180.814 92.9492 181.817 92.6719 182.99 92.6719C184.163 92.6719 185.155 92.9492 185.966 93.5039C186.798 94.0372 187.438 94.7625 187.886 95.6799C188.334 96.5759 188.558 97.5785 188.558 98.6879C188.558 99.7759 188.334 100.779 187.886 101.696C187.438 102.613 186.798 103.349 185.966 103.904C185.155 104.437 184.163 104.704 182.99 104.704ZM182.99 102.016C183.63 102.016 184.089 101.707 184.366 101.088C184.665 100.469 184.814 99.6692 184.814 98.6879C184.814 97.6852 184.665 96.8852 184.366 96.2879C184.089 95.6692 183.63 95.3599 182.99 95.3599C182.35 95.3599 181.881 95.6692 181.582 96.2879C181.305 96.8852 181.166 97.6852 181.166 98.6879C181.166 99.6692 181.305 100.469 181.582 101.088C181.881 101.707 182.35 102.016 182.99 102.016ZM197.998 114.912C196.846 114.912 195.854 114.645 195.022 114.112C194.19 113.557 193.55 112.821 193.102 111.904C192.675 110.987 192.462 109.984 192.462 108.896C192.462 107.787 192.675 106.784 193.102 105.888C193.55 104.971 194.19 104.245 195.022 103.712C195.854 103.157 196.846 102.88 197.998 102.88C199.193 102.88 200.206 103.157 201.038 103.712C201.87 104.245 202.499 104.971 202.926 105.888C203.374 106.784 203.598 107.787 203.598 108.896C203.598 109.984 203.374 110.987 202.926 111.904C202.499 112.821 201.87 113.557 201.038 114.112C200.206 114.645 199.193 114.912 197.998 114.912ZM197.998 112.224C198.659 112.224 199.129 111.915 199.406 111.296C199.705 110.677 199.854 109.877 199.854 108.896C199.854 107.893 199.705 107.093 199.406 106.496C199.129 105.877 198.659 105.568 197.998 105.568C197.379 105.568 196.921 105.877 196.622 106.496C196.345 107.093 196.206 107.893 196.206 108.896C196.206 109.877 196.345 110.677 196.622 111.296C196.921 111.915 197.379 112.224 197.998 112.224Z" fill="#EDF1FF"/>
<path d="M165.991 114.944C164.049 114.944 162.439 114.454 161.159 113.472C159.9 112.491 158.951 111.136 158.311 109.408C157.692 107.659 157.383 105.675 157.383 103.456C157.383 101.259 157.692 99.2962 158.311 97.5682C158.951 95.8402 159.9 94.4856 161.159 93.5042C162.439 92.5229 164.049 92.0322 165.991 92.0322C167.932 92.0322 169.532 92.5229 170.791 93.5042C172.071 94.4856 173.02 95.8402 173.639 97.5682C174.257 99.2962 174.567 101.259 174.567 103.456C174.567 105.675 174.257 107.659 173.639 109.408C173.02 111.136 172.071 112.491 170.791 113.472C169.532 114.454 167.932 114.944 165.991 114.944ZM165.991 110.752C166.737 110.752 167.345 110.507 167.815 110.016C168.284 109.504 168.625 108.715 168.839 107.648C169.052 106.56 169.159 105.163 169.159 103.456C169.159 101.771 169.052 100.395 168.839 99.3282C168.625 98.2402 168.284 97.4509 167.815 96.9602C167.345 96.4482 166.737 96.1922 165.991 96.1922C165.244 96.1922 164.636 96.4482 164.167 96.9602C163.697 97.4509 163.356 98.2402 163.143 99.3282C162.929 100.395 162.823 101.771 162.823 103.456C162.823 105.163 162.929 106.56 163.143 107.648C163.356 108.715 163.697 109.504 164.167 110.016C164.636 110.507 165.244 110.752 165.991 110.752Z" fill="#EDF1FF"/>
<path d="M145.976 114.912C144.568 114.912 143.245 114.741 142.008 114.4C140.771 114.059 139.768 113.696 139 113.312L140.088 109.504C140.728 109.739 141.549 109.984 142.552 110.24C143.555 110.475 144.568 110.592 145.592 110.592C146.488 110.592 147.224 110.475 147.8 110.24C148.397 109.984 148.835 109.643 149.112 109.216C149.411 108.768 149.56 108.277 149.56 107.744C149.56 107.275 149.453 106.859 149.24 106.496C149.048 106.133 148.76 105.845 148.376 105.632C147.992 105.397 147.533 105.216 147 105.088C146.467 104.96 145.891 104.896 145.272 104.896H143.192L143.384 100.992H145.176C145.624 100.992 146.072 100.949 146.52 100.864C146.968 100.779 147.384 100.651 147.768 100.48C148.152 100.288 148.451 100.043 148.664 99.744C148.899 99.424 149.016 99.04 149.016 98.592C149.016 97.9733 148.76 97.4293 148.248 96.96C147.736 96.4907 146.861 96.256 145.624 96.256C144.792 96.256 143.96 96.352 143.128 96.544C142.317 96.7147 141.592 96.928 140.952 97.184L140.088 93.44C140.899 93.056 141.901 92.7253 143.096 92.448C144.312 92.1493 145.56 92 146.84 92C148.312 92 149.603 92.224 150.712 92.672C151.843 93.12 152.728 93.76 153.368 94.592C154.008 95.4027 154.328 96.3947 154.328 97.568C154.328 98.8053 153.965 99.872 153.24 100.768C152.536 101.664 151.448 102.336 149.976 102.784V102.848C150.957 103.019 151.821 103.349 152.568 103.84C153.336 104.331 153.933 104.949 154.36 105.696C154.808 106.443 155.032 107.317 155.032 108.32C155.032 109.621 154.648 110.773 153.88 111.776C153.112 112.757 152.045 113.525 150.68 114.08C149.315 114.635 147.747 114.912 145.976 114.912Z" fill="#EDF1FF"/>
<path d="M274.553 22.9557C273.747 21.3422 271.733 20.5891 270.18 20.0144C268.581 19.4224 266.869 19.1165 265.177 19.025C261.867 18.8459 258.479 19.6343 255.527 21.2021C251.044 23.5837 246.745 28.4207 245.42 33.7833C244.866 33.7939 244.319 33.8388 243.789 33.9236C240.087 34.517 236.579 36.9929 234.805 40.4779C233.791 42.4696 233.263 44.733 233.297 46.9921C233.307 47.6925 233.371 48.5792 233.545 49.4564C233.349 49.7014 233.171 49.9544 233.014 50.2132C231.626 52.505 231.418 56.9386 233.958 58.5125C234.297 58.7224 234.62 58.3774 234.567 58.0217C234.337 56.4889 233.665 55.1557 233.837 53.5418C233.886 53.0778 234.002 52.62 234.172 52.1862C234.62 53.0211 235.35 53.6764 236.243 54.1545C237.867 55.024 239.418 55.9202 241.249 55.206C242.915 54.5562 243.881 52.8069 243.62 50.9662C243.379 49.2641 242.093 47.8492 240.644 47.1278C239.258 46.4377 237.703 46.6048 236.312 47.258C236.364 45.8883 236.667 44.5082 237.237 43.2767C238.537 40.4682 241.047 38.4265 243.925 37.6982C244.14 37.6435 244.359 37.6007 244.578 37.5633C244.138 40.6493 245.221 44.0148 248.49 44.8006C252.421 45.7456 255.392 41.647 253.473 37.9293C252.421 35.8928 250.558 34.6924 248.495 34.1421C249.167 32.8005 249.877 31.4817 250.739 30.2424C252.326 27.9609 254.401 26.0538 256.792 24.753C259.182 23.4526 261.873 22.9204 264.551 23.0955C265.897 23.1835 267.229 23.4931 268.495 23.979C269.811 24.4842 271.026 25.6826 272.41 25.8813C274.021 26.1119 275.384 24.6179 274.553 22.9557ZM236.671 49.5855C237.395 49.3173 238.238 49.2661 238.936 49.6427C239.376 49.8805 240.197 50.5852 240.015 51.2175C239.864 51.7434 238.953 51.7422 238.488 51.7391C237.889 51.7347 237.071 51.5272 236.634 51.0168C236.62 50.5729 236.564 50.1143 236.501 49.6565C236.557 49.6315 236.614 49.6071 236.671 49.5855ZM250.873 40.7402C250.706 42.4518 248.746 42.2675 247.852 41.3739C246.819 40.3405 246.655 38.8974 246.891 37.5208C247.286 37.5768 247.677 37.6634 248.057 37.7919C249.163 38.1643 251.016 39.2816 250.873 40.7402Z" fill="#5C75C9"/>
<path d="M262.869 82.8839C256.772 82.9336 250.26 86.1887 245.518 89.9892C240.787 93.7807 236.574 99.1453 235.039 105.268C234.727 106.511 236.381 107.74 237.255 106.614C240.669 102.215 244.14 98.162 248.742 95.0605C250.925 93.5896 253.235 92.2644 255.68 91.3341C258.319 90.3302 260.986 89.9002 263.687 89.1924C267.059 88.3084 266.343 82.8558 262.869 82.8839Z" fill="#02AF8E"/>
<path d="M106.233 53.7746C107.455 49.5099 107.122 44.6424 105.575 40.678C103.516 35.3978 99.3423 31.438 94.2597 29.6762C92.2765 23.3069 86.0115 18.6145 80.2251 16.5014C73.5986 14.0819 66.0891 14.5522 59.9422 18.1625C57.805 19.4174 59.6813 22.5073 61.8229 21.5184C69.1666 18.1283 78.0669 19.0507 84.6045 23.9294C86.2841 25.1825 87.9753 26.808 89.1734 28.6967C83.5636 28.4724 77.0277 30.8947 75.5979 37.0977C73.9421 44.2807 80.6585 48.7787 86.7861 46.385C91.5962 44.5056 94.7752 39.2994 94.8852 34.0196C95.1991 34.1653 95.5094 34.318 95.8103 34.4843C99.8278 36.7061 102.56 40.6176 103.363 45.2893C103.666 47.052 103.685 49.2073 103.318 51.2956C101.246 50.0355 98.8016 49.4083 96.4247 49.739C93.4298 50.1554 90.2368 52.285 89.8933 55.6661C89.5983 58.5676 91.5055 61.3642 94.0742 62.3395C97.118 63.4956 100.563 62.2805 102.79 59.9678C103.579 59.149 104.239 58.2271 104.795 57.242C107.36 61.0466 107.437 66.5601 106.554 70.9574C106.415 71.6478 107.239 71.9931 107.621 71.4267C111.202 66.1203 110.362 58.5152 106.233 53.7746ZM90.7955 34.8961C90.3527 38.8918 87.1503 43.0239 83.0238 42.9171C80.7681 42.8586 79.2147 41.2827 79.3593 38.896C79.4999 36.5792 81.1655 34.8914 83.0615 33.918C85.42 32.707 88.132 32.3941 90.7497 32.782C90.8485 33.4692 90.8754 34.1733 90.7955 34.8961ZM98.7549 58.6651C97.3511 59.3574 95.4672 59.3865 94.4281 58.0182C93.5807 56.9019 93.6925 55.6511 94.6629 54.6862C96.5446 52.8152 99.9944 53.2078 102.011 54.5025C102.11 54.5662 102.205 54.6346 102.301 54.7016C101.526 56.425 100.371 57.8683 98.7549 58.6651Z" fill="#E8B6B9"/>
<path d="M84.9604 89.3081C81.7277 86.1304 76.5544 83.3658 72.0161 83.2317C69.4685 83.1565 68.5474 86.5876 70.8918 87.7588C74.4798 89.5515 78.3539 90.2265 81.7418 92.5965C83.2029 93.6182 84.5139 94.774 85.5764 96.2446C86.5386 97.5763 87.1834 99.1248 88.3466 100.281C88.7439 100.675 89.6013 100.424 89.748 99.8668C90.76 96.0303 87.4466 91.7522 84.9604 89.3081Z" fill="#5C75C9"/>
<path d="M64.9742 77.3958C63.7828 77.2571 62.5914 77.1297 61.4 77.0061C61.2811 75.873 61.1348 74.7416 60.955 73.611C60.8017 72.6479 59.3685 72.0911 58.8172 73.0655C58.1587 74.23 57.5031 75.3962 56.8471 76.5619C55.884 76.4739 54.9206 76.3883 53.9561 76.3049C53.1025 76.2314 52.5951 77.2288 53.0819 77.9345C53.6313 78.7312 54.1772 79.5319 54.724 80.3316C54.0293 81.5669 53.3355 82.8028 52.6391 84.0374C52.0635 85.0577 52.8862 86.5691 54.1054 85.9664C55.232 85.4098 56.3464 84.8305 57.4536 84.2386C57.6297 84.4837 57.8013 84.733 57.9799 84.9766C58.4395 86.4732 59.2154 87.6562 60.4886 87.8901C61.5452 88.0845 61.9068 86.7473 61.3397 86.0763C61.5628 85.8931 61.7169 85.6217 61.727 85.2579C61.758 84.111 61.7536 82.9685 61.7221 81.8294C63.0059 81.0692 64.2808 80.2924 65.5371 79.4767C66.4027 78.9145 65.8668 77.4997 64.9742 77.3958Z" fill="#5C75C9"/>
<path d="M284.428 82.2759C283.802 81.1966 283.187 80.1107 282.579 79.0212C283.346 78.1438 284.235 77.1516 284.001 75.9974C283.943 75.7093 283.68 75.4474 283.409 75.38C282.508 75.1565 281.509 75.1697 280.513 75.232C280.038 74.3358 279.568 73.4369 279.107 72.5323C278.687 71.7079 277.366 71.8756 277.167 72.797C276.977 73.6739 276.793 74.5499 276.616 75.4259C275.496 75.4596 274.378 75.5065 273.261 75.5903C273.078 75.5275 272.894 75.4648 272.711 75.402C271.41 74.956 270.589 77.0167 271.782 77.702C273.126 78.475 274.477 79.2352 275.831 79.9922C275.597 81.718 275.443 83.4554 275.436 85.2191C275.432 86.0477 276.53 86.6174 277.092 85.9344C278.074 84.7389 279.037 83.5261 279.992 82.3072C280.951 82.8389 281.91 83.3706 282.868 83.9046C283.844 84.4485 285.039 83.3294 284.428 82.2759Z" fill="#02AF8E"/>
<path d="M109.459 164.012C108.943 163.304 108.048 163.986 107.957 164.656C107.502 167.979 107.734 170.915 105.384 173.669C105.251 173.824 105.112 173.974 104.969 174.121C104.814 169.631 99.8035 166.074 95.3523 166.515C89.5762 167.088 86.5381 173.789 90.5438 178.366C92.3658 180.448 94.9588 181.394 97.6391 181.443C96.0496 184.508 94.1293 187.325 91.2359 189.538C88.8768 191.342 85.8831 192.858 82.8091 193.517C84.0406 189.413 83.3155 184.769 80.3994 181.692C77.8337 178.984 73.4378 177.839 69.9734 179.449C66.0685 181.264 64.6645 185.853 65.384 189.93C66.0222 193.544 67.9864 196.082 70.6165 197.736C70.0148 198.075 69.4008 198.381 68.7844 198.649C62.4254 201.407 55.8779 200.244 50.357 196.45C47.1959 194.278 44.1437 198.944 46.3419 201.676C52.4127 209.221 63.8395 208.961 71.9667 205.074C74.4286 203.897 76.8276 202.239 78.7922 200.179C82.2494 200.409 85.7948 199.855 88.6713 198.721C95.6352 195.978 104.576 187.963 104.554 179.581C104.958 179.338 105.347 179.076 105.715 178.792C109.658 175.744 112.738 168.507 109.459 164.012ZM70.3787 185.561C71.1322 182.629 75.073 182.585 76.6091 184.673C78.292 186.96 77.489 190.4 76.1116 192.667C75.9972 192.856 75.8761 193.04 75.7512 193.221C75.1183 192.995 74.5014 192.708 73.9093 192.348C71.897 191.126 69.7006 188.2 70.3787 185.561ZM93.892 174.992C93.28 173.898 93.3676 172.657 94.5234 172.073C97.048 170.799 99.372 173.22 98.932 175.723C98.8545 176.163 98.8755 176.578 98.9591 176.965C98.4662 177.001 97.9735 176.997 97.4863 176.94C96.1383 176.784 94.6069 176.27 93.892 174.992Z" fill="#D16A71"/>
<path d="M82.4619 159.506C82.5376 158.837 81.8708 158.258 81.2736 158.268C76.645 158.35 72.0689 159.837 67.3998 159.903C65.0091 159.938 62.6932 159.615 60.3709 159.103C57.4795 158.464 54.3444 157.049 51.3782 157.816C48.8745 158.463 47.5792 162.25 49.6348 164.091C52.15 166.345 56.1042 166.769 59.3456 167.394C62.4596 167.995 65.6079 168.248 68.785 167.919C73.2329 167.457 81.814 165.218 82.4619 159.506Z" fill="#02AF8E"/>
<path d="M43.7808 154.986C43.069 154.984 42.3573 154.994 41.6457 155.002C41.4198 154.186 41.162 153.381 40.871 152.587C40.4617 151.47 38.9757 151.356 38.5653 152.597C38.3221 153.333 38.0836 154.07 37.8443 154.807C37.2893 154.755 36.7386 154.676 36.1882 154.558C35.3071 154.369 34.3435 155.604 35.1735 156.31C35.7334 156.786 36.308 157.269 36.9103 157.705C36.6474 158.527 36.3844 159.349 36.1253 160.173C35.743 161.387 37.2367 162.156 38.083 161.363C38.5001 160.973 38.9305 160.589 39.3713 160.216C39.7138 160.587 40.0662 160.947 40.432 161.293C40.5204 161.512 40.6263 161.719 40.7755 161.897C40.9637 162.12 41.2409 162.227 41.5245 162.236C41.5869 162.285 41.6458 162.338 41.709 162.385C42.1015 162.682 42.5313 162.254 42.522 161.836C42.809 161.553 42.907 161.125 42.8404 160.724C42.8323 160.676 42.8246 160.628 42.8165 160.58C42.7792 160.355 42.6551 160.173 42.4875 160.04C42.432 159.62 42.4504 159.065 42.4125 158.783C42.3794 158.538 42.3399 158.294 42.3015 158.05C42.938 157.65 43.5901 157.282 44.2609 156.966C45.2398 156.505 44.7386 154.987 43.7808 154.986Z" fill="#02AF8E"/>
<path d="M40.6497 192.315C40.1535 190.776 38.1173 189.964 36.8572 191.171C36.6971 191.325 36.5699 191.499 36.4682 191.684C35.8586 192.192 35.5005 192.993 35.6421 193.867C35.8848 195.364 37.4476 196.286 38.847 195.87C40.2619 195.449 41.1067 193.734 40.6497 192.315Z" fill="#B5D7DC"/>
<path d="M55.491 176.596C49.489 177.321 43.6511 176.676 38.0135 174.575C37.3382 174.323 36.8227 175.511 37.4928 175.806C43.1936 178.322 49.4689 178.95 55.5882 177.45C56.0423 177.339 55.9718 176.538 55.491 176.596Z" fill="#80BEC5"/>
<path d="M107.368 207.258C106.863 203.522 107.595 199.868 108.688 196.277C109.425 193.854 111.152 190.584 110.726 188.049C110.691 187.843 110.44 187.812 110.306 187.933C109.249 188.88 108.896 190.271 108.39 191.583C107.657 193.483 106.944 195.375 106.393 197.337C105.43 200.76 104.999 204.241 105.755 207.715C105.995 208.814 107.513 208.33 107.368 207.258Z" fill="#80BEC5"/>
<path d="M267.794 140.373C265.109 142.9 262.178 145.503 258.359 145.476C257.94 145.473 257.946 146.127 258.359 146.151C262.409 146.394 265.646 143.787 268.609 141.222C269.174 140.733 268.348 139.851 267.794 140.373Z" fill="#B5D7DC"/>
<path d="M100.957 129.707C100.694 128.775 99.971 128.147 99.0369 128.097C98.5524 128.071 97.9358 128.487 97.7997 129.007C97.7611 129.033 97.722 129.06 97.6843 129.093C97.0219 129.662 97.0866 130.791 97.5554 131.465C97.8419 131.877 98.1945 132.19 98.6754 132.328C99.1591 132.466 99.7038 132.374 100.129 132.103C100.896 131.615 101.206 130.591 100.957 129.707Z" fill="#EFC52F"/>
<path d="M122.956 114.751C122.819 114.317 122.443 114.025 121.958 114.002C121.706 113.99 121.385 114.183 121.314 114.425C121.294 114.437 121.274 114.45 121.254 114.465C120.91 114.73 120.943 115.256 121.187 115.57C121.336 115.761 121.52 115.907 121.77 115.971C122.021 116.036 122.304 115.993 122.526 115.867C122.924 115.64 123.086 115.163 122.956 114.751Z" fill="#02AF8E"/>
<path d="M96.934 76.1264C96.7291 75.4754 96.1651 75.0368 95.4365 75.0018C95.0585 74.9838 94.5776 75.2743 94.4715 75.6374C94.4413 75.6557 94.4108 75.6744 94.3814 75.6973C93.8647 76.095 93.9152 76.8834 94.2809 77.3538C94.5044 77.6414 94.7794 77.8599 95.1545 77.9564C95.5318 78.0532 95.9567 77.9885 96.2884 77.7994C96.8863 77.4588 97.1288 76.7437 96.934 76.1264Z" fill="#EFC52F"/>
<path d="M149.934 30.1264C149.729 29.4754 149.165 29.0368 148.437 29.0018C148.059 28.9838 147.578 29.2743 147.471 29.6374C147.441 29.6557 147.411 29.6744 147.381 29.6973C146.865 30.095 146.915 30.8834 147.281 31.3538C147.504 31.6414 147.779 31.8599 148.155 31.9564C148.532 32.0532 148.957 31.9885 149.288 31.7994C149.886 31.4588 150.129 30.7437 149.934 30.1264Z" fill="#5C75C9"/>
<path d="M246.934 73.1264C246.729 72.4754 246.165 72.0368 245.437 72.0018C245.059 71.9838 244.578 72.2743 244.471 72.6374C244.441 72.6557 244.411 72.6744 244.381 72.6973C243.865 73.095 243.915 73.8834 244.281 74.3538C244.504 74.6414 244.779 74.8599 245.155 74.9564C245.532 75.0532 245.957 74.9885 246.288 74.7994C246.886 74.4588 247.129 73.7437 246.934 73.1264Z" fill="#EFC52F"/>
<path d="M237.934 157.126C237.729 156.475 237.165 156.037 236.437 156.002C236.059 155.984 235.578 156.274 235.471 156.637C235.441 156.656 235.411 156.674 235.381 156.697C234.865 157.095 234.915 157.883 235.281 158.354C235.504 158.641 235.779 158.86 236.155 158.956C236.532 159.053 236.957 158.988 237.288 158.799C237.886 158.459 238.129 157.744 237.934 157.126Z" fill="#02AF8E"/>
<path d="M158.934 206.126C158.729 205.475 158.165 205.037 157.437 205.002C157.059 204.984 156.578 205.274 156.471 205.637C156.441 205.656 156.411 205.674 156.381 205.697C155.865 206.095 155.915 206.883 156.281 207.354C156.504 207.641 156.779 207.86 157.155 207.956C157.532 208.053 157.957 207.988 158.288 207.799C158.886 207.459 159.129 206.744 158.934 206.126Z" fill="#E55D5D"/>
<path d="M219.761 22.6116C219.499 21.6794 218.776 21.0513 217.842 21.0011C217.357 20.9754 216.74 21.3913 216.604 21.9113C216.566 21.9375 216.527 21.9642 216.489 21.997C215.827 22.5667 215.891 23.6956 216.36 24.3692C216.647 24.781 216.999 25.0939 217.48 25.2321C217.964 25.3707 218.508 25.278 218.934 25.0072C219.7 24.5196 220.011 23.4956 219.761 22.6116Z" fill="#EFC52F"/>
<path d="M226.091 85.7405C225.874 86.7339 226.16 87.8007 225.99 88.8242C225.816 89.8696 225.37 90.902 224.635 91.708C223.705 92.7266 222.514 93.1329 221.316 93.0506C221.5 91.827 221.126 90.5095 220.155 89.5653C219.314 88.7472 217.852 88.2847 216.802 89.0602C215.671 89.8942 215.808 91.447 216.576 92.4408C217.162 93.1985 217.95 93.8165 218.837 94.2491C217.92 94.8933 216.678 94.578 215.653 94.2905C214.57 93.9868 213.513 93.598 212.887 92.6414C212.574 92.1629 211.875 92.3736 211.907 92.9493C212.063 95.7229 216.366 96.8771 218.69 96.1346C219.498 95.8763 220.127 95.4087 220.572 94.826C221.912 95.0791 223.321 94.9216 224.529 94.2247C225.979 93.3889 227.054 92.0459 227.525 90.4899C227.953 89.0729 228.269 86.8087 227.413 85.5064C227.042 84.9409 226.238 85.0655 226.091 85.7405ZM217.645 90.6795C217.789 89.8887 218.754 90.3904 219.116 90.7845C219.582 91.2916 219.797 91.9893 219.733 92.6586C219.395 92.5132 219.064 92.3335 218.75 92.1159C218.31 91.8113 217.535 91.2806 217.645 90.6795Z" fill="#EFC52F"/>
<path d="M116.767 16.2814C117.764 16.4781 118.825 16.1711 119.852 16.3209C120.9 16.4741 121.941 16.8999 122.762 17.6196C123.798 18.5291 124.228 19.7111 124.169 20.911C122.942 20.7507 121.633 21.1513 120.708 22.1406C119.906 22.9978 119.473 24.4678 120.269 25.5033C121.125 26.6167 122.675 26.4494 123.653 25.6619C124.399 25.0615 125.002 24.2613 125.417 23.3656C126.079 24.2697 125.788 25.5178 125.521 26.5482C125.239 27.6371 124.871 28.7014 123.927 29.3463C123.454 29.6688 123.679 30.3638 124.254 30.32C127.024 30.109 128.093 25.7845 127.305 23.4756C127.031 22.6727 126.551 22.0529 125.959 21.6197C126.186 20.2749 126.001 18.8696 125.28 17.675C124.416 16.2421 123.052 15.1934 121.487 14.7541C120.062 14.3539 117.792 14.0825 116.506 14.9639C115.948 15.3464 116.089 16.1477 116.767 16.2814ZM121.871 24.6284C121.078 24.4999 121.56 23.525 121.947 23.1549C122.445 22.6789 123.138 22.451 123.809 22.5013C123.67 22.8426 123.497 23.1766 123.286 23.4951C122.99 23.941 122.474 24.7261 121.871 24.6284Z" fill="#02AF8E"/>
<path d="M58.6297 107.559C65.8202 109.354 72.37 112.906 77.7634 118.178C78.3123 118.715 79.219 117.916 78.665 117.371C73.1528 111.956 66.4515 108.124 59.0343 106.395C58.3042 106.225 57.8859 107.373 58.6297 107.559Z" fill="#02AF8E"/>
<path d="M177.897 222.932C178.9 222.881 179.904 222.84 180.909 222.806C181.255 223.678 181.639 224.679 182.551 224.937C182.779 225.001 183.063 224.91 183.212 224.74C183.703 224.177 184.062 223.456 184.383 222.72C185.2 222.709 186.017 222.704 186.835 222.706C187.58 222.709 187.946 221.701 187.359 221.219C186.801 220.761 186.241 220.306 185.679 219.857C186.067 219.043 186.445 218.224 186.796 217.393C186.908 217.285 187.021 217.177 187.133 217.069C187.931 216.3 186.757 214.954 185.827 215.556C184.779 216.235 183.737 216.923 182.696 217.614C181.547 216.811 180.358 216.062 179.098 215.407C178.505 215.1 177.693 215.677 177.976 216.33C178.471 217.474 178.985 218.61 179.507 219.743C178.773 220.234 178.039 220.726 177.304 221.215C176.555 221.714 176.917 222.982 177.897 222.932Z" fill="#E8B6B9"/>
<path d="M278.594 196.922C276.839 194.521 272.861 195.02 270.253 194.728C267.651 194.436 265.053 194.071 262.488 193.508C257.249 192.355 252.193 190.283 247.427 187.734C242.667 185.189 238.201 181.849 234.141 178.226C232.17 176.466 230.336 174.598 228.527 172.659C226.667 170.663 225.176 168.319 222.799 167.002C222.119 166.625 221.086 167.284 221.094 168.077C221.124 171.117 222.866 173.669 224.42 176.182C225.952 178.661 227.769 181.009 229.721 183.147C233.884 187.705 238.674 191.456 243.951 194.485C249.356 197.586 255.085 199.804 261.08 201.247C263.847 201.914 266.658 202.416 269.49 202.569C272.286 202.719 277.016 203.325 278.732 200.54C279.439 199.392 279.397 198.022 278.594 196.922Z" fill="#E8B6B9"/>
<path d="M277.391 158.096C273.903 159.211 270.558 160.51 266.848 160.609C263.479 160.699 260.709 159.762 257.567 158.644C256.862 158.393 256.265 159.228 256.735 159.853C261.768 166.534 272.716 164.623 279.038 161.786C281.387 160.732 279.702 157.357 277.391 158.096Z" fill="#D16A71"/>
<path d="M302.722 200.229C301.474 199.77 300.223 199.321 298.973 198.869C298.898 197.542 298.804 196.214 298.702 194.888C298.638 194.058 297.693 193.688 297.046 193.961C295.689 194.536 294.975 195.849 294.398 197.228C293.126 196.776 291.855 196.322 290.581 195.875C289.381 195.453 288.618 196.786 289.253 197.803C290.211 199.336 291.173 200.865 292.143 202.389C291.344 204.116 290.532 205.836 289.697 207.545C289.134 208.694 290.738 209.736 291.6 208.977C291.721 208.87 291.836 208.758 291.955 208.65C293.015 208.111 294.065 207.543 295.108 206.957C295.673 207.805 296.24 208.65 296.818 209.489C297.431 210.376 298.812 209.856 298.907 208.85C299.04 207.437 299.101 206.023 299.118 204.608C300.353 203.86 301.58 203.102 302.799 202.346C303.554 201.879 303.701 200.589 302.722 200.229ZM292.989 199.302C293.152 199.358 293.315 199.415 293.478 199.471C293.425 199.587 293.371 199.703 293.318 199.819C293.209 199.646 293.099 199.474 292.989 199.302Z" fill="#E8B6B9"/>
<path d="M223.253 206.885C222.844 206.007 222.029 205.503 221.099 205.604C220.617 205.656 220.075 206.166 220.024 206.701C219.99 206.733 219.956 206.766 219.924 206.804C219.362 207.473 219.607 208.576 220.178 209.166C220.527 209.526 220.925 209.779 221.422 209.838C221.922 209.897 222.445 209.718 222.821 209.382C223.499 208.778 223.641 207.717 223.253 206.885Z" fill="#EFC52F"/>
<path d="M287.492 157.203C287.034 156.581 286.396 156.053 285.613 156.07C284.694 156.091 283.977 156.71 283.826 157.661C283.753 158.114 283.987 158.586 284.342 158.874C284.386 158.943 284.432 159.011 284.481 159.071C285.279 160.065 286.888 159.864 287.556 158.859C287.894 158.352 287.852 157.692 287.492 157.203Z" fill="#D16A71"/>
<path d="M272.453 178.185C265.042 178.136 257.839 176.229 251.355 172.377C250.695 171.985 250.002 172.976 250.669 173.374C257.303 177.336 264.719 179.48 272.334 179.411C273.084 179.404 273.22 178.19 272.453 178.185Z" fill="#EFC52F"/>
<path d="M134.091 210.74C133.874 211.734 134.16 212.801 133.99 213.824C133.816 214.87 133.37 215.902 132.635 216.708C131.705 217.727 130.514 218.133 129.316 218.051C129.5 216.827 129.126 215.51 128.155 214.565C127.314 213.747 125.852 213.285 124.802 214.06C123.671 214.894 123.808 216.447 124.576 217.441C125.162 218.198 125.95 218.817 126.837 219.249C125.92 219.893 124.678 219.578 123.653 219.291C122.57 218.987 121.513 218.598 120.887 217.641C120.574 217.163 119.875 217.374 119.907 217.949C120.063 220.723 124.366 221.877 126.69 221.135C127.498 220.876 128.127 220.409 128.572 219.826C129.912 220.079 131.321 219.922 132.529 219.225C133.979 218.389 135.054 217.046 135.525 215.49C135.953 214.073 136.269 211.809 135.413 210.506C135.042 209.941 134.238 210.066 134.091 210.74ZM125.645 215.679C125.789 214.889 126.754 215.39 127.116 215.785C127.582 216.292 127.797 216.989 127.733 217.659C127.395 217.513 127.064 217.334 126.75 217.116C126.31 216.811 125.535 216.281 125.645 215.679Z" fill="#5C75C9"/>
<path d="M194.225 8.86981C193.598 7.98108 192.984 7.08695 192.376 6.18973C193.143 5.46725 194.031 4.65028 193.798 3.69983C193.74 3.4626 193.477 3.24698 193.206 3.19143C192.305 3.00744 191.306 3.01824 190.31 3.06954C189.835 2.33163 189.365 1.59141 188.904 0.846563C188.484 0.167673 187.163 0.305767 186.964 1.0645C186.774 1.78659 186.59 2.50792 186.413 3.22924C185.293 3.25701 184.175 3.29558 183.058 3.36463C182.875 3.31294 182.691 3.26125 182.508 3.20956C181.207 2.84234 180.386 4.53918 181.579 5.10351C182.923 5.73997 184.274 6.36602 185.628 6.98936C185.393 8.4104 185.24 9.84108 185.233 11.2934C185.229 11.9757 186.327 12.4448 186.888 11.8824C187.871 10.898 188.834 9.89932 189.789 8.89565C190.748 9.33345 191.707 9.77126 192.665 10.211C193.641 10.6588 194.836 9.73732 194.225 8.86981Z" fill="#E8B6B9"/>
<path d="M65.806 17.8505C64.9361 18.2706 64.6271 19.5099 65.607 19.9913C65.7009 20.0376 65.8069 20.065 65.9164 20.0804C66.8829 20.4758 67.8749 19.815 67.869 18.9379C67.8627 18.0441 66.7535 17.393 65.806 17.8505Z" fill="#E8B3B6"/>
<path d="M287.546 106.356C287.065 108.175 287.701 110.128 287.323 112.001C286.936 113.915 285.944 115.805 284.309 117.28C282.242 119.145 279.596 119.888 276.932 119.738C277.342 117.498 276.509 115.086 274.351 113.358C272.481 111.86 269.232 111.014 266.896 112.433C264.384 113.96 264.688 116.802 266.395 118.621C267.697 120.008 269.449 121.139 271.421 121.931C269.383 123.111 266.622 122.533 264.344 122.007C261.936 121.451 259.587 120.739 258.195 118.989C257.498 118.113 255.944 118.498 256.016 119.552C256.364 124.629 265.928 126.742 271.094 125.383C272.891 124.91 274.289 124.054 275.278 122.987C278.257 123.451 281.389 123.162 284.075 121.887C287.298 120.357 289.688 117.898 290.733 115.05C291.685 112.456 292.388 108.312 290.485 105.928C289.66 104.893 287.873 105.121 287.546 106.356ZM268.77 115.397C269.091 113.95 271.236 114.868 272.042 115.589C273.078 116.518 273.554 117.795 273.413 119.02C272.661 118.754 271.926 118.425 271.227 118.027C270.249 117.469 268.527 116.497 268.77 115.397Z" fill="#5C75C9"/>
</svg>
