<svg width="20" height="18" viewBox="0 0 20 18" fill="none" xmlns="http://www.w3.org/2000/svg">
<path d="M10.1252 0C6.21883 0 2.89574 2.33329 1.53199 5.98502C2.64518 4.76093 4.11932 4.10768 5.83222 4.10768H5.84506C8.50273 4.11179 11.3117 5.79206 12.2401 7.93216H12.236C12.5688 8.58118 12.4913 9.25083 12.3845 9.67392C12.2612 10.1545 12.0764 10.3802 12.0066 10.4706L11.9689 10.5195C11.8333 10.6879 11.8544 10.9348 12.0146 11.0827C12.0434 11.1074 12.0886 11.1403 12.1502 11.1814L12.2569 11.2472C12.7786 11.5758 13.9576 11.9123 15.0256 11.9123C15.843 11.9123 16.9107 11.785 17.913 10.7787C19.5971 9.09451 18.9479 6.74472 18.7097 6.06285C18.303 4.90859 16.6152 1.07217 11.879 0.168479C11.3039 0.0575718 10.7126 0 10.1252 0ZM5.83222 4.92922C3.69623 4.92922 1.98352 6.12494 0.997674 8.30202C0.673167 12.0647 2.95267 15.4406 5.66375 16.9522C6.05398 17.1699 7.29437 17.7946 9.0237 18C7.49564 17.277 6.33333 16.0159 5.79933 14.3769C4.91207 11.6535 6.02541 8.74555 8.63379 6.97103L8.6378 6.97504C9.03214 6.71626 9.51277 6.56828 10.0057 6.56828C10.0632 6.56828 10.1167 6.56809 10.1742 6.57631C9.01992 5.59046 7.38544 4.93333 5.84506 4.92922H5.83222ZM7.53707 9.1067C6.39514 10.5731 6.02121 12.3932 6.58396 14.1226C7.32745 16.4064 9.50074 17.8522 12.1502 17.8604C14.2123 17.4003 16.0068 16.1963 17.5102 14.2533L17.5471 14.2044C17.6498 14.0524 17.6421 13.8508 17.5271 13.707C17.408 13.5673 17.2109 13.5183 17.0425 13.5923L16.8451 13.6829C16.763 13.7199 16.6892 13.7439 16.5988 13.7768C16.5044 13.8096 16.3975 13.8509 16.2579 13.9084C15.728 14.1261 14.9395 14.2493 14.0933 14.2493C13.3827 14.2493 12.6885 14.1593 12.1422 13.995C11.3699 13.765 9.01558 13.0541 7.78739 10.343C7.6354 10.0062 7.53297 9.57498 7.53707 9.1067Z" fill="#2C2C35"/>
</svg>
