<svg width="18" height="18" viewBox="0 0 18 18" fill="none" xmlns="http://www.w3.org/2000/svg">
<g id="icon:email">
<path id="Vector" d="M16.2 5.5L9 9.875L1.8 5.5V3.75L9 8.125L16.2 3.75M16.2 2H1.8C0.801 2 0 2.77875 0 3.75V14.25C0 14.7141 0.189642 15.1592 0.527208 15.4874C0.864773 15.8156 1.32261 16 1.8 16H16.2C16.6774 16 17.1352 15.8156 17.4728 15.4874C17.8104 15.1592 18 14.7141 18 14.25V3.75C18 3.28587 17.8104 2.84075 17.4728 2.51256C17.1352 2.18437 16.6774 2 16.2 2Z" fill="#11132D"/>
</g>
</svg>
