<svg width="206" height="151" viewBox="0 0 206 151" fill="none" xmlns="http://www.w3.org/2000/svg">
<g id="pic">
<g id="Background_Complete">
<g id="Group">
<g id="Group_2">
<path id="Vector" d="M59.9557 -5.63868e-05L0 40.334L59.0532 129.12L119.009 88.7863L59.9557 -5.63868e-05Z" fill="#F5F5F5"/>
</g>
<g id="Group_3">
<g id="Group_4">
<path id="Vector_2" d="M88.0283 84.5816L87.3475 88.8168L57.543 84.4989L58.2232 80.2637L88.0283 84.5816Z" fill="#E0E0E0"/>
</g>
<g id="Group_5">
<path id="Vector_3" d="M73.0196 69.4746L77.2965 70.0948L72.5548 99.6068L68.2773 98.9877L73.0196 69.4746Z" fill="#E0E0E0"/>
</g>
</g>
<g id="Group_6">
<g id="Group_7">
<path id="Vector_4" d="M45.5673 31.9656C45.6101 32.0301 39.6014 36.1471 32.1489 41.1604C24.6937 46.1753 18.6172 50.1875 18.5744 50.123C18.5317 50.0591 24.5388 45.9427 31.9945 40.9277C39.4469 35.9144 45.5246 31.9016 45.5673 31.9656Z" fill="#C2C4CA"/>
</g>
</g>
<g id="Group_8">
<g id="Group_9">
<path id="Vector_5" d="M67.6165 26.3989C67.6593 26.4634 57.6676 33.2598 45.3029 41.577C32.9334 49.8975 22.8749 56.5886 22.8322 56.5241C22.7894 56.4601 32.779 49.6648 45.1479 41.3443C57.5126 33.0271 67.5738 26.3349 67.6165 26.3989Z" fill="#C2C4CA"/>
</g>
</g>
<g id="Group_10">
<g id="Group_11">
<path id="Vector_6" d="M72.0345 33.0434C72.0772 33.1079 62.0855 39.9043 49.7209 48.2215C37.3513 56.542 27.2929 63.2331 27.2501 63.1686C27.2074 63.1041 37.1969 56.3093 49.5659 47.9889C61.9311 39.6716 71.9917 32.9795 72.0345 33.0434Z" fill="#C2C4CA"/>
</g>
</g>
<g id="Group_12">
<g id="Group_13">
<path id="Vector_7" d="M76.4524 39.6899C76.4952 39.7544 66.5035 46.5508 54.1388 54.868C41.7693 63.1885 31.7109 69.8796 31.6681 69.8151C31.6254 69.7512 41.6149 62.9558 53.9839 54.6354C66.3491 46.3176 76.4097 39.6254 76.4524 39.6899Z" fill="#C2C4CA"/>
</g>
</g>
<g id="Group_14">
<g id="Group_15">
<path id="Vector_8" d="M80.8743 46.3364C80.9171 46.4009 70.9254 53.1968 58.5607 61.5145C46.1912 69.835 36.1327 76.5261 36.09 76.4616C36.0472 76.3971 46.0368 69.6023 58.4057 61.2818C70.7704 52.9646 80.8316 46.2724 80.8743 46.3364Z" fill="#E0E0E0"/>
</g>
</g>
</g>
<g id="Group_16">
<g id="Group_17">
<path id="Vector_9" d="M187.876 40.0128L155.293 6.7168L105.907 54.5391L138.49 87.8351L187.876 40.0128Z" fill="#F5F5F5"/>
</g>
<g id="Group_18">
<g id="Group_19">
<path id="Vector_10" d="M165.917 34.6278C165.875 34.6691 162.557 31.3464 158.506 27.2074C154.455 23.0668 151.206 19.6784 151.249 19.6372C151.292 19.5959 154.609 22.9179 158.661 27.0584C162.71 31.1971 165.96 34.5866 165.917 34.6278Z" fill="#C2C4CA"/>
</g>
</g>
<g id="Group_20">
<g id="Group_21">
<path id="Vector_11" d="M172.025 47.9561C171.983 47.9973 166.5 42.4628 159.781 35.5959C153.059 28.7266 147.646 23.1266 147.689 23.0853C147.732 23.0441 153.213 28.5776 159.935 35.4469C166.654 42.3135 172.068 47.9149 172.025 47.9561Z" fill="#C2C4CA"/>
</g>
</g>
<g id="Group_22">
<g id="Group_23">
<path id="Vector_12" d="M168.33 51.5342C168.287 51.5754 162.804 46.0409 156.085 39.174C149.364 32.3047 143.951 26.7047 143.994 26.6634C144.037 26.6222 149.518 32.1557 156.24 39.025C162.959 45.8915 168.373 51.4929 168.33 51.5342Z" fill="#C2C4CA"/>
</g>
</g>
<g id="Group_24">
<g id="Group_25">
<path id="Vector_13" d="M164.631 55.1143C164.588 55.1555 159.106 49.621 152.386 42.7541C145.665 35.8848 140.252 30.2848 140.295 30.2435C140.337 30.2023 145.819 35.7358 152.54 42.6052C159.259 49.4717 164.673 55.0731 164.631 55.1143Z" fill="#C2C4CA"/>
</g>
</g>
<g id="Group_26">
<g id="Group_27">
<path id="Vector_14" d="M160.936 58.6943C160.893 58.7356 155.41 53.201 148.691 46.3342C141.969 39.4648 136.557 33.8648 136.599 33.8236C136.642 33.7824 142.123 39.3158 148.845 46.1852C155.564 53.0517 160.978 58.6531 160.936 58.6943Z" fill="#C2C4CA"/>
</g>
</g>
</g>
</g>
<g id="Group_28">
<g id="Group_29">
<g id="Group_30">
<g id="Group_31">
<g id="Group_32">
<g id="Group_33">
<g id="Group_34">
<path id="Vector_15" d="M146.392 88.821L65.9922 63.6518C63.9267 63.0053 62.7734 60.797 63.4163 58.7197L78.8762 8.76968C79.519 6.69232 81.7148 5.5325 83.7803 6.17901L164.181 31.3492C166.246 31.9957 167.399 34.2039 166.756 36.2808L151.296 86.2303C150.653 88.3077 148.458 89.4675 146.392 88.821Z" fill="#C2C4CA"/>
</g>
</g>
</g>
<g id="Group_35">
<g id="Group_36">
<g id="Group_37">
<path id="Vector_16" d="M76.4422 44.2182L74.9235 49.1248L74.4219 48.9674L75.8012 44.5097L74.6517 44.15L74.7906 43.7012L76.4422 44.2182Z" fill="white"/>
</g>
</g>
<g id="Group_38">
<g id="Group_39">
<path id="Vector_17" d="M80.0798 50.2462L79.9414 50.695L76.5195 49.6239L76.6303 49.266L79.2764 47.9034C79.9958 47.5298 80.203 47.2328 80.3069 46.8963C80.4827 46.3282 80.1938 45.8539 79.4485 45.6204C78.8767 45.4418 78.3834 45.4793 77.9478 45.7504L77.688 45.3308C78.2035 45.0004 78.8874 44.9377 79.6331 45.1707C80.623 45.4803 81.0942 46.1815 80.8403 47.0016C80.695 47.4713 80.4181 47.8458 79.5634 48.2858L77.3973 49.4062L80.0798 50.2462Z" fill="white"/>
</g>
</g>
<g id="Group_40">
<g id="Group_41">
<path id="Vector_18" d="M85.4764 51.0124L84.5004 50.707L84.1017 51.9968L83.6001 51.8394L83.9988 50.5497L81.2461 49.6878L81.3592 49.3235L84.9518 46.8809L85.5092 47.0554L82.0334 49.4423L84.152 50.1055L84.5032 48.9703L84.9905 49.123L84.6393 50.2582L85.6154 50.5636L85.4764 51.0124Z" fill="white"/>
</g>
</g>
<g id="Group_42">
<g id="Group_43">
<path id="Vector_19" d="M92.9521 53.3527L91.977 53.0473L91.5778 54.3371L91.0762 54.1797L91.4754 52.89L88.7227 52.0281L88.8353 51.6638L92.4274 49.2207L92.9849 49.3952L89.509 51.7817L91.6277 52.4449L91.9788 51.3097L92.4666 51.4624L92.1154 52.5976L93.091 52.903L92.9521 53.3527Z" fill="white"/>
</g>
</g>
<g id="Group_44">
<g id="Group_45">
<path id="Vector_20" d="M97.265 54.5351C97.0071 55.3692 96.2262 55.8398 95.0347 55.4666C94.3305 55.2462 93.7375 54.7913 93.4805 54.2878L93.8483 53.9652C94.0601 54.3927 94.5437 54.8053 95.1709 55.0016C96.0001 55.261 96.565 54.9923 96.7496 54.3964C96.9448 53.7656 96.6753 53.2509 95.4353 52.8629L94.397 52.5381L95.4094 50.1562L98.0786 50.9921L97.9397 51.4409L95.7094 50.7424L95.0587 52.2531L95.6859 52.4494C97.1566 52.9098 97.5341 53.6659 97.265 54.5351Z" fill="white"/>
</g>
</g>
<g id="Group_46">
<g id="Group_47">
<path id="Vector_21" d="M102.092 56.0224C101.808 56.9404 100.908 57.3047 99.9596 57.0077C98.6638 56.602 98.2392 55.4775 98.7187 53.9283C99.2355 52.2603 100.41 51.6746 101.734 52.089C102.174 52.2264 102.561 52.4325 102.809 52.7179L102.481 53.0609C102.282 52.8149 101.967 52.6469 101.605 52.5336C100.553 52.2041 99.6661 52.6724 99.254 54.0039C99.2189 54.1158 99.1829 54.2583 99.1515 54.4096C99.5623 53.9464 100.227 53.8239 100.903 54.0355C101.871 54.339 102.37 55.1252 102.092 56.0224ZM101.592 55.8813C101.792 55.2362 101.446 54.6746 100.693 54.4388C99.9476 54.2054 99.2955 54.5089 99.1072 55.1187C98.9402 55.6585 99.2282 56.3097 100.071 56.5737C100.776 56.7942 101.391 56.5334 101.592 55.8813Z" fill="white"/>
</g>
</g>
<g id="Group_48">
<g id="Group_49">
<path id="Vector_22" d="M108.748 58.1685C108.495 58.9886 107.708 59.4341 106.53 59.0656C105.826 58.8452 105.226 58.388 104.969 57.8849L105.336 57.5619C105.548 57.9893 106.038 58.4042 106.673 58.6029C107.481 58.8558 108.045 58.6173 108.233 58.0074C108.416 57.4189 108.124 56.9047 107.218 56.6211L106.87 56.5121L106.984 56.1403L108.864 54.8608L106.368 54.0797L106.507 53.6309L109.644 54.6125L109.533 54.9703L107.612 56.2833C108.641 56.6666 108.991 57.3837 108.748 58.1685Z" fill="white"/>
</g>
</g>
<g id="Group_50">
<g id="Group_51">
<path id="Vector_23" d="M113.658 59.6426C113.374 60.5611 112.474 60.9249 111.526 60.6284C110.23 60.2223 109.805 59.0982 110.285 57.549C110.802 55.881 111.977 55.2957 113.3 55.7102C113.74 55.8475 114.127 56.0536 114.375 56.3386L114.047 56.682C113.848 56.4356 113.533 56.2676 113.171 56.1543C112.119 55.8248 111.232 56.2931 110.82 57.6246C110.785 57.7365 110.749 57.879 110.717 58.0303C111.128 57.5671 111.793 57.4446 112.469 57.6567C113.438 57.9593 113.936 58.7455 113.658 59.6426ZM113.159 59.5015C113.358 58.8568 113.012 58.2948 112.26 58.0595C111.514 57.8256 110.862 58.1291 110.674 58.739C110.507 59.2787 110.794 59.9299 111.638 60.1939C112.342 60.4139 112.957 60.1536 113.159 59.5015Z" fill="white"/>
</g>
</g>
<g id="Group_52">
<g id="Group_53">
<path id="Vector_24" d="M119.214 57.6061L119.103 57.964L115.653 61.8736L115.109 61.7033L118.497 57.8739L115.988 57.0882L115.703 58.0062L115.209 57.8512L115.632 56.4844L119.214 57.6061Z" fill="white"/>
</g>
</g>
<g id="Group_54">
<g id="Group_55">
<path id="Vector_25" d="M126.186 59.7893L126.075 60.1471L122.626 64.0568L122.082 63.8864L125.469 60.0571L122.96 59.2718L122.675 60.1898L122.181 60.0348L122.604 58.668L126.186 59.7893Z" fill="white"/>
</g>
</g>
<g id="Group_56">
<g id="Group_57">
<path id="Vector_26" d="M129.891 64.8326C129.622 65.7014 128.724 66.0123 127.56 65.648C126.39 65.2818 125.845 64.5193 126.115 63.65C126.297 63.0611 126.759 62.7524 127.428 62.739C126.995 62.3876 126.838 61.9314 126.996 61.42C127.243 60.6208 128.073 60.3349 129.104 60.6574C130.136 60.98 130.672 61.6942 130.424 62.493C130.266 63.0049 129.872 63.2885 129.31 63.3279C129.86 63.7229 130.072 64.2506 129.891 64.8326ZM129.379 64.6636C129.565 64.0612 129.166 63.521 128.302 63.2504C127.438 62.9798 126.812 63.1994 126.625 63.8018C126.437 64.4116 126.829 64.9495 127.693 65.2196C128.557 65.4907 129.19 65.2735 129.379 64.6636ZM128.426 62.8508C129.186 63.0889 129.744 62.887 129.909 62.3542C130.081 61.8005 129.704 61.3137 128.972 61.0844C128.234 60.8533 127.663 61.0436 127.494 61.5903C127.327 62.13 127.666 62.6132 128.426 62.8508Z" fill="white"/>
</g>
</g>
<g id="Group_58">
<g id="Group_59">
<path id="Vector_27" d="M134.976 65.1863C134.459 66.8543 133.284 67.4396 131.961 67.0256C131.521 66.8877 131.134 66.6821 130.887 66.3967L131.214 66.0537C131.413 66.3002 131.728 66.4682 132.09 66.5814C133.142 66.9109 134.029 66.4426 134.441 65.1111C134.476 64.9993 134.513 64.8568 134.544 64.7055C134.133 65.1687 133.468 65.2907 132.792 65.0791C131.824 64.776 131.325 63.9898 131.603 63.0927C131.887 62.1747 132.787 61.8103 133.734 62.1069C135.031 62.5125 135.455 63.6371 134.976 65.1863ZM134.587 63.9958C134.754 63.4561 134.467 62.8049 133.624 62.5413C132.92 62.3209 132.304 62.5817 132.103 63.2338C131.903 63.8784 132.249 64.44 133.002 64.6758C133.746 64.9088 134.398 64.6057 134.587 63.9958Z" fill="white"/>
</g>
</g>
<g id="Group_60">
<g id="Group_61">
<path id="Vector_28" d="M140.673 64.3232L139.154 69.2298L138.652 69.0729L140.032 64.6151L138.883 64.2554L139.022 63.8066L140.673 64.3232Z" fill="white"/>
</g>
</g>
<g id="Group_62">
<g id="Group_63">
<path id="Vector_29" d="M144.306 70.3532L144.168 70.802L140.746 69.7304L140.857 69.3725L143.503 68.0099C144.222 67.6358 144.43 67.3393 144.533 67.0023C144.709 66.4347 144.42 65.9599 143.675 65.7265C143.103 65.5478 142.61 65.5849 142.174 65.8564L141.914 65.4364C142.43 65.1059 143.114 65.0428 143.86 65.2767C144.849 65.5863 145.32 66.2876 145.067 67.1077C144.921 67.5769 144.645 67.9519 143.79 68.3914L141.624 69.5122L144.306 70.3532Z" fill="white"/>
</g>
</g>
<g id="Group_64">
<g id="Group_65">
<path id="Vector_30" d="M148.983 70.7632C148.729 71.5832 147.942 72.0288 146.763 71.6598C146.06 71.4394 145.46 70.9827 145.203 70.4791L145.57 70.1561C145.782 70.5835 146.272 70.9985 146.906 71.1971C147.715 71.45 148.278 71.2115 148.467 70.6016C148.649 70.0131 148.357 69.4989 147.452 69.2153L147.103 69.1063L147.218 68.7345L149.097 67.4545L146.602 66.6734L146.741 66.2246L149.877 67.2062L149.767 67.564L147.846 68.877C148.875 69.2613 149.226 69.9783 148.983 70.7632Z" fill="white"/>
</g>
</g>
</g>
<g id="Group_66">
<g id="Group_67">
<g id="Group_68">
<path id="Vector_31" d="M109.96 64.0803L109.301 66.2109L148.376 78.4432L149.035 76.3126L109.96 64.0803Z" fill="white"/>
</g>
</g>
</g>
<g id="Group_69">
<g id="Group_70">
<g id="Group_71">
<path id="Vector_32" d="M127.683 74.2932L127.023 76.4238L147.065 82.6976L147.724 80.567L127.683 74.2932Z" fill="white"/>
</g>
</g>
</g>
<g id="Group_72" opacity="0.5">
<g id="Group_73">
<g id="Group_74">
<path id="Vector_33" d="M88.9883 43.5031L76.9659 39.7396C75.7582 39.3613 75.0835 38.0702 75.4596 36.8551L77.911 28.936C78.2871 27.7214 79.5709 27.0429 80.7791 27.4211L92.8001 31.1846C94.0078 31.5629 94.682 32.854 94.3063 34.0686L91.8564 41.9877C91.4807 43.2028 90.1964 43.8813 88.9883 43.5031Z" fill="#EBEBEB"/>
</g>
</g>
</g>
<g id="Group_75">
<g id="Group_76">
<g id="Group_77">
<path id="Vector_34" d="M75.832 35.6457L76.0775 34.8558L84.5189 37.4989C85.4926 37.8034 86.5323 37.2548 86.8359 36.2741C87.1387 35.2944 86.5849 34.2348 85.6186 33.9448L77.1763 31.3016L77.4214 30.5117L85.8627 33.1548C87.2697 33.5957 88.0589 35.105 87.6214 36.5201C87.1825 37.9356 85.6813 38.7293 84.2738 38.2893L75.832 35.6457Z" fill="#C2C4CA"/>
</g>
</g>
</g>
<g id="Group_78">
<g id="Group_79">
<g id="Group_80">
<path id="Vector_35" d="M87.3468 36.0031L87.1016 36.793L92.8939 38.6123L93.1392 37.8224L87.3468 36.0031Z" fill="#C2C4CA"/>
</g>
</g>
</g>
<g id="Group_81">
<g id="Group_82">
<g id="Group_83">
<path id="Vector_36" d="M125.83 30.4172L83.6641 17.2129L82.5373 20.8523L124.703 34.0566L125.83 30.4172Z" fill="white"/>
</g>
</g>
</g>
<path id="Vector_37" d="M152.765 45.521L147.053 43.7328C146.287 43.4928 145.859 42.6737 146.097 41.9028L147.875 36.1585C148.114 35.3876 148.928 34.9574 149.695 35.1973L155.407 36.9855C156.173 37.2255 156.601 38.0446 156.362 38.8155L154.584 44.5598C154.346 45.3307 153.531 45.761 152.765 45.521Z" fill="white"/>
</g>
</g>
</g>
</g>
<g id="Folder">
<g id="Group_84">
<g id="Group_85">
<path id="Vector_38" d="M69.4622 65.8451L54.9574 140.843L53.0586 150.661L149.89 150.181C154.236 150.159 158.087 146.279 159.485 140.513L176.655 69.7069C177.717 65.3299 175.388 60.7775 172.089 60.7813L74.0843 60.8848C71.9205 60.8877 70.0287 62.9182 69.4622 65.8451Z" fill="#9DACDF"/>
</g>
<g id="Group_86" opacity="0.5">
<path id="Vector_39" d="M69.4622 65.8451L54.9574 140.843L53.0586 150.661L149.89 150.181C154.236 150.159 158.087 146.279 159.485 140.513L176.655 69.7069C177.717 65.3299 175.388 60.7775 172.089 60.7813L74.0843 60.8848C71.9205 60.8877 70.0287 62.9182 69.4622 65.8451Z" fill="black"/>
</g>
<g id="Group_87">
<path id="Vector_40" d="M140.602 135.762L130.35 52.6738C129.93 49.2691 127.233 46.7295 124.049 46.7403L101.568 46.8141C99.9045 46.8195 98.3093 47.5311 97.1271 48.7947L86.4519 60.2075L23.9278 60.5354C20.1068 60.5556 17.1715 64.1913 17.6781 68.2766L27.197 145.071C27.6183 148.471 30.31 151.007 33.4894 151.001L142.456 150.784C154.592 151.037 155.751 147.432 155.751 147.432C141.842 150.532 140.603 135.771 140.602 135.762Z" fill="#9DACDF"/>
</g>
<g id="Group_88" opacity="0.5">
<path id="Vector_41" d="M93.6162 119.133L89.9413 123.103L61.6367 97.4948L65.312 93.5254L93.6162 119.133Z" fill="white"/>
<path id="Vector_42" d="M88.3995 92.6445L92.4612 96.319L66.8508 123.982L62.7891 120.307L88.3995 92.6445Z" fill="white"/>
</g>
</g>
</g>
<g id="Background_Complete_2">
<g id="Group_89">
<g id="Group_90">
<g id="Group_91">
<g id="Group_92">
<g id="Group_93">
<path id="Vector_43" d="M204.958 133C206.112 140.703 200.825 147.89 193.148 149.054C185.472 150.218 178.313 144.917 177.158 137.214C176.004 129.511 181.291 122.324 188.968 121.16C196.644 119.997 203.803 125.298 204.958 133Z" fill="#F5F5F5"/>
</g>
</g>
</g>
<g id="Group_94">
<g id="Group_95">
<g id="Group_96">
<path id="Vector_44" d="M201.649 133.502C202.529 139.372 198.5 144.849 192.649 145.736C186.8 146.623 181.344 142.583 180.464 136.713C179.585 130.844 183.614 125.366 189.464 124.479C195.314 123.593 200.77 127.632 201.649 133.502Z" fill="#EBEBEB"/>
</g>
</g>
</g>
<g id="Group_97">
<g id="Group_98">
<g id="Group_99">
<g id="Group_100">
<path id="Vector_45" d="M201.598 133.168C201.534 133.18 201.419 132.719 201.126 131.929C200.83 131.144 200.333 130.02 199.414 128.849C198.956 128.266 198.395 127.674 197.722 127.126C197.045 126.584 196.263 126.077 195.374 125.683C194.931 125.485 194.464 125.308 193.975 125.172C193.487 125.033 192.981 124.919 192.457 124.856C191.935 124.79 191.398 124.753 190.855 124.77C190.311 124.786 189.761 124.842 189.21 124.939C188.66 125.045 188.126 125.188 187.612 125.367C187.097 125.545 186.609 125.771 186.143 126.017C185.675 126.264 185.241 126.55 184.834 126.854C184.425 127.155 184.051 127.487 183.707 127.83C183.015 128.515 182.46 129.268 182.019 130.016C181.583 130.768 181.267 131.522 181.043 132.231C180.597 133.652 180.529 134.88 180.528 135.719C180.533 136.562 180.588 137.034 180.523 137.045C180.476 137.055 180.314 136.601 180.21 135.738C180.111 134.88 180.088 133.593 180.485 132.069C180.685 131.311 180.987 130.498 181.426 129.681C181.87 128.869 182.441 128.048 183.168 127.297C183.53 126.921 183.925 126.557 184.361 126.226C184.794 125.893 185.259 125.578 185.76 125.307C186.26 125.036 186.785 124.788 187.34 124.593C187.894 124.397 188.471 124.241 189.063 124.128C189.657 124.023 190.25 123.964 190.837 123.95C191.425 123.935 192.003 123.979 192.566 124.055C193.13 124.13 193.675 124.259 194.198 124.417C194.721 124.571 195.22 124.771 195.69 124.993C196.635 125.436 197.458 126 198.16 126.602C198.857 127.21 199.426 127.862 199.88 128.5C200.789 129.783 201.221 130.995 201.431 131.833C201.637 132.678 201.645 133.16 201.598 133.168Z" fill="#C2C4CA"/>
</g>
</g>
</g>
</g>
</g>
<g id="Group_101">
<g id="Group_102">
<g id="Group_103">
<g id="Group_104">
<g id="Group_105">
<path id="Vector_46" d="M193.208 141.279L193.513 143.131L191.869 143.404L191.573 141.602C189.929 141.774 188.283 141.522 187.263 140.961L187.835 138.794C188.757 139.269 190.014 139.518 191.217 139.436L190.762 136.676C188.864 136.534 186.726 136.261 186.337 133.897C186.048 132.145 187.066 130.43 189.614 129.701L189.312 127.865L190.956 127.592L191.252 129.394C192.501 129.288 193.755 129.419 194.754 129.847L194.268 132.017C193.35 131.678 192.449 131.539 191.611 131.576L192.074 134.386C193.969 134.512 196.075 134.79 196.458 137.121C196.741 138.84 195.737 140.536 193.208 141.279ZM190.362 134.246L189.975 131.899C189.137 132.243 188.871 132.78 188.961 133.325C189.056 133.904 189.601 134.136 190.362 134.246ZM193.845 137.76C193.75 137.181 193.222 136.947 192.474 136.816L192.849 139.097C193.641 138.779 193.932 138.289 193.845 137.76Z" fill="#C2C4CA"/>
</g>
</g>
</g>
</g>
</g>
</g>
<g id="Group_106">
<g id="Group_107">
<g id="Group_108">
<g id="Group_109">
<g id="Group_110">
<path id="Vector_47" d="M156.142 110.688C156.85 115.416 153.605 119.827 148.895 120.541C144.183 121.255 139.79 118.002 139.081 113.275C138.373 108.548 141.618 104.137 146.329 103.423C151.04 102.708 155.433 105.962 156.142 110.688Z" fill="#F5F5F5"/>
</g>
</g>
</g>
<g id="Group_111">
<g id="Group_112">
<g id="Group_113">
<path id="Vector_48" d="M154.114 110.997C154.654 114.599 152.181 117.961 148.591 118.505C145.001 119.049 141.653 116.57 141.113 112.968C140.573 109.365 143.046 106.004 146.636 105.46C150.226 104.916 153.574 107.395 154.114 110.997Z" fill="#EBEBEB"/>
</g>
</g>
</g>
<g id="Group_114">
<g id="Group_115">
<g id="Group_116">
<g id="Group_117">
<path id="Vector_49" d="M154.081 110.791C154.042 110.799 153.971 110.516 153.792 110.031C153.61 109.549 153.305 108.859 152.742 108.141C152.46 107.783 152.116 107.42 151.703 107.083C151.287 106.75 150.807 106.439 150.262 106.198C149.99 106.076 149.704 105.967 149.404 105.884C149.104 105.799 148.793 105.729 148.472 105.69C148.152 105.65 147.823 105.627 147.489 105.637C147.155 105.647 146.817 105.682 146.479 105.741C146.142 105.805 145.814 105.894 145.498 106.003C145.182 106.113 144.883 106.251 144.597 106.403C144.31 106.554 144.044 106.73 143.794 106.916C143.542 107.101 143.313 107.304 143.102 107.515C142.677 107.936 142.337 108.398 142.066 108.857C141.798 109.319 141.604 109.781 141.467 110.216C141.193 111.088 141.152 111.842 141.151 112.357C141.154 112.874 141.188 113.164 141.148 113.171C141.12 113.176 141.02 112.898 140.956 112.368C140.895 111.842 140.881 111.052 141.125 110.117C141.247 109.651 141.433 109.153 141.702 108.651C141.974 108.153 142.324 107.649 142.771 107.189C142.993 106.958 143.236 106.735 143.503 106.531C143.769 106.327 144.054 106.134 144.361 105.967C144.668 105.801 144.991 105.649 145.331 105.529C145.671 105.409 146.025 105.313 146.389 105.244C146.753 105.179 147.117 105.143 147.478 105.135C147.838 105.125 148.193 105.153 148.539 105.199C148.885 105.245 149.219 105.324 149.54 105.421C149.862 105.516 150.167 105.638 150.456 105.774C151.036 106.046 151.541 106.392 151.971 106.762C152.399 107.135 152.749 107.535 153.027 107.927C153.585 108.714 153.85 109.458 153.979 109.972C154.105 110.49 154.11 110.786 154.081 110.791Z" fill="#C2C4CA"/>
</g>
</g>
</g>
</g>
</g>
<g id="Group_118">
<g id="Group_119">
<g id="Group_120">
<g id="Group_121">
<g id="Group_122">
<path id="Vector_50" d="M148.933 115.769L149.12 116.905L148.112 117.073L147.93 115.967C146.921 116.072 145.911 115.918 145.285 115.574L145.636 114.244C146.202 114.535 146.973 114.688 147.711 114.638L147.432 112.944C146.268 112.857 144.955 112.689 144.717 111.239C144.54 110.163 145.164 109.111 146.728 108.663L146.542 107.537L147.551 107.369L147.733 108.475C148.5 108.41 149.269 108.49 149.883 108.753L149.584 110.085C149.021 109.877 148.468 109.791 147.953 109.814L148.237 111.539C149.4 111.616 150.693 111.787 150.928 113.217C151.102 114.272 150.486 115.313 148.933 115.769ZM147.187 111.453L146.95 110.012C146.435 110.223 146.272 110.553 146.327 110.887C146.385 111.242 146.72 111.385 147.187 111.453ZM149.324 113.609C149.266 113.254 148.942 113.11 148.483 113.03L148.713 114.43C149.199 114.235 149.378 113.934 149.324 113.609Z" fill="#C2C4CA"/>
</g>
</g>
</g>
</g>
</g>
</g>
<g id="Group_123">
<g id="Group_124">
<g id="Group_125">
<g id="Group_126">
<g id="Group_127">
<path id="Vector_51" d="M34.2768 119.157C35.2375 125.57 30.8357 131.554 24.4445 132.523C18.0533 133.492 12.0928 129.078 11.1317 122.665C10.1706 116.252 14.5724 110.268 20.964 109.299C27.3553 108.331 33.3158 112.744 34.2768 119.157Z" fill="#F5F5F5"/>
</g>
</g>
</g>
<g id="Group_128">
<g id="Group_129">
<g id="Group_130">
<path id="Vector_52" d="M31.5234 119.575C32.2556 124.462 28.901 129.022 24.0304 129.76C19.1601 130.499 14.6177 127.135 13.8855 122.248C13.1533 117.361 16.5078 112.801 21.3785 112.062C26.2487 111.325 30.7908 114.688 31.5234 119.575Z" fill="#EBEBEB"/>
</g>
</g>
</g>
<g id="Group_131">
<g id="Group_132">
<g id="Group_133">
<g id="Group_134">
<path id="Vector_53" d="M31.4788 119.296C31.4254 119.306 31.3299 118.923 31.0858 118.265C30.8393 117.612 30.4262 116.675 29.6612 115.701C29.2793 115.216 28.8125 114.723 28.2522 114.266C27.6886 113.815 27.0368 113.393 26.2972 113.065C25.9284 112.9 25.54 112.752 25.1327 112.639C24.7266 112.523 24.3045 112.428 23.8689 112.376C23.4341 112.322 22.9874 112.29 22.5345 112.304C22.0817 112.317 21.6239 112.364 21.1653 112.445C20.7079 112.532 20.2629 112.652 19.835 112.801C19.4064 112.949 18.9999 113.137 18.6118 113.343C18.2226 113.548 17.8616 113.787 17.5224 114.039C17.1815 114.29 16.8702 114.566 16.5834 114.852C16.0071 115.422 15.5461 116.049 15.1785 116.672C14.8155 117.298 14.5522 117.925 14.3659 118.515C13.9943 119.699 13.9377 120.722 13.9373 121.42C13.9414 122.122 13.9865 122.515 13.9332 122.524C13.8938 122.532 13.7588 122.154 13.6719 121.436C13.5898 120.722 13.5706 119.649 13.9016 118.381C14.0677 117.75 14.3196 117.073 14.6846 116.393C15.0542 115.717 15.5292 115.033 16.1351 114.408C16.4366 114.095 16.7656 113.792 17.1282 113.517C17.4891 113.239 17.8755 112.977 18.2927 112.752C18.7086 112.526 19.1467 112.32 19.6086 112.157C20.0697 111.994 20.55 111.864 21.043 111.77C21.5373 111.682 22.032 111.633 22.5206 111.622C23.0095 111.609 23.4915 111.646 23.9603 111.709C24.4296 111.771 24.8833 111.879 25.3185 112.01C25.7549 112.138 26.1692 112.304 26.5614 112.49C27.3477 112.858 28.0331 113.328 28.6173 113.829C29.1977 114.335 29.6719 114.878 30.0501 115.409C30.8065 116.477 31.1662 117.487 31.3414 118.184C31.5116 118.888 31.5181 119.29 31.4788 119.296Z" fill="#E0E0E0"/>
</g>
</g>
</g>
</g>
</g>
<g id="Group_135">
<g id="Group_136">
<g id="Group_137">
<g id="Group_138">
<g id="Group_139">
<path id="Vector_54" d="M24.4948 126.051L24.7487 127.592L23.3803 127.82L23.1334 126.32C21.765 126.462 20.3949 126.252 19.545 125.786L20.0208 123.981C20.7891 124.377 21.8351 124.584 22.8368 124.516L22.4582 122.218C20.8781 122.099 19.0975 121.872 18.7738 119.904C18.5339 118.445 19.3813 117.018 21.5024 116.41L21.251 114.882L22.6194 114.654L22.8663 116.155C23.9062 116.066 24.9501 116.175 25.782 116.531L25.3767 118.338C24.6129 118.056 23.8631 117.94 23.165 117.971L23.5501 120.311C25.1277 120.415 26.8813 120.647 27.2008 122.587C27.4363 124.02 26.5999 125.431 24.4948 126.051ZM22.1251 120.195L21.8031 118.241C21.1054 118.527 20.8835 118.974 20.9581 119.428C21.0377 119.91 21.4914 120.103 22.1251 120.195ZM25.0252 123.12C24.9456 122.638 24.5059 122.443 23.8836 122.334L24.1962 124.234C24.8554 123.969 25.0974 123.561 25.0252 123.12Z" fill="#C2C4CA"/>
</g>
</g>
</g>
</g>
</g>
</g>
</g>
</g>
</svg>
