<svg width="0" height="0" class="hidden">
  <symbol fill="none" xmlns="http://www.w3.org/2000/svg" viewBox="0 0 512 512" id="AE">
    <g clip-path="url(#clip0_2_6026)">
      <path d="M256 512C397.385 512 512 397.385 512 256C512 114.615 397.385 0 256 0C114.615 0 0 114.615 0 256C0 397.385 114.615 512 256 512Z" fill="#F0F0F0"></path>
      <path d="M144.696 345.043L166.957 496.079C194.689 506.37 224.686 512 256 512C366.07 512 459.906 442.528 496.076 345.043H144.696Z" fill="black"></path>
      <path d="M144.696 166.957L166.957 15.921C194.689 5.63 224.686 0 256 0C366.07 0 459.906 69.472 496.076 166.957H144.696Z" fill="#6DA544"></path>
      <path d="M0 256C0 366.071 69.473 459.906 166.957 496.077V15.9229C69.473 52.0939 0 145.929 0 256Z" fill="#A2001D"></path>
    </g>
    <defs>
      <clipPath id="clip0_2_6026">
        <rect width="512" height="512" fill="white"></rect>
      </clipPath>
    </defs>
  </symbol>
  <symbol fill="none" xmlns="http://www.w3.org/2000/svg" viewBox="0 0 512 512" id="AR">
    <g clip-path="url(#clip0_2_4126)">
      <path d="M256 512C397.385 512 512 397.385 512 256C512 114.615 397.385 0 256 0C114.615 0 0 114.615 0 256C0 397.385 114.615 512 256 512Z" fill="#F0F0F0"></path>
      <path d="M256 0C154.506 0 66.8103 59.065 25.4023 144.696H486.597C445.19 59.065 357.493 0 256 0Z" fill="#338AF3"></path>
      <path d="M256 512C357.493 512 445.19 452.935 486.598 367.304H25.4023C66.8103 452.935 154.506 512 256 512Z" fill="#338AF3"></path>
      <path d="M332.515 256L301.25 270.707L317.899 300.986L283.949 294.491L279.647 328.787L256 303.563L232.352 328.787L228.051 294.491L194.101 300.985L210.749 270.706L179.485 256L210.75 241.293L194.101 211.015L228.05 217.509L232.353 183.213L256 208.437L279.648 183.213L283.949 217.509L317.9 211.015L301.251 241.294L332.515 256Z" fill="#FFDA44"></path>
    </g>
    <defs>
      <clipPath id="clip0_2_4126">
        <rect width="512" height="512" fill="white"></rect>
      </clipPath>
    </defs>
  </symbol>
  <symbol fill="none" xmlns="http://www.w3.org/2000/svg" viewBox="0 0 20 20" id="AU">
    <g id="australia_5315661 1" clip-path="url(#clip0_79_2019)">
      <path id="Vector" d="M20 10C20 15.5228 15.5228 20 10 20C4.47719 20 0 15.5228 0 10C0 10.0023 10 0.00113281 10 0C15.5228 0 20 4.47719 20 10Z" fill="#0052B4"></path>
      <g id="Group">
        <path id="Vector_2" d="M10 0C9.99945 0 9.99887 3.90625e-05 9.99832 3.90625e-05L10 0Z" fill="#F0F0F0"></path>
        <path id="Vector_3" d="M9.97324 10H9.99999C9.99999 9.99096 9.99999 9.98229 9.99999 9.97327C9.99109 9.98221 9.98218 9.99112 9.97324 10Z" fill="#F0F0F0"></path>
        <path id="Vector_4" d="M10 5.21744C10 3.45787 10 2.30487 10 6.10352e-05H9.99832C4.47625 0.000959473 0 4.47772 0 10H5.21738V7.06205L8.15535 10H9.97328C9.98223 9.99112 9.99113 9.98221 10 9.97326C10 9.29955 10 8.69842 10 8.15545L7.06203 5.21744H10Z" fill="#F0F0F0"></path>
      </g>
      <g id="Group_2">
        <path id="Vector_5" d="M5.05917 1.30432C3.49514 2.19491 2.19491 3.49514 1.30432 5.05917V9.99999H3.91303V3.91307L9.99999 3.91303C9.99999 3.09026 9.99999 2.30643 9.99999 1.30432H5.05917Z" fill="#D80027"></path>
        <path id="Vector_6" d="M9.99999 8.77024L6.44713 5.21742H5.21741L9.99995 9.99996H9.99999C9.99999 9.99996 9.99999 9.15211 9.99999 8.77024Z" fill="#D80027"></path>
      </g>
      <g id="Group_3">
        <path id="Vector_7" d="M6.03107 11.7392L6.5799 12.8868L7.81924 12.6003L7.26424 13.7449L8.26088 14.5353L7.01998 14.815L7.02346 16.087L6.03107 15.2912L5.03873 16.087L5.04221 14.815L3.80127 14.5353L4.79795 13.7449L4.24287 12.6003L5.48229 12.8868L6.03107 11.7392Z" fill="#F0F0F0"></path>
        <path id="Vector_8" d="M14.9721 13.9131L15.2465 14.4869L15.8662 14.3436L15.5886 14.9159L16.087 15.3111L15.4665 15.451L15.4682 16.087L14.9721 15.6891L14.4759 16.087L14.4776 15.451L13.8572 15.3111L14.3555 14.9159L14.078 14.3436L14.6976 14.4869L14.9721 13.9131Z" fill="#F0F0F0"></path>
        <path id="Vector_9" d="M12.4193 7.82611L12.6936 8.39994L13.3133 8.25666L13.0358 8.82896L13.5342 9.22416L12.9137 9.364L12.9154 10L12.4193 9.60209L11.9231 10L11.9248 9.364L11.3044 9.22416L11.8027 8.82896L11.5252 8.25666L12.1449 8.39994L12.4193 7.82611Z" fill="#F0F0F0"></path>
        <path id="Vector_10" d="M14.9721 4.34784L15.2465 4.92167L15.8662 4.77843L15.5887 5.35073L16.0869 5.74589L15.4665 5.88577L15.4682 6.52178L14.9721 6.12386L14.4759 6.52178L14.4776 5.88577L13.8572 5.74589L14.3555 5.35073L14.078 4.77843L14.6976 4.92167L14.9721 4.34784Z" fill="#F0F0F0"></path>
        <path id="Vector_11" d="M17.2019 6.95654L17.4763 7.53037L18.096 7.38709L17.8185 7.95939L18.3168 8.35459L17.6963 8.49447L17.698 9.13045L17.2019 8.73256L16.7057 9.13045L16.7074 8.49447L16.087 8.35459L16.5853 7.95939L16.3078 7.38709L16.9274 7.53037L17.2019 6.95654Z" fill="#F0F0F0"></path>
        <path id="Vector_12" d="M15.6075 10L15.8233 10.6643H16.5218L15.9567 11.0749L16.1726 11.7391L15.6075 11.3286L15.0424 11.7391L15.2582 11.0749L14.6931 10.6643H15.3916L15.6075 10Z" fill="#F0F0F0"></path>
      </g>
    </g>
    <defs>
      <clipPath id="clip0_79_2019">
        <rect width="20" height="20" fill="white"></rect>
      </clipPath>
    </defs>
  </symbol>
  <symbol fill="none" xmlns="http://www.w3.org/2000/svg" viewBox="0 0 512 512" id="BD">
    <g clip-path="url(#clip0_2_4204)">
      <path d="M256 512C397.385 512 512 397.385 512 256C512 114.615 397.385 0 256 0C114.615 0 0 114.615 0 256C0 397.385 114.615 512 256 512Z" fill="#496E2D"></path>
      <path d="M200.348 367.304C261.819 367.304 311.652 317.472 311.652 256C311.652 194.529 261.819 144.696 200.348 144.696C138.876 144.696 89.0439 194.529 89.0439 256C89.0439 317.472 138.876 367.304 200.348 367.304Z" fill="#D80027"></path>
    </g>
    <defs>
      <clipPath id="clip0_2_4204">
        <rect width="512" height="512" fill="white"></rect>
      </clipPath>
    </defs>
  </symbol>
  <symbol fill="none" xmlns="http://www.w3.org/2000/svg" viewBox="0 0 512 512" id="BR">
    <g clip-path="url(#clip0_2_4298)">
      <path d="M256 512C397.385 512 512 397.385 512 256C512 114.615 397.385 0 256 0C114.615 0 0 114.615 0 256C0 397.385 114.615 512 256 512Z" fill="#6DA544"></path>
      <path d="M256 100.174L467.478 256L256 411.826L44.522 256L256 100.174Z" fill="#FFDA44"></path>
      <path d="M256 345.043C305.177 345.043 345.043 305.177 345.043 256C345.043 206.823 305.177 166.957 256 166.957C206.823 166.957 166.957 206.823 166.957 256C166.957 305.177 206.823 345.043 256 345.043Z" fill="#F0F0F0"></path>
      <path d="M211.478 250.435C195.994 250.435 181.051 252.79 166.985 257.16C167.608 305.8 207.212 345.044 256 345.044C286.168 345.044 312.812 330.027 328.919 307.076C301.362 272.579 258.961 250.435 211.478 250.435Z" fill="#0052B4"></path>
      <path d="M343.393 273.06C344.465 267.536 345.044 261.837 345.044 256C345.044 206.822 305.178 166.957 256.001 166.957C219.307 166.957 187.807 189.158 174.175 220.856C186.225 218.359 198.701 217.044 211.48 217.044C263.197 217.043 309.983 238.541 343.393 273.06Z" fill="#0052B4"></path>
    </g>
    <defs>
      <clipPath id="clip0_2_4298">
        <rect width="512" height="512" fill="white"></rect>
      </clipPath>
    </defs>
  </symbol>
  <symbol fill="none" xmlns="http://www.w3.org/2000/svg" viewBox="0 0 512 512" id="BY">
    <g clip-path="url(#clip0_2_4226)">
      <path d="M256 512C397.385 512 512 397.385 512 256C512 114.615 397.385 0 256 0C114.615 0 0 114.615 0 256C0 397.385 114.615 512 256 512Z" fill="#FCFCFC"></path>
      <path d="M105.739 237.449L77.9131 186.966L105.739 137.275L133.565 186.966L105.739 237.449Z" fill="#A2001D"></path>
      <path d="M50.0872 237.449L22.2612 186.966L50.0872 137.275L77.9132 186.966L50.0872 237.449Z" fill="#A2001D"></path>
      <path d="M105.739 374.725L77.9131 324.242L105.739 274.551L133.565 324.242L105.739 374.725Z" fill="#A2001D"></path>
      <path d="M50.0872 374.725L22.2612 324.242L50.0872 274.551L77.9132 324.242L50.0872 374.725Z" fill="#A2001D"></path>
      <path d="M133.565 49.692L125.687 35.624C111.557 43.996 98.3043 53.689 86.0933 64.533L105.739 100.174L133.565 49.692Z" fill="#A2001D"></path>
      <path d="M105.739 411.826L85.8853 447.282C98.0853 458.14 111.329 467.848 125.453 476.237L133.566 461.518L105.739 411.826Z" fill="#A2001D"></path>
      <path d="M155.826 322.783V491.646C186.595 504.743 220.448 512 256 512C366.071 512 459.906 442.528 496.077 345.043L155.826 322.783Z" fill="#6DA544"></path>
      <path d="M496.077 345.043C506.368 317.31 512 287.314 512 256C512 114.616 397.384 0 256 0C220.451 0 186.595 7.253 155.826 20.348V345.044H496.077V345.043Z" fill="#A2001D"></path>
    </g>
    <defs>
      <clipPath id="clip0_2_4226">
        <rect width="512" height="512" fill="white"></rect>
      </clipPath>
    </defs>
  </symbol>
  <symbol fill="none" xmlns="http://www.w3.org/2000/svg" viewBox="0 0 20 20" id="CA">
    <g id="canada_4628640 1" clip-path="url(#clip0_79_1963)">
      <path id="Vector" d="M10 20C15.5227 20 20 15.5223 20 10C20 4.47773 15.523 0 10 0C4.47695 0 0 4.47773 0 10C0 15.5223 4.47734 20 10 20Z" fill="#F0F0F0"></path>
      <path id="Vector_2" fill-rule="evenodd" clip-rule="evenodd" d="M1.02916e-06 10C-0.000852405 11.8809 0.529096 13.7238 1.52892 15.317C2.52875 16.9101 3.95786 18.1887 5.65195 19.0059V0.994934C2.30742 2.61173 1.02916e-06 6.03361 1.02916e-06 10ZM20 10C20.0007 8.11923 19.4706 6.27642 18.4707 4.68344C17.4708 3.09046 16.0417 1.81197 14.3477 0.994934V19.0059C16.0418 18.1888 17.471 16.9102 18.4709 15.317C19.4708 13.7239 20.0008 11.8809 20 10ZM13.4766 10.4336L11.7375 11.3059L12.1719 12.1727H10.4344V13.4766H9.56484V12.1727H7.82617L8.26133 11.3059L6.52344 10.4336L7.3918 10V9.12814L9.13086 10L8.26133 8.26173H9.13086L10 6.95626L10.8695 8.26173H11.7391L10.8699 10L12.6094 9.12775V10L13.4766 10.4336Z" fill="#D80027"></path>
    </g>
    <defs>
      <clipPath id="clip0_79_1963">
        <rect width="20" height="20" fill="white"></rect>
      </clipPath>
    </defs>
  </symbol>
  <symbol fill="none" xmlns="http://www.w3.org/2000/svg" viewBox="0 0 512 512" id="CH">
    <g clip-path="url(#clip0_2_5852)">
      <path d="M256 512C397.385 512 512 397.385 512 256C512 114.615 397.385 0 256 0C114.615 0 0 114.615 0 256C0 397.385 114.615 512 256 512Z" fill="#D80027"></path>
      <path d="M389.565 211.479H300.522V122.435H211.478V211.479H122.435V300.522H211.478V389.565H300.522V300.522H389.565V211.479Z" fill="#F0F0F0"></path>
    </g>
    <defs>
      <clipPath id="clip0_2_5852">
        <rect width="512" height="512" fill="white"></rect>
      </clipPath>
    </defs>
  </symbol>
  <symbol fill="none" xmlns="http://www.w3.org/2000/svg" viewBox="0 0 512 512" id="CL">
    <g clip-path="url(#clip0_2_4518)">
      <path d="M256 512C397.385 512 512 397.385 512 256C512 114.615 397.385 0 256 0C114.615 0 0 114.615 0 256C0 397.385 114.615 512 256 512Z" fill="#F0F0F0"></path>
      <path d="M512 256C512 397.384 397.384 512 256 512C114.616 512 0 397.384 0 256C0 114.616 256 256 256 256C256 256 449.761 256 512 256Z" fill="#D80027"></path>
      <path d="M0 256C0 114.616 114.616 0 256 0V256C256 256 89.043 256 0 256Z" fill="#0052B4"></path>
      <path d="M152.389 89.043L168.966 140.061H222.609L179.211 171.591L195.787 222.609L152.389 191.078L108.991 222.609L125.567 171.591L82.1689 140.061H135.812L152.389 89.043Z" fill="#F0F0F0"></path>
    </g>
    <defs>
      <clipPath id="clip0_2_4518">
        <rect width="512" height="512" fill="white"></rect>
      </clipPath>
    </defs>
  </symbol>
  <symbol fill="none" xmlns="http://www.w3.org/2000/svg" viewBox="0 0 20 20" id="CN">
    <path d="M10 20C15.5227 20 20 15.5223 20 10C20 4.47773 15.5227 0 10 0C4.47734 0 0 4.47773 0 10C0 15.5223 4.47734 20 10 20Z" fill="#D80027"></path>
    <path fill-rule="evenodd" clip-rule="evenodd" d="M13.7947 4.24053L13.887 3.00692V3L13.0894 3.94482L11.9393 3.48579L12.5939 4.53579L11.7963 5.48061L13.0003 5.18535L13.6508 6.23535L13.7384 4.99436L14.9425 4.6991L13.7947 4.24053ZM6.31646 4.89655L7.33549 8.03364H10.6334L7.96702 9.97679L8.98651 13.1139L6.31646 11.1717L3.64641 13.1139L4.67005 9.97679L2 8.03456H5.29651L6.31646 4.89655ZM16.3628 10.0866L16.7642 11.2612L18 11.2482L17.0082 11.9827L17.4049 13.1572L16.3946 12.4357L15.4028 13.1771L15.7719 11.9961L14.7616 11.2745L15.9988 11.2547L16.3628 10.0737V10.0866ZM13.678 12.7623L13.005 13.7999L11.8111 13.4829L12.5907 14.4518L11.9213 15.4884L13.0746 15.0423L13.8542 16L13.7846 14.7641L14.9425 14.318L13.7431 13.995L13.6785 12.7623H13.678ZM15.514 6.08911L16.3997 6.94858L17.4926 6.37145L16.9482 7.48696L17.8339 8.34643L16.6115 8.16928L16.0671 9.27648L15.8554 8.06271L14.6283 7.88555L15.7258 7.30842L15.514 6.08911Z" fill="#FFDA44"></path>
  </symbol>
  <symbol fill="none" xmlns="http://www.w3.org/2000/svg" viewBox="0 0 512 512" id="CO">
    <g clip-path="url(#clip0_2_4543)">
      <path d="M0 256C0 114.616 114.616 0 256 0C397.384 0 512 114.616 512 256L256 278.261L0 256Z" fill="#FFDA44"></path>
      <path d="M34.2559 384C78.5209 460.516 161.245 512 256 512C350.755 512 433.479 460.516 477.744 384L256 367.304L34.2559 384Z" fill="#D80027"></path>
      <path d="M477.744 384C499.526 346.346 512 302.631 512 256H0C0 302.631 12.474 346.346 34.256 384H477.744Z" fill="#0052B4"></path>
    </g>
    <defs>
      <clipPath id="clip0_2_4543">
        <rect width="512" height="512" fill="white"></rect>
      </clipPath>
    </defs>
  </symbol>
  <symbol fill="none" xmlns="http://www.w3.org/2000/svg" viewBox="0 0 20 20" id="CY">
    <path d="M10 20.0001C15.5462 20.0001 20 15.5463 20 10.0001C20 4.45393 15.5462 0 10 0C4.45384 0 0 4.45393 0 10.0001C0 15.5463 4.45384 20.0001 10 20.0001Z" fill="#F1F2F2"></path>
    <path d="M6.83487 12.1706C7.02511 12.3286 7.12088 12.5731 7.15658 12.813C7.17596 12.9248 7.15658 13.0401 7.11414 13.1474C6.9573 13.0459 6.86845 12.8718 6.82924 12.6953C6.79049 12.5223 6.77942 12.3413 6.83847 12.1706" fill="#3AB37C"></path>
    <path d="M12.4177 12.6492C12.4675 12.4693 12.5561 12.2894 12.7026 12.1706C12.7755 12.4001 12.7432 12.6526 12.6509 12.8718C12.6085 12.9871 12.523 13.0793 12.4249 13.1474C12.3557 12.9871 12.3695 12.8106 12.4157 12.6492" fill="#3AB37C"></path>
    <path d="M5.96994 12.3378C6.2029 12.3678 6.41278 12.4958 6.57996 12.6561C6.69067 12.7611 6.7737 12.8983 6.77721 13.0528C6.41278 12.9733 6.02299 12.738 5.96994 12.3378Z" fill="#3AB37C"></path>
    <path d="M13.0117 12.6065C13.1685 12.4728 13.3588 12.3644 13.5721 12.3378C13.5159 12.738 13.1258 12.9733 12.7626 13.0528C12.7626 12.8718 12.8779 12.7184 13.0117 12.6065Z" fill="#3AB37C"></path>
    <path d="M7.25809 12.8395L7.33374 12.5731C7.55978 12.806 7.72013 13.1808 7.54022 13.4818C7.38218 13.3042 7.26805 13.0816 7.25763 12.8395" fill="#3AB37C"></path>
    <path d="M11.9979 13.4818C11.818 13.1808 11.9785 12.8037 12.2055 12.5731C12.2608 12.6665 12.2931 12.7668 12.2802 12.8717C12.2608 13.1012 12.1487 13.3146 11.9976 13.4818" fill="#3AB37C"></path>
    <path d="M7.78627 12.889C7.9766 13.0493 8.12071 13.2788 8.14378 13.5314L8.07458 13.8197C7.7967 13.6075 7.70785 13.2166 7.78627 12.889Z" fill="#3AB37C"></path>
    <path d="M11.3948 13.5314C11.4179 13.2823 11.5586 13.0494 11.7523 12.8925C11.8344 13.2189 11.7431 13.6098 11.4674 13.8197L11.3945 13.5314" fill="#3AB37C"></path>
    <path d="M6.07834 13.2097C6.42892 13.1347 6.83487 13.1866 7.10814 13.4357C6.97326 13.5476 6.78984 13.5775 6.62267 13.5372C6.41619 13.4887 6.2063 13.3873 6.07834 13.2097Z" fill="#3AB37C"></path>
    <path d="M8.24876 13.1381C8.42175 13.295 8.5797 13.4852 8.64548 13.7147C8.67777 13.8301 8.6584 13.9512 8.60489 14.0584C8.395 13.905 8.28428 13.6559 8.23474 13.4034L8.24858 13.1381" fill="#3AB37C"></path>
    <path d="M10.9104 13.6628C10.9852 13.4553 11.1296 13.2823 11.291 13.1381C11.3464 13.3446 11.2809 13.5568 11.1918 13.7413C11.1328 13.8658 11.0419 13.9765 10.9335 14.0584C10.8708 13.9385 10.8615 13.7943 10.9104 13.6628Z" fill="#3AB37C"></path>
    <path d="M12.4315 13.4357C12.7026 13.1866 13.1096 13.1347 13.4602 13.2096C13.3322 13.3907 13.1224 13.4887 12.9136 13.5372C12.7487 13.5776 12.5653 13.5476 12.4315 13.4357Z" fill="#3AB37C"></path>
    <path d="M8.74924 13.3192C9.09401 13.4783 9.24514 13.8923 9.18166 14.2521C8.91641 14.0261 8.7008 13.679 8.74924 13.3192Z" fill="#3AB37C"></path>
    <path d="M10.3557 14.2521C10.2939 13.8923 10.4443 13.4783 10.7916 13.3192C10.8377 13.679 10.6221 14.0261 10.3557 14.2521Z" fill="#3AB37C"></path>
    <path d="M6.5961 13.784C6.67452 13.7079 6.77028 13.6364 6.88441 13.626C7.09089 13.6029 7.29496 13.6791 7.49452 13.7275C7.37339 13.8786 7.1658 13.9074 6.98359 13.9074C6.8452 13.9074 6.70801 13.8682 6.5961 13.784Z" fill="#3AB37C"></path>
    <path d="M12.044 13.7275C12.2447 13.6791 12.4477 13.6029 12.6576 13.626C12.7695 13.6364 12.864 13.7079 12.9425 13.784C12.759 13.9282 12.5065 13.9282 12.2897 13.8751L12.044 13.7275" fill="#3AB37C"></path>
    <path d="M7.13702 14.2499C7.33077 13.9639 7.74012 13.8163 8.055 13.9812C7.82205 14.213 7.46565 14.3675 7.13702 14.2499Z" fill="#3AB37C"></path>
    <path d="M11.5101 13.9708C11.8215 13.8232 12.2147 13.9708 12.4015 14.2499C12.1167 14.3572 11.8018 14.2434 11.5724 14.0619L11.5106 13.9709" fill="#3AB37C"></path>
    <path d="M7.66522 14.5047C7.88775 14.2649 8.25218 14.1565 8.56586 14.2649C8.50497 14.3629 8.42867 14.4586 8.32026 14.5117C8.11729 14.6166 7.87161 14.5866 7.66522 14.5043" fill="#3AB37C"></path>
    <path d="M10.9761 14.2649C11.2875 14.1565 11.6508 14.2649 11.8734 14.5047C11.667 14.5832 11.4213 14.6166 11.2183 14.5121C11.1134 14.4591 11.0373 14.3634 10.9761 14.2653" fill="#3AB37C"></path>
    <path d="M8.87152 14.2626C9.17016 14.3318 9.46539 14.4263 9.76985 14.4621C10.0743 14.4263 10.3695 14.3318 10.6683 14.2649C10.4341 14.3537 10.1989 14.4356 9.95898 14.5117C10.1078 14.5532 10.2508 14.6224 10.38 14.7077C10.1724 14.6719 9.97633 14.6028 9.76985 14.5705C9.56347 14.6028 9.36622 14.672 9.16324 14.7077C9.2901 14.6201 9.432 14.5532 9.57961 14.5117C9.34315 14.4356 9.10448 14.3537 8.87152 14.2626Z" fill="#3AB37C"></path>
    <path d="M8.17606 14.8392C8.36639 14.5635 8.70083 14.3894 9.03527 14.4136C8.96054 14.5578 8.868 14.7042 8.71347 14.7769C8.5474 14.8588 8.35716 14.8519 8.17606 14.8392Z" fill="#3AB37C"></path>
    <path d="M10.5033 14.4136C10.8377 14.3894 11.1757 14.5635 11.3625 14.8392C11.1665 14.8518 10.9531 14.8587 10.779 14.7503C10.6475 14.6754 10.5725 14.5404 10.5033 14.4136" fill="#3AB37C"></path>
    <path fill-rule="evenodd" clip-rule="evenodd" d="M4.79977 8.76605L4.70508 9.05806L4.91029 9.38957V9.84725L5.03659 10.1077L5.21803 10.2418L5.32855 10.7705L5.69947 10.9679L6.18876 11.1652L6.40186 11.3388L6.78851 11.4492L7.2778 11.3309L7.63346 11.2723L7.91248 11.596L7.96828 11.875L8.34774 11.8862L8.19149 11.5513L8.64908 11.0938L9.28524 11.0603L9.57542 11.0156L9.63123 10.9487L9.9214 10.9822L10.4013 10.6808L10.7473 10.5692L10.9705 10.346L11.1826 10.3572L11.3611 10.1786L11.3723 9.65403L11.696 9.43081L12.1982 9.39733L12.447 9.5868L12.5969 9.57895L12.6206 9.42898L12.9442 9.3737L13.2835 9.4132L13.4492 9.52367L13.4176 9.30273L13.2204 9.03443L12.9915 8.82918L12.8889 8.60039L12.6364 8.29259L12.5732 7.93746L12.6758 7.63751L12.7232 7.5981L12.7942 7.43235L13.0309 7.3455L13.3229 7.36922L13.5755 6.93517L13.9148 6.63523L14.4909 6.3985L14.7596 6.1105L14.9828 5.98773L15.1 5.78126L15.4906 5.5134L15.7752 5.43528L15.8868 5.12836L15.4627 5.37389L15.1111 5.43528L15.0609 5.53572L14.7819 5.58595L14.5977 5.80358L14.1234 6.02121L13.9337 6.00447L13.6602 6.33371L12.447 6.89567L11.8866 6.93517L11.4842 7.24296L11.1527 7.23512L10.8686 7.3455L10.2688 7.39294L9.42436 7.32981L9.15607 7.21925L8.98948 7.28238L8.84439 7.23215L8.5877 7.27679L7.84551 7.03684L7.89573 7.43863L7.9069 7.96876L7.76739 8.29242L7.58323 8.46541L7.33212 8.51005L6.84105 8.28126L6.52855 8.20871L6.06538 8.35938L5.90913 8.52679L5.8031 8.83371L5.42922 9.07925L5.25623 9.11273L5.0944 9.07367L4.86002 8.88394L4.79977 8.76605Z" fill="#FD982F"></path>
  </symbol>
  <symbol fill="none" xmlns="http://www.w3.org/2000/svg" viewBox="0 0 512 512" id="CZ">
    <g clip-path="url(#clip0_2_4633)">
      <path d="M256 512C397.385 512 512 397.385 512 256C512 114.615 397.385 0 256 0C114.615 0 0 114.615 0 256C0 397.385 114.615 512 256 512Z" fill="#F0F0F0"></path>
      <path d="M233.739 256C233.739 256 75.13 437.055 74.98 437.019C121.306 483.346 185.307 512 256 512C397.384 512 512 397.384 512 256H233.739Z" fill="#D80027"></path>
      <path d="M74.98 74.98C-24.994 174.954 -24.994 337.045 74.98 437.02C116.293 395.707 156.026 355.974 256 256L74.98 74.98Z" fill="#0052B4"></path>
    </g>
    <defs>
      <clipPath id="clip0_2_4633">
        <rect width="512" height="512" fill="white"></rect>
      </clipPath>
    </defs>
  </symbol>
  <symbol fill="none" xmlns="http://www.w3.org/2000/svg" viewBox="0 0 20 20" id="DE">
    <g id="germany_5372781 1" clip-path="url(#clip0_79_2042)">
      <g id="Group">
        <path id="Vector" fill-rule="evenodd" clip-rule="evenodd" d="M20 10C20 15.5229 15.5229 20 10 20C4.47714 20 0 15.5229 0 10C0 4.47714 4.47714 0 10 0C15.5229 0 20 4.47714 20 10Z" fill="#E92B2B"></path>
        <path id="Vector_2" fill-rule="evenodd" clip-rule="evenodd" d="M19.1983 6.07143H0.800781C2.32738 2.50151 5.87134 0 9.99955 0C14.1278 0 17.6717 2.50151 19.1983 6.07143Z" fill="#1D1D1D"></path>
        <path id="Vector_3" fill-rule="evenodd" clip-rule="evenodd" d="M19.1983 13.9286C17.6717 17.4985 14.1278 20 9.99955 20C5.87134 20 2.32738 17.4985 0.800781 13.9286H19.1983Z" fill="#FFD02B"></path>
      </g>
    </g>
    <defs>
      <clipPath id="clip0_79_2042">
        <rect width="20" height="20" fill="white"></rect>
      </clipPath>
    </defs>
  </symbol>
  <symbol fill="none" xmlns="http://www.w3.org/2000/svg" viewBox="0 0 20 20" id="EE">
    <g id="estonia_9906463 1" clip-path="url(#clip0_79_2006)">
      <g id="Group">
        <g id="Estonia">
          <path id="Vector" d="M9.96678 20C15.4713 20 19.9336 15.5228 19.9336 10C19.9336 4.47715 15.4713 0 9.96678 0C4.46228 0 0 4.47715 0 10C0 15.5228 4.46228 20 9.96678 20Z" fill="#0071BC"></path>
          <path id="Vector_2" d="M19.9336 10C19.9336 15.5333 15.4817 20 9.96678 20C4.45183 20 0 15.5333 0 10H19.9336Z" fill="#F0F0F0"></path>
          <path id="Vector_3" d="M0 10C0 11.1334 0.199336 12.2667 0.598007 13.3334H19.402C20.1993 11.2 20.1993 8.80002 19.402 6.66669H0.598007C0.199336 7.73335 0 8.86669 0 10Z" fill="black"></path>
        </g>
      </g>
    </g>
    <defs>
      <clipPath id="clip0_79_2006">
        <rect width="20" height="20" fill="white"></rect>
      </clipPath>
    </defs>
  </symbol>
  <symbol fill="none" xmlns="http://www.w3.org/2000/svg" viewBox="0 0 512 512" id="EG">
    <g clip-path="url(#clip0_2_4707)">
      <path d="M256 512C397.385 512 512 397.385 512 256C512 114.615 397.385 0 256 0C114.615 0 0 114.615 0 256C0 397.385 114.615 512 256 512Z" fill="#F0F0F0"></path>
      <path d="M256 0C145.929 0 52.0939 69.472 15.9229 166.957H496.078C459.906 69.472 366.071 0 256 0Z" fill="#D80027"></path>
      <path d="M256 512C366.071 512 459.906 442.528 496.077 345.043H15.9229C52.0939 442.528 145.929 512 256 512Z" fill="black"></path>
      <path d="M345.043 228.174H278.26C278.26 215.88 268.293 205.913 255.999 205.913C243.705 205.913 233.738 215.88 233.738 228.174H166.955C166.955 240.469 177.664 250.435 189.958 250.435H189.216C189.216 262.73 199.182 272.696 211.477 272.696C211.477 284.991 221.443 294.957 233.738 294.957H278.26C290.555 294.957 300.521 284.991 300.521 272.696C312.816 272.696 322.782 262.73 322.782 250.435H322.041C334.335 250.435 345.043 240.469 345.043 228.174Z" fill="#FF9811"></path>
    </g>
    <defs>
      <clipPath id="clip0_2_4707">
        <rect width="512" height="512" fill="white"></rect>
      </clipPath>
    </defs>
  </symbol>
  <symbol fill="none" xmlns="http://www.w3.org/2000/svg" viewBox="0 0 512 512" id="ES">
    <g clip-path="url(#clip0_2_5784)">
      <path d="M0.000976562 256C0.000976562 287.314 5.63398 317.31 15.924 345.043L256.001 367.304L496.078 345.043C506.368 317.31 512.001 287.314 512.001 256C512.001 224.686 506.368 194.69 496.078 166.957L256.001 144.696L15.924 166.957C5.63398 194.69 0.000976563 224.686 0.000976563 256H0.000976562Z" fill="#FFDA44"></path>
      <path d="M496.078 166.957C459.907 69.473 366.072 0 256.001 0C145.93 0 52.095 69.473 15.924 166.957H496.078Z" fill="#D80027"></path>
      <path d="M15.924 345.043C52.095 442.527 145.93 512 256.001 512C366.072 512 459.907 442.527 496.078 345.043H15.924Z" fill="#D80027"></path>
    </g>
    <defs>
      <clipPath id="clip0_2_5784">
        <rect width="512" height="512" fill="white" transform="translate(0.000976562)"></rect>
      </clipPath>
    </defs>
  </symbol>
  <symbol fill="none" xmlns="http://www.w3.org/2000/svg" viewBox="0 0 512 512" id="FI">
    <g clip-path="url(#clip0_2_4791)">
      <path d="M256 512C397.385 512 512 397.385 512 256C512 114.615 397.385 0 256 0C114.615 0 0 114.615 0 256C0 397.385 114.615 512 256 512Z" fill="#F0F0F0"></path>
      <path d="M509.833 222.609H200.349H200.348V6.08496C176.69 11.331 154.261 19.834 133.565 31.127V222.607V222.608H2.167C0.742 233.539 0 244.683 0 256C0 267.317 0.742 278.461 2.167 289.391H133.564H133.565V480.872C154.261 492.164 176.69 500.669 200.348 505.914V289.394V289.392H509.833C511.256 278.461 512 267.317 512 256C512 244.683 511.256 233.539 509.833 222.609Z" fill="#0052B4"></path>
    </g>
    <defs>
      <clipPath id="clip0_2_4791">
        <rect width="512" height="512" fill="white"></rect>
      </clipPath>
    </defs>
  </symbol>
  <symbol fill="none" xmlns="http://www.w3.org/2000/svg" viewBox="0 0 20 20" id="FR">
    <g id="france_5315693 1" clip-path="url(#clip0_79_2054)">
      <path id="Vector" d="M10 20C15.5228 20 20 15.5228 20 10C20 4.47715 15.5228 0 10 0C4.47715 0 0 4.47715 0 10C0 15.5228 4.47715 20 10 20Z" fill="#F0F0F0"></path>
      <path id="Vector_2" d="M20 10C20 5.70037 17.2862 2.03494 13.4782 0.622009V19.3781C17.2862 17.9651 20 14.2997 20 10Z" fill="#D80027"></path>
      <path id="Vector_3" d="M0 10C0 14.2997 2.71379 17.9651 6.52176 19.378V0.622009C2.71379 2.03494 0 5.70037 0 10Z" fill="#0052B4"></path>
    </g>
    <defs>
      <clipPath id="clip0_79_2054">
        <rect width="20" height="20" fill="white"></rect>
      </clipPath>
    </defs>
  </symbol>
  <symbol fill="none" xmlns="http://www.w3.org/2000/svg" viewBox="0 0 20 20" id="GB">
    <path fill-rule="evenodd" clip-rule="evenodd" d="M16.0883 2.06736L16.0889 2.06785V2.06674L16.0883 2.06736ZM16.0883 2.06736C15.0662 1.28205 13.8886 0.688887 12.6089 0.344513V5.54674L16.0883 2.06736ZM0.344482 7.39173C0.688925 6.11228 1.28115 4.93451 2.0667 3.91229L5.5467 7.39173H0.344482ZM17.9334 3.91229C18.7301 4.94793 19.3153 6.13017 19.6556 7.39173H14.4539L17.9334 3.91229ZM0.344632 12.6095H5.54615L2.0667 16.0889C1.28238 15.0669 0.689097 13.8893 0.344632 12.6095ZM3.91226 17.9334C4.93448 18.719 6.11226 19.3112 7.3917 19.6556V14.4534L3.91226 17.9334ZM3.91226 2.06674C4.94789 1.27001 6.13015 0.684826 7.3917 0.344513V5.54618L3.91226 2.06674ZM12.6084 19.6556C13.8699 19.3153 15.0522 18.7301 16.0878 17.9334L12.6084 14.4539V19.6556ZM17.9323 16.0884L14.4528 12.6089H19.6545C19.31 13.8884 18.7178 15.0662 17.9323 16.0884Z" fill="#0052B4"></path>
    <path fill-rule="evenodd" clip-rule="evenodd" d="M19.9156 8.69557H11.3045V0.0844686C10.4385 -0.0283189 9.56158 -0.0283189 8.69558 0.0844686V8.69557H0.0844687C-0.028319 9.56157 -0.028319 10.4385 0.0844687 11.3045H8.69558V19.9156C9.56158 20.0283 10.4385 20.0283 11.3045 19.9156V11.3045H19.9156C20.0284 10.4385 20.0284 9.56157 19.9156 8.69557ZM12.6089 12.6089L17.0711 17.0711L17.6589 16.4289L13.8384 12.6083H12.6084L12.6089 12.6089ZM2.92891 17.0711L7.39113 12.6089H7.39169V13.8383L3.57113 17.6589L2.92891 17.0711ZM7.39113 7.39113L2.92891 2.92891L2.34113 3.57114L6.16169 7.39168H7.39169L7.39113 7.39113ZM17.0711 2.92891L12.6089 7.39113L12.6084 7.39168V6.16168L16.4289 2.34114L17.0711 2.92891Z" fill="#D80027"></path>
  </symbol>
  <symbol fill="none" xmlns="http://www.w3.org/2000/svg" viewBox="0 0 512 512" id="GE">
    <g clip-path="url(#clip0_2_4822)">
      <path d="M256 512C397.385 512 512 397.385 512 256C512 114.615 397.385 0 256 0C114.615 0 0 114.615 0 256C0 397.385 114.615 512 256 512Z" fill="#F0F0F0"></path>
      <path d="M509.833 222.609H289.393H289.392V2.167C278.461 0.744 267.317 0 256 0C244.683 0 233.539 0.744 222.609 2.167V222.607V222.608H2.167C0.744 233.539 0 244.683 0 256C0 267.319 0.744 278.461 2.167 289.391H222.607H222.608V509.833C233.539 511.256 244.683 512 256 512C267.317 512 278.461 511.257 289.391 509.833V289.393V289.392H509.833C511.256 278.461 512 267.319 512 256C512 244.683 511.256 233.539 509.833 222.609Z" fill="#D80027"></path>
      <path d="M155.826 122.435V89.043H122.435V122.435H89.043V155.826H122.435V189.217H155.826V155.826H189.217V122.435H155.826Z" fill="#D80027"></path>
      <path d="M389.565 122.435V89.043H356.174V122.435H322.783V155.826H356.174V189.217H389.565V155.826H422.957V122.435H389.565Z" fill="#D80027"></path>
      <path d="M155.826 356.174V322.783H122.435V356.174H89.043V389.565H122.435V422.957H155.826V389.565H189.217V356.174H155.826Z" fill="#D80027"></path>
      <path d="M389.565 356.174V322.783H356.174V356.174H322.783V389.565H356.174V422.957H389.565V389.565H422.957V356.174H389.565Z" fill="#D80027"></path>
    </g>
    <defs>
      <clipPath id="clip0_2_4822">
        <rect width="512" height="512" fill="white"></rect>
      </clipPath>
    </defs>
  </symbol>
  <symbol fill="none" xmlns="http://www.w3.org/2000/svg" viewBox="0 0 20 20" id="HK">
    <path d="M10 20C15.5227 20 20 15.5223 20 10C20 4.47773 15.5227 0 10 0C4.47734 0 0 4.47773 0 10C0 15.5223 4.47734 20 10 20Z" fill="#D80027"></path>
    <path fill-rule="evenodd" clip-rule="evenodd" d="M13.7947 4.24053L13.887 3.00692V3L13.0894 3.94482L11.9393 3.48579L12.5939 4.53579L11.7963 5.48061L13.0003 5.18535L13.6508 6.23535L13.7384 4.99436L14.9425 4.6991L13.7947 4.24053ZM6.31646 4.89655L7.33549 8.03364H10.6334L7.96702 9.97679L8.98651 13.1139L6.31646 11.1717L3.64641 13.1139L4.67005 9.97679L2 8.03456H5.29651L6.31646 4.89655ZM16.3628 10.0866L16.7642 11.2612L18 11.2482L17.0082 11.9827L17.4049 13.1572L16.3946 12.4357L15.4028 13.1771L15.7719 11.9961L14.7616 11.2745L15.9988 11.2547L16.3628 10.0737V10.0866ZM13.678 12.7623L13.005 13.7999L11.8111 13.4829L12.5907 14.4518L11.9213 15.4884L13.0746 15.0423L13.8542 16L13.7846 14.7641L14.9425 14.318L13.7431 13.995L13.6785 12.7623H13.678ZM15.514 6.08911L16.3997 6.94858L17.4926 6.37145L16.9482 7.48696L17.8339 8.34643L16.6115 8.16928L16.0671 9.27648L15.8554 8.06271L14.6283 7.88555L15.7258 7.30842L15.514 6.08911Z" fill="#FFDA44"></path>
  </symbol>
  <symbol fill="none" xmlns="http://www.w3.org/2000/svg" viewBox="0 0 512 512" id="ID">
    <g clip-path="url(#clip0_2_5261)">
      <path d="M256 512C397.385 512 512 397.385 512 256C512 114.615 397.385 0 256 0C114.615 0 0 114.615 0 256C0 397.385 114.615 512 256 512Z" fill="#F0F0F0"></path>
      <path d="M0 256C0 114.616 114.616 0 256 0C397.384 0 512 114.616 512 256" fill="#D80027"></path>
    </g>
    <defs>
      <clipPath id="clip0_2_5261">
        <rect width="512" height="512" fill="white"></rect>
      </clipPath>
    </defs>
  </symbol>
  <symbol fill="none" xmlns="http://www.w3.org/2000/svg" viewBox="0 0 20 20" id="IL">
    <path d="M10 20C15.5228 20 20 15.5228 20 10C20 4.47715 15.5228 0 10 0C4.47715 0 0 4.47715 0 10C0 15.5228 4.47715 20 10 20Z" fill="#F0F0F0"></path>
    <path fill-rule="evenodd" clip-rule="evenodd" d="M16.225 2.17395H3.78055C2.86551 2.90268 2.08471 3.78556 1.47333 4.78284H18.5333C17.9218 3.78563 17.1411 2.90276 16.2261 2.17395H16.225ZM11.2556 7.82618H13.7656H13.7667L12.5111 10.0001L13.7656 12.174H11.2556L10 14.3478L8.74555 12.174H6.23444L7.49 10.0001L6.23333 7.82618H8.74444L10 5.65229L11.2556 7.82618ZM10.7711 11.3356L11.5422 10.0001L10.7717 8.66451H9.22944L8.45833 10.0001L9.22888 11.3356H10.7711ZM10 7.32896L10.2872 7.82618H9.71333L10 7.32896ZM8.26111 8.66451H7.68722L7.97388 9.16173L8.26111 8.66451ZM7.68722 11.3356L7.97444 10.8384L8.26166 11.3356H7.68777H7.68722ZM9.71333 12.174L10 12.6712L10.2872 12.174H9.71333ZM12.3128 11.3356H11.7389L12.0261 10.8384L12.3128 11.3356ZM12.3128 8.66451H11.7389L12.0256 9.16173L12.3128 8.66451ZM16.22 17.8262H3.77555H3.775C2.86003 17.0973 2.07925 16.2145 1.46777 15.2173H18.5272C17.9158 16.2146 17.1351 17.0975 16.22 17.8262Z" fill="#0052B4"></path>
  </symbol>
  <symbol fill="none" xmlns="http://www.w3.org/2000/svg" viewBox="0 0 20 20" id="IN">
    <mask id="mask0_196_1322" maskUnits="userSpaceOnUse" x="0" y="0" width="20" height="20">
      <path d="M20 10C20 12.6522 18.9464 15.1957 17.0711 17.0711C15.1957 18.9464 12.6522 20 10 20C7.34784 20 4.8043 18.9464 2.92893 17.0711C1.05357 15.1957 0 12.6522 0 10C0 7.34784 1.05357 4.8043 2.92893 2.92893C4.8043 1.05357 7.34784 0 10 0C12.6522 0 15.1957 1.05357 17.0711 2.92893C18.9464 4.8043 20 7.34784 20 10Z" fill="white"></path>
    </mask>
    <g mask="url(#mask0_196_1322)">
      <path d="M0.00494385 19.9979L0.00494385 13.3321H20.0023V19.9979H0.00494385Z" fill="#27AE60"></path>
      <path d="M0.00494385 13.3322L0.00494385 6.66638L20.0023 6.66638V13.3322L0.00494385 13.3322Z" fill="white"></path>
      <path d="M0.00494385 6.66638L0.00494385 0.000604947L20.0023 0.000604947V6.66638L0.00494385 6.66638Z" fill="#F39C12"></path>
      <path d="M10.0001 12.9171C11.6101 12.9171 12.9153 11.6119 12.9153 10.0019C12.9153 8.39187 11.6101 7.08667 10.0001 7.08667C8.39003 7.08667 7.08484 8.39187 7.08484 10.0019C7.08484 11.6119 8.39003 12.9171 10.0001 12.9171Z" fill="#000088"></path>
      <path d="M10.0001 12.5528C11.4089 12.5528 12.5509 11.4107 12.5509 10.0019C12.5509 8.59316 11.4089 7.45111 10.0001 7.45111C8.5913 7.45111 7.44925 8.59316 7.44925 10.0019C7.44925 11.4107 8.5913 12.5528 10.0001 12.5528Z" fill="white"></path>
      <path d="M10.0001 10.5121C10.2819 10.5121 10.5103 10.2837 10.5103 10.0019C10.5103 9.72017 10.2819 9.49176 10.0001 9.49176C9.71834 9.49176 9.48993 9.72017 9.48993 10.0019C9.48993 10.2837 9.71834 10.5121 10.0001 10.5121Z" fill="#000088"></path>
      <path d="M12.5124 10.4613C12.5822 10.4705 12.6463 10.4214 12.6555 10.3516C12.6648 10.2817 12.6156 10.2177 12.5458 10.2084C12.476 10.1992 12.4119 10.2483 12.4027 10.3182C12.3934 10.388 12.4426 10.4521 12.5124 10.4613Z" fill="#000088"></path>
      <path d="M10.0001 12.5528L10.0875 11.0223L10.0001 10.2935L9.91263 11.0223L10.0001 12.5528Z" fill="#000088"></path>
      <path d="M12.308 11.0964C12.373 11.1234 12.4476 11.0925 12.4746 11.0275C12.5016 10.9624 12.4708 10.8878 12.4057 10.8608C12.3407 10.8338 12.266 10.8646 12.239 10.9297C12.212 10.9947 12.2429 11.0694 12.308 11.0964Z" fill="#000088"></path>
      <path d="M9.33944 12.466L9.82032 11.0102L9.9246 10.2835L9.65136 10.9649L9.33944 12.466Z" fill="#000088"></path>
      <path d="M11.946 11.6559C12.0019 11.6988 12.082 11.6883 12.1249 11.6324C12.1678 11.5766 12.1573 11.4965 12.1014 11.4536C12.0456 11.4107 11.9655 11.4212 11.9226 11.4771C11.8797 11.5329 11.8902 11.613 11.946 11.6559Z" fill="#000088"></path>
      <path d="M8.72468 12.2109L9.56567 10.9292L9.85433 10.2544L9.41419 10.8418L8.72468 12.2109Z" fill="#000088"></path>
      <path d="M11.4515 12.1037C11.4943 12.1596 11.5744 12.1702 11.6303 12.1273C11.6862 12.0845 11.6968 12.0044 11.654 11.9485C11.6111 11.8926 11.5311 11.882 11.4751 11.9249C11.4192 11.9677 11.4086 12.0478 11.4515 12.1037Z" fill="#000088"></path>
      <path d="M8.19593 11.8055L9.34028 10.7852L9.79392 10.208L9.2166 10.6615L8.19593 11.8055Z" fill="#000088"></path>
      <path d="M10.8584 12.4072C10.8853 12.4723 10.9599 12.5033 11.025 12.4764C11.09 12.4494 11.121 12.3748 11.0941 12.3098C11.0671 12.2447 10.9926 12.2137 10.9275 12.2406C10.8624 12.2676 10.8314 12.3422 10.8584 12.4072Z" fill="#000088"></path>
      <path d="M7.79106 11.2774L9.1602 10.5878L9.74762 10.1477L9.07274 10.4364L7.79106 11.2774Z" fill="#000088"></path>
      <path d="M10.2062 12.5478C10.2154 12.6176 10.2794 12.6668 10.3493 12.6577C10.4191 12.6485 10.4683 12.5845 10.4592 12.5146C10.45 12.4448 10.386 12.3956 10.3161 12.4047C10.2463 12.4139 10.1971 12.4779 10.2062 12.5478Z" fill="#000088"></path>
      <path d="M7.5359 10.6618L9.03707 10.3504L9.71852 10.0773L8.99182 10.1814L7.5359 10.6618Z" fill="#000088"></path>
      <path d="M9.54072 12.5141C9.53149 12.5839 9.58061 12.648 9.65044 12.6572C9.72027 12.6665 9.78436 12.6173 9.79359 12.5475C9.80282 12.4777 9.7537 12.4136 9.68387 12.4044C9.61404 12.3951 9.54995 12.4443 9.54072 12.5141Z" fill="#000088"></path>
      <path d="M7.44941 10.0019L8.97984 10.0894L9.70862 10.0019L8.97984 9.91449L7.44941 10.0019Z" fill="#000088"></path>
      <path d="M8.90571 12.3097C8.87871 12.3748 8.90956 12.4494 8.97462 12.4764C9.03967 12.5034 9.1143 12.4725 9.1413 12.4075C9.1683 12.3424 9.13745 12.2678 9.07239 12.2408C9.00733 12.2138 8.93271 12.2446 8.90571 12.3097Z" fill="#000088"></path>
      <path d="M7.53613 9.34132L8.99188 9.82219L9.71853 9.92646L9.03718 9.65323L7.53613 9.34132Z" fill="#000088"></path>
      <path d="M8.34605 11.9482C8.30314 12.0041 8.31365 12.0841 8.36951 12.1271C8.42538 12.17 8.50546 12.1595 8.54837 12.1036C8.59128 12.0477 8.58078 11.9677 8.52491 11.9247C8.46904 11.8818 8.38897 11.8923 8.34605 11.9482Z" fill="#000088"></path>
      <path d="M7.79076 8.72649L9.07265 9.56749L9.74762 9.85615L9.16011 9.41599L7.79076 8.72649Z" fill="#000088"></path>
      <path d="M7.89825 11.4537C7.84233 11.4965 7.83174 11.5766 7.87459 11.6325C7.91744 11.6884 7.9975 11.699 8.05342 11.6561C8.10933 11.6133 8.11993 11.5332 8.07708 11.4773C8.03423 11.4214 7.95416 11.4108 7.89825 11.4537Z" fill="#000088"></path>
      <path d="M8.19623 8.19766L9.21671 9.34208L9.79397 9.79574L9.34043 9.21838L8.19623 8.19766Z" fill="#000088"></path>
      <path d="M7.59453 10.8603C7.52944 10.8873 7.4985 10.9619 7.52542 11.0269C7.55235 11.092 7.62695 11.123 7.69204 11.0961C7.75714 11.0691 7.78808 10.9945 7.76115 10.9294C7.73423 10.8643 7.65963 10.8334 7.59453 10.8603Z" fill="#000088"></path>
      <path d="M8.72449 7.79271L9.41411 9.16196L9.85431 9.74942L9.5656 9.07449L8.72449 7.79271Z" fill="#000088"></path>
      <path d="M7.45401 10.2081C7.38416 10.2173 7.33496 10.2813 7.34411 10.3512C7.35326 10.421 7.4173 10.4702 7.48715 10.4611C7.55699 10.4519 7.6062 10.3879 7.59705 10.318C7.5879 10.2482 7.52386 10.199 7.45401 10.2081Z" fill="#000088"></path>
      <path d="M9.34005 7.53752L9.65158 9.03882L9.92466 9.72032L9.82057 8.99356L9.34005 7.53752Z" fill="#000088"></path>
      <path d="M7.48759 9.54265C7.41775 9.53342 7.35366 9.58255 7.34443 9.65239C7.3352 9.72223 7.38434 9.78632 7.45418 9.79555C7.52401 9.80478 7.58811 9.75564 7.59733 9.6858C7.60656 9.61597 7.55743 9.55187 7.48759 9.54265Z" fill="#000088"></path>
      <path d="M9.99994 7.45092L9.91258 8.98154L10.0001 9.71039L10.0875 8.98153L9.99994 7.45092Z" fill="#000088"></path>
      <path d="M7.69196 8.90757C7.6269 8.88057 7.55227 8.91143 7.52527 8.9765C7.49827 9.04156 7.52913 9.1162 7.59419 9.14319C7.65926 9.17019 7.73389 9.13933 7.76089 9.07427C7.78789 9.0092 7.75703 8.93457 7.69196 8.90757Z" fill="#000088"></path>
      <path d="M10.6606 7.53765L10.1798 8.99359L10.0756 9.72033L10.3488 9.03889L10.6606 7.53765Z" fill="#000088"></path>
      <path d="M8.0539 8.34793C7.99803 8.30502 7.91796 8.31552 7.87505 8.37139C7.83214 8.42725 7.84264 8.50733 7.89851 8.55024C7.95438 8.59314 8.03445 8.58264 8.07736 8.52678C8.12027 8.47091 8.10976 8.39084 8.0539 8.34793Z" fill="#000088"></path>
      <path d="M11.2754 7.79265L10.4345 9.07448L10.1458 9.74943L10.586 9.16193L11.2754 7.79265Z" fill="#000088"></path>
      <path d="M8.54842 7.90015C8.50557 7.84424 8.42551 7.83365 8.3696 7.87649C8.31368 7.91934 8.30309 7.9994 8.34594 8.05532C8.38879 8.11123 8.46885 8.12182 8.52476 8.07897C8.58068 8.03613 8.59127 7.95606 8.54842 7.90015Z" fill="#000088"></path>
      <path d="M11.8042 8.19813L10.6599 9.21857L10.2062 9.79581L10.7836 9.34229L11.8042 8.19813Z" fill="#000088"></path>
      <path d="M9.14183 7.59622C9.11491 7.53112 9.04032 7.50017 8.97522 7.5271C8.91012 7.55402 8.87917 7.62861 8.90609 7.69371C8.93301 7.75881 9.00761 7.78976 9.07271 7.76284C9.13781 7.73592 9.16876 7.66132 9.14183 7.59622Z" fill="#000088"></path>
      <path d="M12.2094 8.72648L10.8401 9.41598L10.2526 9.85614L10.9275 9.56748L12.2094 8.72648Z" fill="#000088"></path>
      <path d="M9.79407 7.45577C9.78493 7.38592 9.72089 7.33671 9.65104 7.34585C9.58119 7.355 9.53198 7.41903 9.54112 7.48888C9.55027 7.55873 9.6143 7.60794 9.68415 7.5988C9.754 7.58966 9.80321 7.52562 9.79407 7.45577Z" fill="#000088"></path>
      <path d="M12.4646 9.34207L10.9632 9.65346L10.2817 9.92649L11.0085 9.82246L12.4646 9.34207Z" fill="#000088"></path>
      <path d="M10.4597 7.48946C10.4689 7.41962 10.4198 7.35552 10.3499 7.34628C10.2801 7.33705 10.216 7.38617 10.2068 7.45601C10.1975 7.52585 10.2466 7.58995 10.3165 7.59918C10.3863 7.60842 10.4504 7.55929 10.4597 7.48946Z" fill="#000088"></path>
      <path d="M12.5511 10.0021L11.0205 9.91454L10.2916 10.002L11.0205 10.0895L12.5511 10.0021Z" fill="#000088"></path>
      <path d="M11.0947 7.69392C11.1217 7.62886 11.0909 7.55423 11.0258 7.52722C10.9608 7.50021 10.8861 7.53106 10.8591 7.59612C10.8321 7.66119 10.863 7.73582 10.928 7.76283C10.9931 7.78983 11.0677 7.75899 11.0947 7.69392Z" fill="#000088"></path>
      <path d="M12.4643 10.6628L11.0084 10.1818L10.2817 10.0774L10.9631 10.3507L12.4643 10.6628Z" fill="#000088"></path>
      <path d="M11.6543 8.05585C11.6972 7.99999 11.6867 7.91991 11.6309 7.877C11.575 7.83408 11.4949 7.84458 11.452 7.90044C11.4091 7.9563 11.4196 8.03638 11.4754 8.07929C11.5313 8.12221 11.6114 8.11171 11.6543 8.05585Z" fill="#000088"></path>
      <path d="M12.2093 11.2775L10.9275 10.4364L10.2526 10.1477L10.84 10.5879L12.2093 11.2775Z" fill="#000088"></path>
      <path d="M12.102 8.55046C12.158 8.50762 12.1686 8.42756 12.1257 8.37164C12.0829 8.31572 12.0028 8.30512 11.9469 8.34796C11.891 8.39081 11.8804 8.47087 11.9232 8.52679C11.9661 8.5827 12.0461 8.5933 12.102 8.55046Z" fill="#000088"></path>
      <path d="M11.8038 11.8063L10.7834 10.6618L10.2062 10.2081L10.6597 10.7855L11.8038 11.8063Z" fill="#000088"></path>
      <path d="M12.4057 9.14372C12.4708 9.1168 12.5017 9.04221 12.4748 8.97711C12.4479 8.91201 12.3733 8.88106 12.3082 8.90798C12.2431 8.9349 12.2122 9.0095 12.2391 9.07459C12.266 9.13969 12.3406 9.17064 12.4057 9.14372Z" fill="#000088"></path>
      <path d="M11.2754 12.2112L10.586 10.8419L10.1458 10.2544L10.4345 10.9294L11.2754 12.2112Z" fill="#000088"></path>
      <path d="M12.5461 9.79589C12.616 9.78675 12.6652 9.72271 12.6561 9.65287C12.6469 9.58302 12.5829 9.53381 12.513 9.54295C12.4432 9.5521 12.394 9.61613 12.4031 9.68598C12.4123 9.75583 12.4763 9.80504 12.5461 9.79589Z" fill="#000088"></path>
      <path d="M10.6599 12.4663L10.3485 10.965L10.0755 10.2835L10.1795 11.0103L10.6599 12.4663Z" fill="#000088"></path>
    </g>
  </symbol>
  <symbol fill="none" xmlns="http://www.w3.org/2000/svg" viewBox="0 0 20 20" id="IT">
    <g id="circle_10576616 1" clip-path="url(#clip0_79_1973)">
      <g id="layer1">
        <g id="Clip path group">
          <mask id="mask0_79_1973" maskUnits="userSpaceOnUse" x="0" y="-1" width="20" height="21">
            <g id="clipPath3146">
              <path id="path3148" d="M0.000509924 9.88979C0.0272576 7.24219 1.10292 4.71326 2.99161 2.85762C4.88029 1.00198 7.42781 -0.0288846 10.0755 -0.00890057C12.7231 0.0110834 15.2548 1.08029 17.1153 2.96422C18.9757 4.84816 20.0131 7.39304 19.9999 10.0407C19.9867 12.6885 18.9239 15.2228 17.0447 17.0881C15.1656 18.9534 12.6233 19.9972 9.97561 19.9908C7.32788 19.9843 4.79078 18.9281 2.92072 17.0537C1.05067 15.1793 0.000307568 12.6397 0 9.99198" fill="white"></path>
            </g>
          </mask>
          <g mask="url(#mask0_79_1973)">
            <g id="g3139">
              <path id="rect4416" d="M18.8615 20.2031C19.6064 20.2031 20.2057 19.6025 20.2057 18.8576V1.12548C20.2057 0.380546 19.6064 -0.218689 18.8615 -0.218689H1.12937C0.384439 -0.218689 -0.216125 0.380546 -0.216125 1.12548V18.8576C-0.216125 19.6025 0.384439 20.2031 1.12937 20.2031H18.8615Z" fill="white"></path>
              <path id="rect4416-0" d="M20.2058 1.12548C20.2058 0.380546 19.5915 -0.218689 18.8296 -0.218689H13.3985V20.2031H18.8296C19.5915 20.2031 20.2058 19.6025 20.2058 18.8576V1.12548Z" fill="#C0392B"></path>
              <path id="rect4416-0-1" d="M-0.216125 18.8589C-0.216125 19.6039 0.398116 20.2031 1.16001 20.2031H6.59113V-0.218689H1.16001C0.398116 -0.218689 -0.216125 0.381875 -0.216125 1.12681V18.8589Z" fill="#27AE60"></path>
            </g>
          </g>
        </g>
      </g>
    </g>
    <defs>
      <clipPath id="clip0_79_1973">
        <rect width="20" height="20" fill="white"></rect>
      </clipPath>
    </defs>
  </symbol>
  <symbol fill="none" xmlns="http://www.w3.org/2000/svg" viewBox="0 0 20 20" id="JP">
    <path d="M10 20C15.5228 20 20 15.5228 20 10C20 4.47715 15.5228 0 10 0C4.47715 0 0 4.47715 0 10C0 15.5228 4.47715 20 10 20Z" fill="#F1F2F2"></path>
    <path d="M9.99999 13.5684C11.9707 13.5684 13.5683 11.9708 13.5683 10C13.5683 8.0293 11.9707 6.4317 9.99999 6.4317C8.02924 6.4317 6.43164 8.0293 6.43164 10C6.43164 11.9708 8.02924 13.5684 9.99999 13.5684Z" fill="#ED1C24"></path>
  </symbol>
  <symbol fill="none" xmlns="http://www.w3.org/2000/svg" viewBox="0 0 512 512" id="KR">
    <g clip-path="url(#clip0_2_5755)">
      <path d="M256 512C397.385 512 512 397.385 512 256C512 114.615 397.385 0 256 0C114.615 0 0 114.615 0 256C0 397.385 114.615 512 256 512Z" fill="#F0F0F0"></path>
      <path d="M345.043 256C345.043 278.261 305.177 333.913 256 333.913C206.823 333.913 166.957 278.261 166.957 256C166.957 206.822 206.823 166.957 256 166.957C305.177 166.957 345.043 206.822 345.043 256Z" fill="#D80027"></path>
      <path d="M345.043 256C345.043 305.178 305.177 345.043 256 345.043C206.823 345.043 166.957 305.178 166.957 256" fill="#0052B4"></path>
      <path d="M350.375 334.708L373.982 311.101L389.721 326.839L366.113 350.447L350.375 334.708Z" fill="black"></path>
      <path d="M311.017 374.055L334.625 350.448L350.363 366.186L326.756 389.794L311.017 374.055Z" fill="black"></path>
      <path d="M397.593 381.921L421.201 358.313L436.939 374.052L413.332 397.659L397.593 381.921Z" fill="black"></path>
      <path d="M358.237 421.274L381.844 397.667L397.583 413.406L373.976 437.013L358.237 421.274Z" fill="black"></path>
      <path d="M373.983 358.316L397.59 334.709L413.329 350.447L389.721 374.055L373.983 358.316Z" fill="black"></path>
      <path d="M334.636 397.663L358.244 374.056L373.982 389.794L350.375 413.402L334.636 397.663Z" fill="black"></path>
      <path d="M397.698 177.335L334.744 114.382L350.483 98.6435L413.436 161.597L397.698 177.335Z" fill="black"></path>
      <path d="M334.732 161.603L311.125 137.996L326.863 122.258L350.47 145.865L334.732 161.603Z" fill="black"></path>
      <path d="M374.078 200.959L350.471 177.352L366.209 161.614L389.816 185.221L374.078 200.959Z" fill="black"></path>
      <path d="M381.943 114.38L358.335 90.7725L374.074 75.0339L397.681 98.6414L381.943 114.38Z" fill="black"></path>
      <path d="M421.31 153.74L397.703 130.133L413.441 114.394L437.049 138.002L421.31 153.74Z" fill="black"></path>
      <path d="M90.7545 358.272L153.708 421.225L137.969 436.964L75.0159 374.011L90.7545 358.272Z" fill="black"></path>
      <path d="M153.705 373.998L177.312 397.605L161.574 413.343L137.967 389.736L153.705 373.998Z" fill="black"></path>
      <path d="M114.355 334.66L137.963 358.267L122.224 374.006L98.6166 350.398L114.355 334.66Z" fill="black"></path>
      <path d="M137.965 311.045L200.919 373.999L185.18 389.737L122.227 326.784L137.965 311.045Z" fill="black"></path>
      <path d="M153.701 90.7236L90.7478 153.677L75.0093 137.939L137.963 74.9851L153.701 90.7236Z" fill="black"></path>
      <path d="M177.309 114.329L114.355 177.282L98.6169 161.543L161.57 98.5901L177.309 114.329Z" fill="black"></path>
      <path d="M200.939 137.95L137.985 200.904L122.247 185.166L185.201 122.212L200.939 137.95Z" fill="black"></path>
    </g>
    <defs>
      <clipPath id="clip0_2_5755">
        <rect width="512" height="512" fill="white"></rect>
      </clipPath>
    </defs>
  </symbol>
  <symbol fill="none" xmlns="http://www.w3.org/2000/svg" viewBox="0 0 512 512" id="KZ">
    <g clip-path="url(#clip0_2_5032)">
      <path d="M256 512C397.385 512 512 397.385 512 256C512 114.615 397.385 0 256 0C114.615 0 0 114.615 0 256C0 397.385 114.615 512 256 512Z" fill="#338AF3"></path>
      <path d="M400.696 258.783H111.304C111.304 278.762 128.705 294.957 148.682 294.957H147.478C147.478 314.936 163.673 331.131 183.652 331.131C183.652 351.11 199.847 367.305 219.826 367.305H292.174C312.153 367.305 328.348 351.11 328.348 331.131C348.327 331.131 364.522 314.936 364.522 294.957H363.318C383.293 294.957 400.696 278.762 400.696 258.783Z" fill="#FFDA44"></path>
      <path d="M356.174 211.478C356.174 266.802 311.324 311.652 256 311.652C200.675 311.652 155.826 266.802 155.826 211.478" fill="#338AF3"></path>
      <path d="M332.515 211.478L301.25 226.185L317.899 256.465L283.949 249.97L279.647 284.266L256 259.041L232.352 284.266L228.051 249.97L194.101 256.463L210.749 226.184L179.485 211.478L210.75 196.772L194.101 166.493L228.05 172.987L232.353 138.691L256 163.916L279.648 138.691L283.949 172.987L317.9 166.493L301.251 196.773L332.515 211.478Z" fill="#FFDA44"></path>
    </g>
    <defs>
      <clipPath id="clip0_2_5032">
        <rect width="512" height="512" fill="white"></rect>
      </clipPath>
    </defs>
  </symbol>
  <symbol fill="none" xmlns="http://www.w3.org/2000/svg" viewBox="0 0 512 512" id="LV">
    <g clip-path="url(#clip0_2_5091)">
      <path d="M256 512C397.385 512 512 397.385 512 256C512 114.615 397.385 0 256 0C114.615 0 0 114.615 0 256C0 397.385 114.615 512 256 512Z" fill="#F0F0F0"></path>
      <path d="M256 0C137.721 0 38.1948 80.221 8.81885 189.217H503.182C473.805 80.221 374.279 0 256 0Z" fill="#A2001D"></path>
      <path d="M256 512C374.279 512 473.805 431.779 503.181 322.783H8.81885C38.1948 431.778 137.721 512 256 512Z" fill="#A2001D"></path>
    </g>
    <defs>
      <clipPath id="clip0_2_5091">
        <rect width="512" height="512" fill="white"></rect>
      </clipPath>
    </defs>
  </symbol>
  <symbol fill="none" xmlns="http://www.w3.org/2000/svg" viewBox="0 0 512 512" id="MD">
    <g clip-path="url(#clip0_2_5564)">
      <path d="M345.044 15.922C317.31 5.633 287.315 1.33097e-07 256.001 1.33097e-07C224.687 -0.000999867 194.691 5.633 166.958 15.922L144.697 255.999L166.958 496.076C194.69 506.368 224.686 512 256.001 512C287.314 512 317.311 506.368 345.044 496.076L367.304 256L345.044 15.922Z" fill="#FFDA44"></path>
      <path d="M512.001 256C512.001 145.93 442.529 52.0931 345.044 15.9231V496.079C442.529 459.905 512 366.072 512.001 256Z" fill="#D80027"></path>
      <path d="M0.000976562 255.999C0.000976562 366.072 69.473 459.905 166.956 496.078L166.957 15.9241C69.473 52.0941 0.000976563 145.928 0.000976563 255.999H0.000976562Z" fill="#0052B4"></path>
    </g>
    <defs>
      <clipPath id="clip0_2_5564">
        <rect width="512" height="512" fill="white" transform="translate(0.000976562)"></rect>
      </clipPath>
    </defs>
  </symbol>
  <symbol fill="none" xmlns="http://www.w3.org/2000/svg" viewBox="0 0 512 512" id="MX">
    <g clip-path="url(#clip0_2_5240)">
      <path d="M256.001 512C397.386 512 512.001 397.385 512.001 256C512.001 114.615 397.386 0 256.001 0C114.616 0 0.000976562 114.615 0.000976562 256C0.000976562 397.385 114.616 512 256.001 512Z" fill="#F0F0F0"></path>
      <path d="M512.001 256C512.001 154.506 452.936 66.8101 367.305 25.4021V486.597C452.936 445.19 512.001 357.494 512.001 256Z" fill="#D80027"></path>
      <path d="M0.000976562 256C0.000976562 357.494 59.066 445.19 144.697 486.598V25.4021C59.066 66.8101 0.000976562 154.506 0.000976562 256Z" fill="#6DA544"></path>
      <path d="M189.218 256C189.218 292.883 219.118 322.783 256.001 322.783C292.884 322.783 322.784 292.883 322.784 256V233.739H189.218V256Z" fill="#6DA544"></path>
      <path d="M345.044 211.478H278.261C278.261 199.184 268.294 189.217 256 189.217C243.706 189.217 233.739 199.184 233.739 211.478H166.956C166.956 223.773 177.665 233.739 189.958 233.739H189.217C189.217 246.034 199.183 256 211.478 256C211.478 268.295 221.444 278.261 233.739 278.261H278.261C290.556 278.261 300.522 268.295 300.522 256C312.817 256 322.783 246.034 322.783 233.739H322.041C334.336 233.739 345.044 223.773 345.044 211.478Z" fill="#FF9811"></path>
    </g>
    <defs>
      <clipPath id="clip0_2_5240">
        <rect width="512" height="512" fill="white" transform="translate(0.000976562)"></rect>
      </clipPath>
    </defs>
  </symbol>
  <symbol fill="none" xmlns="http://www.w3.org/2000/svg" viewBox="0 0 512 512" id="MY">
    <g clip-path="url(#clip0_2_5171)">
      <path d="M256 512C397.385 512 512 397.385 512 256C512 114.615 397.385 0 256 0C114.615 0 0 114.615 0 256C0 397.385 114.615 512 256 512Z" fill="#F0F0F0"></path>
      <path d="M244.87 256H512C512 232.893 508.92 210.511 503.181 189.217H244.87V256Z" fill="#D80027"></path>
      <path d="M244.87 122.435H474.426C458.755 96.8629 438.72 74.2599 415.357 55.6519H244.87V122.435Z" fill="#D80027"></path>
      <path d="M256 512C316.249 512 371.626 491.176 415.357 456.348H96.6429C140.374 491.176 195.751 512 256 512Z" fill="#D80027"></path>
      <path d="M37.574 389.565H474.426C487.007 369.037 496.763 346.596 503.181 322.782H8.81897C15.236 346.596 24.993 369.037 37.574 389.565Z" fill="#D80027"></path>
      <path d="M256 256C256 114.616 256 97.948 256 0C114.616 0 0 114.616 0 256H256Z" fill="#0052B4"></path>
      <path d="M170.234 219.13C135.272 219.13 106.93 190.787 106.93 155.826C106.93 120.865 135.273 92.5221 170.234 92.5221C181.135 92.5221 191.392 95.2791 200.347 100.131C186.299 86.3941 167.087 77.9141 145.886 77.9141C102.857 77.9141 67.973 112.797 67.973 155.827C67.973 198.857 102.857 233.74 145.886 233.74C167.087 233.74 186.299 225.26 200.347 211.523C191.392 216.373 181.136 219.13 170.234 219.13Z" fill="#FFDA44"></path>
      <path d="M188.073 111.304L199.312 134.806L224.693 128.942L213.327 152.381L233.739 168.568L208.325 174.297L208.396 200.348L188.073 184.05L167.749 200.348L167.819 174.297L142.405 168.568L162.817 152.381L151.45 128.942L176.833 134.806L188.073 111.304Z" fill="#FFDA44"></path>
    </g>
    <defs>
      <clipPath id="clip0_2_5171">
        <rect width="512" height="512" fill="white"></rect>
      </clipPath>
    </defs>
  </symbol>
  <symbol fill="none" xmlns="http://www.w3.org/2000/svg" viewBox="0 0 512 512" id="NG">
    <g clip-path="url(#clip0_2_5382)">
      <path d="M256 512C397.385 512 512 397.385 512 256C512 114.615 397.385 0 256 0C114.615 0 0 114.615 0 256C0 397.385 114.615 512 256 512Z" fill="#F0F0F0"></path>
      <path d="M0 256C0 366.072 69.472 459.906 166.957 496.078V15.924C69.472 52.0939 0 145.93 0 256Z" fill="#6DA544"></path>
      <path d="M512 256C512 145.93 442.528 52.0939 345.043 15.924V496.079C442.528 459.906 512 366.072 512 256Z" fill="#6DA544"></path>
    </g>
    <defs>
      <clipPath id="clip0_2_5382">
        <rect width="512" height="512" fill="white"></rect>
      </clipPath>
    </defs>
  </symbol>
  <symbol fill="none" xmlns="http://www.w3.org/2000/svg" viewBox="0 0 21 21" id="NL">
    <path d="M19.4869 6.68277H0.669434C2.05947 2.83139 5.74676 0.078125 10.0782 0.078125C14.4096 0.078125 18.0969 2.83139 19.4869 6.68277Z" fill="#ED1C24"></path>
    <path d="M20.0781 10.0781C20.0781 11.2847 19.8646 12.4417 19.4729 13.5123H0.68344C0.291708 12.4417 0.078125 11.2847 0.078125 10.0781C0.078125 8.88631 0.286353 7.74269 0.669385 6.68277H19.4869C19.8699 7.74269 20.0781 8.88631 20.0781 10.0781Z" fill="#F1F2F2"></path>
    <path d="M19.4729 13.5123C18.0721 17.3436 14.3949 20.0781 10.0781 20.0781C5.7614 20.0781 2.08412 17.3436 0.683411 13.5123H19.4729Z" fill="#21409A"></path>
  </symbol>
  <symbol fill="none" xmlns="http://www.w3.org/2000/svg" viewBox="0 0 512 512" id="PH">
    <g clip-path="url(#clip0_2_5502)">
      <path d="M256 512C397.385 512 512 397.385 512 256C512 114.615 397.385 0 256 0C114.615 0 0 114.615 0 256C0 397.385 114.615 512 256 512Z" fill="#F0F0F0"></path>
      <path d="M256 0V256L74.98 437.02C121.307 483.346 185.307 512 256 512C397.384 512 512 397.384 512 256C512 114.616 256 0 256 0Z" fill="#D80027"></path>
      <path d="M256 0C185.307 0 121.307 28.654 74.98 74.98C137.79 137.79 160.087 160.088 256 256H512C512 114.616 397.384 0 256 0Z" fill="#0052B4"></path>
      <path d="M175.291 256L144.027 241.294L160.676 211.015L126.726 217.51L122.424 183.213L98.776 208.437L75.129 183.213L70.826 217.51L36.877 211.014L53.526 241.294L22.261 256L53.526 270.706L36.877 300.985L70.829 294.491L75.128 328.787L98.776 303.563L122.424 328.787L126.726 294.491L160.674 300.986L144.026 270.707L175.291 256Z" fill="#FFDA44"></path>
      <path d="M68.273 100.174L78.677 114.717L95.722 109.318L85.104 123.706L95.508 138.249L78.542 132.598L67.925 146.985L68.058 129.105L51.093 123.453L68.141 118.054L68.273 100.174Z" fill="#FFDA44"></path>
      <path d="M68.273 365.015L78.677 379.558L95.722 374.158L85.104 388.547L95.508 403.09L78.542 397.439L67.925 411.826L68.058 393.946L51.093 388.294L68.141 382.895L68.273 365.015Z" fill="#FFDA44"></path>
      <path d="M216.666 232.595L206.263 247.138L189.217 241.737L199.835 256.126L189.431 270.67L206.397 265.018L217.015 279.405L216.881 261.526L233.846 255.874L216.799 250.475L216.666 232.595Z" fill="#FFDA44"></path>
    </g>
    <defs>
      <clipPath id="clip0_2_5502">
        <rect width="512" height="512" fill="white"></rect>
      </clipPath>
    </defs>
  </symbol>
  <symbol fill="none" xmlns="http://www.w3.org/2000/svg" viewBox="0 0 20 20" id="PL">
    <g id="poland_5922021 1" clip-path="url(#clip0_79_1952)">
      <g id="Group">
        <path id="Vector" fill-rule="evenodd" clip-rule="evenodd" d="M0 10H20C20 15.5229 15.5229 20 10 20C4.47715 20 0 15.5229 0 10Z" fill="#D80027"></path>
        <path id="Vector_2" fill-rule="evenodd" clip-rule="evenodd" d="M20 10H0C0 4.47715 4.47715 0 10 0C15.5229 0 20 4.47715 20 10Z" fill="#F5F5F5"></path>
      </g>
    </g>
    <defs>
      <clipPath id="clip0_79_1952">
        <rect width="20" height="20" fill="white"></rect>
      </clipPath>
    </defs>
  </symbol>
  <symbol fill="none" xmlns="http://www.w3.org/2000/svg" viewBox="0 0 512 512" id="RS">
    <g clip-path="url(#clip0_2_5656)">
      <path d="M256 512C397.385 512 512 397.385 512 256C512 114.615 397.385 0 256 0C114.615 0 0 114.615 0 256C0 397.385 114.615 512 256 512Z" fill="#F0F0F0"></path>
      <path d="M256 0C114.616 0 0 114.616 0 256C0 287.314 5.633 317.311 15.923 345.043H496.078C506.368 317.311 512 287.314 512 256C512 114.616 397.384 0 256 0Z" fill="#0052B4"></path>
      <path d="M256 0C145.929 0 52.094 69.472 15.923 166.957H496.078C459.906 69.472 366.071 0 256 0Z" fill="#D80027"></path>
      <path d="M66.198 144.696V272.402C66.198 345.046 161.099 367.305 161.099 367.305C161.099 367.305 255.999 345.046 255.999 272.402V144.696H66.198Z" fill="#D80027"></path>
      <path d="M105.446 166.957H216.751V122.435L194.49 133.565L161.099 100.174L127.707 133.565L105.446 122.435V166.957Z" fill="#FFDA44"></path>
      <path d="M233.739 290.183L161.391 217.835L89.043 290.183L112.654 313.794L161.391 265.057L210.128 313.794L233.739 290.183Z" fill="#FFDA44"></path>
      <path d="M233.739 222.609H199.983C201.881 219.333 202.985 215.539 202.985 211.481C202.985 199.185 193.018 189.22 180.724 189.22C172.229 189.22 164.852 193.978 161.099 200.973C157.346 193.979 149.969 189.22 141.474 189.22C129.18 189.22 119.213 199.185 119.213 211.481C119.213 215.539 120.317 219.334 122.215 222.609H89.043C89.043 234.904 99.752 244.87 112.045 244.87H111.304C111.304 257.165 121.27 267.131 133.565 267.131C133.565 278.017 141.383 287.061 151.708 288.997L134.168 328.599C142.574 332.016 151.76 333.914 161.392 333.914C171.024 333.914 180.21 332.016 188.616 328.599L171.076 288.997C181.401 287.063 189.219 278.018 189.219 267.131C201.514 267.131 211.48 257.165 211.48 244.87H210.739C223.031 244.87 233.739 234.903 233.739 222.609Z" fill="#F0F0F0"></path>
    </g>
    <defs>
      <clipPath id="clip0_2_5656">
        <rect width="512" height="512" fill="white"></rect>
      </clipPath>
    </defs>
  </symbol>
  <symbol fill="none" xmlns="http://www.w3.org/2000/svg" viewBox="0 0 20 20" id="RU">
    <g clip-path="url(#clip0_79_1880)">
      <path d="M10 20C15.5223 20 20 15.5223 20 10C20 4.47773 15.5223 0 10 0C4.47773 0 0 4.47773 0 10C0 15.5223 4.47773 20 10 20Z" fill="#F0F0F0"></path>
      <path d="M19.3777 13.4766C20.2074 11.2323 20.2074 8.76536 19.3777 6.5211H0.62227C-0.207423 8.76536 -0.207423 11.2323 0.62227 13.4766L10 14.3504L19.3777 13.4766Z" fill="#0052B4"></path>
      <path d="M9.99999 20C14.3 20 17.9664 17.2891 19.3777 13.4766H0.622253C2.03514 17.2891 5.69999 20 9.99999 20Z" fill="#D80027"></path>
    </g>
    <defs>
      <clipPath id="clip0_79_1880">
        <rect width="20" height="20" fill="white"></rect>
      </clipPath>
    </defs>
  </symbol>
  <symbol fill="none" xmlns="http://www.w3.org/2000/svg" viewBox="0 0 20 20" id="SE">
    <g id="flag_10601035 1" clip-path="url(#clip0_79_1989)">
      <g id="layer1">
        <g id="Clip path group">
          <mask id="mask0_79_1989" maskUnits="userSpaceOnUse" x="-1" y="0" width="21" height="21">
            <g id="clipPath3827">
              <path id="path3829" d="M20 10.002C20 12.6548 18.9462 15.1988 17.0705 17.0746C15.1947 18.9503 12.6507 20.0041 9.99796 20.0041C7.34525 20.0041 4.80119 18.9503 2.92544 17.0746C1.0497 15.1988 -0.00408936 12.6548 -0.00408936 10.002C-0.00408936 7.34934 1.0497 4.80528 2.92544 2.92953C4.80119 1.05378 7.34525 0 9.99796 0C12.6507 0 15.1947 1.05378 17.0705 2.92953C18.9462 4.80528 20 7.34934 20 10.002Z" fill="white"></path>
            </g>
          </mask>
          <g mask="url(#mask0_79_1989)">
            <g id="g3022">
              <path id="rect3017" d="M0.000549316 0.000549316H20.002V20.002H0.000549316V0.000549316Z" fill="#2980B9"></path>
              <g id="Group">
                <path id="rect3797" d="M20.0023 8.3345V11.6681L0.00086844 11.6681V8.3345L20.0023 8.3345Z" fill="#F1C40F"></path>
                <path id="rect3028" d="M9.08215 20.002H5.74858V0.000591238H9.08215V20.002Z" fill="#F1C40F"></path>
              </g>
            </g>
          </g>
        </g>
      </g>
    </g>
    <defs>
      <clipPath id="clip0_79_1989">
        <rect width="20" height="20" fill="white"></rect>
      </clipPath>
    </defs>
  </symbol>
  <symbol fill="none" xmlns="http://www.w3.org/2000/svg" viewBox="0 0 20 20" id="SG">
    <g clip-path="url(#clip0_79_1891)">
      <path d="M10 20C15.5228 20 20 15.5228 20 10C20 4.47715 15.5228 0 10 0C4.47715 0 0 4.47715 0 10C0 15.5228 4.47715 20 10 20Z" fill="#F0F0F0"></path>
      <path d="M0 10C0 4.47719 4.47719 0 10 0C15.5228 0 20 4.47719 20 10" fill="#D80027"></path>
      <path d="M6.08697 5.21734C6.08697 3.76039 7.11091 2.54328 8.47826 2.24465C8.2681 2.19879 8.05009 2.1739 7.82607 2.1739C6.14517 2.1739 4.78259 3.53648 4.78259 5.21738C4.78259 6.89828 6.14517 8.26086 7.82607 8.26086C8.05001 8.26086 8.26806 8.23597 8.47826 8.19008C7.11091 7.89144 6.08697 6.67433 6.08697 5.21734Z" fill="#F0F0F0"></path>
      <path d="M10 2.39128L10.2159 3.05554H10.9144L10.3492 3.46613L10.5651 4.13038L10 3.71987L9.43494 4.13038L9.6508 3.46613L9.08572 3.05554H9.78416L10 2.39128Z" fill="#F0F0F0"></path>
      <path d="M8.30567 3.69562L8.52149 4.35991H9.21997L8.65489 4.77046L8.87075 5.43472L8.30567 5.02421L7.74052 5.43472L7.95641 4.77046L7.3913 4.35991H8.08977L8.30567 3.69562Z" fill="#F0F0F0"></path>
      <path d="M11.6944 3.69562L11.9103 4.35991H12.6087L12.0436 4.77046L12.2595 5.43472L11.6944 5.02421L11.1293 5.43472L11.3452 4.77046L10.7801 4.35991H11.4785L11.6944 3.69562Z" fill="#F0F0F0"></path>
      <path d="M11.0422 5.65215L11.2581 6.31644H11.9565L11.3914 6.72699L11.6073 7.39125L11.0422 6.98074L10.4771 7.39125L10.693 6.72699L10.1279 6.31644H10.8263L11.0422 5.65215Z" fill="#F0F0F0"></path>
      <path d="M8.95782 5.65215L9.17364 6.31644H9.87216L9.30704 6.72699L9.52294 7.39125L8.95782 6.98074L8.39271 7.39125L8.60857 6.72699L8.04349 6.31644H8.74196L8.95782 5.65215Z" fill="#F0F0F0"></path>
    </g>
    <defs>
      <clipPath id="clip0_79_1891">
        <rect width="20" height="20" fill="white"></rect>
      </clipPath>
    </defs>
  </symbol>
  <symbol fill="none" xmlns="http://www.w3.org/2000/svg" viewBox="0 0 512 512" id="TH">
    <g clip-path="url(#clip0_2_5886)">
      <path d="M256 512C397.385 512 512 397.385 512 256C512 114.615 397.385 0 256 0C114.615 0 0 114.615 0 256C0 397.385 114.615 512 256 512Z" fill="#F0F0F0"></path>
      <path d="M496.077 166.957H15.923C5.632 194.69 0 224.686 0 256C0 287.314 5.632 317.31 15.923 345.043H496.078C506.368 317.31 512 287.314 512 256C512 224.686 506.368 194.69 496.077 166.957Z" fill="#0052B4"></path>
      <path d="M256 0C178.409 0 108.886 34.524 61.939 89.043H450.06C403.114 34.524 333.591 0 256 0Z" fill="#D80027"></path>
      <path d="M450.061 422.957H61.939C108.886 477.476 178.409 512 256 512C333.591 512 403.114 477.476 450.061 422.957Z" fill="#D80027"></path>
    </g>
    <defs>
      <clipPath id="clip0_2_5886">
        <rect width="512" height="512" fill="white"></rect>
      </clipPath>
    </defs>
  </symbol>
  <symbol fill="none" xmlns="http://www.w3.org/2000/svg" viewBox="0 0 512 512" id="TR">
    <g clip-path="url(#clip0_2_5946)">
      <path d="M256 512C397.385 512 512 397.385 512 256C512 114.615 397.385 0 256 0C114.615 0 0 114.615 0 256C0 397.385 114.615 512 256 512Z" fill="#D80027"></path>
      <path d="M245.518 209.187L266.523 238.132L300.54 227.102L279.502 256.022L300.504 284.966L266.499 273.894L245.462 302.814L245.484 267.053L211.478 255.981L245.496 244.951L245.518 209.187Z" fill="#F0F0F0"></path>
      <path d="M188.194 328.348C148.238 328.348 115.846 295.956 115.846 256C115.846 216.044 148.238 183.652 188.194 183.652C200.652 183.652 212.374 186.803 222.608 192.348C206.553 176.646 184.596 166.956 160.368 166.956C111.19 166.956 71.3252 206.822 71.3252 255.999C71.3252 305.176 111.191 345.042 160.368 345.042C184.598 345.042 206.554 335.351 222.608 319.65C212.374 325.197 200.652 328.348 188.194 328.348Z" fill="#F0F0F0"></path>
    </g>
    <defs>
      <clipPath id="clip0_2_5946">
        <rect width="512" height="512" fill="white"></rect>
      </clipPath>
    </defs>
  </symbol>
  <symbol fill="none" xmlns="http://www.w3.org/2000/svg" viewBox="0 0 512 512" id="TW">
    <g clip-path="url(#clip0_2_5862)">
      <path d="M512 256C512 397.384 397.384 512 256 512C114.616 512 0 397.384 0 256C87.93 168.07 162.504 93.496 256 0C397.384 0 512 114.616 512 256Z" fill="#D80027"></path>
      <path d="M256 256C256 114.616 256 97.948 256 0C114.616 0 0 114.616 0 256H256Z" fill="#0052B4"></path>
      <path d="M222.609 149.821L191.344 164.529L207.992 194.808L174.043 188.312L169.74 222.609L146.094 197.385L122.446 222.609L118.145 188.312L84.1951 194.806L100.843 164.527L69.5791 149.821L100.844 135.116L84.1951 104.836L118.144 111.331L122.447 77.0352L146.094 102.259L169.741 77.0352L174.043 111.331L207.993 104.836L191.344 135.117L222.609 149.821Z" fill="#F0F0F0"></path>
      <path d="M146.098 197.469C172.416 197.469 193.751 176.134 193.751 149.816C193.751 123.498 172.416 102.163 146.098 102.163C119.78 102.163 98.4451 123.498 98.4451 149.816C98.4451 176.134 119.78 197.469 146.098 197.469Z" fill="#0052B4"></path>
      <path d="M146.094 175.213C132.093 175.213 120.703 163.822 120.703 149.821C120.703 135.82 132.094 124.429 146.094 124.429C160.095 124.429 171.486 135.82 171.486 149.821C171.485 163.822 160.093 175.213 146.094 175.213Z" fill="#F0F0F0"></path>
    </g>
    <defs>
      <clipPath id="clip0_2_5862">
        <rect width="512" height="512" fill="white"></rect>
      </clipPath>
    </defs>
  </symbol>
  <symbol fill="none" xmlns="http://www.w3.org/2000/svg" viewBox="0 0 20 20" id="US">
    <path d="M10 20C15.5228 20 20 15.5228 20 10C20 4.47715 15.5228 0 10 0C4.47715 0 0 4.47715 0 10C0 15.5228 4.47715 20 10 20Z" fill="#B22234"></path>
    <path d="M0.0386353 9.23068H19.9613C19.9216 8.71235 19.8416 8.1979 19.722 7.69201H0.277969C0.158319 8.1979 0.0782983 8.71235 0.0386353 9.23068Z" fill="white"></path>
    <path d="M4.68734 18.4613H15.3127C16.0038 18.0276 16.6394 17.5111 17.2053 16.9233H2.79468C3.3606 17.5111 3.99619 18.0276 4.68734 18.4613Z" fill="white"></path>
    <path d="M0.277969 12.308H19.722C19.8416 11.8021 19.9216 11.2877 19.9613 10.7693H0.0386353C0.0782983 11.2877 0.158319 11.8021 0.277969 12.308Z" fill="white"></path>
    <path d="M1.58268 15.3847H18.4173C18.7333 14.8967 19.0057 14.3818 19.2313 13.846H0.768677C0.994343 14.3818 1.26673 14.8967 1.58268 15.3847Z" fill="white"></path>
    <path d="M0.768677 6.154H19.2313C19.0057 5.61823 18.7333 5.10335 18.4173 4.61534H1.58268C1.26673 5.10335 0.994343 5.61823 0.768677 6.154Z" fill="white"></path>
    <path d="M2.79468 3.07667H17.2053C16.6393 2.48869 16.0035 1.97218 15.312 1.53867H4.68801C3.99652 1.97218 3.36069 2.48869 2.79468 3.07667Z" fill="white"></path>
    <path d="M0 10C0 10.26 0.0193333 10.5153 0.0386667 10.7707H10V0C7.34784 0 4.8043 1.05357 2.92893 2.92893C1.05357 4.8043 0 7.34784 0 10Z" fill="#3C3B6E"></path>
    <path d="M0.0933271 8.70334V8.68401L0.0853271 8.68934L0.0933271 8.70334Z" fill="white"></path>
    <path d="M7.46665 5.84734L7.32798 6.272H6.88132L7.24265 6.53534L7.10465 6.96L7.46665 6.69734L7.82798 6.96L7.68998 6.53534L8.05132 6.272H7.60465L7.46665 5.84734Z" fill="white"></path>
    <path d="M7.46665 3.69267L7.32798 4.118H6.88132L7.24265 4.38067L7.10465 4.806L7.46665 4.54334L7.82798 4.806L7.68998 4.38067L8.05132 4.118H7.60465L7.46665 3.69267Z" fill="white"></path>
    <path d="M7.60465 8.42668L7.46665 8.00134L7.32798 8.42668H6.88132L7.24265 8.68934L7.10465 9.11468L7.46665 8.85134L7.82798 9.11468L7.68998 8.68934L8.05132 8.42668H7.60465Z" fill="white"></path>
    <path d="M7.46665 1.53867L7.32798 1.96401H6.88132L7.24265 2.22667L7.10465 2.65201L7.46665 2.38934L7.82798 2.65201L7.68998 2.22667L8.05132 1.96401H7.60465L7.46665 1.53867Z" fill="white"></path>
    <path d="M8.87131 9.50334L8.73331 9.078L8.59531 9.50334H8.14798L8.50931 9.766L8.37131 10.1913L8.73331 9.92867L9.09465 10.1913L8.95665 9.766L9.31865 9.50334H8.87131Z" fill="white"></path>
    <path d="M8.73331 6.92401L8.59531 7.34934H8.14798L8.50931 7.61201L8.37131 8.03734L8.73331 7.77468L9.09465 8.03734L8.95665 7.61201L9.31865 7.34934H8.87131L8.73331 6.92401Z" fill="white"></path>
    <path d="M8.73331 2.61601L8.59531 3.04134H8.14798L8.50931 3.30401L8.37131 3.72934L8.73331 3.46601L9.09465 3.72934L8.95665 3.30401L9.31865 3.04134H8.87131L8.73331 2.61601Z" fill="white"></path>
    <path d="M8.73331 4.77L8.59531 5.19534H8.14798L8.50931 5.458L8.37131 5.88334L8.73331 5.62067L9.09465 5.88334L8.95665 5.458L9.31865 5.19534H8.87131L8.73331 4.77Z" fill="white"></path>
    <path d="M8.73331 0.461342L8.59531 0.886675H8.14798L8.50931 1.15001L8.37131 1.57468L8.73331 1.31201L9.09465 1.57468L8.95665 1.15001L9.31865 0.886675H8.87131L8.73331 0.461342Z" fill="white"></path>
    <path d="M6.33729 9.50334L6.19929 9.078L6.06129 9.50334H5.61395L5.97595 9.766L5.83795 10.1913L6.19929 9.92867L6.56129 10.1913L6.42329 9.766L6.78462 9.50334H6.33729Z" fill="white"></path>
    <path d="M6.19929 6.92401L6.06129 7.34934H5.61395L5.97595 7.61201L5.83795 8.03734L6.19929 7.77468L6.56129 8.03734L6.42329 7.61201L6.78462 7.34934H6.33729L6.19929 6.92401Z" fill="white"></path>
    <path d="M6.19929 2.61601L6.06129 3.04134H5.61395L5.97595 3.30401L5.83795 3.72934L6.19929 3.46601L6.56129 3.72934L6.42329 3.30401L6.78462 3.04134H6.33729L6.19929 2.61601Z" fill="white"></path>
    <path d="M6.19929 4.77L6.06129 5.19534H5.61395L5.97595 5.458L5.83795 5.88334L6.19929 5.62067L6.56129 5.88334L6.42329 5.458L6.78462 5.19534H6.33729L6.19929 4.77Z" fill="white"></path>
    <path d="M5.83799 1.57467L6.19999 1.312L6.56199 1.57467L6.42399 1.15L6.78533 0.88667H6.33733L6.28399 0.721336C6.21733 0.74667 6.15466 0.76667 6.09133 0.793336L6.06133 0.88667H5.89799C5.83999 0.91267 5.78466 0.942003 5.72733 0.969336L5.97599 1.15L5.83799 1.57467Z" fill="white"></path>
    <path d="M4.93265 5.84734L4.79465 6.272H4.34732L4.70932 6.53534L4.57065 6.96L4.93265 6.69734L5.29465 6.96L5.15599 6.53534L5.51799 6.272H5.07065L4.93265 5.84734Z" fill="white"></path>
    <path d="M4.93265 3.69267L4.79465 4.118H4.34732L4.70932 4.38067L4.57065 4.806L4.93265 4.54334L5.29465 4.806L5.15599 4.38067L5.51799 4.118H5.07065L4.93265 3.69267Z" fill="white"></path>
    <path d="M5.07065 8.42668L4.93265 8.00134L4.79465 8.42668H4.34732L4.70932 8.68934L4.57065 9.11468L4.93265 8.85134L5.29465 9.11468L5.15599 8.68934L5.51799 8.42668H5.07065Z" fill="white"></path>
    <path d="M4.93265 1.53867L4.79465 1.96401H4.34732L4.70932 2.22667L4.57065 2.65201L4.93265 2.38934L5.29465 2.65201L5.15599 2.22667L5.51799 1.96401H5.07065L4.93265 1.53867Z" fill="white"></path>
    <path d="M3.80396 9.50334L3.66596 9.078L3.52796 9.50334H3.08063L3.44196 9.766L3.30396 10.1913L3.66596 9.92867L4.02729 10.1913L3.88929 9.766L4.25129 9.50334H3.80396Z" fill="white"></path>
    <path d="M3.66596 6.92401L3.52796 7.34934H3.08063L3.44196 7.61201L3.30396 8.03734L3.66596 7.77468L4.02729 8.03734L3.88929 7.61201L4.25129 7.34934H3.80396L3.66596 6.92401Z" fill="white"></path>
    <path d="M3.66596 2.61601L3.52796 3.04134H3.08063L3.44196 3.30401L3.30396 3.72934L3.66596 3.46601L4.02729 3.72934L3.88929 3.30401L4.25129 3.04134H3.80396L3.66596 2.61601Z" fill="white"></path>
    <path d="M3.66596 4.77L3.52796 5.19534H3.08063L3.44196 5.458L3.30396 5.88334L3.66596 5.62067L4.02729 5.88334L3.88929 5.458L4.25129 5.19534H3.80396L3.66596 4.77Z" fill="white"></path>
    <path d="M2.3993 5.84734L2.26063 6.272H1.81396L2.1753 6.53534L2.0373 6.96L2.3993 6.69734L2.76063 6.96L2.62263 6.53534L2.98396 6.272H2.5373L2.3993 5.84734Z" fill="white"></path>
    <path d="M2.03728 4.806L2.39994 4.54334L2.76128 4.806L2.62328 4.38067L2.98461 4.118H2.53794L2.39994 3.69267L2.26128 4.118H1.92794C1.91528 4.136 1.90128 4.15267 1.88861 4.17067L2.17794 4.38067L2.03728 4.806Z" fill="white"></path>
    <path d="M2.5373 8.42668L2.3993 8.00134L2.26063 8.42668H1.81396L2.1753 8.68934L2.0373 9.11468L2.3993 8.85134L2.76063 9.11468L2.62263 8.68934L2.98396 8.42668H2.5373Z" fill="white"></path>
    <path d="M1.27003 9.50334L1.13203 9.078L0.994025 9.50334H0.546692L0.908692 9.766L0.770692 10.1913L1.13203 9.92867L1.49403 10.1913L1.35603 9.766L1.71736 9.50334H1.27003Z" fill="white"></path>
    <path d="M1.13203 6.92401L0.994025 7.34934H0.546692L0.908692 7.61201L0.770692 8.03734L1.13203 7.77468L1.49403 8.03734L1.35603 7.61201L1.71736 7.34934H1.27003L1.13203 6.92401Z" fill="white"></path>
    <path d="M1.49397 5.88334L1.35597 5.45801L1.7173 5.19534H1.26997L1.25597 5.15201C1.1493 5.34467 1.05597 5.54467 0.960632 5.74534L1.1333 5.62067L1.49397 5.88334Z" fill="white"></path>
    <path d="M0.0933306 8.70334C0.0813306 8.79867 0.0606639 8.89067 0.0513306 8.98667L0.227331 9.11467L0.0933306 8.70334Z" fill="white"></path>
    <path d="M0.450661 8.42667H0.133327C0.119327 8.512 0.105327 8.59733 0.0939941 8.684L0.450661 8.42667Z" fill="white"></path>
  </symbol>
  <symbol fill="none" xmlns="http://www.w3.org/2000/svg" viewBox="0 0 512 512" id="VN">
    <g clip-path="url(#clip0_2_6136)">
      <path d="M256.001 512C397.386 512 512.001 397.385 512.001 256C512.001 114.615 397.386 0 256.001 0C114.616 0 0.000976562 114.615 0.000976562 256C0.000976562 397.385 114.616 512 256.001 512Z" fill="#D80027"></path>
      <path d="M256.001 133.565L283.629 218.594H373.034L300.703 271.144L328.331 356.174L256.001 303.623L183.671 356.174L211.299 271.144L138.969 218.594H228.373L256.001 133.565Z" fill="#FFDA44"></path>
    </g>
    <defs>
      <clipPath id="clip0_2_6136">
        <rect width="512" height="512" fill="white" transform="translate(0.000976562)"></rect>
      </clipPath>
    </defs>
  </symbol>
  <symbol fill="none" xmlns="http://www.w3.org/2000/svg" viewBox="0 0 512 512" id="ZA">
    <g clip-path="url(#clip0_2_5748)">
      <path d="M256.001 512C397.386 512 512.001 397.385 512.001 256C512.001 114.615 397.386 0 256.001 0C114.616 0 0.000976562 114.615 0.000976562 256C0.000976562 397.385 114.616 512 256.001 512Z" fill="#F0F0F0"></path>
      <path d="M74.981 437.02C-24.993 337.045 -24.993 174.955 74.981 74.98C74.974 74.991 222.61 256 222.61 256L74.981 437.02Z" fill="black"></path>
      <path d="M222.61 256L33.954 128.513C28.105 138.68 22.947 149.292 18.515 160.276L114.024 256.001L18.518 351.731C22.946 362.707 28.099 373.312 33.944 383.472L222.61 256Z" fill="#FFDA44"></path>
      <path d="M509.834 222.609H222.603L74.979 74.9839C59.071 90.8919 45.25 108.883 33.954 128.514L161.193 256L33.944 383.47C45.24 403.106 59.067 421.103 74.979 437.015L222.603 289.391H509.834C511.257 278.461 512.001 267.317 512.001 256C512.001 244.683 511.257 233.539 509.834 222.609Z" fill="#6DA544"></path>
      <path d="M100.139 459.077C143.308 492.259 197.345 512 256.001 512C374.28 512 473.806 431.779 503.182 322.783H236.434L100.139 459.077Z" fill="#0052B4"></path>
      <path d="M503.182 189.217C473.806 80.221 374.28 0 256.001 0C197.345 0 143.308 19.741 100.139 52.923L236.433 189.217H503.182Z" fill="#D80027"></path>
    </g>
    <defs>
      <clipPath id="clip0_2_5748">
        <rect width="512" height="512" fill="white" transform="translate(0.000976562)"></rect>
      </clipPath>
    </defs>
  </symbol>
</svg>
