<svg height="512" viewBox="0 0 24 24" width="512" xmlns="http://www.w3.org/2000/svg"><g id="Layer_2" data-name="Layer 2"><path d="m19.20605 19.59033c-1.74511 0-3.57617-1.43994-4.82226-3.84033h-4.7666c-1.43946 2.77246-3.65772 4.26074-5.62354 3.73584-2.57226-.68945-3.70654-4.51758-2.582-8.71533a10.90648 10.90648 0 0 1 2.60446-4.81151 4.14931 4.14931 0 0 1 3.98975-1.44533 3.526 3.526 0 0 1 2.12256 1.73633h3.74267a3.52427 3.52427 0 0 1 2.123-1.73633 4.14441 4.14441 0 0 1 3.98931 1.44533 10.89114 10.89114 0 0 1 2.60449 4.812 10.8996 10.8996 0 0 1 .15039 5.46875 4.14783 4.14783 0 0 1 -2.73242 3.24609 3.0849 3.0849 0 0 1 -.79981.10449zm-10.05517-5.34033h5.69873a.75137.75137 0 0 1 .67969.43213c1.07129 2.291 2.78711 3.70508 4.08789 3.35449 1.02734-.2749 1.4873-1.48291 1.6709-2.17871a9.39 9.39 0 0 0 -.14942-4.69873v-.00049a9.38982 9.38982 0 0 0 -2.2207-4.144 2.87713 2.87713 0 0 0 -2.53516-1.05176 2.318 2.318 0 0 0 -1.376 1.35254.75041.75041 0 0 1 -.68067.43457h-4.65231a.74917.74917 0 0 1 -.68018-.43457 2.32148 2.32148 0 0 0 -1.37646-1.35258 2.87629 2.87629 0 0 0 -2.53565 1.05176 9.39472 9.39472 0 0 0 -2.2207 4.144c-.877 3.27246-.18018 6.42236 1.52148 6.87793 1.30176.35156 3.01709-1.064 4.08936-3.35449a.75011.75011 0 0 1 .6792-.43209z"/><path d="m7 13.75a.7502.7502 0 0 1 -.75-.75v-3a.75.75 0 0 1 1.5 0v3a.7502.7502 0 0 1 -.75.75z"/><path d="m8.5 12.25h-3a.75.75 0 0 1 0-1.5h3a.75.75 0 0 1 0 1.5z"/><circle cx="15.75" cy="10.25" r="1.25"/><circle cx="18.25" cy="12.75" r="1.25"/></g></svg>