<svg width="24" height="24" viewBox="0 0 24 24" fill="none" xmlns="http://www.w3.org/2000/svg">
<g id="icon:gift">
<g id="Layer 2">
<path id="Vector" d="M4.40081 13.4023H11.0512V21.0028H6.77594C6.02003 21.0028 5.29508 20.7025 4.76057 20.168C4.22607 19.6335 3.92578 18.9085 3.92578 18.1526V13.4023C4.08354 13.4215 4.24305 13.4215 4.40081 13.4023Z" fill="white"/>
<path id="Vector_2" d="M20.0746 13.4023V18.1526C20.0746 18.9085 19.7743 19.6335 19.2398 20.168C18.7053 20.7025 17.9804 21.0028 17.2245 21.0028H12.9492V13.4023H19.5996C19.7574 13.4215 19.9169 13.4215 20.0746 13.4023Z" fill="white"/>
<path id="Vector_3" d="M20.076 7.69922H3.92508C3.13803 7.69922 2.5 8.33725 2.5 9.1243V11.0244C2.5 11.8115 3.13803 12.4495 3.92508 12.4495H20.076C20.8631 12.4495 21.5011 11.8115 21.5011 11.0244V9.1243C21.5011 8.33725 20.8631 7.69922 20.076 7.69922Z" fill="white"/>
<path id="Vector_4" d="M12.2399 8.65076H12.0024C11.8488 8.64785 11.6981 8.60773 11.5635 8.53384C11.4288 8.45996 11.314 8.35451 11.229 8.22654C11.144 8.09857 11.0913 7.95189 11.0754 7.79909C11.0595 7.64628 11.0809 7.4919 11.1378 7.34919C11.4703 6.51314 11.7648 5.66759 12.0119 4.83154C12.2399 4.14751 13.1044 1.98138 15.318 1.98138C16.1808 1.96096 17.0163 2.28358 17.6415 2.87846C18.2667 3.47334 18.6303 4.29189 18.6527 5.15456C18.6527 7.14968 16.3821 8.00472 15.6316 8.24224C14.5266 8.54116 13.3842 8.67876 12.2399 8.65076ZM15.299 3.90049C14.349 3.90049 13.931 5.04056 13.817 5.39208C13.703 5.7436 13.5414 6.26613 13.3799 6.71265C13.9197 6.6925 14.4554 6.6096 14.976 6.46564C15.4225 6.30413 16.7526 5.8006 16.7526 5.15456C16.7235 4.79656 16.5547 4.46439 16.2827 4.22976C16.0108 3.99512 15.6574 3.87686 15.299 3.90049Z" fill="white"/>
<path id="Vector_5" d="M11.7454 8.65038C10.6171 8.6699 9.49164 8.53241 8.40124 8.24186C5.77909 7.38681 5.35156 5.94272 5.35156 5.16368C5.35754 4.76032 5.44475 4.3623 5.60799 3.99339C5.77122 3.62449 6.00713 3.29226 6.30162 3.01656C6.94908 2.37981 7.81629 2.01592 8.72425 2C10.4534 2 11.2989 3.56759 11.9259 4.67915C12.3147 5.57108 12.6324 6.49233 12.876 7.43431C12.9171 7.5738 12.9256 7.72086 12.9009 7.86416C12.8762 8.00746 12.8189 8.14318 12.7335 8.26086C12.6489 8.37683 12.5391 8.47213 12.4124 8.53959C12.2857 8.60706 12.1454 8.64493 12.0019 8.65038H11.7454ZM8.64825 3.90011C8.26036 3.92276 7.8947 4.08866 7.62219 4.36563C7.40814 4.56385 7.27598 4.83496 7.25167 5.12568C7.25167 5.5912 7.90721 6.07573 8.99027 6.43675C9.54822 6.59219 10.1218 6.6846 10.7004 6.71227C10.5839 6.33399 10.4378 5.96549 10.2633 5.61021L11.0519 5.14468L10.2253 5.60071C9.71231 4.61265 9.27529 3.90011 8.67675 3.90011H8.64825Z" fill="white"/>
</g>
</g>
</svg>
