<svg width="81" height="80" viewBox="0 0 81 80" fill="none" xmlns="http://www.w3.org/2000/svg">
<g id="hot-price_15193279 2" clip-path="url(#clip0_3748_45318)">
<g id="Group">
<path id="Vector" d="M15.3236 70.5543L45.7753 67.9406L59.1233 75.1693C70.8498 68.6268 78.782 56.0998 78.782 41.7181C78.782 37.5504 78.1134 33.5395 76.8822 29.7836L75.1889 29.0984C75.5595 26.9836 74.8048 24.7145 74.8048 24.7145C74.3539 23.8064 73.8687 22.9186 73.3495 22.0531C73.3491 22.0526 71.8092 20.1345 69.2805 19.7L70.417 17.8351C63.4022 9.05965 52.6087 3.43652 40.5003 3.43652C19.358 3.43652 2.21875 20.5757 2.21875 41.7181C2.21875 53.2206 7.29281 63.5368 15.3236 70.5543Z" fill="#5C75C9"/>
<path id="Vector_2" d="M51.0617 62.4443H40.5011L31.8789 79.0246C34.6502 79.6625 37.5363 79.9998 40.5011 79.9998C47.2617 79.9998 53.6116 78.245 59.1239 75.1695L59.9514 70.2795L51.0617 62.4443Z" fill="#B9C4EA"/>
<path id="Vector_3" d="M64.1555 45.4346L59.9509 70.28C51.6647 71.3604 48.3984 64.9822 48.3984 64.9822L50.8867 49.368L64.1555 45.4346Z" fill="#D9DDF5"/>
<path id="Vector_4" d="M69.1176 36.2686L66.989 35.6757C61.9929 38.4953 56.648 38.5465 54.8207 35.7926L52.6549 35.3545L52.2168 37.5204C53.6327 39.6543 56.1593 40.8698 59.3309 40.9426C62.2334 41.0092 65.4985 40.1054 68.5248 38.3973L69.1176 36.2686Z" fill="#F5F7FF"/>
<path id="Vector_5" d="M48.3991 64.9821L39.9572 51.3485L25.3593 45.8613L17.7432 54.4532C13.7218 58.9899 12.9775 65.3413 15.3244 70.5548C19.9882 74.6301 25.6485 77.5931 31.8929 79.0279C34.981 78.4115 37.8988 76.8274 40.1364 74.3032L48.3991 64.9821Z" fill="#91A3DF"/>
<path id="Vector_6" d="M48.3992 64.9818L61.1908 50.5513C66.6495 44.3932 66.0773 34.8883 59.9192 29.4296C53.7611 23.9708 44.2564 24.543 38.7975 30.7012L25.3594 45.861C25.7528 48.8797 28.7755 65.0379 48.3992 64.9818ZM48.9761 34.5988C50.72 32.6316 53.7283 32.4504 55.6956 34.1943C57.6628 35.938 57.8441 38.9465 56.1002 40.9138C54.3563 42.881 51.348 43.0622 49.3806 41.3183C47.4134 39.5746 47.2322 36.5662 48.9761 34.5988Z" fill="#8598D7"/>
<g id="Group_2">
<path id="Vector_7" d="M33.7022 59.0958L31.4166 59.0479L31.0933 59.4139C30.4554 60.1363 30.5238 61.2389 31.2461 61.8769C31.9685 62.5149 33.0711 62.4464 33.7091 61.7241L34.0872 61.296L33.7022 59.0958Z" fill="#E1E4F8"/>
<path id="Vector_8" d="M45.4309 45.815C44.7086 45.177 43.6059 45.2455 42.968 45.9678L42.5898 46.396L42.8094 48.5845L45.2606 48.6439L45.5839 48.2778C46.2217 47.5556 46.1533 46.453 45.4309 45.815Z" fill="#E1E4F8"/>
<path id="Vector_9" d="M40.134 53.1035L38.8536 51.9726C38.1828 51.3803 38.119 50.3526 38.7115 49.6817C39.304 49.0107 40.3317 48.947 41.0025 49.5393L43.8733 52.0745C44.5956 52.7124 45.6983 52.644 46.3362 51.9217C46.9742 51.1993 46.9058 50.0967 46.1834 49.4587L45.2609 48.644L42.5903 46.396C40.5147 45.1278 37.7609 45.4863 36.0959 47.3715C34.2297 49.4848 34.4304 52.7223 36.5436 54.5884L37.824 55.7193C38.4948 56.3117 38.5586 57.3393 37.9661 58.0103C37.3736 58.6812 36.3458 58.7449 35.6751 58.1526L32.8043 55.6174C32.082 54.9795 30.9793 55.0479 30.3414 55.7703C29.7034 56.4926 29.7718 57.5953 30.4942 58.2332L31.4167 59.0479L34.0873 61.2959C36.1629 62.5642 38.9168 62.2056 40.5817 60.3204C42.4481 58.2071 42.2472 54.9696 40.134 53.1035Z" fill="#F5F7FF"/>
</g>
<g id="Group_3">
<path id="Vector_10" d="M54.3831 37.9581C55.1021 37.4809 55.2982 36.5112 54.8212 35.7923C52.819 32.7748 55.5607 27.2837 60.8084 23.8018C65.4623 20.7139 70.8037 20.0582 73.3499 22.0535C72.466 20.5801 71.4854 19.1715 70.4174 17.8356C69.9606 17.7985 69.4899 17.7835 69.0035 17.7967C65.7793 17.8835 62.2551 19.0914 59.0806 21.1978C55.906 23.3042 53.4235 26.0818 52.0906 29.0189C50.6462 32.2009 50.6912 35.2199 52.2173 37.5199C52.6943 38.239 53.664 38.4351 54.3831 37.9581Z" fill="white"/>
<path id="Vector_11" d="M68.5259 38.397C68.9981 38.1305 69.4687 37.8422 69.9245 37.5397C73.0754 35.4489 75.5431 32.6969 76.8832 29.7839C76.31 28.0352 75.6142 26.3423 74.8059 24.7148C75.1573 27.8069 72.5348 32.0572 68.1968 34.9356C67.8032 35.1967 67.3973 35.4456 66.9903 35.6753C66.2386 36.0994 65.9732 37.0523 66.3973 37.8041C66.8212 38.553 67.7743 38.8213 68.5259 38.397Z" fill="white"/>
</g>
<g id="Vector_12">
<path d="M26.4289 47.7435C15.3 47.7308 7.37955 36.8396 10.8899 26.2749C12.0019 22.9282 13.8522 19.6389 16.3863 16.5036C18.4331 13.971 19.7705 11.5816 20.631 9.42676L31.1981 15.2111L26.4289 47.7435Z" fill="#E55D5D"/>
<path d="M26.4289 47.7435C15.3 47.7308 7.37955 36.8396 10.8899 26.2749C12.0019 22.9282 13.8522 19.6389 16.3863 16.5036C18.4331 13.971 19.7705 11.5816 20.631 9.42676L31.1981 15.2111L26.4289 47.7435Z" fill="black" fill-opacity="0.05"/>
</g>
<path id="Vector_13" d="M40.3971 17.7113C40.0138 16.7563 38.7477 16.5652 38.106 17.3698C37.382 18.2777 36.3582 19.4152 35.028 20.5517C35.028 20.5517 37.3516 7.96947 24.0441 0.186966C23.117 -0.355222 21.9559 0.350403 22.0271 1.42228C22.1507 3.28353 21.971 6.06978 20.6309 9.42634C20.7071 11.7337 21.4384 15.6838 25.1891 18.3212L26.4288 47.7431C26.4352 47.7431 26.4416 47.7434 26.448 47.7434C34.5568 47.7434 41.4945 41.8151 42.6404 33.7877C43.2727 29.3595 42.9052 23.9602 40.3971 17.7113Z" fill="#E55D5D"/>
<path id="Vector_14" d="M26.4789 47.8988C26.4722 47.8988 26.4655 47.8993 26.4588 47.8993C19.4343 47.8993 14.4327 41.0268 16.6475 34.3607C17.3488 32.2502 18.5157 30.176 20.1136 28.1988C20.9891 27.1155 21.6577 26.0741 22.1677 25.0918L33.3857 35.5882L26.4789 47.8988Z" fill="#FFC242"/>
<path id="Vector_15" d="M35.257 28.9608C35.0153 28.3586 34.2168 28.238 33.8122 28.7455C33.3556 29.3182 32.71 30.0353 31.8711 30.7521C31.8711 30.7521 33.3364 22.8175 24.9445 17.9099C24.3598 17.568 23.6276 18.013 23.6725 18.6888C23.7665 20.1049 23.5825 22.37 22.1693 25.0921C22.1378 27.3549 22.6242 31.6144 26.4806 33.3066V47.8993C31.5854 47.8894 35.9498 44.1546 36.6715 39.0991C37.0703 36.3063 36.8386 32.9014 35.257 28.9608Z" fill="#FFDA4C"/>
<path id="Vector_16" d="M30.6877 42.0909C30.6877 46.1701 28.8041 48.0561 26.4806 48.0561C24.157 48.0561 22.2734 46.1701 22.2734 42.0909C22.2734 38.0117 24.157 32.7217 26.4806 32.7217C28.8042 32.7217 30.6877 38.0117 30.6877 42.0909Z" fill="#FEF156"/>
<path id="Vector_17" d="M56.6349 8.26636C56.456 7.82058 55.8651 7.73136 55.5657 8.10698C55.2277 8.53073 54.7499 9.06167 54.1292 9.59198C54.1292 9.59198 55.2137 3.71948 49.0027 0.0872953C48.5699 -0.16583 48.0281 0.163545 48.0613 0.663858C48.156 2.09026 47.872 4.67933 45.4285 7.70261C44.2459 9.16605 43.3823 10.701 42.8632 12.2631C41.224 17.1968 44.9257 22.2832 50.1246 22.2832C53.9092 22.2832 57.1471 19.5164 57.682 15.7698C57.977 13.7028 57.8056 11.1829 56.6349 8.26636Z" fill="#E55D5D"/>
<path id="Vector_18" d="M53.2529 17.984C53.2529 21.0031 51.8588 22.3989 50.1391 22.3989C48.4195 22.3989 47.0254 21.0031 47.0254 17.984C47.0254 14.965 48.4195 11.0498 50.1391 11.0498C51.8588 11.0498 53.2529 14.965 53.2529 17.984Z" fill="#FFD863"/>
</g>
</g>
<defs>
<clipPath id="clip0_3748_45318">
<rect width="80" height="80" fill="white" transform="translate(0.5)"/>
</clipPath>
</defs>
</svg>
