<svg width="57" height="57" viewBox="0 0 57 57" fill="none" xmlns="http://www.w3.org/2000/svg">
<path d="M37.074 21.0889C36.5445 21.2239 36.0418 21.2901 35.5744 21.2906C34.2725 21.2906 33.2431 20.7754 32.6491 19.7932C32.1863 19.0294 32.0489 18.13 32.2627 17.2613C32.4764 16.3932 33.0151 15.6602 33.7794 15.1968C33.8017 15.1831 33.8245 15.1711 33.8478 15.1597L35.4587 14.3879L39.5684 12.5685L36.2589 7.9572L11.6338 25.6295L21.4161 39.257L46.039 21.5853L44.3056 19.1697C41.7902 19.877 38.7909 20.6522 37.074 21.0889Z" fill="#60AC71"/>
<path d="M32.6494 19.7933C32.4812 19.5157 32.3569 19.2198 32.276 18.9137C30.1721 17.434 27.2515 17.5828 25.3043 19.4136C23.0819 21.5072 22.9747 25.0076 25.0695 27.2335C27.162 29.4582 30.6629 29.5642 32.887 27.47C34.6996 25.7646 35.1049 23.1249 34.0618 21.0022C33.4713 20.7548 32.9874 20.3524 32.6494 19.7933Z" fill="white"/>
<path d="M32.0739 23.138C31.0456 21.7062 29.5567 22.3024 28.6681 22.6592C27.6991 23.0474 27.6033 22.9915 27.4939 22.8405C27.3069 22.5794 27.4403 22.2579 27.8598 21.957C28.1095 21.778 28.7188 21.4012 28.9856 21.77L30.3735 20.7719C29.8526 20.0463 28.875 19.6405 27.7065 20.0993L27.1627 19.3401L25.7725 20.3353L26.3015 21.074C25.4829 22.006 25.5816 23.1067 26.1042 23.8368C27.0487 25.1513 28.4612 24.5847 29.3042 24.2461C30.3507 23.8271 30.4984 23.8756 30.6848 24.1361C30.8039 24.3014 30.7902 24.3852 30.7851 24.4165C30.7731 24.4878 30.6927 24.7505 30.1461 25.1427C29.9916 25.2544 29.465 25.5873 29.1908 25.2065L27.8023 26.2052C28.2229 26.79 28.8499 27.0898 29.5288 27.0898C29.8395 27.0898 30.1604 27.0191 30.4773 26.892L30.9504 27.5521L32.3406 26.5557L31.8573 25.882C32.1879 25.5064 32.4039 25.1108 32.4723 24.6935C32.5606 24.16 32.4227 23.6219 32.0739 23.138Z" fill="#87BD93"/>
<path d="M51.8707 42.7494L47.6949 31.3973L36.6004 36.2155L40.522 37.8936C37.358 43.0247 31.3969 46.3342 25.295 46.0292C16.6926 45.8822 8.99019 38.6825 8.13519 29.9803C6.93021 21.0683 13.0782 11.8731 21.8745 9.36966L21.6898 7.58157C15.3286 8.81562 9.87996 12.902 6.72387 18.8072C3.4686 24.8982 3.1152 31.9519 5.75487 38.1598C8.42532 44.6316 13.8683 49.5188 20.6894 51.5708C27.6674 53.6701 35.0951 52.5546 41.0698 48.511C43.9124 46.5952 46.3503 44.0633 48.1897 41.174L51.8707 42.7494Z" fill="#5C75C9"/>
<path d="M51.2003 5.97987C51.1878 5.98101 51.1752 5.98443 51.1627 5.985C44.7251 6.2415 34.7142 6.73968 33.5195 7.06002C32.9295 7.21848 32.0876 8.83899 31.2617 11.5431L36.2589 7.95663L39.5683 12.5679L40.893 11.9814C41.2971 11.803 41.768 11.9854 41.9458 12.3878C42.1242 12.7908 41.9424 13.2622 41.5394 13.4406L36.1272 15.8369L34.5768 16.5802C34.1932 16.823 33.9225 17.1986 33.8136 17.6415C33.7019 18.0958 33.7737 18.5666 34.016 18.9662C34.5592 19.8656 35.7647 19.7756 36.6813 19.5419C42.5198 18.0559 47.1585 16.7455 47.7102 16.4251C48.2221 16.1156 50.7922 14.3019 51.7395 13.6293C51.8524 13.5495 51.9789 13.5141 52.1072 13.4987L51.2003 5.97987Z" fill="white"/>
<path d="M35.5751 21.2906C34.2732 21.2906 33.2438 20.7754 32.6499 19.7933C32.187 19.0295 32.0496 18.1294 32.2634 17.2613C32.4771 16.3926 33.0158 15.6596 33.7802 15.1968C33.8024 15.1837 33.8252 15.1711 33.8486 15.1597L35.4594 14.3879L40.8932 11.982C41.2973 11.8036 41.7681 11.986 41.946 12.3884C42.1244 12.7914 41.9426 13.2628 41.5396 13.4412L36.1274 15.8375L34.577 16.5807C34.1934 16.8236 33.9227 17.1992 33.8138 17.6421C33.7021 18.0964 33.7739 18.5672 34.0161 18.9668C34.5594 19.8662 35.7649 19.7762 36.6815 19.5425C42.52 18.0565 47.1586 16.746 47.7104 16.4257C48.2228 16.1162 50.7924 14.3024 51.7397 13.6298C52.0988 13.3756 52.5976 13.4588 52.8524 13.8185C53.1077 14.1776 53.0228 14.6758 52.6637 14.9312C52.5229 15.0309 49.2038 17.3873 48.5363 17.7914C47.5582 18.3842 40.1955 20.2949 37.0753 21.0889C36.5452 21.224 36.0425 21.2901 35.5751 21.2906ZM51.0996 4.39071C49.4421 4.45683 34.8569 5.04963 33.1064 5.51874C31.377 5.98272 30.0695 9.48708 29.1729 13.0427L31.2619 11.5431C32.0878 8.83899 32.9297 7.21848 33.5197 7.06002C34.715 6.74025 44.7259 6.2415 51.1629 5.985C51.6029 5.96733 51.9461 5.59626 51.9284 5.15565C51.9107 4.71561 51.5539 4.38729 51.0996 4.39071Z" fill="#737781"/>
</svg>
