<svg width="44" height="14" viewBox="0 0 44 14" fill="none" xmlns="http://www.w3.org/2000/svg">
<g id="icon:visa">
<g id="Group">
<g id="Group_2">
<g id="Group_3">
<g id="Group_4">
<path id="Vector" d="M15.8477 12.758L18.0425 0.412109H21.4719L19.3457 12.758H15.8477Z" fill="#3C58BF"/>
</g>
</g>
<g id="Group_5">
<g id="Group_6">
<path id="Vector_2" d="M15.8477 12.758L18.6598 0.412109H21.4719L19.3457 12.758H15.8477Z" fill="#293688"/>
</g>
</g>
<g id="Group_7">
<g id="Group_8">
<path id="Vector_3" d="M31.7596 0.548707C31.0738 0.274354 29.9763 0 28.6046 0C25.1752 0 22.706 1.71471 22.706 4.18389C22.706 6.03577 24.4207 6.99601 25.7925 7.6133C27.1642 8.2306 27.5757 8.64212 27.5757 9.19083C27.5757 10.0139 26.4783 10.4254 25.5181 10.4254C24.1463 10.4254 23.3919 10.2197 22.2259 9.73954L21.7457 9.53377L21.2656 12.3459C22.0887 12.6888 23.5976 13.0318 25.1752 13.0318C28.8103 13.0318 31.2109 11.3171 31.2109 8.71071C31.2109 7.27036 30.3193 6.17295 28.2616 5.2813C27.027 4.664 26.2726 4.32106 26.2726 3.70377C26.2726 3.15506 26.8899 2.60636 28.2616 2.60636C29.4276 2.60636 30.2507 2.81212 30.868 3.08647L31.2109 3.22365L31.7596 0.548707Z" fill="#3C58BF"/>
</g>
</g>
<g id="Group_9">
<g id="Group_10">
<path id="Vector_4" d="M31.7596 0.548707C31.0738 0.274354 29.9763 0 28.6046 0C25.1752 0 23.3233 1.71471 23.3233 4.18389C23.3233 6.03577 24.4207 6.99601 25.7925 7.6133C27.1642 8.2306 27.5757 8.64212 27.5757 9.19083C27.5757 10.0139 26.4783 10.4254 25.5181 10.4254C24.1463 10.4254 23.3919 10.2197 22.2259 9.73954L21.7457 9.53377L21.2656 12.3459C22.0887 12.6888 23.5976 13.0318 25.1752 13.0318C28.8103 13.0318 31.2109 11.3171 31.2109 8.71071C31.2109 7.27036 30.3193 6.17295 28.2616 5.2813C27.027 4.664 26.2726 4.32106 26.2726 3.70377C26.2726 3.15506 26.8899 2.60636 28.2616 2.60636C29.4276 2.60636 30.2507 2.81212 30.868 3.08647L31.2109 3.22365L31.7596 0.548707Z" fill="#293688"/>
</g>
</g>
<g id="Group_11">
<g id="Group_12">
<path id="Vector_5" d="M37.654 0.412109C36.8309 0.412109 36.2136 0.480697 35.8707 1.30376L30.7266 12.758H34.4303L35.1162 10.7004H39.5059L39.9174 12.758H43.2096L40.3289 0.412109H37.654ZM36.0764 8.6427C36.2822 8.02541 37.4482 5.00752 37.4482 5.00752C37.4482 5.00752 37.7226 4.25305 37.9283 3.77294L38.1341 4.93894C38.1341 4.93894 38.82 8.02541 38.9572 8.71129H36.0764V8.6427Z" fill="#3C58BF"/>
</g>
</g>
<g id="Group_13">
<g id="Group_14">
<path id="Vector_6" d="M38.477 0.412109C37.654 0.412109 37.0367 0.480697 36.6937 1.30376L30.7266 12.758H34.4303L35.1162 10.7004H39.5059L39.9174 12.758H43.2096L40.3289 0.412109H38.477ZM36.0764 8.6427C36.3508 7.95682 37.4482 5.00752 37.4482 5.00752C37.4482 5.00752 37.7226 4.25305 37.9283 3.77294L38.1341 4.93894C38.1341 4.93894 38.82 8.02541 38.9572 8.71129H36.0764V8.6427Z" fill="#293688"/>
</g>
</g>
<g id="Group_15">
<g id="Group_16">
<path id="Vector_7" d="M9.53475 9.05303L9.1918 7.26973C8.57451 5.21208 6.58545 2.94867 4.39062 1.85126L7.4771 12.8254H11.1809L16.7365 0.479492H13.0327L9.53475 9.05303Z" fill="#3C58BF"/>
</g>
</g>
<g id="Group_17">
<g id="Group_18">
<path id="Vector_8" d="M9.53475 9.05303L9.1918 7.26973C8.57451 5.21208 6.58545 2.94867 4.39062 1.85126L7.4771 12.8254H11.1809L16.7365 0.479492H13.7186L9.53475 9.05303Z" fill="#293688"/>
</g>
</g>
<g id="Group_19">
<g id="Group_20">
<path id="Vector_9" d="M0 0.411133L0.617295 0.54831C5.00695 1.57713 8.02483 4.18349 9.19083 7.26996L7.95624 1.43996C7.75048 0.616898 7.13318 0.411133 6.37871 0.411133H0Z" fill="#FFBC00"/>
</g>
</g>
<g id="Group_21">
<g id="Group_22">
<path id="Vector_10" d="M0 0.411133C4.38965 1.43996 8.02483 4.1149 9.19083 7.20137L8.02483 2.3316C7.81906 1.50854 7.13318 1.02843 6.37871 1.02843L0 0.411133Z" fill="#F7981D"/>
</g>
</g>
<g id="Group_23">
<g id="Group_24">
<path id="Vector_11" d="M0 0.411133C4.38965 1.43996 8.02483 4.1149 9.19083 7.20137L8.36777 4.52643C8.16201 3.70337 7.88765 2.88031 6.92742 2.53737L0 0.411133Z" fill="#ED7C00"/>
</g>
</g>
</g>
<g id="Group_25">
<path id="Vector_12" d="M12.9659 8.64203L10.6339 6.31003L9.53647 8.91639L9.26212 7.20168C8.64482 5.14403 6.65576 2.88062 4.46094 1.7832L7.54741 12.7573H11.2512L12.9659 8.64203Z" fill="#051244"/>
</g>
<g id="Group_26">
<path id="Vector_13" d="M19.3418 12.7571L16.3925 9.73926L15.8438 12.7571H19.3418Z" fill="#051244"/>
</g>
<g id="Group_27">
<path id="Vector_14" d="M27.2328 8.50586C27.5072 8.78021 27.6443 8.98598 27.5757 9.26033C27.5757 10.0834 26.4783 10.4949 25.5181 10.4949C24.1463 10.4949 23.3919 10.2892 22.2259 9.80904L21.7457 9.60327L21.2656 12.4154C22.0887 12.7583 23.5976 13.1013 25.1752 13.1013C27.37 13.1013 29.1533 12.484 30.1821 11.3866L27.2328 8.50586Z" fill="#051244"/>
</g>
<g id="Group_28">
<path id="Vector_15" d="M31.207 12.7575H34.4307L35.1166 10.6999H39.5062L39.9177 12.7575H43.21L42.044 7.75058L37.9287 3.77246L38.1344 4.86987C38.1344 4.86987 38.8203 7.95635 38.9575 8.64223H36.0768C36.3512 7.95635 37.4486 5.00705 37.4486 5.00705C37.4486 5.00705 37.7229 4.25258 37.9287 3.77246" fill="#051244"/>
</g>
</g>
</g>
</svg>
