<svg width="44" height="44" viewBox="0 0 44 44" fill="none" xmlns="http://www.w3.org/2000/svg">
<path d="M7.43303 30.7996C7.18731 30.9539 6.91303 31.0282 6.64445 31.0282C6.51874 31.0282 6.38731 31.0111 6.2616 30.9768C5.87303 30.8682 5.55303 30.5996 5.37017 30.2396C1.82731 23.1082 3.24445 14.5254 8.89017 8.88536C14.8673 2.90251 24.0445 1.70251 31.3073 5.92536L32.1987 4.62251C32.3587 4.39394 32.6159 4.26822 32.8902 4.29108C33.1645 4.31394 33.3987 4.47394 33.5187 4.71965L36.0502 9.98251C36.1702 10.2339 36.1473 10.5139 35.993 10.7425C35.8387 10.9711 35.5759 11.0968 35.3016 11.0739L29.4787 10.6454C29.2045 10.6225 28.9702 10.4625 28.8502 10.2168C28.7302 9.97108 28.7473 9.68536 28.9016 9.45108L29.6902 8.29679C23.5816 4.85679 15.8959 5.90822 10.9016 10.8968C6.13017 15.6796 4.93588 22.9425 7.9416 28.9768C8.2616 29.6225 8.04445 30.4054 7.43303 30.7996Z" fill="#5C75C9"/>
<path d="M35.1398 35.1313C33.3855 36.8913 31.3398 38.2513 29.1169 39.1713C26.8883 40.0913 24.4769 40.5771 21.9969 40.5771C18.7341 40.5771 15.5398 39.7142 12.7341 38.0856L11.8426 39.3885C11.6941 39.6171 11.4369 39.7428 11.1626 39.7256C10.8826 39.7028 10.6483 39.5428 10.5283 39.2856L7.98549 34.0342C7.87121 33.7713 7.89406 33.4856 8.05406 33.2628C8.20835 33.0399 8.46549 32.9199 8.73406 32.9428L14.5569 33.3713C14.8312 33.3942 15.0712 33.5542 15.1912 33.8056C15.3112 34.0513 15.2883 34.3371 15.1398 34.5656L14.3512 35.7199C20.4541 39.1485 28.1283 38.0971 33.1226 33.1199C37.9626 28.2742 39.1055 20.6799 35.8941 14.6399C35.5512 13.9999 35.7684 13.1885 36.3855 12.7942C36.3969 12.7885 36.4083 12.7828 36.4198 12.7713C36.7569 12.5656 37.1455 12.5085 37.5284 12.6056C37.9112 12.7085 38.2369 12.9656 38.4255 13.3142C42.2141 20.4456 40.8655 29.4171 35.1398 35.1313Z" fill="#5C75C9"/>
<g clip-path="url(#clip0_1364_24581)">
<path d="M21.0034 20.0647C22.1073 18.6571 23.8219 17.7524 25.7521 17.7524C26.0395 17.7524 26.3236 17.772 26.6045 17.8112V16.5244C25.7325 17.3082 23.4724 17.8667 20.8172 17.8667C18.1783 17.8667 15.9248 17.3148 15.043 16.5342V18.1901C15.4839 19.9961 20.9413 20.068 21.0034 20.0647Z" fill="#2C2C35"/>
<path d="M15.0384 19.4834L15.0352 21.1654C15.2474 22.0994 17.2168 22.8571 19.7676 23.0237C19.8655 22.2301 20.1203 21.4822 20.4991 20.8159C17.9941 20.7735 15.881 20.2346 15.0384 19.4834Z" fill="#2C2C35"/>
<path d="M15.0384 22.4717L15.0352 24.072C15.045 24.0622 15.0548 24.0524 15.0646 24.0459C15.1266 25.0779 17.3311 25.9238 20.1627 26.0447C19.8786 25.3457 19.7251 24.5848 19.7251 23.7846V23.7813C17.563 23.6474 15.7896 23.1445 15.0384 22.4717Z" fill="#2C2C35"/>
<path d="M20.5377 26.805C17.9837 26.7625 15.8379 26.1975 15.0345 25.4268L15.0312 26.9356C15.0312 28.0722 17.6212 28.9932 20.8186 28.9932C21.4293 28.9932 22.0172 28.9605 22.5691 28.8985C21.733 28.3759 21.0341 27.6574 20.5377 26.805Z" fill="#2C2C35"/>
<path d="M20.8173 17.1086C24.0171 17.1086 26.6111 16.1889 26.6111 15.0543C26.6111 13.9197 24.0171 13 20.8173 13C17.6174 13 15.0234 13.9197 15.0234 15.0543C15.0234 16.1889 17.6174 17.1086 20.8173 17.1086Z" fill="#2C2C35"/>
<path d="M25.7535 18.5586C22.8697 18.5586 20.5312 20.897 20.5312 23.7809C20.5312 26.6647 22.8697 28.9999 25.7535 28.9999C28.6374 28.9999 30.9758 26.6615 30.9758 23.7776C30.9758 20.8938 28.6374 18.5586 25.7535 18.5586ZM26.2304 26.5668V26.8966C26.2304 27.1612 26.0181 27.3735 25.7535 27.3735C25.489 27.3735 25.2767 27.1612 25.2767 26.8966V26.5668C24.9991 26.4818 24.7411 26.3283 24.5386 26.1128C24.359 25.9201 24.3688 25.6196 24.5582 25.44C24.7509 25.2604 25.0416 25.28 25.231 25.4596C25.44 25.6588 25.7862 25.6817 25.8025 25.6817C26.1716 25.6556 26.4655 25.3453 26.4655 24.9697C26.4655 24.5778 26.1455 24.2545 25.7535 24.2545C24.8358 24.2545 24.0879 23.5065 24.0879 22.5888C24.0879 21.8344 24.5909 21.1975 25.2767 20.9917V20.6619C25.2767 20.3973 25.489 20.185 25.7535 20.185C26.0181 20.185 26.2304 20.3973 26.2304 20.6619V20.9917C26.508 21.0767 26.766 21.2302 26.9685 21.4457C27.1481 21.6384 27.1383 21.9389 26.9489 22.1185C26.7562 22.2981 26.4394 22.3047 26.2761 22.0989C26.103 21.8801 25.7209 21.8768 25.7046 21.8768C25.3355 21.9029 25.0416 22.2132 25.0416 22.5888C25.0416 22.9807 25.3616 23.3041 25.7535 23.3041C26.6713 23.3041 27.4192 24.052 27.4192 24.9697C27.4192 25.7241 26.9162 26.361 26.2304 26.5668Z" fill="#2C2C35"/>
</g>
<defs>
<clipPath id="clip0_1364_24581">
<rect width="16" height="16" fill="white" transform="translate(15 13)"/>
</clipPath>
</defs>
</svg>
