<svg width="57" height="58" viewBox="0 0 57 58" fill="none" xmlns="http://www.w3.org/2000/svg">
<g id="icon:money_back" clip-path="url(#clip0_1970_27064)">
<g id="&#208;&#161;&#208;&#187;&#208;&#190;&#208;&#185;_1">
<g id="Group">
<g id="Group_2">
<g id="Group_3">
<g id="Group_4">
<path id="Vector" d="M54.7875 11.7985C54.7875 11.7985 54.4132 11.5159 54.3166 11.0938C54.245 10.7804 54.4248 10.3872 54.4395 10.3694L53.9381 10.2695C53.9381 10.2695 53.7895 10.9349 54.041 11.3773C54.1181 11.5129 54.3416 11.6995 54.4854 11.7693C54.6439 11.8462 54.7875 11.7985 54.7875 11.7985Z" fill="#02AF8E"/>
<path id="Vector_2" d="M55.6602 11.4932L56.1163 12.0151C56.1163 12.0151 54.827 12.3575 54.0898 11.4453C54.0898 11.4453 55.1754 11.8124 55.6602 11.4932Z" fill="#02AF8E"/>
</g>
<g id="Group_5">
<path id="Vector_3" d="M32.148 4.9426C32.148 4.9426 32.6135 4.17024 33.4345 4.64285L33.8843 4.15343C33.8843 4.15343 33.4145 3.84231 32.4207 4.51894C31.7706 4.96159 32.148 4.9426 32.148 4.9426Z" fill="#02AF8E"/>
<path id="Vector_4" d="M31.6889 5.70145C31.6889 5.70145 31.5325 4.85948 32.9187 4.23828C32.9187 4.23828 32.4214 4.5203 32.3176 5.3763L31.6889 5.70145Z" fill="#02AF8E"/>
</g>
<g id="Group_6">
<path id="Vector_5" d="M3.4366 30.0101C3.4366 30.0101 2.67452 29.7099 2.97383 28.9032L2.46752 28.5742C2.46752 28.5742 2.25983 29.042 3.01591 29.8298C3.51057 30.3453 3.4366 30.0101 3.4366 30.0101Z" fill="#02AF8E"/>
<path id="Vector_6" d="M4.18373 30.3063C4.18373 30.3063 3.45321 30.5734 2.6875 29.4258C2.6875 29.4258 3.01518 29.8286 3.79754 29.7922L4.18373 30.3063Z" fill="#02AF8E"/>
</g>
<path id="Vector_7" d="M5.63281 19.4422C5.63281 19.4422 6.05346 19.1765 6.09768 18.8555C6.09768 18.8555 6.50724 18.8776 6.5958 19.0104C6.5958 19.0104 6.40759 19.5418 6.18624 19.6414C6.18624 19.6414 5.68812 19.6746 5.63281 19.4422Z" fill="#FFD863"/>
<path id="Vector_8" d="M28.3021 13.6241C28.3021 13.6241 27.6754 13.2283 27.6094 12.75C27.6094 12.75 26.9991 12.783 26.8672 12.9809C26.8672 12.9809 27.1476 13.7726 27.4775 13.921C27.4775 13.921 28.2197 13.9705 28.3021 13.6241Z" fill="#FFD863"/>
<g id="Group_7">
<path id="Vector_9" d="M51.4648 22.375H39.2812V57.4682H51.4648V22.375Z" fill="#5C75C9"/>
<path id="Vector_10" d="M39.2813 22.375H7.09375V57.4682H39.2813V22.375Z" fill="#798ED3"/>
<path id="Vector_11" d="M39.2812 41.9992V39.543L7.09374 39.543V41.9992L39.2812 41.9992Z" fill="#EC8989"/>
<path id="Vector_12" d="M51.4648 41.9992V39.543H39.2812V41.9992H51.4648Z" fill="#E55D5D"/>
<path id="Vector_13" d="M29.2833 22.7537C29.2833 22.7537 36.5551 18.0285 41.4981 19.5468L40.4784 20.4992L40.9379 22.0997C40.9379 22.0997 35.4413 20.3096 29.1328 23.0229L29.2833 22.7537Z" fill="#EC8989"/>
<path id="Vector_14" d="M28.8766 21.6815C28.8766 21.6815 27.5936 21.5264 25.6813 21.2634C20.6045 20.565 11.0954 19.1041 9.38864 17.7522C6.7067 15.6285 13.0618 6.60868 15.8126 5.3567C18.5635 4.10592 28.8766 21.6815 28.8766 21.6815Z" fill="#EC8989"/>
<path id="Vector_15" d="M48.9952 10.4505C49.4536 12.685 28.6875 22.3385 28.6875 22.3385C28.6875 22.3385 29.0654 21.3172 29.6799 19.7172C29.6799 19.7172 29.6808 19.7159 29.6817 19.7145C31.9268 13.8722 37.3354 0.31424 39.1127 0.501929C39.2912 0.520391 39.5 0.584244 39.7333 0.686473C42.463 1.88758 48.573 8.39259 48.9952 10.4505Z" fill="#EC8989"/>
<path id="Vector_16" d="M39.5601 2.67345C38.292 4.87641 29.8163 19.4868 29.6836 19.7145C31.9287 13.8722 37.3373 0.31424 39.1146 0.501929C39.1146 0.501929 39.4666 0.491851 39.7352 0.686473C40.0591 0.922535 40.2603 1.45698 39.5601 2.67345Z" fill="#E55D5D"/>
<path id="Vector_17" d="M25.6858 21.2645H25.6824C20.6057 20.5661 11.0966 19.1052 9.38981 17.7532C8.61914 15.5824 10.6188 15.4055 12.0741 15.2528C13.5282 15.1001 25.6858 21.2645 25.6858 21.2645Z" fill="#E55D5D"/>
<path id="Vector_18" d="M25.0039 22.3749C25.0039 22.3749 26.168 19.7266 28.4592 19.58C30.8521 19.4268 32.2113 22.3749 32.2113 22.3749H25.0039Z" fill="#E55D5D"/>
<path id="Vector_19" d="M39.7969 22.375H6.11719V27.2017H39.7969V22.375Z" fill="#5C75C9"/>
<path id="Vector_20" d="M52.4911 22.375H39.7969V27.2017H52.4911V22.375Z" fill="#4A64BF"/>
<path id="Vector_21" d="M26.1865 21.9732C26.1865 21.9732 19.59 19.8837 15.1387 21.2652C10.008 22.8575 10.312 29.1885 10.312 29.1885L11.5187 28.6924L13.1477 29.4566C13.1477 29.4566 13.4225 22.7529 17.6057 21.8143C21.2227 21.0028 26.1865 21.9732 26.1865 21.9732Z" fill="#EC8989"/>
<path id="Vector_22" d="M22.7999 22.375H20.3438V57.4647H22.7999V22.375Z" fill="#E55D5D"/>
</g>
<g id="Group_8">
<path id="Vector_23" d="M25 39.5H19V57.5H25V39.5Z" fill="#5162A8"/>
<path id="Vector_24" d="M18.8654 39.6641H2.49609V57.5111H18.8654V39.6641Z" fill="#798ED3"/>
<path id="Vector_25" d="M18.8633 49.6437V48.3945H2.49402V49.6437H18.8633Z" fill="#FFE69A"/>
<path id="Vector_26" d="M25.0625 49.6436V48.3945H18.8664V49.6436H25.0625Z" fill="#FFD863"/>
<path id="Vector_27" d="M14.4366 39.3898C14.4366 39.3898 19.4551 37.112 22.9532 37.9775L22.2547 38.4448L22.6068 39.27C22.6068 39.27 18.715 38.2557 14.3359 39.5245L14.4366 39.3898Z" fill="#FFD863"/>
<g id="Group_9">
<path id="Vector_28" d="M13.5794 39.3033C13.5794 39.3033 12.9269 39.2244 11.9544 39.0907C9.37255 38.7355 4.53658 37.9926 3.66861 37.305C2.30468 36.225 5.53662 31.6378 6.93558 31.0012C8.33458 30.365 13.5794 39.3033 13.5794 39.3033Z" fill="#FFE69A"/>
<path id="Vector_29" d="M23.812 33.5917C24.0452 34.7281 13.4844 39.6375 13.4844 39.6375C13.4844 39.6375 13.6765 39.118 13.9891 38.3044C13.9891 38.3044 13.9896 38.3037 13.99 38.303C15.1317 35.3319 17.8824 28.4368 18.7862 28.5322C18.877 28.5416 18.9832 28.5741 19.1018 28.6261C20.4901 29.2369 23.5974 32.5451 23.812 33.5917Z" fill="#FFE69A"/>
<path id="Vector_30" d="M19.0111 29.6366C18.3662 30.757 14.0558 38.1872 13.9883 38.303C15.1301 35.3319 17.8807 28.4368 18.7845 28.5322C18.7845 28.5322 18.9635 28.5271 19.1001 28.6261C19.2649 28.7462 19.3672 29.0179 19.0111 29.6366Z" fill="#FFD863"/>
<path id="Vector_31" d="M11.9565 39.09H11.9548C9.37297 38.7348 4.53701 37.9919 3.66903 37.3043C3.27708 36.2003 4.29405 36.1104 5.03412 36.0327C5.77363 35.955 11.9565 39.09 11.9565 39.09Z" fill="#FFD863"/>
<path id="Vector_32" d="M11.6094 39.6548C11.6094 39.6548 12.2014 38.308 13.3666 38.2334C14.5835 38.1555 15.2747 39.6548 15.2747 39.6548H11.6094Z" fill="#FFD863"/>
</g>
<path id="Vector_33" d="M19 39.5H2V42.5H19V39.5Z" fill="#849BE5"/>
<path id="Vector_34" d="M25 39.5H19V42.5H25V39.5Z" fill="#5B6EBD"/>
<path id="Vector_35" d="M12.2038 39.4596C12.2038 39.4596 8.84906 38.397 6.58531 39.0995C3.97601 39.9094 4.13064 43.129 4.13064 43.129L4.7443 42.8767L5.57278 43.2654C5.57278 43.2654 5.71258 39.8561 7.83992 39.3788C9.67943 38.9661 12.2038 39.4596 12.2038 39.4596Z" fill="#FFD863"/>
<path id="Vector_36" d="M10.4835 39.6641H9.23438V57.665H10.4835V39.6641Z" fill="#FFD863"/>
</g>
<g id="Group_10">
<path id="Vector_37" d="M29.7716 35.017C29.7716 35.017 29.3155 35.3281 28.8082 35.2769C28.4316 35.239 28.0606 34.8903 28.0462 34.8672L27.7461 35.389C27.7461 35.389 28.4325 35.8052 29.0208 35.6912C29.201 35.6562 29.4934 35.4772 29.6254 35.343C29.7708 35.1951 29.7716 35.017 29.7716 35.017Z" fill="#50C8B1"/>
<path id="Vector_38" d="M29.7578 33.9296L30.5119 33.6172C30.5119 33.6172 30.4085 35.1846 29.1133 35.6635C29.1133 35.6635 29.9315 34.5906 29.7578 33.9296Z" fill="#02AF8E"/>
</g>
<path id="Vector_39" d="M35.0512 52.6641C35.0512 52.6641 35.3804 53.0371 35.7043 53.0298C35.7043 53.0298 35.7476 53.4377 35.6305 53.5462C35.6305 53.5462 35.076 53.4449 34.9425 53.2422C34.9425 53.2422 34.8305 52.7556 35.0512 52.6641Z" fill="#798ED3"/>
<g id="Group_11">
<path id="Vector_40" d="M29.8847 47.5362C29.8847 47.5362 29.5865 47.1743 29.5908 46.7413C29.594 46.4199 29.8604 46.0793 29.8789 46.0654L29.4145 45.8516C29.4145 45.8516 29.1152 46.4641 29.2568 46.9529C29.3002 47.1027 29.4741 47.3361 29.5978 47.4375C29.734 47.5492 29.8847 47.5362 29.8847 47.5362Z" fill="#FFD863"/>
<path id="Vector_41" d="M30.8013 47.4431L31.1234 48.0569C31.1234 48.0569 29.7897 48.0899 29.2852 47.0313C29.2852 47.0313 30.2555 47.6408 30.8013 47.4431Z" fill="#FFD863"/>
</g>
</g>
</g>
</g>
</g>
</g>
<defs>
<clipPath id="clip0_1970_27064">
<rect width="57" height="57" fill="white" transform="translate(0 0.5)"/>
</clipPath>
</defs>
</svg>
