<svg width="33" height="32" viewBox="0 0 33 32" fill="none" xmlns="http://www.w3.org/2000/svg">
<path d="M4.82643 3.94434C2.63242 6.22327 3.08146 8.64413 3.08146 15.9986C3.08146 22.106 2.01586 28.2285 7.59279 29.6699C9.33428 30.1178 24.7645 30.1178 26.5036 29.6676C28.8256 29.0684 30.7148 27.185 30.9731 23.901C31.0092 23.4427 31.0092 8.5627 30.9719 8.09504C30.6974 4.59696 28.5441 2.58093 25.7068 2.17261C25.0565 2.07838 24.9262 2.05046 21.5898 2.04464C9.7554 2.05046 7.1612 1.52348 4.82643 3.94434Z" fill="#CED1D7"/>
<path d="M17.0389 5.69647C12.8149 5.69647 8.80376 5.32072 7.27167 9.25273C6.63883 10.8767 6.73073 12.9858 6.73073 16.0058C6.73073 18.6558 6.64581 21.1465 7.27167 22.7577C8.80027 26.692 12.8439 26.3151 17.0365 26.3151C21.0814 26.3151 25.2519 26.7362 26.8026 22.7577C27.4366 21.1174 27.3435 19.0397 27.3435 16.0058C27.3435 11.9784 27.5657 9.37836 25.6125 7.42632C23.6349 5.44869 20.9604 5.69647 17.0342 5.69647H17.0389ZM16.1152 7.55429C24.9261 7.54033 26.0476 6.56082 25.4287 20.1681C25.2088 24.9807 21.5444 24.4526 17.04 24.4526C8.82702 24.4526 8.59087 24.2176 8.59087 16.0011C8.59087 7.68923 9.24233 7.55894 16.1152 7.55196V7.55429ZM22.5413 9.26552C21.8585 9.26552 21.3047 9.81926 21.3047 10.5021C21.3047 11.185 21.8585 11.7387 22.5413 11.7387C23.2242 11.7387 23.7779 11.185 23.7779 10.5021C23.7779 9.81926 23.2242 9.26552 22.5413 9.26552ZM17.0389 10.7115C14.1155 10.7115 11.7458 13.0824 11.7458 16.0058C11.7458 18.9292 14.1155 21.2989 17.0389 21.2989C19.9623 21.2989 22.3308 18.9292 22.3308 16.0058C22.3308 13.0824 19.9623 10.7115 17.0389 10.7115ZM17.0389 12.5693C21.5816 12.5693 21.5874 19.4422 17.0389 19.4422C12.4973 19.4422 12.4903 12.5693 17.0389 12.5693Z" fill="white"/>
</svg>
