<svg width="22" height="22" viewBox="0 0 22 22" fill="none" xmlns="http://www.w3.org/2000/svg">
<g id="instagram-2016-5 1">
<g id="Group 4651">
<path id="Vector" d="M7.66747 11.0004C7.66747 9.15945 9.15945 7.66667 11.0004 7.66667C12.8414 7.66667 14.3341 9.15945 14.3341 11.0004C14.3341 12.8414 12.8414 14.3341 11.0004 14.3341C9.15945 14.3341 7.66747 12.8414 7.66747 11.0004ZM5.86531 11.0004C5.86531 13.8365 8.16429 16.1355 11.0004 16.1355C13.8365 16.1355 16.1355 13.8365 16.1355 11.0004C16.1355 8.16429 13.8365 5.86531 11.0004 5.86531C8.16429 5.86531 5.86531 8.16429 5.86531 11.0004ZM15.1387 5.66171C15.1386 5.89905 15.2089 6.1311 15.3407 6.3285C15.4725 6.5259 15.6598 6.67979 15.8791 6.7707C16.0983 6.86162 16.3396 6.88548 16.5724 6.83927C16.8052 6.79306 17.0191 6.67885 17.187 6.51109C17.3549 6.34333 17.4693 6.12954 17.5157 5.89678C17.5621 5.66401 17.5384 5.42271 17.4477 5.20339C17.3569 4.98408 17.2032 4.79659 17.0059 4.66465C16.8086 4.53271 16.5766 4.46223 16.3393 4.46214H16.3388C16.0206 4.46229 15.7156 4.5887 15.4905 4.81362C15.2655 5.03854 15.139 5.34356 15.1387 5.66171ZM6.96024 19.1405C5.98524 19.0961 5.4553 18.9337 5.10312 18.7965C4.63623 18.6147 4.30309 18.3982 3.95284 18.0484C3.60258 17.6987 3.38578 17.3659 3.20481 16.899C3.06752 16.5469 2.90512 16.0168 2.86079 15.0418C2.81231 13.9877 2.80263 13.6711 2.80263 11.0005C2.80263 8.32989 2.81311 8.01412 2.86079 6.95912C2.9052 5.98412 3.0688 5.45506 3.20481 5.102C3.38658 4.63511 3.60306 4.30197 3.95284 3.95172C4.30261 3.60146 4.63543 3.38466 5.10312 3.20369C5.45514 3.0664 5.98524 2.904 6.96024 2.85967C8.01436 2.81119 8.33101 2.80151 11.0004 2.80151C13.6698 2.80151 13.9868 2.81199 15.0418 2.85967C16.0168 2.90408 16.5458 3.06768 16.8989 3.20369C17.3658 3.38466 17.6989 3.60194 18.0492 3.95172C18.3994 4.30149 18.6154 4.63511 18.7972 5.102C18.9345 5.45402 19.0969 5.98412 19.1412 6.95912C19.1897 8.01412 19.1994 8.32989 19.1994 11.0005C19.1994 13.6711 19.1897 13.9868 19.1412 15.0418C19.0968 16.0168 18.9336 16.5468 18.7972 16.899C18.6154 17.3659 18.3989 17.699 18.0492 18.0484C17.6994 18.3979 17.3658 18.6147 16.8989 18.7965C16.5469 18.9338 16.0168 19.0962 15.0418 19.1405C13.9876 19.189 13.671 19.1987 11.0004 19.1987C8.32981 19.1987 8.01404 19.189 6.96024 19.1405ZM6.87744 1.06056C5.81283 1.10904 5.08536 1.27785 4.45006 1.52506C3.79211 1.78035 3.23513 2.12285 2.67855 2.67855C2.12196 3.23425 1.78035 3.79211 1.52506 4.45006C1.27785 5.08576 1.10904 5.81283 1.06056 6.87744C1.01128 7.94372 1 8.28461 1 11.0004C1 13.7162 1.01128 14.0571 1.06056 15.1234C1.10904 16.188 1.27785 16.915 1.52506 17.5507C1.78035 18.2083 2.12205 18.7668 2.67855 19.3223C3.23505 19.8777 3.79211 20.2197 4.45006 20.4757C5.08656 20.723 5.81283 20.8918 6.87744 20.9402C7.94428 20.9887 8.28461 21.0008 11.0004 21.0008C13.7162 21.0008 14.0571 20.9895 15.1234 20.9402C16.188 20.8918 16.915 20.723 17.5507 20.4757C18.2083 20.2197 18.7657 19.878 19.3223 19.3223C19.8788 18.7666 20.2197 18.2083 20.4757 17.5507C20.723 16.915 20.8926 16.188 20.9402 15.1234C20.9887 14.0563 21 13.7162 21 11.0004C21 8.28461 20.9887 7.94372 20.9402 6.87744C20.8918 5.81275 20.723 5.08536 20.4757 4.45006C20.2197 3.79251 19.878 3.23513 19.3223 2.67855C18.7666 2.12196 18.2083 1.78035 17.5515 1.52506C16.915 1.27785 16.188 1.10824 15.1242 1.06056C14.0579 1.01208 13.717 1 11.0012 1C8.28541 1 7.94428 1.01128 6.87744 1.06056Z" fill="#2C2C35"/>
<path id="Vector_2" d="M7.66747 11.0004C7.66747 9.15945 9.15945 7.66667 11.0004 7.66667C12.8414 7.66667 14.3341 9.15945 14.3341 11.0004C14.3341 12.8414 12.8414 14.3341 11.0004 14.3341C9.15945 14.3341 7.66747 12.8414 7.66747 11.0004ZM5.86531 11.0004C5.86531 13.8365 8.16429 16.1355 11.0004 16.1355C13.8365 16.1355 16.1355 13.8365 16.1355 11.0004C16.1355 8.16429 13.8365 5.86531 11.0004 5.86531C8.16429 5.86531 5.86531 8.16429 5.86531 11.0004ZM15.1387 5.66171C15.1386 5.89905 15.2089 6.1311 15.3407 6.3285C15.4725 6.5259 15.6598 6.67979 15.8791 6.7707C16.0983 6.86162 16.3396 6.88548 16.5724 6.83927C16.8052 6.79306 17.0191 6.67885 17.187 6.51109C17.3549 6.34333 17.4693 6.12954 17.5157 5.89678C17.5621 5.66401 17.5384 5.42271 17.4477 5.20339C17.3569 4.98408 17.2032 4.79659 17.0059 4.66465C16.8086 4.53271 16.5766 4.46223 16.3393 4.46214H16.3388C16.0206 4.46229 15.7156 4.5887 15.4905 4.81362C15.2655 5.03854 15.139 5.34356 15.1387 5.66171ZM6.96024 19.1405C5.98524 19.0961 5.4553 18.9337 5.10312 18.7965C4.63623 18.6147 4.30309 18.3982 3.95284 18.0484C3.60258 17.6987 3.38578 17.3659 3.20481 16.899C3.06752 16.5469 2.90512 16.0168 2.86079 15.0418C2.81231 13.9877 2.80263 13.6711 2.80263 11.0005C2.80263 8.32989 2.81311 8.01412 2.86079 6.95912C2.9052 5.98412 3.0688 5.45506 3.20481 5.102C3.38658 4.63511 3.60306 4.30197 3.95284 3.95172C4.30261 3.60146 4.63543 3.38466 5.10312 3.20369C5.45514 3.0664 5.98524 2.904 6.96024 2.85967C8.01436 2.81119 8.33101 2.80151 11.0004 2.80151C13.6698 2.80151 13.9868 2.81199 15.0418 2.85967C16.0168 2.90408 16.5458 3.06768 16.8989 3.20369C17.3658 3.38466 17.6989 3.60194 18.0492 3.95172C18.3994 4.30149 18.6154 4.63511 18.7972 5.102C18.9345 5.45402 19.0969 5.98412 19.1412 6.95912C19.1897 8.01412 19.1994 8.32989 19.1994 11.0005C19.1994 13.6711 19.1897 13.9868 19.1412 15.0418C19.0968 16.0168 18.9336 16.5468 18.7972 16.899C18.6154 17.3659 18.3989 17.699 18.0492 18.0484C17.6994 18.3979 17.3658 18.6147 16.8989 18.7965C16.5469 18.9338 16.0168 19.0962 15.0418 19.1405C13.9876 19.189 13.671 19.1987 11.0004 19.1987C8.32981 19.1987 8.01404 19.189 6.96024 19.1405ZM6.87744 1.06056C5.81283 1.10904 5.08536 1.27785 4.45006 1.52506C3.79211 1.78035 3.23513 2.12285 2.67855 2.67855C2.12196 3.23425 1.78035 3.79211 1.52506 4.45006C1.27785 5.08576 1.10904 5.81283 1.06056 6.87744C1.01128 7.94372 1 8.28461 1 11.0004C1 13.7162 1.01128 14.0571 1.06056 15.1234C1.10904 16.188 1.27785 16.915 1.52506 17.5507C1.78035 18.2083 2.12205 18.7668 2.67855 19.3223C3.23505 19.8777 3.79211 20.2197 4.45006 20.4757C5.08656 20.723 5.81283 20.8918 6.87744 20.9402C7.94428 20.9887 8.28461 21.0008 11.0004 21.0008C13.7162 21.0008 14.0571 20.9895 15.1234 20.9402C16.188 20.8918 16.915 20.723 17.5507 20.4757C18.2083 20.2197 18.7657 19.878 19.3223 19.3223C19.8788 18.7666 20.2197 18.2083 20.4757 17.5507C20.723 16.915 20.8926 16.188 20.9402 15.1234C20.9887 14.0563 21 13.7162 21 11.0004C21 8.28461 20.9887 7.94372 20.9402 6.87744C20.8918 5.81275 20.723 5.08536 20.4757 4.45006C20.2197 3.79251 19.878 3.23513 19.3223 2.67855C18.7666 2.12196 18.2083 1.78035 17.5515 1.52506C16.915 1.27785 16.188 1.10824 15.1242 1.06056C14.0579 1.01208 13.717 1 11.0012 1C8.28541 1 7.94428 1.01128 6.87744 1.06056Z" fill="#2C2C35"/>
</g>
</g>
</svg>
