<svg width="24" height="24" viewBox="0 0 24 24" fill="none" xmlns="http://www.w3.org/2000/svg">
<g id="icon:internet-security">
<g id="internet_security">
<path id="Vector" d="M20.2363 5.97425L12.6205 2.14735C12.2297 1.95088 11.769 1.95088 11.3781 2.14735L3.76235 5.97425C3.29333 6.21014 2.99725 6.68746 3.00002 7.21321C3.01178 9.88416 3.64337 17.9966 10.678 21.0868C11.5151 21.4548 12.4842 21.4548 13.322 21.0868C20.356 17.9966 20.9882 9.88346 21 7.21321C21.0014 6.68746 20.7053 6.21014 20.2363 5.97425ZM8.0313 12.304H9.74897C9.82368 13.5284 10.1198 14.6968 10.6248 15.4564C9.27096 14.9632 8.25889 13.765 8.0313 12.304ZM9.74897 11.0588H8.0313C8.25889 9.59776 9.27096 8.39961 10.6248 7.90637C10.1205 8.66594 9.82438 9.83435 9.74897 11.0588ZM11.9993 15.0801C11.7309 15.0801 11.1194 14.1074 10.9983 12.304H12.9996C12.8793 14.1067 12.2677 15.0801 11.9993 15.0801ZM10.9983 11.0588C11.1187 9.25602 11.7309 8.2827 11.9993 8.2827C12.2677 8.2827 12.8793 9.25533 13.0003 11.0588H10.9983ZM13.3739 15.4557C13.8789 14.6961 14.1749 13.5277 14.2497 12.3033H15.9666C15.7397 13.765 14.7284 14.9625 13.3739 15.4557ZM14.2503 11.0588C14.1756 9.83435 13.8796 8.66594 13.3746 7.90637C14.7284 8.39961 15.7397 9.59776 15.9673 11.0588H14.2503Z" fill="#2C2C35"/>
</g>
</g>
</svg>
