<svg width="48" height="42" viewBox="0 0 48 42" fill="none" xmlns="http://www.w3.org/2000/svg">
<path d="M37.1841 40.3465C37.1841 40.7851 37.0061 41.2056 36.6891 41.5158C36.3721 41.8259 35.9422 42.0001 35.4939 42.0001H15.2117C14.7634 42.0001 14.3335 41.8259 14.0165 41.5158C13.6996 41.2056 13.5215 40.7851 13.5215 40.3465C13.5215 37.7152 14.5899 35.1916 16.4918 33.331C18.3936 31.4704 20.973 30.4251 23.6626 30.4251H27.043C29.7326 30.4251 32.312 31.4704 34.2139 33.331C36.1157 35.1916 37.1841 37.7152 37.1841 40.3465ZM25.3528 15.543C24.0157 15.543 22.7085 15.9309 21.5967 16.6577C20.4849 17.3845 19.6184 18.4175 19.1067 19.6261C18.595 20.8347 18.4611 22.1646 18.722 23.4476C18.9828 24.7307 19.6267 25.9092 20.5722 26.8342C21.5177 27.7593 22.7224 28.3892 24.0339 28.6444C25.3453 28.8996 26.7047 28.7687 27.94 28.268C29.1754 27.7674 30.2313 26.9196 30.9742 25.8319C31.7171 24.7442 32.1136 23.4654 32.1136 22.1572C32.1136 20.403 31.4013 18.7207 30.1334 17.4802C28.8655 16.2398 27.1459 15.543 25.3528 15.543ZM10.1411 15.543C8.80398 15.543 7.49685 15.9309 6.38505 16.6577C5.27325 17.3845 4.40671 18.4175 3.89501 19.6261C3.3833 20.8347 3.24942 22.1646 3.51028 23.4476C3.77115 24.7307 4.41504 25.9092 5.36055 26.8342C6.30606 27.7593 7.51071 28.3892 8.82217 28.6444C10.1336 28.8996 11.493 28.7687 12.7284 28.268C13.9637 27.7674 15.0196 26.9196 15.7625 25.8319C16.5054 24.7442 16.9019 23.4654 16.9019 22.1572C16.9019 20.403 16.1896 18.7207 14.9217 17.4802C13.6538 16.2398 11.9342 15.543 10.1411 15.543ZM10.1411 40.3465C10.1386 38.6096 10.4884 36.8895 11.1702 35.2858C11.852 33.6821 12.8523 32.2267 14.1131 31.0038C13.0813 30.6227 11.9877 30.4267 10.8848 30.4251H9.39744C6.90646 30.4295 4.51878 31.3995 2.75738 33.1227C0.995988 34.846 0.00446814 37.1819 0 39.6189V40.3465C0 40.7851 0.178073 41.2056 0.495044 41.5158C0.812016 41.8259 1.24192 42.0001 1.69019 42.0001H10.4454C10.2486 41.4698 10.1457 40.9106 10.1411 40.3465Z" fill="#5C75C9"/>
<rect x="31" width="16" height="16" rx="8" fill="#60AC71"/>
<path d="M37.8696 11C37.8263 11 37.7827 10.9844 37.7496 10.953L35.0497 8.39282C34.9834 8.33 34.9834 8.22826 35.0497 8.16544L36.0778 7.19056C36.144 7.12775 36.2513 7.12775 36.3176 7.19056L37.8359 8.63026C37.8544 8.64785 37.8846 8.64785 37.9034 8.63026L41.6822 5.04702C41.7141 5.01679 41.7572 5 41.8022 5C41.8472 5 41.8903 5.01699 41.9222 5.04702L42.9503 6.02189C43.0166 6.08471 43.0166 6.18645 42.9503 6.24927L37.9896 10.953C37.9565 10.9844 37.9129 11 37.8696 11Z" fill="white"/>
</svg>
