<svg width="49" height="42" viewBox="0 0 49 42" fill="none" xmlns="http://www.w3.org/2000/svg">
<path d="M37.6841 40.3465C37.6841 40.7851 37.5061 41.2056 37.1891 41.5158C36.8721 41.8259 36.4422 42.0001 35.9939 42.0001H15.7117C15.2634 42.0001 14.8335 41.8259 14.5165 41.5158C14.1996 41.2056 14.0215 40.7851 14.0215 40.3465C14.0215 37.7152 15.0899 35.1916 16.9918 33.331C18.8936 31.4704 21.473 30.4251 24.1626 30.4251H27.543C30.2326 30.4251 32.812 31.4704 34.7139 33.331C36.6157 35.1916 37.6841 37.7152 37.6841 40.3465ZM25.8528 15.543C24.5157 15.543 23.2085 15.9309 22.0967 16.6577C20.9849 17.3845 20.1184 18.4175 19.6067 19.6261C19.095 20.8347 18.9611 22.1646 19.222 23.4476C19.4828 24.7307 20.1267 25.9092 21.0722 26.8342C22.0177 27.7593 23.2224 28.3892 24.5339 28.6444C25.8453 28.8996 27.2047 28.7687 28.44 28.268C29.6754 27.7674 30.7313 26.9196 31.4742 25.8319C32.2171 24.7442 32.6136 23.4654 32.6136 22.1572C32.6136 20.403 31.9013 18.7207 30.6334 17.4802C29.3655 16.2398 27.6459 15.543 25.8528 15.543ZM10.6411 15.543C9.30398 15.543 7.99685 15.9309 6.88505 16.6577C5.77325 17.3845 4.90671 18.4175 4.39501 19.6261C3.8833 20.8347 3.74942 22.1646 4.01028 23.4476C4.27115 24.7307 4.91504 25.9092 5.86055 26.8342C6.80606 27.7593 8.01071 28.3892 9.32217 28.6444C10.6336 28.8996 11.993 28.7687 13.2284 28.268C14.4637 27.7674 15.5196 26.9196 16.2625 25.8319C17.0054 24.7442 17.4019 23.4654 17.4019 22.1572C17.4019 20.403 16.6896 18.7207 15.4217 17.4802C14.1538 16.2398 12.4342 15.543 10.6411 15.543ZM10.6411 40.3465C10.6386 38.6096 10.9884 36.8895 11.6702 35.2858C12.352 33.6821 13.3523 32.2267 14.6131 31.0038C13.5813 30.6227 12.4877 30.4267 11.3848 30.4251H9.89744C7.40646 30.4295 5.01878 31.3995 3.25738 33.1227C1.49599 34.846 0.504468 37.1819 0.5 39.6189V40.3465C0.5 40.7851 0.678073 41.2056 0.995044 41.5158C1.31202 41.8259 1.74192 42.0001 2.19019 42.0001H10.9454C10.7486 41.4698 10.6457 40.9106 10.6411 40.3465Z" fill="#5C75C9"/>
<path d="M34.375 8.49935H44.2917M39.3333 13.4577V3.54102" stroke="#5C75C9" stroke-width="2" stroke-linecap="round" stroke-linejoin="round"/>
</svg>
