<svg width="22" height="22" viewBox="0 0 22 22" fill="none" xmlns="http://www.w3.org/2000/svg">
<g id="lg">
<g id="Group 4652">
<path id="Vector" d="M18.0712 18.0709C21.9765 14.1656 21.9762 7.83347 18.0708 3.92906C14.1653 0.0239464 7.83328 0.0234766 3.92884 3.92867C0.0235392 7.83386 0.0237743 14.1661 3.92922 18.0705C7.8346 21.9759 14.1667 21.976 18.0712 18.0709Z" fill="#2C2C35"/>
<path id="Vector_2" d="M7.96617 9.04942C8.19419 9.04833 8.41676 8.97967 8.60584 8.85215C8.79485 8.72469 8.94191 8.54407 9.02838 8.33309C9.11491 8.12211 9.13694 7.89019 9.09179 7.66672C9.04657 7.44319 8.93621 7.2381 8.77461 7.07727C8.61294 6.91644 8.40728 6.80705 8.18356 6.76297C7.95989 6.71891 7.7281 6.74209 7.51756 6.82959C7.30696 6.91714 7.12705 7.06503 7.00049 7.25475C6.87393 7.4444 6.80642 7.66729 6.80642 7.89531C6.80674 8.04723 6.83703 8.19762 6.89551 8.33783C6.95406 8.4781 7.03957 8.60543 7.14723 8.71258C7.25496 8.81974 7.38274 8.90466 7.52321 8.96244C7.66373 9.02028 7.81424 9.04981 7.96617 9.04942ZM18.5435 11.3167H13.458V10.5635H19.2888C19.2967 10.7094 19.3007 10.8552 19.3007 11.0028C19.3007 15.5387 15.6039 19.2156 11.0448 19.2156C6.48552 19.2156 2.78809 15.541 2.78809 11.0028C2.78809 6.46505 6.48434 2.79004 11.044 2.79004C11.1644 2.79004 11.2841 2.79247 11.4033 2.7974V3.54506C11.2841 3.53974 11.1647 3.53712 11.0451 3.53712C6.90101 3.53712 3.54031 6.8797 3.54031 11.0021C3.54031 15.1245 6.90054 18.4677 11.0451 18.4677C15.0757 18.4677 18.3686 15.3051 18.5428 11.3377L18.5435 11.3167ZM13.4464 14.4551H11.4027V6.77677H10.6471V15.2135H11.4044V15.2084H13.4481L13.4464 14.4551Z" fill="white"/>
</g>
</g>
</svg>
