<svg width="24" height="24" viewBox="0 0 24 24" fill="none" xmlns="http://www.w3.org/2000/svg">
<g id="icon:link">
<g id="Icon">
<path id="Vector" fill-rule="evenodd" clip-rule="evenodd" d="M21.3214 6.37841C21.3214 5.74792 21.0706 5.1425 20.6252 4.69623C20.1789 4.25081 19.5735 4 18.943 4C15.6288 4 8.41918 4 5.10497 4C4.47448 4 3.86906 4.25081 3.42279 4.69623C2.97738 5.1425 2.72656 5.74792 2.72656 6.37841V15.0272C2.72656 16.3409 3.79123 17.4056 5.10497 17.4056H8.89227L11.5898 19.8333C11.8372 20.0556 12.2108 20.0556 12.4582 19.8333L15.1557 17.4056H18.943C20.2567 17.4056 21.3214 16.3409 21.3214 15.0272V6.37841ZM18.2943 10.7028C18.2943 9.84224 17.9527 9.01801 17.3447 8.40914C16.7358 7.80113 15.9116 7.45951 15.0511 7.45951H13.3213C12.9632 7.45951 12.6726 7.7501 12.6726 8.10816C12.6726 8.46622 12.9632 8.75682 13.3213 8.75682H15.0511C15.5674 8.75682 16.0621 8.9618 16.4271 9.32678C16.792 9.69175 16.997 10.1865 16.997 10.7028V10.7106C16.997 11.2191 16.792 11.7138 16.4271 12.0788C16.0621 12.4438 15.5674 12.6488 15.0511 12.6488H13.3213C12.9632 12.6488 12.6726 12.9394 12.6726 13.2974C12.6726 13.6555 12.9632 13.9461 13.3213 13.9461H15.0511C15.9116 13.9461 16.7358 13.6045 17.3447 12.9964C17.9527 12.3876 18.2943 11.5633 18.2943 10.7028ZM10.7267 7.45951H8.99692C8.13636 7.45951 7.31214 7.80113 6.70326 8.40914C6.09526 9.01801 5.75363 9.84224 5.75363 10.7028C5.75363 11.5633 6.09526 12.3876 6.70326 12.9964C7.31214 13.6045 8.13636 13.9461 8.99692 13.9461H10.7267C11.0847 13.9461 11.3753 13.6555 11.3753 13.2974C11.3753 12.9394 11.0847 12.6488 10.7267 12.6488H8.99692C8.48059 12.6488 7.98588 12.4438 7.6209 12.0788C7.25592 11.7138 7.05095 11.2191 7.05095 10.7028C7.05095 10.1865 7.25592 9.69175 7.6209 9.32678C7.98588 8.9618 8.48059 8.75682 8.99692 8.75682H10.7267C11.0847 8.75682 11.3753 8.46622 11.3753 8.10816C11.3753 7.7501 11.0847 7.45951 10.7267 7.45951ZM9.86179 11.3515H14.1862C14.5442 11.3515 14.8348 11.0609 14.8348 10.7028C14.8348 10.3447 14.5442 10.0541 14.1862 10.0541H9.86179C9.50373 10.0541 9.21314 10.3447 9.21314 10.7028C9.21314 11.0609 9.50373 11.3515 9.86179 11.3515Z" fill="#2C2C35"/>
</g>
</g>
</svg>
