<svg width="22" height="22" viewBox="0 0 22 22" fill="none" xmlns="http://www.w3.org/2000/svg">
<g id="linux-tux-3 1">
<g id="Group">
<path id="Vector" fill-rule="evenodd" clip-rule="evenodd" d="M20.5885 12.9342C19.696 17.0916 15.9875 20.2247 11.5696 20.2247C6.48897 20.2247 2.34522 16.0809 2.34522 11.0002C2.34522 5.91964 6.48897 1.77578 11.5696 1.77578C15.9591 1.77578 19.6486 4.86893 20.5713 8.98688C19.6399 4.61281 15.7418 1.31445 11.097 1.31445C5.76239 1.31445 1.41138 5.66547 1.41138 11.0001C1.41138 16.3348 5.76239 20.6857 11.097 20.6857C15.7699 20.6857 19.6876 17.3475 20.5885 12.9342Z" fill="#2C2C35"/>
<path id="Vector_2" fill-rule="evenodd" clip-rule="evenodd" d="M10.0195 15.8161C10.5532 15.7611 10.6236 15.1964 10.3722 14.9496C10.1652 14.7466 9.02256 13.8983 8.72444 13.5648C8.58611 13.4102 8.39847 13.3342 8.31903 13.1602C8.13631 12.7601 8.00825 12.189 8.24005 11.779C8.28206 11.7048 8.30899 11.738 8.27692 11.8924C8.09488 12.7674 8.66463 13.4823 8.79007 13.1156C8.87669 12.8623 8.79646 12.4093 8.84268 12.0496C8.92463 11.413 9.5042 10.1904 9.75872 10.1205C9.36621 9.39324 10.2191 8.82405 10.2088 8.18582C10.2018 7.77071 10.5732 8.69611 10.9465 8.89231C11.3633 9.11133 11.8215 8.47937 12.4719 8.15865C12.6558 8.06792 12.8919 7.96371 12.8761 7.88633C12.7996 7.51311 12.0219 8.34675 11.327 8.37482C11.01 8.38749 10.8923 8.31251 10.7698 8.19426C10.3996 7.83634 10.8076 8.13503 11.358 8.0355C11.6028 7.99122 11.685 7.95036 11.9445 7.84547C12.2042 7.74058 12.5009 7.58524 12.7947 7.50547C12.9991 7.44988 12.9822 7.29626 12.9025 7.25003C12.8567 7.22344 12.7889 7.22606 12.7351 7.31897C12.609 7.53697 12.0162 7.66297 11.8314 7.71947C11.5938 7.79206 11.3309 7.85996 10.982 7.84581C10.4517 7.82435 10.5753 7.58125 10.196 7.36371C10.0847 7.29991 10.1148 7.13247 10.2625 6.98467C10.3399 6.90717 10.5522 6.86346 10.6574 6.68724C10.6721 6.66247 10.8077 6.52072 10.9141 6.44721C10.9508 6.42176 10.954 5.77428 10.6218 5.76093C10.3395 5.74951 10.2593 5.96831 10.2712 6.18642C10.2829 6.4043 10.3984 6.58406 10.4754 6.58326C10.6235 6.58166 10.4848 6.74533 10.4037 6.7717C10.2804 6.81187 10.1115 6.28651 10.1309 6.03428C10.1512 5.77154 10.288 5.30633 10.6205 5.31535C10.92 5.32345 11.137 5.69884 11.126 6.34643C11.124 6.45623 11.6116 6.29405 11.7743 6.46593C11.8905 6.58885 11.3758 5.31866 12.5222 5.23123C12.8242 5.28898 13.1144 5.38954 13.2349 6.08393C13.1903 6.15617 13.31 6.64056 13.1236 6.69808C12.896 6.76827 12.7555 6.68792 12.8871 6.4713C12.9772 6.25364 12.8892 5.70009 12.4288 5.73331C11.9682 5.76652 12.0293 6.5836 12.1554 6.59981C12.2818 6.6159 12.5997 6.84155 12.8217 6.8848C13.55 7.02656 13.015 7.44417 13.1095 7.94967C13.2163 8.52057 13.5923 8.3698 13.9302 9.88162C14.0008 9.97373 14.2806 10.0608 14.5535 11.2223C14.7989 12.2671 14.4513 13.027 15.0414 12.9647C15.1743 12.9507 15.3684 12.9135 15.4529 12.6174C15.6738 11.8437 15.3423 10.9214 15.0077 10.2991C14.8129 9.93629 14.6293 9.6893 14.5325 9.60439C14.9159 9.83106 15.4061 10.5549 15.5192 11.0925C15.6679 11.7985 15.7737 12.0972 15.5491 12.8437C15.6788 12.9086 16.0016 13.0458 16.0016 13.1997C15.6655 12.9233 14.636 12.8742 14.6095 13.5352C14.4339 13.5387 14.3012 13.553 14.1883 13.6872C13.7743 14.1783 14.1586 15.1646 14.1167 15.6934C14.0797 16.1589 13.9506 16.6201 13.8777 17.0876C13.6314 17.0782 13.6555 16.8979 13.7346 16.6449C13.8043 16.4217 13.9167 16.142 13.924 15.8738C13.9308 15.631 13.9042 15.4794 13.8431 15.4418C13.7818 15.4041 13.686 15.4803 13.5536 15.6937C13.2708 16.1488 12.6585 16.349 12.0867 16.4208C11.5149 16.4924 10.9834 16.4355 10.7019 16.1203C10.6057 16.0124 10.4461 16.1497 10.4272 16.1783C10.4018 16.2166 10.5203 16.291 10.6097 16.4552C10.7403 16.6946 10.8643 17.0579 10.5551 17.2237C10.5591 16.3807 10.2923 16.3313 10.0195 15.8161ZM9.81522 15.7939C10.0201 16.1164 10.7421 17.4745 9.47647 17.6508C9.05314 17.7097 8.37165 17.4045 7.71127 17.2429C7.118 17.0978 6.51549 17.012 6.17822 16.9171C5.97518 16.8602 5.89038 16.7873 5.87269 16.7021C5.82589 16.4767 6.11922 16.1607 6.13405 15.8939C6.14889 15.627 6.0367 15.4881 5.94482 15.2706C5.85271 15.0521 5.82886 14.8887 5.90248 14.7951C5.95977 14.7224 6.07619 14.6919 6.26565 14.7104C6.50579 14.7343 6.79569 14.6849 6.95148 14.59C7.21388 14.4297 7.33725 14.1018 7.21924 13.7066C7.21924 14.0934 7.09244 14.2398 6.77457 14.4166C6.47497 14.5834 6.0125 14.4485 5.79998 14.633C5.54421 14.8548 5.89129 15.428 5.86287 15.8483C5.84107 16.1715 5.50381 16.5355 5.65424 16.8597C5.80558 17.1857 6.51115 17.2215 7.24675 17.3751C8.29244 17.594 8.90203 17.9747 9.38516 17.9925C10.0899 18.0188 10.1979 17.2953 11.3045 17.2855C11.6273 17.2686 11.943 17.2586 12.2584 17.2546C12.6157 17.2501 12.9726 17.253 13.3391 17.2619C14.0756 17.2797 13.8223 17.664 14.3001 17.9095C14.7033 18.1165 15.4281 18.0348 15.6015 17.8693C15.8362 17.6455 16.4661 17.1071 16.9488 16.8639C17.5504 16.5607 18.9633 16.0388 17.9377 15.4024C17.6987 15.2539 17.1334 15.0972 17.0859 14.0122C16.8719 14.2024 16.8967 15.2133 17.4938 15.4139C18.1608 15.638 18.5776 16.0131 17.3376 16.4374C16.5164 16.718 16.377 16.8045 15.727 17.3455C15.0691 17.893 14.0933 17.6757 14.2636 16.523C14.3525 15.9224 14.4036 15.4262 14.2542 14.9041C14.1811 14.6493 14.1448 14.322 14.1948 14.0927C14.2918 13.6467 14.5332 13.5124 14.7699 13.9407C14.9184 14.2095 14.9705 14.5236 15.5024 14.5492C16.3379 14.5892 16.5034 13.7419 16.7703 13.7033C16.9485 13.6776 17.1265 13.1734 16.9908 12.358C16.8455 11.4851 16.3319 10.1065 15.6731 9.40739C15.1256 8.82645 14.7806 8.31696 14.5634 7.58992C14.381 6.97908 14.2795 6.38456 14.3169 5.81617C14.3655 5.07966 13.9571 4.05474 13.3068 3.57264C12.8998 3.27075 12.2616 3.10903 11.6839 3.11542C11.3598 3.11895 11.0549 3.16621 10.8205 3.29347C9.85619 3.817 9.72151 4.5648 9.73601 5.4183C9.74959 6.21997 9.77687 7.13487 9.86795 8.00526C9.76009 8.40484 9.19866 9.16246 8.83914 9.62345C8.35579 10.101 8.11165 11.0238 7.79893 11.83C7.63206 12.2598 7.35106 12.454 7.32744 13.0066C7.32082 13.1613 7.32618 13.561 7.47387 13.4466C8.03906 13.0093 8.74658 14.1118 9.81522 15.7939ZM12.7494 4.23758C12.719 4.32866 12.5936 4.40456 12.6731 4.46836C12.7527 4.53216 12.7984 4.37922 12.9587 4.32193C13.0001 4.30709 13.1928 4.32809 13.2282 4.23655C13.2436 4.19661 13.1288 4.15107 13.0605 4.08567C12.992 4.02038 12.9249 3.96229 12.8608 3.9664C12.6948 3.97701 12.7763 4.15689 12.7494 4.23758ZM13.7317 7.56207C13.7914 7.49941 13.8222 7.67027 13.9827 7.77151C14.11 7.85186 14.2337 7.79228 14.2658 7.95492C14.2887 8.07157 14.216 8.19803 14.1182 8.18159C13.9482 8.15295 13.5555 7.74743 13.7317 7.56207ZM11.0804 6.53612C10.8159 6.51638 10.7978 6.70755 10.8853 6.70436C10.9747 6.70116 10.9198 6.55313 11.0804 6.53612ZM10.6268 6.04786C10.6581 6.04101 10.7025 6.09431 10.6887 6.16896C10.6695 6.27259 10.6778 6.33753 10.7496 6.33776C10.7615 6.33776 10.7743 6.33548 10.7787 6.30866C10.8132 6.10219 10.7059 5.95062 10.6621 5.93943C10.5611 5.91364 10.5733 6.05927 10.6268 6.04786ZM12.5515 5.96055C12.6186 5.98052 12.6832 6.0966 12.6972 6.22203C12.6986 6.23378 12.7849 6.204 12.7854 6.1766C12.791 5.9747 12.6185 5.87974 12.5735 5.88385C12.4696 5.89321 12.4991 5.9448 12.5515 5.96055ZM11.5648 6.56078C11.8053 6.44927 11.8894 6.62195 11.8064 6.64969C11.7217 6.67811 11.721 6.52015 11.5648 6.56078ZM8.66098 10.6573C8.5473 10.6435 8.69408 10.5581 8.75628 10.4507C8.82465 10.3324 8.81141 10.1849 8.88331 10.2067C8.9551 10.2285 8.91516 10.3111 8.86596 10.4466C8.82396 10.562 8.70287 10.6623 8.66098 10.6573Z" fill="#2C2C35"/>
</g>
</g>
</svg>
