<svg width="19" height="18" viewBox="0 0 19 18" fill="none" xmlns="http://www.w3.org/2000/svg">
<path id="image" fill-rule="evenodd" clip-rule="evenodd" d="M8.49572 0.0542C7.69022 0.141799 6.47913 0.510663 5.60405 0.934927C3.79253 1.81319 2.36926 3.2341 1.47796 5.05436C1.06535 5.89711 0.585139 7.35523 0.685162 7.46206C0.705831 7.48412 0.903698 7.36489 1.12498 7.19708C1.67402 6.78087 2.92313 6.17989 3.61306 6.00015C5.21609 5.58242 7.12393 5.78943 8.6277 6.54402L8.99679 6.72926L8.61528 7.11024L8.23386 7.49132L7.63002 7.25144C6.02794 6.61505 4.32943 6.67584 2.75977 7.42598C2.07317 7.75412 1.2124 8.41855 0.759967 8.96971L0.5 9.2863L0.61453 10.1535C0.869946 12.0881 1.72389 13.8419 3.09161 15.2412C4.4397 16.6205 5.93976 17.4473 7.75905 17.8141L8.68155 18L9.05206 17.707C10.1398 16.8464 10.9588 15.5986 11.2962 14.2878C11.4967 13.5087 11.4466 11.821 11.2019 11.1153C10.8832 10.196 10.4532 9.4489 9.88913 8.834L9.31866 8.2121L10.6987 6.82263L12.0786 5.43317L12.1224 4.93286C12.1735 4.34713 12.429 4.0152 12.9461 3.86235C13.6477 3.65505 14.4687 4.23026 14.4687 4.92935C14.4687 5.64871 13.9818 6.15603 13.2625 6.18633C12.8687 6.2029 12.7937 6.25698 11.8191 7.22748L10.791 8.25121L11.1197 8.68134C11.5587 9.2558 11.938 10.0226 12.2081 10.8818C12.3952 11.4773 12.4303 11.7904 12.4303 12.8673C12.4303 13.9426 12.395 14.2586 12.2083 14.856C11.9187 15.7823 11.4441 16.6778 10.8572 17.4054L10.3847 17.9911L10.7438 17.9312C12.8595 17.5789 14.5089 16.742 15.9413 15.2943C17.1151 14.1079 17.9057 12.6872 18.327 11.0076C18.5795 10.0007 18.5511 7.85687 18.2712 6.80634C17.1009 2.41351 12.9792 -0.43342 8.49572 0.0542ZM5.01452 9.11432C5.5062 9.32361 5.76835 9.67656 5.81253 10.1888C5.88098 10.9822 5.35517 11.5572 4.56115 11.5572C3.15883 11.5572 2.79618 9.69124 4.0871 9.1182C4.45344 8.95551 4.63965 8.95475 5.01452 9.11432ZM8.93431 12.8823C9.96886 13.9158 8.74545 15.571 7.44391 14.8987C6.85771 14.5959 6.61604 13.7604 6.93602 13.1425C7.31573 12.409 8.32838 12.2772 8.93431 12.8823Z" fill="white"/>
</svg>
