<svg width="32" height="32" viewBox="0 0 32 32" fill="none" xmlns="http://www.w3.org/2000/svg">
<g id="macos " clip-path="url(#clip0_211_1748)">
<path id="Vector" d="M17.5931 10.6803V10.4198L16.7832 10.4754C16.5538 10.4899 16.3817 10.5386 16.2658 10.6209C16.1501 10.704 16.0922 10.819 16.0922 10.966C16.0922 11.1093 16.1493 11.2235 16.2643 11.3081C16.3786 11.3935 16.5325 11.4354 16.7245 11.4354C16.8472 11.4354 16.9623 11.4163 17.0682 11.379C17.1741 11.3417 17.267 11.2891 17.3447 11.222C17.4224 11.1558 17.4834 11.0765 17.5268 10.9843C17.571 10.8921 17.5931 10.7908 17.5931 10.6803ZM15.9999 0.19043C7.17786 0.19043 0.19043 7.17786 0.19043 16C0.19043 24.8228 7.17786 31.8095 15.9999 31.8095C24.8221 31.8095 31.8095 24.8228 31.8095 16C31.8095 7.17786 24.8228 0.19043 15.9999 0.19043ZM19.0689 9.56107C19.1436 9.35155 19.2487 9.17177 19.3851 9.02246C19.5215 8.87307 19.6853 8.75802 19.8773 8.67729C20.0693 8.59649 20.2834 8.55613 20.5188 8.55613C20.7314 8.55613 20.9234 8.58813 21.0941 8.6514C21.2655 8.7146 21.4118 8.79998 21.5344 8.9074C21.6571 9.01482 21.7546 9.13977 21.8263 9.28297C21.8978 9.42624 21.9405 9.57787 21.955 9.73707H21.3203C21.3043 9.64951 21.2754 9.56718 21.2343 9.49177C21.1931 9.41635 21.139 9.35082 21.0719 9.29518C21.0042 9.23955 20.9249 9.19613 20.8343 9.16493C20.7428 9.13293 20.6407 9.11766 20.5257 9.11766C20.3908 9.11766 20.2682 9.14507 20.1592 9.19918C20.0495 9.25329 19.9558 9.33024 19.8781 9.42929C19.8003 9.52835 19.7402 9.64951 19.6975 9.79118C19.6541 9.93366 19.6327 10.0914 19.6327 10.2651C19.6327 10.4449 19.6541 10.6065 19.6975 10.7481C19.7402 10.8906 19.8011 11.0102 19.8803 11.1085C19.9588 11.2068 20.0541 11.2822 20.1645 11.334C20.275 11.3859 20.3969 11.4125 20.5295 11.4125C20.7466 11.4125 20.9234 11.3615 21.0605 11.2594C21.1977 11.1573 21.2861 11.008 21.3272 10.8114H21.9626C21.9443 10.9851 21.8963 11.1435 21.8186 11.2868C21.7409 11.43 21.6403 11.552 21.5169 11.6533C21.3927 11.7546 21.2472 11.8331 21.0796 11.888C20.9119 11.9428 20.7276 11.971 20.5272 11.971C20.2895 11.971 20.0754 11.9314 19.8826 11.8529C19.6906 11.7745 19.5253 11.6609 19.3882 11.5139C19.251 11.3668 19.1451 11.1878 19.0704 10.9767C18.9958 10.7657 18.9584 10.5287 18.9584 10.2643C18.9569 10.006 18.9943 9.7714 19.0689 9.56107ZM10.0381 8.59955H10.6735V9.16413H10.6857C10.7245 9.07046 10.7756 8.98587 10.8381 8.91271C10.9005 8.83882 10.9722 8.77635 11.0544 8.72377C11.1359 8.67118 11.2266 8.63155 11.3242 8.60413C11.4224 8.57671 11.5261 8.56304 11.6343 8.56304C11.8674 8.56304 12.0647 8.6186 12.2247 8.72987C12.3855 8.84107 12.4998 9.00107 12.5668 9.20987H12.5828C12.6255 9.10929 12.6818 9.0194 12.7512 8.94013C12.8205 8.86093 12.9005 8.79235 12.9904 8.73598C13.0803 8.67955 13.1794 8.63693 13.2868 8.60718C13.3943 8.57751 13.507 8.56304 13.6258 8.56304C13.7897 8.56304 13.9383 8.58893 14.0723 8.64151C14.2064 8.69402 14.3207 8.76718 14.4159 8.86246C14.5112 8.95766 14.5843 9.07351 14.6354 9.20907C14.6864 9.34471 14.7123 9.49555 14.7123 9.66166V11.9329H14.0495V9.82093C14.0495 9.60224 13.9931 9.43235 13.8803 9.31271C13.7683 9.19308 13.6076 9.13293 13.3988 9.13293C13.2967 9.13293 13.203 9.15118 13.1177 9.18697C13.0331 9.22282 12.9592 9.27307 12.8983 9.33787C12.8365 9.40187 12.7885 9.47955 12.7543 9.56951C12.7192 9.6594 12.7017 9.75766 12.7017 9.86435V11.9329H12.0479V9.76602C12.0479 9.67002 12.0327 9.58318 12.003 9.50551C11.9733 9.42776 11.9314 9.36151 11.8758 9.30587C11.8209 9.25024 11.7531 9.20835 11.6746 9.1786C11.5954 9.14893 11.507 9.13366 11.4087 9.13366C11.3066 9.13366 11.2122 9.15271 11.1245 9.19082C11.0377 9.22893 10.963 9.28151 10.9005 9.34849C10.8381 9.41635 10.7893 9.49555 10.755 9.58777C10.7215 9.67918 10.6666 9.77977 10.6666 9.88798V11.9321H10.0381V8.59955ZM11.4803 24.5531C8.56605 24.5531 6.73824 22.528 6.73824 19.296C6.73824 16.064 8.56605 14.032 11.4803 14.032C14.3946 14.032 16.2156 16.064 16.2156 19.296C16.2156 22.5272 14.3946 24.5531 11.4803 24.5531ZM16.8762 11.9245C16.7687 11.952 16.659 11.9657 16.5463 11.9657C16.3802 11.9657 16.2285 11.942 16.0906 11.8948C15.9519 11.8475 15.8338 11.7813 15.7348 11.6952C15.6358 11.6091 15.5581 11.5055 15.5032 11.3835C15.4476 11.2617 15.4202 11.126 15.4202 10.9767C15.4202 10.6841 15.5291 10.4555 15.747 10.291C15.9649 10.1265 16.2803 10.0305 16.6941 10.0038L17.5931 9.95198V9.69446C17.5931 9.50246 17.5322 9.3554 17.4103 9.25555C17.2883 9.15576 17.1162 9.10551 16.8929 9.10551C16.803 9.10551 16.7184 9.11693 16.6407 9.13897C16.563 9.16187 16.4944 9.19387 16.435 9.23577C16.3756 9.27766 16.3261 9.32798 16.2879 9.3866C16.2491 9.44449 16.2224 9.51002 16.2079 9.58166H15.5847C15.5885 9.4346 15.6251 9.29824 15.6937 9.17329C15.7623 9.04835 15.8552 8.94013 15.9733 8.84798C16.0914 8.75576 16.2293 8.68413 16.3893 8.63307C16.5493 8.58202 16.723 8.55613 16.9112 8.55613C17.1138 8.55613 17.2975 8.58129 17.4621 8.63307C17.6266 8.68493 17.7676 8.75729 17.8842 8.85249C18.0007 8.94777 18.0906 9.06202 18.1538 9.19613C18.2171 9.33024 18.2491 9.48035 18.2491 9.64566V11.9321H17.6144V11.3767H17.5984C17.5512 11.4666 17.4918 11.5481 17.4194 11.6205C17.3463 11.6929 17.2647 11.7554 17.1741 11.8065C17.0826 11.8575 16.9836 11.8971 16.8762 11.9245ZM21.0689 24.5531C18.8464 24.5531 17.3356 23.3889 17.2304 21.5611H18.6773C18.7901 22.6057 19.7996 23.2975 21.1824 23.2975C22.5089 23.2975 23.4621 22.6057 23.4621 21.6601C23.4621 20.8419 22.883 20.3474 21.5428 20.0091L20.2369 19.6845C18.3596 19.219 17.5063 18.3649 17.5063 16.9607C17.5063 15.232 19.0163 14.032 21.1687 14.032C23.2716 14.032 24.739 15.2388 24.7954 16.9745H23.363C23.2639 15.9299 22.4106 15.2875 21.1398 15.2875C19.8765 15.2875 19.0018 15.9367 19.0018 16.8754C19.0018 17.616 19.5519 18.054 20.8929 18.3923L21.9938 18.6674C24.0898 19.1755 24.9508 20.0015 24.9508 21.4834C24.9501 23.3745 23.4544 24.5531 21.0689 24.5531ZM11.4803 15.3295C9.48336 15.3295 8.23463 16.8609 8.23463 19.2952C8.23463 21.7226 9.48336 23.254 11.4803 23.254C13.4704 23.254 14.7261 21.7226 14.7261 19.2952C14.7268 16.8609 13.4704 15.3295 11.4803 15.3295Z" fill="#5C75C9"/>
</g>
<defs>
<clipPath id="clip0_211_1748">
<rect width="32" height="32" fill="white"/>
</clipPath>
</defs>
</svg>
