<svg width="22" height="22" viewBox="0 0 22 22" fill="none" xmlns="http://www.w3.org/2000/svg">
<g id="macos ">
<path id="Vector" d="M11.8062 8.30815V8.17628L11.3964 8.20444C11.2803 8.21176 11.1932 8.23642 11.1345 8.27808C11.076 8.32011 11.0467 8.37829 11.0467 8.4527C11.0467 8.5252 11.0756 8.58302 11.1338 8.62582C11.1916 8.66902 11.2695 8.69022 11.3667 8.69022C11.4287 8.69022 11.487 8.68058 11.5405 8.66166C11.5941 8.64278 11.6412 8.61618 11.6805 8.58224C11.7198 8.54872 11.7506 8.5086 11.7726 8.46198C11.795 8.41531 11.8062 8.36405 11.8062 8.30815ZM11 3C6.53581 3 3 6.5358 3 11C3 15.4646 6.53581 19 11 19C15.4642 19 19 15.4646 19 11C19 6.5358 15.4646 3 11 3ZM12.553 7.74177C12.5908 7.63574 12.644 7.54477 12.713 7.46921C12.782 7.39362 12.8649 7.3354 12.962 7.29455C13.0592 7.25367 13.1675 7.23324 13.2866 7.23324C13.3942 7.23324 13.4914 7.24943 13.5777 7.28145C13.6645 7.31343 13.7385 7.35664 13.8006 7.41099C13.8627 7.46535 13.912 7.52857 13.9483 7.60104C13.9845 7.67354 14.0061 7.75027 14.0134 7.83083H13.6922C13.6841 7.78652 13.6695 7.74486 13.6487 7.7067C13.6279 7.66853 13.6005 7.63537 13.5666 7.60722C13.5323 7.57907 13.4921 7.5571 13.4463 7.54131C13.4 7.52512 13.3484 7.51739 13.2901 7.51739C13.2219 7.51739 13.1598 7.53126 13.1047 7.55864C13.0492 7.58602 13.0018 7.62496 12.9624 7.67508C12.9231 7.72521 12.8926 7.78652 12.871 7.85821C12.8491 7.9303 12.8383 8.01013 12.8383 8.09801C12.8383 8.18902 12.8491 8.27075 12.871 8.34244C12.8926 8.41454 12.9235 8.47508 12.9636 8.5248C13.0033 8.57455 13.0515 8.61272 13.1074 8.63892C13.1633 8.66516 13.225 8.67863 13.292 8.67863C13.4019 8.67863 13.4914 8.65283 13.5608 8.60116C13.6302 8.54949 13.6749 8.47394 13.6957 8.37446H14.0173C14.008 8.46234 13.9837 8.54254 13.9444 8.61503C13.9051 8.6875 13.8542 8.74921 13.7917 8.80048C13.7289 8.85174 13.6552 8.89145 13.5704 8.91924C13.4856 8.94699 13.3923 8.96123 13.2909 8.96123C13.1706 8.96123 13.0623 8.94121 12.9647 8.9015C12.8676 8.86179 12.7839 8.80434 12.7145 8.72993C12.6451 8.65552 12.5915 8.56491 12.5537 8.45811C12.516 8.35131 12.4971 8.23141 12.4971 8.09764C12.4963 7.96692 12.5152 7.8482 12.553 7.74177ZM7.98314 7.25521H8.30467V7.5409H8.31086C8.33051 7.4935 8.35634 7.4507 8.38795 7.41368C8.41957 7.37629 8.45582 7.34468 8.49744 7.31807C8.5387 7.29146 8.58459 7.2714 8.63394 7.25753C8.68366 7.24366 8.7361 7.23674 8.79086 7.23674C8.90881 7.23674 9.00869 7.26485 9.08965 7.32116C9.17099 7.37743 9.22884 7.45839 9.26273 7.56405H9.27083C9.29243 7.51315 9.32095 7.46767 9.35606 7.42755C9.39113 7.38748 9.43162 7.35277 9.4771 7.32425C9.52259 7.29569 9.57271 7.27413 9.62707 7.25908C9.68146 7.24406 9.73851 7.23674 9.79864 7.23674C9.88155 7.23674 9.95674 7.24984 10.0246 7.27645C10.0924 7.30302 10.1503 7.34004 10.1985 7.38825C10.2467 7.43642 10.2837 7.49505 10.3095 7.56365C10.3353 7.63228 10.3484 7.70861 10.3484 7.79266V8.94198H10.013V7.87326C10.013 7.7626 9.98449 7.67663 9.92741 7.61609C9.87073 7.55555 9.7894 7.52512 9.68375 7.52512C9.63211 7.52512 9.58467 7.53435 9.54151 7.55246C9.49871 7.5706 9.46132 7.59603 9.43048 7.62882C9.39923 7.66121 9.37494 7.70051 9.35761 7.74604C9.33987 7.79152 9.331 7.84124 9.331 7.89523V8.94198H9.00019V7.84547C9.00019 7.7969 8.9925 7.75295 8.97745 7.71365C8.96239 7.67431 8.9412 7.64078 8.91308 7.61263C8.88529 7.58448 8.85099 7.56328 8.81129 7.54823C8.77117 7.53321 8.72646 7.52548 8.67674 7.52548C8.62507 7.52548 8.57726 7.53513 8.53292 7.55441C8.48898 7.57369 8.45118 7.6003 8.41957 7.6342C8.38796 7.66853 8.36326 7.70861 8.34593 7.75527C8.32896 7.80153 8.30121 7.85243 8.30121 7.90719V8.94158H7.98314V7.25521ZM8.71295 15.3281C7.23827 15.3281 6.31335 14.3033 6.31335 12.6679C6.31335 11.0324 7.23827 10.0042 8.71295 10.0042C10.1877 10.0042 11.1091 11.0324 11.1091 12.6679C11.1091 14.3029 10.1877 15.3281 8.71295 15.3281ZM11.4434 8.93771C11.389 8.95162 11.3335 8.95854 11.2765 8.95854C11.1924 8.95854 11.1157 8.94658 11.0459 8.9227C10.9757 8.89878 10.9159 8.86525 10.8658 8.82168C10.8157 8.7781 10.7764 8.7257 10.7486 8.66398C10.7205 8.6023 10.7066 8.53367 10.7066 8.45811C10.7066 8.31006 10.7617 8.19439 10.872 8.11111C10.9823 8.02786 11.1419 7.97928 11.3512 7.96578L11.8062 7.93958V7.80926C11.8062 7.7121 11.7753 7.63769 11.7137 7.58716C11.6519 7.53667 11.5648 7.51124 11.4518 7.51124C11.4064 7.51124 11.3636 7.51702 11.3243 7.52817C11.2849 7.53976 11.2502 7.55595 11.2201 7.57715C11.1901 7.59835 11.165 7.62382 11.1457 7.65348C11.1261 7.68277 11.1126 7.71593 11.1053 7.75218H10.7899C10.7918 7.67777 10.8103 7.60877 10.845 7.54554C10.8797 7.48232 10.9268 7.42755 10.9865 7.38093C11.0463 7.33426 11.116 7.29801 11.197 7.27218C11.278 7.24634 11.3659 7.23324 11.4611 7.23324C11.5637 7.23324 11.6566 7.24597 11.7399 7.27218C11.8231 7.29842 11.8945 7.33503 11.9535 7.38321C12.0124 7.43142 12.0579 7.48923 12.0899 7.5571C12.1219 7.62496 12.1381 7.70092 12.1381 7.78457V8.94158H11.817V8.66052H11.8089C11.785 8.70601 11.7549 8.74726 11.7183 8.78388C11.6813 8.82054 11.64 8.85215 11.5941 8.87798C11.5479 8.90382 11.4977 8.92384 11.4434 8.93771ZM13.565 15.3281C12.4404 15.3281 11.6759 14.739 11.6226 13.814H12.3548C12.4119 14.3426 12.9227 14.6927 13.6225 14.6927C14.2937 14.6927 14.776 14.3426 14.776 13.8642C14.776 13.4501 14.483 13.1999 13.8048 13.0287L13.144 12.8645C12.194 12.6289 11.7622 12.1967 11.7622 11.4862C11.7622 10.6114 12.5264 10.0042 13.6155 10.0042C14.6796 10.0042 15.4222 10.6148 15.4507 11.4931H14.7259C14.6758 10.9645 14.244 10.6395 13.6009 10.6395C12.9616 10.6395 12.519 10.968 12.519 11.443C12.519 11.8177 12.7974 12.0394 13.4759 12.2106L14.0331 12.3498C15.0937 12.6069 15.5293 13.0249 15.5293 13.7747C15.529 14.7317 14.7721 15.3281 13.565 15.3281ZM8.71295 10.6607C7.70245 10.6607 7.07056 11.4357 7.07056 12.6675C7.07056 13.8958 7.70245 14.6707 8.71295 14.6707C9.71999 14.6707 10.3554 13.8958 10.3554 12.6675C10.3557 11.4357 9.71999 10.6607 8.71295 10.6607Z" fill="#2C2C35"/>
</g>
</svg>
