<svg width="124" height="37" viewBox="0 0 124 37" fill="none" xmlns="http://www.w3.org/2000/svg">
<g id="Frame 5821">
<g id="circle-Copy">
<g id="maestro">
<g id="logo">
<path id="path618" fill-rule="evenodd" clip-rule="evenodd" d="M62.2478 31.4713C65.7866 28.2692 67.9986 23.6413 67.9986 18.4979C67.9986 13.3549 65.7866 8.73078 62.2478 5.52817C59.1514 2.71309 55.014 1 50.5123 1C40.8323 1 33 8.83371 33 18.4979C33 28.1658 40.8323 35.9995 50.5123 35.9995C55.0135 36 59.1509 34.2832 62.2478 31.4713Z" fill="#4186CD"/>
<path id="path620" fill-rule="evenodd" clip-rule="evenodd" d="M62.248 31.4715C65.7869 28.2693 67.9989 23.6415 67.9989 18.498C67.9989 13.355 65.7869 8.73093 62.248 5.52832V31.4715Z" fill="#4487CA"/>
<path id="path624" fill-rule="evenodd" clip-rule="evenodd" d="M74.0087 1C69.481 1 65.3436 2.71309 62.2472 5.52817C61.6226 6.10386 61.0241 6.7224 60.4778 7.38332H64.0167C64.5113 7.96972 64.9538 8.58826 65.3441 9.23521H59.1508C58.7866 9.82859 58.4484 10.4471 58.1359 11.0871H66.3585C66.6445 11.6879 66.8788 12.306 67.087 12.9422H57.407C57.1988 13.5431 57.0167 14.1616 56.8867 14.7941H67.6077C67.8681 15.9883 67.998 17.2287 67.998 18.4979C67.998 20.4415 67.6855 22.3116 67.087 24.0568H57.4074C57.6156 24.6926 57.8499 25.3111 58.1359 25.9115H66.3585C66.046 26.5519 65.7339 27.17 65.3436 27.7638H59.1503C59.5407 28.4108 60.0092 29.0293 60.4778 29.6162H64.0167C63.4703 30.2766 62.8718 30.8952 62.2472 31.4709C65.3436 34.2827 69.481 35.9995 74.0087 35.9995C83.6627 35.9995 91.495 28.1658 91.495 18.4979C91.495 8.83371 83.6622 1 74.0087 1Z" fill="#CA4638"/>
<g id="Group">
<path id="path626" fill-rule="evenodd" clip-rule="evenodd" d="M89.6485 28.22H89.7267C89.7533 28.22 89.7784 28.2237 89.7784 28.2126C89.805 28.1986 89.8306 28.1772 89.8306 28.1562C89.8306 28.1343 89.8045 28.1133 89.7784 28.1026C89.7784 28.0919 89.7267 28.0952 89.7267 28.0952H89.6485V28.22ZM89.6485 28.5041H89.5446V28.0067H89.7528C89.8045 28.0067 89.8306 28.0067 89.8828 28.0318C89.9088 28.0602 89.9345 28.1064 89.9345 28.1567C89.9345 28.213 89.9084 28.2633 89.8562 28.2838L89.9345 28.5046H89.8045L89.7528 28.3057H89.648L89.6485 28.5041ZM89.7267 28.6858C89.961 28.6858 90.1692 28.4939 90.1692 28.2554C90.1692 28.0169 89.961 27.825 89.7267 27.825C89.4929 27.825 89.3103 28.0169 89.3103 28.2554C89.3103 28.4939 89.4929 28.6858 89.7267 28.6858ZM89.1543 28.2554C89.1543 27.9424 89.4147 27.6904 89.7267 27.6904C90.0393 27.6904 90.2992 27.9424 90.2992 28.2554C90.2992 28.5684 90.0388 28.8204 89.7267 28.8204C89.4147 28.8204 89.1543 28.5684 89.1543 28.2554Z" fill="#231F20"/>
<path id="path628" fill-rule="evenodd" clip-rule="evenodd" d="M47.7805 23.3685H45.5686L46.8695 16.5474L43.8769 23.3685H42.0553L41.6911 16.5865L40.2342 23.3685H38.2305L39.9217 14.4971H43.3828L43.4345 19.9884L45.8285 14.4971H49.4973L47.7805 23.3685Z" fill="#231F20"/>
<path id="path630" fill-rule="evenodd" clip-rule="evenodd" d="M72.111 23.279C71.5125 23.443 71.044 23.5138 70.5498 23.5138C69.431 23.5138 68.832 22.9558 68.832 21.9288C68.832 21.7262 68.832 21.5096 68.8837 21.2814L69.0137 20.5743L69.118 20.0056L70.1329 14.4961H72.2927L71.9806 16.1524H73.0994L72.7873 17.9046H71.6685L71.0961 20.9153C71.07 21.0499 71.07 21.1463 71.07 21.2138C71.07 21.5869 71.2782 21.7504 71.7985 21.7504C72.0589 21.7504 72.2405 21.7294 72.397 21.6829L72.111 23.279Z" fill="#231F20"/>
<path id="path632" fill-rule="evenodd" clip-rule="evenodd" d="M63.4715 18.4314C63.4715 19.3448 63.9661 19.9708 65.1366 20.4431C66.0215 20.8059 66.1771 20.9126 66.1771 21.2396C66.1771 21.6913 65.7868 21.893 64.9028 21.893C64.2521 21.893 63.6275 21.805 62.9251 21.6056L62.6387 23.2722L62.7169 23.2866L63.1333 23.3611C63.2633 23.3825 63.4458 23.404 63.7057 23.4249C64.226 23.464 64.6424 23.4859 64.9284 23.4859C67.2446 23.4859 68.3117 22.7216 68.3117 21.0761C68.3117 20.0877 67.8692 19.505 66.7761 19.0672C65.8394 18.7011 65.7355 18.6229 65.7355 18.2857C65.7355 17.8944 66.0998 17.6955 66.8026 17.6955C67.2446 17.6955 67.8431 17.7384 68.3895 17.8059L68.702 16.1352C68.1296 16.057 67.2707 15.9932 66.7761 15.9932C64.3043 15.9932 63.4454 17.1022 63.4715 18.4314Z" fill="#231F20"/>
<path id="path634" fill-rule="evenodd" clip-rule="evenodd" d="M53.3499 20.1551C53.1161 20.1299 53.0117 20.1234 52.8552 20.1234C51.6326 20.1234 51.008 20.4927 51.008 21.2212C51.008 21.6688 51.3201 21.9571 51.7886 21.9571C52.6731 21.9576 53.3238 21.2217 53.3499 20.1551ZM54.8329 23.3684H53.0113L53.0634 22.6185C52.491 23.2119 51.7625 23.4927 50.7733 23.4927C49.5762 23.4927 48.7695 22.6893 48.7695 21.5235C48.7695 19.7643 50.1747 18.7405 52.5944 18.7405C52.8548 18.7405 53.1668 18.7578 53.4794 18.7969C53.5571 18.5589 53.5832 18.456 53.5832 18.3279C53.5832 17.8481 53.1929 17.6702 52.178 17.6702C51.5534 17.6702 50.851 17.7485 50.3564 17.8728L50.0699 17.9473L49.8618 17.9934L50.1738 16.373C51.2665 16.0955 51.9689 15.9893 52.7756 15.9893C54.6489 15.9893 55.6382 16.7214 55.6382 18.1076C55.6382 18.4629 55.6121 18.7331 55.4561 19.5365L55.0136 22.0954L54.9358 22.5538L54.8836 22.9199L54.8315 23.1723V23.3684H54.8329Z" fill="#231F20"/>
<path id="path636" fill-rule="evenodd" clip-rule="evenodd" d="M60.923 18.9181C60.923 18.7691 60.949 18.6447 60.949 18.552C60.949 17.9656 60.5587 17.6205 59.9081 17.6205C59.2057 17.6205 58.711 18.0825 58.5289 18.9139L60.923 18.9181ZM61.9896 23.212C61.235 23.4114 60.5061 23.5068 59.7516 23.5031C57.3058 23.5031 56.0566 22.3941 56.0566 20.2726C56.0566 17.7952 57.6701 15.9717 59.8559 15.9717C61.651 15.9717 62.7963 16.9917 62.7963 18.5944C62.7963 19.1282 62.718 19.6428 62.5098 20.375H58.1903C58.1642 20.485 58.1642 20.5353 58.1642 20.6023C58.1642 21.4374 58.8149 21.8641 60.0897 21.8641C60.8703 21.8641 61.5732 21.7257 62.3538 21.409L61.9896 23.212Z" fill="#231F20"/>
<path id="path638" fill-rule="evenodd" clip-rule="evenodd" d="M83.0132 19.2351C83.0132 18.4815 82.7011 17.767 81.8166 17.767C80.6979 17.767 80.0216 19.0823 80.0216 20.2407C80.0216 21.2183 80.4897 21.876 81.2708 21.8611C81.7389 21.8611 82.7538 21.2179 82.9359 20.0944C82.9871 19.8355 83.0132 19.5481 83.0132 19.2351ZM85.2251 20.0982C84.9126 22.4973 83.2214 23.5607 80.9839 23.5607C78.5377 23.5607 77.5488 22.0679 77.5488 20.2374C77.5488 17.6781 79.2144 15.9473 81.8166 15.9473C84.0803 15.9473 85.2777 17.3725 85.2777 19.2034C85.2773 19.6473 85.2773 19.679 85.2251 20.0982Z" fill="#231F20"/>
</g>
<path id="path640" fill-rule="evenodd" clip-rule="evenodd" d="M85.9532 22.2591H86.0309C86.0309 22.2591 86.0575 22.2591 86.0831 22.2484C86.1087 22.2376 86.1092 22.213 86.1092 22.1915C86.1092 22.1738 86.1092 22.1524 86.0831 22.1422C86.0831 22.1314 86.0309 22.1314 86.0053 22.1314H85.9532V22.2591ZM85.9532 22.5399H85.8488V22.0425H86.057C86.0831 22.0425 86.1353 22.0462 86.187 22.0714C86.2131 22.096 86.2387 22.1459 86.2387 22.1957C86.2387 22.2488 86.2126 22.3024 86.1609 22.3233L86.2387 22.5404H86.1087L86.0305 22.3448H85.9532V22.5399ZM86.0309 22.7211C86.2657 22.7211 86.4478 22.5292 86.4478 22.2907C86.4478 22.056 86.2657 21.8641 86.0309 21.8641C85.7971 21.8641 85.5889 22.056 85.5889 22.2907C85.5889 22.5292 85.7971 22.7211 86.0309 22.7211ZM85.459 22.2907C85.459 21.9815 85.7193 21.7295 86.0314 21.7295C86.3439 21.7295 86.6038 21.9815 86.6038 22.2907C86.6038 22.6037 86.3435 22.8557 86.0314 22.8557C85.7189 22.8557 85.459 22.6037 85.459 22.2907Z" fill="white"/>
<path id="path642" fill-rule="evenodd" clip-rule="evenodd" d="M48.328 22.8568H46.1421L47.443 16.0361L44.4505 22.8568H42.4728L42.1086 16.079L40.8077 22.8568H38.8301L40.5213 13.9854H43.9297L44.0858 19.4805L46.5059 13.9854H50.0448L48.328 22.8568Z" fill="white"/>
<path id="path644" fill-rule="evenodd" clip-rule="evenodd" d="M72.6564 22.772C72.0579 22.9355 71.5893 23.0063 71.0947 23.0063C69.9759 23.0063 69.377 22.4451 69.377 21.4218C69.377 21.2187 69.403 21.0026 69.4291 20.7748L69.5591 20.0669L69.6629 19.4944L70.6783 13.9854H72.8381L72.526 15.6416H73.6448L73.3322 17.3976H72.2135L71.641 20.4078C71.615 20.5396 71.615 20.6388 71.615 20.7068C71.615 21.0804 71.8492 21.2401 72.3695 21.2401C72.6038 21.2401 72.7864 21.2187 72.9419 21.1721L72.6564 22.772Z" fill="white"/>
<path id="path646" fill-rule="evenodd" clip-rule="evenodd" d="M78.2508 17.7132L78.1991 17.4859L78.6416 16.3555C78.5368 16.3448 78.4851 16.3415 78.4851 16.3345C78.3551 16.3094 78.3029 16.2954 78.2769 16.2954C78.2252 16.281 78.1469 16.2777 78.0691 16.2777C77.3407 16.2777 76.846 16.594 76.1693 17.4472L76.404 16.1641H74.1399L72.8125 23.3685H74.9727C75.2587 21.7155 75.3891 20.7742 75.5712 19.9917C75.8572 18.6946 76.8204 18.1044 77.5228 18.2358C77.6006 18.2502 77.6527 18.2502 77.7566 18.2894L77.8866 18.3387L78.2508 17.7132Z" fill="#231F20"/>
<path id="path648" fill-rule="evenodd" clip-rule="evenodd" d="M79.0044 15.7013C78.8223 15.63 78.7962 15.63 78.7706 15.623C78.6658 15.5979 78.588 15.5839 78.588 15.5802C78.5102 15.5695 78.4319 15.5625 78.3537 15.5625C77.6513 15.5625 77.1311 15.8825 76.4543 16.7358L76.6625 15.6407H74.6849L73.3574 22.8559H75.5433C76.3239 18.4451 76.662 17.6706 77.703 17.6706C77.7813 17.6706 77.859 17.6775 77.9634 17.6883L78.2237 17.7414L79.0044 15.7013Z" fill="white"/>
<path id="path650" fill-rule="evenodd" clip-rule="evenodd" d="M64.0159 17.9229C64.0159 18.8326 64.5362 19.4618 65.7076 19.9346C66.5921 20.2937 66.7225 20.4004 66.7225 20.731C66.7225 21.1786 66.3322 21.3813 65.4733 21.3813C64.7965 21.3813 64.198 21.2923 63.4957 21.0967L63.1836 22.7604L63.2875 22.7776L63.6778 22.8484C63.8077 22.874 64.0164 22.895 64.2763 22.9132C64.7965 22.9523 65.1869 22.9732 65.4733 22.9732C67.8147 22.9732 68.8818 22.2126 68.8818 20.5671C68.8818 19.5755 68.4398 18.9961 67.3205 18.5587C66.41 18.1926 66.3052 18.1111 66.3052 17.773C66.3052 17.3855 66.6699 17.1866 67.3722 17.1866C67.8142 17.1866 68.3871 17.2257 68.9596 17.2932L69.2716 15.623C68.6992 15.5447 67.8408 15.4805 67.3205 15.4805C64.8748 15.4809 64.0159 16.5899 64.0159 17.9229Z" fill="white"/>
<path id="path652" fill-rule="evenodd" clip-rule="evenodd" d="M53.8156 19.6426C53.5813 19.6179 53.477 19.6141 53.321 19.6141C52.0979 19.6141 51.4733 19.9835 51.4733 20.712C51.4733 21.16 51.7597 21.4479 52.2539 21.4479C53.1389 21.4483 53.7635 20.7087 53.8156 19.6426ZM55.4025 22.8554H53.5809L53.633 22.1092C53.0867 22.7022 52.3322 22.9798 51.3429 22.9798C50.1719 22.9798 49.3652 22.1763 49.3652 21.0105C49.3652 19.2541 50.7704 18.2276 53.1901 18.2276C53.4244 18.2276 53.7364 18.2485 54.0746 18.2844C54.1268 18.0459 54.1524 17.9467 54.1524 17.8154C54.1524 17.3389 53.7621 17.1614 52.7472 17.1614C52.1226 17.1614 51.4197 17.2359 50.9516 17.3603L50.6396 17.4385L50.4575 17.4851L50.7439 15.8605C51.8366 15.5834 52.539 15.4805 53.3457 15.4805C55.219 15.4805 56.2083 16.2127 56.2083 17.5955C56.2083 17.9509 56.1822 18.221 56.0522 19.024L55.5837 21.5871L55.5059 22.0454L55.4537 22.4115L55.4276 22.6598L55.4025 22.8554Z" fill="white"/>
<path id="path654" fill-rule="evenodd" clip-rule="evenodd" d="M61.3896 18.4093V18.0395C61.3896 17.4531 61.0254 17.1117 60.3747 17.1117C59.6724 17.1117 59.1777 17.57 58.9695 18.4056L61.3896 18.4093ZM62.535 22.7028C61.806 22.8984 61.0776 22.9943 60.3226 22.9943C57.8768 22.9943 56.6016 21.8853 56.6016 19.76C56.6016 17.2864 58.2145 15.4629 60.4003 15.4629C62.1959 15.4629 63.3407 16.4829 63.3407 18.0824C63.3407 18.6157 63.2625 19.1345 63.0799 19.8662H58.7609C58.7348 19.9766 58.7348 20.0265 58.7348 20.0935C58.7348 20.9291 59.385 21.3558 60.6342 21.3558C61.4148 21.3558 62.1176 21.2132 62.8978 20.897L62.535 22.7028Z" fill="white"/>
<path id="path656" fill-rule="evenodd" clip-rule="evenodd" d="M83.532 18.6619C83.532 17.9083 83.22 17.1942 82.3355 17.1942C81.2167 17.1942 80.5404 18.5091 80.5404 19.6679C80.5404 20.6488 81.009 21.3069 81.7896 21.292C82.2582 21.292 83.2726 20.6488 83.4547 19.5254C83.5064 19.2622 83.532 18.9749 83.532 18.6619ZM85.7961 19.5864C85.4575 21.9851 83.7919 23.0512 81.5549 23.0512C79.0826 23.0512 78.0938 21.5547 78.0938 19.7243C78.0938 17.1686 79.7849 15.4346 82.3876 15.4346C84.6508 15.4346 85.8483 16.8598 85.8483 18.6903C85.8483 19.1379 85.8483 19.1668 85.7961 19.5864Z" fill="white"/>
</g>
</g>
</g>
</g>
</svg>
