<svg width="124" height="37" viewBox="0 0 124 37" fill="none" xmlns="http://www.w3.org/2000/svg">
<g id="Frame 5821">
<g id="Group">
<g id="Group_2">
<g id="Group_3">
<path id="Vector" d="M91.334 18.5C91.334 28.1296 83.5562 36 73.834 36C64.2044 36 56.334 28.1296 56.334 18.5C56.334 8.87037 64.1118 1 73.7414 1C83.5562 1 91.334 8.87037 91.334 18.5Z" fill="#FFB600"/>
</g>
</g>
<g id="Group_4">
<g id="Group_5">
<path id="Vector_2" d="M73.834 1C83.4636 1 91.334 8.87037 91.334 18.5C91.334 28.1296 83.5562 36 73.834 36C64.2044 36 56.334 28.1296 56.334 18.5" fill="#F7981D"/>
</g>
</g>
<g id="Group_6">
<g id="Group_7">
<path id="Vector_3" d="M73.834 1C83.4636 1 91.334 8.87037 91.334 18.5C91.334 28.1296 83.5562 36 73.834 36" fill="#FF8500"/>
</g>
</g>
<g id="Group_8">
<g id="Group_9">
<path id="Vector_4" d="M50.3148 1C40.7778 1.09259 33 8.87037 33 18.5C33 28.1296 40.7778 36 50.5 36C55.037 36 59.1111 34.2407 62.2593 31.463C62.9074 30.9074 63.463 30.2593 64.0185 29.6111H60.4074C59.9444 29.0556 59.4815 28.4074 59.1111 27.8519H65.3148C65.6852 27.2963 66.0556 26.6481 66.3333 26H58.0926C57.8148 25.4444 57.537 24.7963 57.3519 24.1481H66.9815C67.537 22.3889 67.9074 20.537 67.9074 18.5926C67.9074 17.2963 67.7222 16.0926 67.537 14.8889H56.7963C56.8889 14.2407 57.0741 13.6852 57.2593 13.037H66.8889C66.7037 12.3889 66.4259 11.7407 66.1481 11.1852H58C58.2778 10.537 58.6481 9.98148 59.0185 9.33333H65.2222C64.8519 8.68519 64.3889 8.03704 63.8333 7.48148H60.4074C60.963 6.83333 61.5185 6.27778 62.1667 5.72222C59.1111 2.85185 54.9444 1.18519 50.4074 1.18519C50.4074 1 50.4074 1 50.3148 1Z" fill="#FF5050"/>
</g>
</g>
<g id="Group_10">
<g id="Group_11">
<path id="Vector_5" d="M33 18.4994C33 28.129 40.7778 35.9994 50.5 35.9994C55.037 35.9994 59.1111 34.2401 62.2593 31.4624C62.9074 30.9068 63.463 30.2586 64.0185 29.6105H60.4074C59.9444 29.0549 59.4815 28.4068 59.1111 27.8512H65.3148C65.6852 27.2957 66.0556 26.6475 66.3333 25.9994H58.0926C57.8148 25.4438 57.537 24.7957 57.3519 24.1475H66.9815C67.537 22.3883 67.9074 20.5364 67.9074 18.592C67.9074 17.2957 67.7222 16.092 67.537 14.8883H56.7963C56.8889 14.2401 57.0741 13.6846 57.2593 13.0364H66.8889C66.7037 12.3883 66.4259 11.7401 66.1481 11.1846H58C58.2778 10.5364 58.6481 9.98087 59.0185 9.33272H65.2222C64.8519 8.68457 64.3889 8.03642 63.8333 7.48087H60.4074C60.963 6.83272 61.5185 6.27716 62.1667 5.72161C59.1111 2.85124 54.9444 1.18457 50.4074 1.18457H50.3148" fill="#E52836"/>
</g>
</g>
<g id="Group_12">
<g id="Group_13">
<path id="Vector_6" d="M50.5016 35.9994C55.0386 35.9994 59.1127 34.2401 62.2608 31.4624C62.909 30.9068 63.4646 30.2586 64.0201 29.6105H60.409C59.946 29.0549 59.4831 28.4068 59.1127 27.8512H65.3164C65.6868 27.2957 66.0571 26.6475 66.3349 25.9994H58.0942C57.8164 25.4438 57.5386 24.7957 57.3534 24.1475H66.9831C67.5386 22.3883 67.909 20.5364 67.909 18.592C67.909 17.2957 67.7238 16.092 67.5386 14.8883H56.7979C56.8905 14.2401 57.0757 13.6846 57.2609 13.0364H66.8905C66.7053 12.3883 66.4275 11.7401 66.1497 11.1846H58.0016C58.2794 10.5364 58.6497 9.98087 59.0201 9.33272H65.2238C64.8534 8.68457 64.3905 8.03642 63.8349 7.48087H60.409C60.9646 6.83272 61.5201 6.27716 62.1683 5.72161C59.1127 2.85124 54.946 1.18457 50.409 1.18457H50.3164" fill="#CB2026"/>
</g>
</g>
<g id="Group_14">
<g id="Group_15">
<g id="Group_16">
<path id="Vector_7" d="M56.7047 22.946L56.9825 21.3719C56.8899 21.3719 56.7047 21.4645 56.5195 21.4645C55.8714 21.4645 55.7788 21.0941 55.8714 20.909L56.4269 17.6682H57.4455L57.7232 15.909H56.7973L56.9825 14.7979H55.1306C55.1306 14.7979 54.0195 20.909 54.0195 21.6497C54.0195 22.7608 54.6677 23.2238 55.501 23.2238C56.0566 23.2238 56.5195 23.0386 56.7047 22.946Z" fill="white"/>
</g>
</g>
<g id="Group_17">
<g id="Group_18">
<path id="Vector_8" d="M57.3555 19.9821C57.3555 22.5747 59.1147 23.2228 60.5962 23.2228C61.9851 23.2228 62.5407 22.9451 62.5407 22.9451L62.911 21.1858C62.911 21.1858 61.8925 21.6488 60.9666 21.6488C58.9295 21.6488 59.2999 20.1673 59.2999 20.1673H63.0962C63.0962 20.1673 63.374 18.9636 63.374 18.5006C63.374 17.2969 62.7258 15.8154 60.6888 15.8154C58.7444 15.6302 57.3555 17.6673 57.3555 19.9821ZM60.5962 17.2969C61.6147 17.2969 61.4295 18.5006 61.4295 18.5932H59.3925C59.3925 18.5006 59.5777 17.2969 60.5962 17.2969Z" fill="white"/>
</g>
</g>
<g id="Group_19">
<g id="Group_20">
<path id="Vector_9" d="M72.3504 22.9444L72.7208 20.9073C72.7208 20.9073 71.7949 21.3703 71.1467 21.3703C69.8504 21.3703 69.2949 20.3518 69.2949 19.2407C69.2949 17.0184 70.406 15.8147 71.7023 15.8147C72.6282 15.8147 73.3689 16.3703 73.3689 16.3703L73.6467 14.4259C73.6467 14.4259 72.5356 13.9629 71.5171 13.9629C69.3874 13.9629 67.2578 15.8147 67.2578 19.3333C67.2578 21.6481 68.3689 23.2221 70.5911 23.2221C71.3319 23.2221 72.3504 22.9444 72.3504 22.9444Z" fill="white"/>
</g>
</g>
<g id="Group_21">
<g id="Group_22">
<path id="Vector_10" d="M46.5205 15.6289C45.2242 15.6289 44.2982 15.9993 44.2982 15.9993L44.0205 17.5734C44.0205 17.5734 44.8538 17.203 46.0575 17.203C46.7057 17.203 47.2612 17.2956 47.2612 17.8511C47.2612 18.2215 47.1686 18.3141 47.1686 18.3141C47.1686 18.3141 46.6131 18.3141 46.3353 18.3141C44.7612 18.3141 43.002 18.9622 43.002 21.0919C43.002 22.7585 44.1131 23.1289 44.7612 23.1289C46.0575 23.1289 46.6131 22.2956 46.7057 22.2956L46.6131 23.0363H48.2797L49.0205 17.9437C49.0205 15.7215 47.1686 15.6289 46.5205 15.6289ZM46.8908 19.7956C46.8908 20.0734 46.7057 21.5548 45.5945 21.5548C45.039 21.5548 44.8538 21.0919 44.8538 20.8141C44.8538 20.3511 45.1316 19.703 46.5205 19.703C46.7982 19.7956 46.8908 19.7956 46.8908 19.7956Z" fill="white"/>
</g>
</g>
<g id="Group_23">
<g id="Group_24">
<path id="Vector_11" d="M50.7781 23.1297C51.241 23.1297 53.5558 23.2223 53.5558 20.7223C53.5558 18.4075 51.3336 18.8704 51.3336 17.9445C51.3336 17.4816 51.704 17.2964 52.3521 17.2964C52.6299 17.2964 53.6484 17.389 53.6484 17.389L53.9262 15.7223C53.9262 15.7223 53.2781 15.5371 52.167 15.5371C50.7781 15.5371 49.3892 16.0927 49.3892 17.9445C49.3892 20.0741 51.704 19.889 51.704 20.7223C51.704 21.2779 51.0558 21.3704 50.5929 21.3704C49.7595 21.3704 48.9262 21.0927 48.9262 21.0927L48.6484 22.7593C48.741 22.9445 49.204 23.1297 50.7781 23.1297Z" fill="white"/>
</g>
</g>
<g id="Group_25">
<g id="Group_26">
<path id="Vector_12" d="M87.725 14.1484L87.3547 16.6484C87.3547 16.6484 86.6139 15.7225 85.5954 15.7225C83.9287 15.7225 82.4473 17.7595 82.4473 20.167C82.4473 21.6484 83.188 23.2225 84.7621 23.2225C85.8732 23.2225 86.5213 22.4818 86.5213 22.4818L86.4287 23.1299H88.2806L89.6695 14.241L87.725 14.1484ZM86.8917 19.0558C86.8917 20.0744 86.4287 21.3707 85.4102 21.3707C84.7621 21.3707 84.3917 20.8151 84.3917 19.8892C84.3917 18.4077 85.0399 17.4818 85.8732 17.4818C86.5213 17.4818 86.8917 17.9447 86.8917 19.0558Z" fill="white"/>
</g>
</g>
<g id="Group_27">
<g id="Group_28">
<path id="Vector_13" d="M36.4292 23.0373L37.5403 16.3707L37.7255 23.0373H39.0218L41.4292 16.3707L40.4107 23.0373H42.3551L43.8366 14.1484H40.781L38.9292 19.6114L38.8366 14.1484H36.1514L34.6699 23.0373H36.4292Z" fill="white"/>
</g>
</g>
<g id="Group_29">
<g id="Group_30">
<path id="Vector_14" d="M65.1327 23.0357C65.6883 19.9801 65.7809 17.4801 67.0772 17.9431C67.2624 16.7394 67.5401 16.2764 67.7253 15.8135C67.7253 15.8135 67.6327 15.8135 67.355 15.8135C66.5216 15.8135 65.8735 16.9246 65.8735 16.9246L66.0587 15.9061H64.2994L63.0957 23.1283H65.1327V23.0357Z" fill="white"/>
</g>
</g>
<g id="Group_31">
<g id="Group_32">
<path id="Vector_15" d="M76.6162 15.6289C75.3199 15.6289 74.394 15.9993 74.394 15.9993L74.1162 17.5734C74.1162 17.5734 74.9495 17.203 76.1532 17.203C76.8014 17.203 77.3569 17.2956 77.3569 17.8511C77.3569 18.2215 77.2643 18.3141 77.2643 18.3141C77.2643 18.3141 76.7088 18.3141 76.431 18.3141C74.8569 18.3141 73.0977 18.9622 73.0977 21.0919C73.0977 22.7585 74.2088 23.1289 74.8569 23.1289C76.1532 23.1289 76.7088 22.2956 76.8014 22.2956L76.7088 23.0363H78.3754L79.1162 17.9437C79.2088 15.7215 77.2643 15.6289 76.6162 15.6289ZM77.0791 19.7956C77.0791 20.0734 76.894 21.5548 75.7828 21.5548C75.2273 21.5548 75.0421 21.0919 75.0421 20.8141C75.0421 20.3511 75.3199 19.703 76.7088 19.703C76.9865 19.7956 76.9865 19.7956 77.0791 19.7956Z" fill="white"/>
</g>
</g>
<g id="Group_33">
<g id="Group_34">
<path id="Vector_16" d="M80.6874 23.0367C81.243 19.9811 81.3356 17.4811 82.6319 17.9441C82.8171 16.7404 83.0948 16.2774 83.28 15.8145C83.28 15.8145 83.1874 15.8145 82.9097 15.8145C82.0763 15.8145 81.4282 16.9256 81.4282 16.9256L81.6134 15.907H79.8541L78.6504 23.1293H80.6874V23.0367Z" fill="white"/>
</g>
</g>
</g>
<g id="Group_35">
<g id="Group_36">
<g id="Group_37">
<path id="Vector_17" d="M53.8359 21.6497C53.8359 22.7608 54.4841 23.2238 55.3174 23.2238C55.9656 23.2238 56.5211 23.0386 56.7063 22.946L56.9841 21.3719C56.8915 21.3719 56.7063 21.4645 56.5211 21.4645C55.873 21.4645 55.7804 21.0941 55.873 20.909L56.4285 17.6682H57.447L57.7248 15.909H56.7989L56.9841 14.7979" fill="#DCE5E5"/>
</g>
</g>
<g id="Group_38">
<g id="Group_39">
<path id="Vector_18" d="M58.2812 19.9821C58.2812 22.5747 59.1146 23.2228 60.5961 23.2228C61.985 23.2228 62.5405 22.9451 62.5405 22.9451L62.9109 21.1858C62.9109 21.1858 61.8924 21.6488 60.9664 21.6488C58.9294 21.6488 59.2998 20.1673 59.2998 20.1673H63.0961C63.0961 20.1673 63.3738 18.9636 63.3738 18.5006C63.3738 17.2969 62.7257 15.8154 60.6887 15.8154C58.7442 15.6302 58.2812 17.6673 58.2812 19.9821ZM60.5961 17.2969C61.6146 17.2969 61.7998 18.5006 61.7998 18.5932H59.3924C59.3924 18.5006 59.5775 17.2969 60.5961 17.2969Z" fill="#DCE5E5"/>
</g>
</g>
<g id="Group_40">
<g id="Group_41">
<path id="Vector_19" d="M72.3503 22.9444L72.7206 20.9073C72.7206 20.9073 71.7947 21.3703 71.1466 21.3703C69.8503 21.3703 69.2947 20.3518 69.2947 19.2407C69.2947 17.0184 70.4058 15.8147 71.7021 15.8147C72.628 15.8147 73.3688 16.3703 73.3688 16.3703L73.6466 14.4259C73.6466 14.4259 72.5354 13.9629 71.5169 13.9629C69.3873 13.9629 68.1836 15.8147 68.1836 19.3333C68.1836 21.6481 68.3688 23.2221 70.591 23.2221C71.3317 23.2221 72.3503 22.9444 72.3503 22.9444Z" fill="#DCE5E5"/>
</g>
</g>
<g id="Group_42">
<g id="Group_43">
<path id="Vector_20" d="M44.0205 17.6653C44.0205 17.6653 44.8538 17.295 46.0575 17.295C46.7057 17.295 47.2612 17.3876 47.2612 17.9431C47.2612 18.3135 47.1686 18.4061 47.1686 18.4061C47.1686 18.4061 46.6131 18.4061 46.3353 18.4061C44.7612 18.4061 43.002 19.0542 43.002 21.1838C43.002 22.8505 44.1131 23.2209 44.7612 23.2209C46.0575 23.2209 46.6131 22.3876 46.7057 22.3876L46.6131 23.1283H48.2797L49.0205 18.0357C49.0205 15.9061 47.1686 15.8135 46.4279 15.8135M47.8168 19.795C47.8168 20.0727 46.7057 21.5542 45.5945 21.5542C45.039 21.5542 44.8538 21.0913 44.8538 20.8135C44.8538 20.3505 45.1316 19.7024 46.5205 19.7024C46.7982 19.795 47.8168 19.795 47.8168 19.795Z" fill="#DCE5E5"/>
</g>
</g>
<g id="Group_44">
<g id="Group_45">
<path id="Vector_21" d="M48.7422 22.9445C48.7422 22.9445 49.2977 23.1297 50.8718 23.1297C51.3348 23.1297 53.6496 23.2223 53.6496 20.7223C53.6496 18.4075 51.4274 18.8704 51.4274 17.9445C51.4274 17.4816 51.7977 17.2964 52.4459 17.2964C52.7237 17.2964 53.7422 17.389 53.7422 17.389L54.02 15.7223C54.02 15.7223 53.3718 15.5371 52.2607 15.5371C50.8718 15.5371 50.4089 16.0927 50.4089 17.9445C50.4089 20.0741 51.7977 19.889 51.7977 20.7223C51.7977 21.2779 51.1496 21.3704 50.6866 21.3704" fill="#DCE5E5"/>
</g>
</g>
<g id="Group_46">
<g id="Group_47">
<path id="Vector_22" d="M87.3515 16.6467C87.3515 16.6467 86.6107 15.7207 85.5922 15.7207C83.9256 15.7207 83.37 17.7578 83.37 20.1652C83.37 21.6467 83.1848 23.2207 84.7589 23.2207C85.87 23.2207 86.5181 22.48 86.5181 22.48L86.4256 23.1281H88.2774L89.6663 14.2393M87.2589 19.0541C87.2589 20.0726 86.4256 21.3689 85.407 21.3689C84.7589 21.3689 84.3885 20.8133 84.3885 19.8874C84.3885 18.4059 85.0367 17.48 85.87 17.48C86.5181 17.48 87.2589 17.943 87.2589 19.0541Z" fill="#DCE5E5"/>
</g>
</g>
<g id="Group_48">
<g id="Group_49">
<path id="Vector_23" d="M36.4292 23.0373L37.5403 16.3707L37.7255 23.0373H39.0218L41.4292 16.3707L40.4107 23.0373H42.3551L43.8366 14.1484H41.5218L38.9292 19.6114L38.8366 14.1484H37.8181L34.6699 23.0373H36.4292Z" fill="#DCE5E5"/>
</g>
</g>
<g id="Group_50">
<g id="Group_51">
<path id="Vector_24" d="M63.1875 23.0357H65.1319C65.6875 19.9801 65.7801 17.4801 67.0764 17.9431C67.2616 16.7394 67.5394 16.2764 67.7245 15.8135C67.7245 15.8135 67.6319 15.8135 67.3542 15.8135C66.5208 15.8135 65.8727 16.9246 65.8727 16.9246L66.0579 15.9061" fill="#DCE5E5"/>
</g>
</g>
<g id="Group_52">
<g id="Group_53">
<path id="Vector_25" d="M74.1162 17.6653C74.1162 17.6653 74.9495 17.295 76.1532 17.295C76.8014 17.295 77.3569 17.3876 77.3569 17.9431C77.3569 18.3135 77.2643 18.4061 77.2643 18.4061C77.2643 18.4061 76.7088 18.4061 76.431 18.4061C74.8569 18.4061 73.0977 19.0542 73.0977 21.1838C73.0977 22.8505 74.2088 23.2209 74.8569 23.2209C76.1532 23.2209 76.7088 22.3876 76.8014 22.3876L76.7088 23.1283H78.3754L79.1162 18.0357C79.1162 15.9061 77.2643 15.8135 76.5236 15.8135M77.9125 19.795C77.9125 20.0727 76.8014 21.5542 75.6902 21.5542C75.1347 21.5542 74.9495 21.0913 74.9495 20.8135C74.9495 20.3505 75.2273 19.7024 76.6162 19.7024C76.9865 19.795 77.9125 19.795 77.9125 19.795Z" fill="#DCE5E5"/>
</g>
</g>
<g id="Group_54">
<g id="Group_55">
<path id="Vector_26" d="M78.7383 23.0357H80.6827C81.2383 19.9801 81.3309 17.4801 82.6272 17.9431C82.8124 16.7394 83.0901 16.2764 83.2753 15.8135C83.2753 15.8135 83.1827 15.8135 82.9049 15.8135C82.0716 15.8135 81.4235 16.9246 81.4235 16.9246L81.6087 15.9061" fill="#DCE5E5"/>
</g>
</g>
</g>
</g>
</g>
</svg>
