<svg width="24" height="24" viewBox="0 0 24 24" fill="none" xmlns="http://www.w3.org/2000/svg">
<g clip-path="url(#clip0_345_11059)">
<path d="M22.6667 19.5C23.0065 19.5004 23.3334 19.6223 23.5805 19.8411C23.8276 20.0598 23.9763 20.3587 23.9962 20.6767C24.0161 20.9948 23.9058 21.308 23.6876 21.5523C23.4695 21.7966 23.1601 21.9536 22.8227 21.9912L22.6667 22H1.33333C0.993494 21.9996 0.666624 21.8777 0.419509 21.6589C0.172394 21.4402 0.0236867 21.1413 0.00377051 20.8233C-0.0161457 20.5052 0.0942328 20.192 0.312353 19.9477C0.530474 19.7034 0.839872 19.5464 1.17733 19.5088L1.33333 19.5H22.6667ZM22.6667 10.75C23.0203 10.75 23.3594 10.8817 23.6095 11.1161C23.8595 11.3505 24 11.6685 24 12C24 12.3315 23.8595 12.6495 23.6095 12.8839C23.3594 13.1183 23.0203 13.25 22.6667 13.25H1.33333C0.979711 13.25 0.640573 13.1183 0.390524 12.8839C0.140476 12.6495 0 12.3315 0 12C0 11.6685 0.140476 11.3505 0.390524 11.1161C0.640573 10.8817 0.979711 10.75 1.33333 10.75H22.6667ZM22.6667 2C23.0203 2 23.3594 2.1317 23.6095 2.36612C23.8595 2.60054 24 2.91848 24 3.25C24 3.58152 23.8595 3.89946 23.6095 4.13388C23.3594 4.3683 23.0203 4.5 22.6667 4.5H1.33333C0.979711 4.5 0.640573 4.3683 0.390524 4.13388C0.140476 3.89946 0 3.58152 0 3.25C0 2.91848 0.140476 2.60054 0.390524 2.36612C0.640573 2.1317 0.979711 2 1.33333 2H22.6667Z" fill="#2C2C35"/>
</g>
<defs>
<clipPath id="clip0_345_11059">
<rect width="24" height="24" fill="white"/>
</clipPath>
</defs>
</svg>
