<svg width="78" height="21" viewBox="0 0 78 21" fill="none" xmlns="http://www.w3.org/2000/svg">
<g id="Frame 5822">
<path id="Vector" d="M0 0.00341741H7.31761C7.98285 0.00341741 9.97856 -0.215297 10.8655 2.8467C11.5308 4.81513 12.4178 7.87714 13.7482 12.4701H14.1917C15.5222 7.65842 16.6309 4.37771 17.0744 2.8467C17.9614 -0.215297 20.1789 0.00341741 21.0659 0.00341741H27.94V21H20.8441V8.53328H20.4006L16.6309 21H11.309L7.53936 8.53328H6.87412V21H0M30.8227 0.00341741H37.9185V12.4701H38.5838L43.2404 2.19056C44.1274 0.222132 46.1231 0.00341741 46.1231 0.00341741H52.7755V21H45.6796V8.53328H45.2362L40.5795 18.8129C39.6925 20.7813 37.4751 21 37.4751 21H30.8227M62.3106 14.6573V21H55.6582V10.0643H77.3893C76.5023 12.6889 73.3979 14.6573 69.85 14.6573" fill="#0F754E"/>
<path id="Vector_2" d="M77.8329 8.7515C78.7199 4.81465 76.059 0.00292969 70.2936 0.00292969H55.2148C55.6583 4.59593 59.6498 8.7515 63.8629 8.7515" fill="url(#paint0_linear_865_18451)"/>
</g>
<defs>
<linearGradient id="paint0_linear_865_18451" x1="75.172" y1="-2.84036" x2="57.4323" y2="-2.84036" gradientUnits="userSpaceOnUse">
<stop stop-color="#1F5CD7"/>
<stop offset="1" stop-color="#02AEFF"/>
</linearGradient>
</defs>
</svg>
