<svg width="22" height="22" viewBox="0 0 22 22" fill="none" xmlns="http://www.w3.org/2000/svg">
<g id="opera">
<g id="Group 4650">
<path id="Vector" d="M20.9999 10.9998C20.9999 13.962 19.7113 16.623 17.6649 18.4539C15.1002 19.7037 12.7095 18.8288 11.918 18.283C14.4375 17.73 16.341 14.6839 16.341 10.9993C16.341 7.31462 14.438 4.26928 11.918 3.71603C12.709 3.17049 15.0997 2.2956 17.6649 3.54513C19.7118 5.37602 20.9999 8.03702 20.9999 10.9998Z" fill="#2C2C35"/>
<path id="Vector_2" d="M7.70845 5.36478C6.60293 6.66978 5.88674 8.59943 5.83773 10.7647V11.2358C5.88649 13.401 6.60293 15.3304 7.70845 16.6357C9.14307 18.4989 11.2757 19.6798 13.6572 19.6798C15.1219 19.6798 16.4923 19.2328 17.6648 18.4554C15.8956 20.0375 13.5601 21.0002 11.0004 21.0002C10.8404 21.0002 10.6819 20.9962 10.524 20.989C5.22204 20.74 1 16.363 1 11.0002C1 5.47697 5.47727 1 11.0004 1L11.0377 1.0005C13.5838 1.00995 15.9048 1.97067 17.6653 3.54533C16.4931 2.7682 15.1224 2.32093 13.6572 2.32093C11.2757 2.32093 9.14307 3.50255 7.70845 5.36527V5.36478Z" fill="#2C2C35"/>
</g>
</g>
</svg>
