<svg width="32" height="32" viewBox="0 0 32 32" fill="none" xmlns="http://www.w3.org/2000/svg">
<path d="M30.5455 15.9999C30.5455 20.3087 28.6712 24.1792 25.6947 26.8423C21.9641 28.6602 18.4868 27.3876 17.3354 26.5938C21.0002 25.7894 23.769 21.3587 23.769 15.9992C23.769 10.6397 21.0009 6.21012 17.3354 5.4054C18.4861 4.61189 21.9634 3.33932 25.6947 5.15682C28.6719 7.81993 30.5455 11.6905 30.5455 15.9999Z" fill="#CED1D7"/>
<path d="M11.2123 7.80287C9.60431 9.70106 8.56258 12.5078 8.49129 15.6572V16.3425C8.56221 19.492 9.60431 22.2984 11.2123 24.1969C13.2991 26.9071 16.4011 28.6247 19.865 28.6247C21.9955 28.6247 23.9889 27.9745 25.6943 26.8437C23.1208 29.145 19.7239 30.5453 16.0006 30.5453C15.7679 30.5453 15.5374 30.5395 15.3076 30.529C7.59574 30.1668 1.45459 23.8003 1.45459 15.9999C1.45459 7.96606 7.96699 1.4541 16.0006 1.4541L16.0548 1.45483C19.7583 1.46857 23.1342 2.86598 25.695 5.1564C23.99 4.02603 21.9963 3.37545 19.865 3.37545C16.4011 3.37545 13.2991 5.09417 11.2123 7.80359V7.80287Z" fill="#CED1D7"/>
</svg>
