<svg width="22" height="22" viewBox="0 0 22 22" fill="none" xmlns="http://www.w3.org/2000/svg">
<g id="Opera_GX_Icon 1">
<g id="Group 4653">
<path id="Vector" d="M17.0573 17.8164C15.9916 18.5196 14.7733 18.8923 13.5308 18.8923C11.4969 18.8923 9.56852 17.8972 8.23998 16.1623C8.23524 16.1564 8.23074 16.1509 8.226 16.1449C7.20704 14.9355 6.59849 13.1587 6.55654 11.2809L6.5563 10.8404C6.59848 8.95156 7.20701 7.1749 8.23974 5.94821C9.56845 4.21333 11.4971 3.21828 13.5309 3.21828C14.7736 3.21828 15.9921 3.59095 17.0584 4.29456C18.961 6.01943 20.0523 8.48108 20.0523 11.0554C20.0523 13.63 18.9608 16.0918 17.0577 17.8166M10.5687 20.1465C5.73492 19.9184 1.94814 15.9252 1.94814 11.0553C1.94814 6.0366 6.00883 1.95332 11.0091 1.95332C11.0112 1.95332 11.0318 1.95356 11.0342 1.95356C11.8259 1.95642 12.6065 2.06341 13.3582 2.26713C11.0923 2.32146 8.9617 3.44397 7.50281 5.34946C6.34616 6.72217 5.65586 8.71581 5.60893 10.8294V11.2914C5.65585 13.3897 6.34331 15.3796 7.49568 16.7526C8.96774 18.6697 11.0961 19.7889 13.3587 19.8433C12.4592 20.0872 11.5046 20.1911 10.5683 20.1463M17.665 3.5598C15.8408 1.91856 13.4872 1.00979 11.0272 1.00048C11.0241 1.00024 11.003 1 11.0002 1C5.48615 1 1 5.51083 1 11.0551C1 16.4349 5.18339 20.8467 10.5246 21.0984C10.6822 21.1057 10.8408 21.1098 11.0002 21.1098C13.4619 21.1098 15.8281 20.2017 17.662 18.5524L17.6642 18.551C19.7841 16.6443 21 13.9122 21 11.0549C21 8.198 19.7844 5.46605 17.665 3.5598Z" fill="#2C2C35"/>
<path id="Vector_2" d="M12.8328 4.72168C14.6168 5.8736 15.8451 8.28217 15.8451 11.0685C15.8451 13.8549 14.6168 16.2638 12.8328 17.4154C15.11 17.2257 16.9171 14.457 16.9171 11.0685C16.9171 7.68005 15.1099 4.91147 12.8328 4.72168Z" fill="#2C2C35"/>
</g>
</g>
</svg>
