<svg width="257" height="32" viewBox="0 0 257 32" fill="none" xmlns="http://www.w3.org/2000/svg">
<g clip-path="url(#clip0_4217_111970)">
<path fill-rule="evenodd" clip-rule="evenodd" d="M32.0009 16.2222C32.0009 13.9467 30.8987 12.1511 28.792 12.1511C26.6765 12.1511 25.3965 13.9467 25.3965 16.2045C25.3965 18.88 26.9076 20.2311 29.0765 20.2311C30.1342 20.2311 30.9343 19.9911 31.5387 19.6533V17.8755C30.9342 18.1778 30.2409 18.3644 29.3609 18.3644C28.4987 18.3644 27.7342 18.0622 27.6365 17.0133H31.9831C31.9832 16.8978 32.0009 16.4355 32.0009 16.2222ZM27.6098 15.3777C27.6098 14.3733 28.2232 13.9555 28.7832 13.9555C29.3254 13.9555 29.9032 14.3733 29.9032 15.3777H27.6098Z" fill="#CED1D7"/>
<path fill-rule="evenodd" clip-rule="evenodd" d="M21.9637 12.1511C21.0927 12.1511 20.5326 12.56 20.2215 12.8445L20.1059 12.2934H18.1504V22.6578L20.3726 22.1867L20.3815 19.6712C20.7015 19.9023 21.1726 20.2312 21.9548 20.2312C23.5459 20.2312 24.9948 18.9512 24.9948 16.1334C24.986 13.5556 23.5193 12.1511 21.9637 12.1511ZM21.4304 18.2756C20.9059 18.2756 20.5949 18.0889 20.3815 17.8578L20.3726 14.56C20.6037 14.3022 20.9237 14.1244 21.4304 14.1244C22.2393 14.1244 22.7993 15.0311 22.7993 16.1955C22.7993 17.3867 22.2482 18.2756 21.4304 18.2756Z" fill="#CED1D7"/>
<path fill-rule="evenodd" clip-rule="evenodd" d="M15.0938 11.6267L17.3248 11.1467V9.34229L15.0938 9.81339V11.6267Z" fill="#CED1D7"/>
<path d="M17.3248 12.3022H15.0938V20.08H17.3248V12.3022Z" fill="#CED1D7"/>
<path fill-rule="evenodd" clip-rule="evenodd" d="M12.7029 12.96L12.5606 12.3022H10.6406V20.0799H12.8629V14.8088C13.3873 14.1244 14.2762 14.2488 14.5517 14.3466V12.3022C14.2673 12.1956 13.2273 12 12.7029 12.96Z" fill="#CED1D7"/>
<path fill-rule="evenodd" clip-rule="evenodd" d="M8.25787 10.3734L6.08895 10.8356L6.08008 17.9556C6.08008 19.2712 7.06673 20.2401 8.3823 20.2401C9.11121 20.2401 9.6445 20.1067 9.93787 19.9467V18.1423C9.65344 18.2579 8.24899 18.6667 8.24899 17.3512V14.1956H9.93787V12.3023H8.24899L8.25787 10.3734Z" fill="#CED1D7"/>
<path fill-rule="evenodd" clip-rule="evenodd" d="M2.24891 14.56C2.24891 14.2133 2.53334 14.08 3.00445 14.08C3.67998 14.08 4.53332 14.2844 5.20892 14.6489V12.56C4.47114 12.2667 3.74223 12.1511 3.00445 12.1511C1.20002 12.1511 0 13.0933 0 14.6666C0 17.12 3.37781 16.7289 3.37781 17.7867C3.37781 18.1956 3.02226 18.3289 2.52446 18.3289C1.78668 18.3289 0.844467 18.0266 0.0978087 17.6178V19.7333C0.924464 20.0889 1.76006 20.24 2.52446 20.24C4.37333 20.24 5.64447 19.3244 5.64447 17.7333C5.63559 15.0844 2.24891 15.5556 2.24891 14.56Z" fill="#CED1D7"/>
</g>
<path d="M57.3908 11.1759L53.4638 20.847H50.9007L48.9695 13.1297C48.8506 12.6537 48.749 12.4806 48.3926 12.2785C47.8086 11.9526 46.8481 11.647 46 11.4566L46.0594 11.1759H50.1831C50.7091 11.1759 51.1819 11.538 51.3008 12.1621L52.3219 17.7596L54.844 11.1759L57.3908 11.1759ZM67.4306 17.688C67.442 15.1369 64.0103 14.9981 64.035 13.8568C64.0417 13.5084 64.3616 13.1398 65.0622 13.0467C65.4102 12.9989 66.3677 12.9639 67.4529 13.4781L67.8782 11.4282C67.2943 11.2095 66.5438 11 65.611 11C63.2151 11 61.5285 12.3152 61.5143 14.1971C61.4986 15.5887 62.7176 16.3653 63.6371 16.8287C64.5813 17.3029 64.897 17.6057 64.8937 18.031C64.8875 18.6801 64.1403 18.9638 63.4434 18.9766C62.2244 18.9962 61.5173 18.6366 60.9527 18.3652L60.5138 20.4856C61.0794 20.7536 62.1266 20.9863 63.2103 21C65.7568 20.9999 67.4226 19.6987 67.4306 17.688ZM73.7575 20.8471H76L74.0433 11.1759H71.9731C71.5079 11.1759 71.1157 11.4559 70.941 11.8848L67.3057 20.8471H69.8502L70.3553 19.4027H73.4655L73.7575 20.8471ZM71.0526 17.4205L72.3291 13.7891L73.0635 17.4205H71.0526ZM60.855 11.1759L58.8493 20.847H56.4248L58.4309 11.1759H60.855Z" fill="#CED1D7"/>
<path d="M91 12.0013H93.8145C94.0704 12.0013 94.838 11.916 95.1791 13.1101C95.435 13.8777 95.7762 15.0717 96.2879 16.8628H96.4585C96.9702 14.9864 97.3966 13.7071 97.5672 13.1101C97.9084 11.916 98.7613 12.0013 99.1024 12.0013H101.746V20.189H99.0171V15.3276H98.8466L97.3966 20.189H95.3497L93.8998 15.3276H93.6439V20.189H91M102.855 12.0013H105.584V16.8628H105.84L107.631 12.8542C107.972 12.0866 108.74 12.0013 108.74 12.0013H111.299V20.189H108.569V15.3276H108.399L106.608 19.3362C106.267 20.1038 105.414 20.189 105.414 20.189H102.855M114.966 17.7157V20.189H112.407V15.9246H120.766C120.425 16.9481 119.231 17.7157 117.866 17.7157" fill="#CED1D7"/>
<path d="M120.936 15.4129C121.277 13.8777 120.253 12.0013 118.036 12.0013H112.236C112.407 13.7924 113.942 15.4129 115.563 15.4129" fill="#CED1D7"/>
<g clip-path="url(#clip1_4217_111970)">
<path d="M162.671 12.8526V17.0088H161.269V14.0933H159.918V17.0088H158.516V12.8523H162.671V12.8526Z" fill="#CED1D7"/>
<path fill-rule="evenodd" clip-rule="evenodd" d="M155.633 17.1574C156.889 17.1574 157.822 16.3428 157.822 15.1079C157.822 13.9127 157.134 13.1366 155.984 13.1366C155.453 13.1366 155.015 13.3342 154.686 13.6752C154.764 12.9704 155.328 12.4559 155.948 12.4559C156.091 12.4559 157.169 12.4535 157.169 12.4535L157.778 11.2197C157.778 11.2197 156.425 11.2523 155.796 11.2523C154.359 11.2788 153.389 12.6608 153.389 14.3392C153.389 16.2947 154.335 17.1574 155.633 17.1574ZM155.641 14.2294C156.107 14.2294 156.431 14.5536 156.431 15.1078C156.431 15.6066 156.143 16.0176 155.641 16.0187C155.161 16.0187 154.838 15.6379 154.838 15.1163C154.838 14.5619 155.161 14.2294 155.641 14.2294Z" fill="#CED1D7"/>
<path d="M152.248 15.6173C152.248 15.6173 151.917 15.8193 151.422 15.8576C150.854 15.8754 150.347 15.4954 150.347 14.82C150.347 14.1613 150.794 13.7837 151.408 13.7837C151.785 13.7837 152.283 14.0598 152.283 14.0598C152.283 14.0598 152.647 13.3522 152.836 12.9983C152.49 12.7211 152.03 12.5691 151.494 12.5691C150.143 12.5691 149.096 13.5015 149.096 14.8117C149.096 16.1385 150.08 17.0493 151.494 17.0218C151.89 17.0062 152.435 16.8593 152.768 16.6334L152.248 15.6173Z" fill="#CED1D7"/>
<path d="M135 11.7003L136.946 15.3801V17.6247L135.002 21.2972L135 11.7003Z" fill="#CED1D7"/>
<path d="M142.471 14.0411L144.294 12.8588L148.025 12.8551L142.471 16.4554V14.0411Z" fill="#CED1D7"/>
<path d="M142.459 11.6787L142.47 16.5506L140.52 15.2827V8L142.459 11.6787Z" fill="#CED1D7"/>
<path d="M148.024 12.8551L144.293 12.8587L142.459 11.6787L140.52 8L148.024 12.8551Z" fill="#CED1D7"/>
<path d="M142.47 21.3176V18.9539L140.52 17.7101L140.521 25L142.47 21.3176Z" fill="#CED1D7"/>
<path d="M144.289 20.1461L136.946 15.3801L135 11.7003L148.017 20.1412L144.289 20.1461Z" fill="#CED1D7"/>
<path d="M140.521 25L142.47 21.3176L144.289 20.1461L148.017 20.1412L140.521 25Z" fill="#CED1D7"/>
<path d="M135.002 21.2973L140.536 17.7103L138.676 16.5024L136.945 17.6247L135.002 21.2973Z" fill="#CED1D7"/>
<path d="M150.347 19.806C150.304 19.8638 150.247 19.9074 150.18 19.9369C150.11 19.9668 150.036 19.982 149.961 19.9817C149.887 19.9827 149.813 19.9696 149.743 19.9428C149.68 19.9186 149.622 19.8809 149.574 19.8321C149.526 19.7831 149.488 19.724 149.463 19.6587C149.436 19.5871 149.423 19.5106 149.424 19.4335C149.424 19.357 149.436 19.2862 149.462 19.2191C149.487 19.1518 149.523 19.0941 149.568 19.0457C149.613 18.9962 149.667 18.9585 149.728 18.9291C149.79 18.9007 149.858 18.8854 149.932 18.8854C150.012 18.8854 150.086 18.8961 150.154 18.9172C150.222 18.9384 150.279 18.9738 150.326 19.0234L150.244 19.1708C150.204 19.1326 150.157 19.1037 150.107 19.0858C150.058 19.0693 150.008 19.0609 149.957 19.0611C149.912 19.0611 149.869 19.0705 149.827 19.0882C149.786 19.1057 149.749 19.1313 149.717 19.1637C149.684 19.197 149.658 19.2371 149.641 19.2815C149.622 19.3274 149.613 19.3782 149.613 19.4347C149.613 19.4925 149.623 19.5443 149.642 19.5891C149.662 19.6351 149.687 19.6741 149.72 19.707C149.753 19.7401 149.791 19.7648 149.835 19.7813C149.879 19.799 149.925 19.8073 149.975 19.8073C150.036 19.8073 150.091 19.7942 150.138 19.7694C150.185 19.7455 150.227 19.7123 150.262 19.6717L150.347 19.806ZM150.579 19.9569V18.9078H150.757V19.6894L151.336 18.9078H151.514V19.957H151.336V19.1754L150.757 19.957L150.579 19.9569ZM152.693 19.806C152.65 19.8643 152.592 19.9094 152.527 19.9369C152.457 19.9668 152.383 19.982 152.308 19.9817C152.234 19.9827 152.16 19.9696 152.09 19.9428C152.027 19.9187 151.969 19.8809 151.921 19.8321C151.873 19.7831 151.835 19.724 151.81 19.6587C151.783 19.5871 151.77 19.5106 151.771 19.4335C151.771 19.357 151.783 19.2862 151.809 19.2191C151.834 19.1518 151.87 19.0941 151.915 19.0457C151.96 18.9962 152.014 18.9585 152.075 18.9291C152.139 18.8992 152.209 18.8843 152.279 18.8854C152.359 18.8854 152.433 18.8961 152.501 18.9172C152.568 18.9384 152.626 18.9738 152.673 19.0234L152.591 19.1708C152.551 19.1326 152.504 19.1037 152.454 19.0858C152.405 19.0693 152.355 19.0609 152.304 19.0611C152.214 19.0614 152.128 19.0981 152.064 19.1637C152.031 19.1972 152.006 19.2373 151.988 19.2815C151.969 19.3274 151.96 19.3782 151.96 19.4347C151.96 19.4925 151.97 19.5443 151.989 19.5891C152.008 19.6351 152.034 19.6741 152.067 19.707C152.1 19.7401 152.138 19.7648 152.182 19.7813C152.226 19.7978 152.272 19.8073 152.322 19.8073C152.383 19.8073 152.437 19.7942 152.485 19.7694C152.532 19.7455 152.574 19.7123 152.609 19.6717L152.693 19.806ZM152.785 18.9078H153.698V19.0941H153.331V19.9569H153.153V19.0941H152.786V18.9078H152.785Z" fill="#CED1D7"/>
<path fill-rule="evenodd" clip-rule="evenodd" d="M154.53 19.9465C154.598 19.9241 154.655 19.8898 154.705 19.8428L154.651 19.6966C154.618 19.7273 154.574 19.7532 154.521 19.7745C154.468 19.7957 154.408 19.8062 154.343 19.8062C154.245 19.8062 154.164 19.7792 154.1 19.7238C154.036 19.6682 154.001 19.5906 153.993 19.4914H154.763C154.771 19.4549 154.775 19.4137 154.775 19.3654C154.775 19.2934 154.762 19.2287 154.737 19.1697C154.714 19.1125 154.681 19.0608 154.638 19.0176C154.595 18.9748 154.545 18.9416 154.49 18.9198C154.432 18.8961 154.37 18.8841 154.308 18.8844C154.225 18.8844 154.151 18.8997 154.087 18.928C154.027 18.955 153.972 18.9947 153.926 19.0448C153.882 19.0945 153.848 19.1535 153.826 19.218C153.802 19.2867 153.79 19.3594 153.791 19.4325C153.791 19.5151 153.805 19.5905 153.829 19.6578C153.853 19.723 153.89 19.782 153.938 19.831C153.984 19.8792 154.04 19.9159 154.106 19.9418C154.178 19.9685 154.253 19.9817 154.328 19.9806C154.397 19.9802 154.465 19.9686 154.53 19.9465ZM154.079 19.139C154.135 19.086 154.208 19.0601 154.3 19.0601C154.387 19.0601 154.457 19.0849 154.508 19.1344C154.558 19.1839 154.585 19.2523 154.59 19.3394H153.981C153.99 19.2623 154.025 19.191 154.079 19.139Z" fill="#CED1D7"/>
<path d="M155.016 18.9078H155.178L155.563 19.4278L155.928 18.9078H156.086V19.957H155.908V19.192L155.561 19.6788H155.554L155.194 19.1919V19.9569H155.016V18.9078Z" fill="#CED1D7"/>
<path fill-rule="evenodd" clip-rule="evenodd" d="M156.571 18.9114C156.517 18.9263 156.465 18.9497 156.418 18.9808L156.465 19.1295C156.505 19.1083 156.546 19.0906 156.587 19.0753C156.627 19.0598 156.679 19.0527 156.741 19.0527C156.791 19.0527 156.83 19.0611 156.86 19.0775C156.891 19.0928 156.913 19.1165 156.929 19.1448C156.945 19.1732 156.955 19.2084 156.961 19.2497C156.966 19.2909 156.969 19.3357 156.969 19.3841C156.932 19.3572 156.891 19.3391 156.847 19.331C156.805 19.3221 156.762 19.3173 156.719 19.3168C156.665 19.3168 156.616 19.3252 156.569 19.3392C156.521 19.3534 156.481 19.3746 156.448 19.4029C156.415 19.4312 156.388 19.4671 156.369 19.5078C156.349 19.5524 156.339 19.6012 156.34 19.6504C156.34 19.753 156.368 19.8332 156.424 19.8899C156.481 19.9464 156.555 19.9746 156.647 19.9746C156.731 19.9746 156.797 19.9593 156.848 19.9287C156.899 19.8979 156.939 19.8627 156.969 19.8226V19.9581H157.135V19.3145C157.135 19.1777 157.107 19.0717 157.05 18.9974C156.993 18.9231 156.893 18.8854 156.751 18.8854C156.688 18.8854 156.628 18.8948 156.571 18.9114ZM156.868 19.7614C156.828 19.792 156.775 19.806 156.71 19.806C156.652 19.806 156.607 19.7907 156.576 19.7612C156.544 19.7306 156.528 19.6905 156.528 19.6409C156.528 19.6116 156.534 19.5868 156.546 19.5644C156.559 19.5421 156.576 19.5244 156.595 19.5102C156.616 19.4954 156.639 19.4846 156.663 19.4783C156.689 19.4712 156.715 19.4677 156.742 19.4677C156.83 19.4677 156.906 19.4901 156.968 19.5372V19.6704C156.938 19.7051 156.905 19.7357 156.868 19.7614ZM158.707 18.5388C158.743 18.5212 158.777 18.4917 158.809 18.4481L158.712 18.3008C158.687 18.3362 158.659 18.3608 158.627 18.3739C158.594 18.3877 158.559 18.398 158.523 18.4045L158.49 18.4109C158.46 18.4162 158.429 18.4222 158.395 18.4281C158.341 18.4388 158.288 18.4562 158.237 18.48C158.157 18.5165 158.093 18.566 158.045 18.6285C157.996 18.6909 157.958 18.7616 157.932 18.8395C157.906 18.9185 157.888 19.0003 157.879 19.0835C157.87 19.1685 157.866 19.2497 157.866 19.3274C157.866 19.4277 157.878 19.5184 157.903 19.5997C157.928 19.6812 157.962 19.7495 158.009 19.8049C158.055 19.8615 158.11 19.904 158.175 19.9346C158.241 19.9652 158.314 19.9805 158.396 19.9805C158.472 19.9805 158.542 19.9652 158.605 19.9369C158.665 19.9097 158.721 19.87 158.767 19.8203C158.812 19.7718 158.848 19.714 158.873 19.6493C158.899 19.5844 158.911 19.5149 158.911 19.4418C158.911 19.3629 158.9 19.291 158.878 19.2273C158.859 19.1665 158.827 19.1107 158.786 19.0635C158.745 19.0171 158.694 18.9808 158.638 18.9573C158.577 18.9316 158.511 18.9188 158.445 18.9196C158.402 18.9196 158.36 18.9255 158.32 18.9373C158.28 18.9491 158.242 18.9661 158.207 18.988C158.173 19.0088 158.141 19.0346 158.113 19.0645C158.086 19.0941 158.064 19.1271 158.048 19.1648H158.043C158.047 19.1165 158.053 19.0671 158.063 19.0163C158.073 18.9656 158.087 18.9172 158.107 18.8713C158.126 18.8254 158.151 18.784 158.181 18.7463C158.214 18.7083 158.254 18.6781 158.298 18.6579C158.347 18.6332 158.399 18.6154 158.453 18.6049L158.488 18.5981C158.523 18.5913 158.557 18.5848 158.589 18.5777C158.632 18.5684 158.671 18.5563 158.707 18.5388ZM158.081 19.5467C158.063 19.4872 158.055 19.4252 158.056 19.3629C158.063 19.3271 158.077 19.2931 158.097 19.2627C158.116 19.2308 158.14 19.2026 158.17 19.1777C158.236 19.1228 158.318 19.0934 158.402 19.0941C158.507 19.0941 158.585 19.1283 158.641 19.1955C158.696 19.2638 158.723 19.3487 158.723 19.4513C158.723 19.502 158.714 19.548 158.698 19.5904C158.683 19.6322 158.66 19.6703 158.631 19.7025C158.601 19.7347 158.566 19.7603 158.527 19.7778C158.486 19.7966 158.442 19.8061 158.393 19.8061C158.343 19.8061 158.298 19.7955 158.257 19.7743C158.215 19.7534 158.179 19.7233 158.149 19.6859C158.119 19.6442 158.096 19.5971 158.081 19.5467ZM160.277 18.9078H160.099V19.957H160.277V18.9078ZM159.168 18.9078H159.346V19.2226H159.511C159.588 19.2226 159.651 19.2332 159.702 19.2532C159.753 19.2733 159.793 19.3004 159.824 19.3334C159.854 19.3664 159.876 19.4054 159.888 19.4488C159.9 19.4925 159.907 19.5372 159.907 19.5844C159.907 19.6316 159.9 19.6765 159.886 19.7213C159.872 19.766 159.848 19.8049 159.817 19.8403C159.785 19.8757 159.743 19.904 159.688 19.9253C159.634 19.9464 159.569 19.9581 159.49 19.9581H159.167V18.9078H159.168ZM159.346 19.3981V19.7825H159.476C159.565 19.7825 159.628 19.766 159.664 19.7329C159.7 19.6999 159.718 19.6528 159.718 19.5904C159.718 19.5266 159.699 19.4785 159.663 19.4453C159.625 19.4123 159.563 19.3957 159.478 19.3957H159.346V19.3981Z" fill="#CED1D7"/>
<path d="M161.454 19.806C161.411 19.8638 161.355 19.9074 161.287 19.9369C161.218 19.9668 161.144 19.982 161.069 19.9817C160.994 19.9827 160.92 19.9696 160.85 19.9428C160.787 19.9187 160.73 19.881 160.681 19.8321C160.633 19.7831 160.596 19.724 160.571 19.6587C160.544 19.587 160.53 19.5106 160.531 19.4335C160.531 19.357 160.544 19.2862 160.57 19.2191C160.594 19.1518 160.63 19.0941 160.675 19.0457C160.721 18.9962 160.775 18.9585 160.835 18.9291C160.9 18.8991 160.969 18.8843 161.039 18.8854C161.119 18.8854 161.194 18.8961 161.261 18.9172C161.329 18.9384 161.386 18.9738 161.434 19.0234L161.352 19.1708C161.312 19.1326 161.265 19.1037 161.214 19.0858C161.166 19.0693 161.115 19.0609 161.064 19.0611C161.019 19.0611 160.976 19.0705 160.935 19.0882C160.894 19.1057 160.856 19.1313 160.824 19.1637C160.792 19.1972 160.766 19.2373 160.749 19.2815C160.73 19.3274 160.721 19.3782 160.721 19.4347C160.721 19.4925 160.731 19.5443 160.75 19.5891C160.769 19.6351 160.795 19.6741 160.828 19.707C160.86 19.7401 160.899 19.7648 160.942 19.7813C160.987 19.7978 161.033 19.8073 161.082 19.8073C161.143 19.8073 161.197 19.7942 161.246 19.7694C161.292 19.7455 161.335 19.7123 161.37 19.6717L161.454 19.806ZM161.545 18.9078H162.459V19.0941H162.092V19.9569H161.914V19.0941H161.546V18.9078H161.545Z" fill="#CED1D7"/>
<path fill-rule="evenodd" clip-rule="evenodd" d="M162.83 18.908H162.652V20.4238H162.83V19.9087C162.866 19.9335 162.909 19.9512 162.959 19.963C163.008 19.9748 163.06 19.9806 163.113 19.9806C163.192 19.9806 163.263 19.9653 163.327 19.9371C163.389 19.9092 163.445 19.8687 163.492 19.8181C163.538 19.7672 163.573 19.7083 163.598 19.6387C163.622 19.5693 163.635 19.4949 163.635 19.416C163.635 19.3381 163.624 19.2663 163.602 19.2014C163.582 19.1398 163.551 19.0829 163.51 19.0341C163.47 18.9865 163.42 18.949 163.364 18.9244C163.304 18.8968 163.238 18.8831 163.172 18.8844C163.102 18.8844 163.037 18.8985 162.975 18.9269C162.913 18.9552 162.864 18.9892 162.83 19.0317V18.908ZM162.954 19.1025C163.005 19.0742 163.06 19.06 163.12 19.06C163.172 19.06 163.218 19.0682 163.26 19.0859C163.3 19.1037 163.334 19.1284 163.362 19.1615C163.39 19.1945 163.412 19.2323 163.425 19.2769C163.44 19.3217 163.447 19.3701 163.447 19.4231C163.447 19.4798 163.438 19.5304 163.422 19.5775C163.407 19.6223 163.384 19.6632 163.353 19.6978C163.323 19.732 163.285 19.7589 163.244 19.7767C163.198 19.7971 163.148 19.8071 163.099 19.8062C163.05 19.8062 163.005 19.8004 162.962 19.7886C162.915 19.7751 162.871 19.7536 162.831 19.7249V19.2049C162.862 19.165 162.904 19.1309 162.954 19.1025ZM165 18.9079H164.822V19.9571H165V18.9079ZM163.891 18.9079H164.069V19.2227H164.233C164.311 19.2227 164.374 19.2333 164.425 19.2533C164.475 19.2734 164.516 19.3004 164.546 19.3334C164.577 19.3664 164.598 19.4054 164.611 19.4489C164.623 19.4925 164.63 19.5373 164.63 19.5845C164.63 19.6316 164.623 19.6766 164.608 19.7213C164.595 19.7661 164.571 19.8049 164.54 19.8403C164.508 19.8757 164.465 19.9041 164.411 19.9253C164.357 19.9464 164.292 19.9582 164.213 19.9582H163.889V18.9079H163.891ZM164.07 19.3982V19.7825H164.199C164.288 19.7825 164.352 19.7661 164.388 19.7329C164.424 19.6999 164.442 19.6529 164.442 19.5904C164.442 19.5267 164.423 19.4785 164.387 19.4454C164.349 19.4123 164.287 19.3958 164.202 19.3958H164.07V19.3982Z" fill="#CED1D7"/>
<path d="M165.855 19.4136L166.236 19.957H166.018L165.724 19.5326L165.425 19.957H165.218L165.596 19.4229L165.24 18.9078H165.459L165.73 19.3039L166.006 18.9078H166.214L165.855 19.4136ZM150.215 21.2537H149.668V22.1283H149.49V21.0793H150.393V22.1283H150.215V21.2537ZM151.403 21.2655H151.052L151.04 21.4423C151.028 21.592 151.011 21.7123 150.988 21.8041C150.964 21.8962 150.935 21.9668 150.901 22.0163C150.867 22.0659 150.828 22.1 150.782 22.1166C150.736 22.1344 150.687 22.1432 150.637 22.1425L150.624 21.9609C150.643 21.962 150.665 21.9574 150.69 21.9456C150.715 21.9338 150.74 21.9079 150.763 21.8691C150.787 21.8289 150.808 21.7723 150.828 21.6992C150.847 21.625 150.859 21.5284 150.866 21.4068L150.884 21.0803H151.581V22.1295H151.403V21.2655Z" fill="#CED1D7"/>
<path fill-rule="evenodd" clip-rule="evenodd" d="M152.061 21.0817C152.003 21.0981 151.952 21.1217 151.908 21.1511L151.955 21.2997C151.996 21.2785 152.036 21.2608 152.077 21.2455C152.117 21.2302 152.169 21.2231 152.231 21.2231C152.281 21.2231 152.32 21.2313 152.351 21.2477C152.381 21.2632 152.404 21.2867 152.419 21.315C152.435 21.3434 152.445 21.3788 152.451 21.4199C152.456 21.4612 152.459 21.506 152.459 21.5543C152.422 21.5275 152.381 21.5094 152.337 21.5013C152.295 21.4924 152.252 21.4877 152.209 21.4872C152.156 21.4872 152.106 21.4954 152.059 21.5095C152.011 21.5237 151.971 21.545 151.938 21.5733C151.905 21.6016 151.878 21.6374 151.859 21.6781C151.839 21.7227 151.83 21.7715 151.83 21.8208C151.83 21.9232 151.858 22.0035 151.915 22.0601C151.971 22.1166 152.045 22.1449 152.138 22.1449C152.221 22.1449 152.287 22.1296 152.338 22.0989C152.389 22.0683 152.429 22.0329 152.459 21.9928V22.1283H152.626V21.4848C152.626 21.348 152.597 21.2419 152.54 21.1677C152.483 21.0933 152.383 21.0558 152.241 21.0558C152.18 21.0558 152.12 21.0647 152.061 21.0817ZM152.36 21.9314C152.319 21.9622 152.266 21.9763 152.201 21.9763C152.142 21.9763 152.098 21.961 152.067 21.9314C152.035 21.9008 152.019 21.8607 152.019 21.8113C152.019 21.7818 152.025 21.757 152.037 21.7347C152.05 21.7123 152.067 21.6946 152.086 21.6804C152.105 21.6662 152.129 21.6556 152.155 21.6485C152.18 21.6415 152.207 21.638 152.234 21.638C152.321 21.638 152.397 21.6604 152.459 21.7075V21.8406C152.43 21.8753 152.396 21.9058 152.36 21.9314Z" fill="#CED1D7"/>
<path d="M152.801 21.0793H153.715V21.2655H153.347V22.1284H153.169V21.2656H152.802V21.0793H152.801Z" fill="#CED1D7"/>
<path fill-rule="evenodd" clip-rule="evenodd" d="M154.546 22.1177C154.613 22.0954 154.671 22.0611 154.72 22.014L154.666 21.8678C154.634 21.8986 154.59 21.9245 154.537 21.9458C154.484 21.967 154.424 21.9775 154.359 21.9775C154.261 21.9775 154.18 21.9504 154.115 21.895C154.051 21.8396 154.016 21.7619 154.008 21.6627H154.779C154.787 21.6263 154.79 21.5849 154.79 21.5366C154.79 21.4648 154.778 21.3999 154.753 21.341C154.73 21.2838 154.696 21.2321 154.654 21.189C154.611 21.1461 154.561 21.1128 154.505 21.0911C154.447 21.0673 154.386 21.0553 154.324 21.0557C154.24 21.0557 154.167 21.071 154.103 21.0993C154.042 21.1262 153.988 21.1659 153.942 21.216C153.898 21.2658 153.863 21.3248 153.842 21.3893C153.818 21.458 153.806 21.5306 153.807 21.6038C153.807 21.6864 153.82 21.7617 153.845 21.829C153.87 21.8962 153.907 21.954 153.953 22.0023C153.999 22.0506 154.056 22.0871 154.122 22.1131C154.193 22.1398 154.269 22.153 154.344 22.152C154.411 22.152 154.478 22.1401 154.546 22.1177ZM154.094 21.3091C154.149 21.2561 154.223 21.2302 154.315 21.2302C154.403 21.2302 154.472 21.2561 154.522 21.3044C154.573 21.354 154.6 21.4223 154.605 21.5096H153.996C154.005 21.4324 154.04 21.3611 154.094 21.3091ZM154.877 21.0793H155.102L155.446 21.5851L155.079 22.1284H154.86L155.245 21.5849L154.877 21.0793ZM155.49 21.0793H155.668V22.1284H155.49V21.0793ZM156.305 22.1284L155.913 21.5849L156.279 21.0792H156.058L155.712 21.5849L156.084 22.1284H156.305ZM157.118 22.1177C157.186 22.0954 157.243 22.0611 157.293 22.014L157.239 21.8678C157.206 21.8986 157.162 21.9245 157.109 21.9458C157.056 21.967 156.996 21.9775 156.931 21.9775C156.833 21.9775 156.752 21.9504 156.688 21.895C156.623 21.8396 156.589 21.7619 156.581 21.6627H157.351C157.359 21.6263 157.363 21.5849 157.363 21.5366C157.363 21.4648 157.35 21.3999 157.325 21.341C157.302 21.2838 157.269 21.2321 157.226 21.189C157.183 21.1461 157.133 21.1128 157.077 21.0911C157.02 21.0673 156.958 21.0553 156.896 21.0557C156.813 21.0557 156.74 21.071 156.675 21.0993C156.615 21.1263 156.56 21.166 156.514 21.216C156.47 21.2657 156.436 21.3248 156.414 21.3893C156.39 21.458 156.378 21.5306 156.379 21.6038C156.379 21.6864 156.393 21.7617 156.417 21.829C156.442 21.8962 156.479 21.954 156.525 22.0023C156.572 22.0506 156.628 22.0871 156.694 22.1131C156.766 22.1398 156.841 22.153 156.916 22.152C156.985 22.1515 157.053 22.1399 157.118 22.1177ZM156.666 21.3091C156.722 21.2561 156.795 21.2302 156.887 21.2302C156.974 21.2302 157.044 21.2561 157.094 21.3044C157.145 21.354 157.172 21.4223 157.177 21.5096H156.568C156.577 21.4324 156.612 21.3611 156.666 21.3091ZM158.085 20.7269C157.98 20.7269 157.923 20.6655 157.914 20.543H157.746C157.746 20.59 157.754 20.6325 157.768 20.6726C157.783 20.7127 157.804 20.7468 157.833 20.7752C157.861 20.8035 157.897 20.8259 157.938 20.8434C157.98 20.8612 158.029 20.8694 158.084 20.8694C158.134 20.8694 158.18 20.8612 158.22 20.8434C158.261 20.827 158.294 20.8035 158.324 20.7752C158.352 20.7468 158.374 20.7127 158.39 20.6726C158.406 20.6325 158.414 20.59 158.414 20.543H158.247C158.239 20.6655 158.184 20.7269 158.085 20.7269ZM157.604 21.0792V22.1284H157.782L158.361 21.3468V22.1284H158.539V21.0792H158.361L157.782 21.8608V21.0792H157.604Z" fill="#CED1D7"/>
</g>
<path d="M185.692 13.0572C184.265 13.3297 183.204 14.3913 182.895 15.8522L182.811 16.2514V15.1335L182.806 14.0202H181.403C180.631 14.0202 180 14.0343 180 14.0531C179.995 14.0765 180.351 15.2274 180.781 16.6131L181.567 19.1403H182.184H182.806L182.811 17.9519V16.7681L182.895 17.1674C183.096 18.1069 183.559 18.835 184.289 19.3564C184.906 19.8027 185.533 19.9999 186.337 19.9999C187.254 20.0046 188.03 19.6946 188.704 19.0605C189.153 18.633 189.438 18.1868 189.639 17.5902C189.779 17.1815 189.793 17.097 189.793 16.5333C189.798 15.8428 189.732 15.528 189.471 14.9831C188.802 13.5833 187.202 12.7707 185.692 13.0572ZM186.852 15.3073C187.16 15.4482 187.497 15.824 187.581 16.1199C187.717 16.6178 187.6 17.0876 187.244 17.4446C187.001 17.6888 186.772 17.7922 186.421 17.8157C186 17.8438 185.696 17.7311 185.397 17.4258C184.915 16.9466 184.878 16.289 185.289 15.7065C185.622 15.2368 186.318 15.0536 186.852 15.3073Z" fill="#CED1D7"/>
<path d="M192.551 14.908C192.364 14.969 192.154 15.0865 192.088 15.1663C191.995 15.2791 191.943 15.2556 191.943 15.1006V14.9596H191.499H191.055V16.6037V18.2478H191.494H191.939L191.953 17.1533C191.967 15.9649 191.981 15.9038 192.247 15.73C192.397 15.6314 192.748 15.6361 192.921 15.7394C193.192 15.8991 193.206 15.9743 193.206 17.1392V18.2008H193.674H194.141V17.1298C194.141 16.1434 194.151 16.0541 194.235 15.9085C194.403 15.6314 194.787 15.5421 195.063 15.7112C195.32 15.8662 195.334 15.9226 195.357 17.0969L195.381 18.1773H195.825H196.269V17.003C196.269 15.7159 196.251 15.5891 196.003 15.3072C195.76 15.0348 195.488 14.8986 195.105 14.8751C194.707 14.8516 194.455 14.9408 194.155 15.2133C194.053 15.3072 193.95 15.3824 193.931 15.3824C193.912 15.3824 193.856 15.3307 193.805 15.265C193.59 14.9925 192.897 14.7952 192.551 14.908Z" fill="#CED1D7"/>
<path d="M197.943 14.9502C197.433 15.1334 197.059 15.5092 196.919 15.9884C196.811 16.3548 196.844 17.0218 196.989 17.3224C197.298 17.9613 198.084 18.3652 198.794 18.2478C199.388 18.1492 199.842 17.825 200.09 17.3177C200.23 17.0359 200.244 16.9701 200.244 16.5614C200.244 16.1716 200.225 16.0729 200.123 15.8474C199.95 15.4763 199.702 15.2227 199.342 15.0442C199.07 14.908 198.977 14.8892 198.607 14.8751C198.294 14.8657 198.126 14.8845 197.943 14.9502ZM198.888 15.7535C199.262 15.9273 199.463 16.2843 199.402 16.6648C199.318 17.1486 199.164 17.3412 198.776 17.4492C198.168 17.6137 197.7 17.2144 197.695 16.5426C197.695 16.1434 197.854 15.8944 198.21 15.7394C198.43 15.6454 198.663 15.6501 198.888 15.7535Z" fill="#CED1D7"/>
<path d="M202.259 14.955C202.133 15.0066 201.983 15.0959 201.923 15.1523L201.81 15.2556V15.0865V14.9127H201.343H200.875V16.5568V18.2056L201.333 18.1915L201.787 18.1774L201.81 17.097C201.829 16.1246 201.843 16.0025 201.927 15.8804C202.147 15.5515 202.722 15.5328 203.003 15.8522C203.087 15.9461 203.096 16.0401 203.12 17.0688L203.143 18.1774L203.602 18.1915L204.055 18.2056V17.1017C204.055 16.4957 204.032 15.8945 204.004 15.7629C203.938 15.4576 203.742 15.1851 203.466 15.0254C203.167 14.8516 202.605 14.8188 202.259 14.955Z" fill="#CED1D7"/>
<path d="M205.941 14.9315C205.136 15.1946 204.659 15.8945 204.725 16.7306C204.832 18.1398 206.488 18.774 207.751 17.8815C207.891 17.7875 208.008 17.6842 208.013 17.6607C208.022 17.6325 207.905 17.5245 207.751 17.4117L207.47 17.2097L207.316 17.3272C206.946 17.609 206.418 17.6795 206.034 17.4916C205.857 17.407 205.599 17.1252 205.599 17.0171C205.599 16.9937 206.156 16.9796 206.839 16.9796H208.078L208.106 16.8574C208.157 16.6508 208.097 16.1199 207.994 15.8851C207.858 15.5797 207.465 15.1758 207.152 15.0208C206.843 14.8704 206.263 14.8282 205.941 14.9315ZM206.708 15.716C206.848 15.7676 207.119 16.0072 207.194 16.1434C207.236 16.2233 207.189 16.228 206.441 16.228C205.571 16.228 205.553 16.2186 205.749 15.9696C205.945 15.716 206.394 15.5985 206.708 15.716Z" fill="#CED1D7"/>
<path d="M208.372 14.9925C208.382 15.0395 208.667 15.7676 209.008 16.6178C209.345 17.4633 209.621 18.1773 209.621 18.2055C209.621 18.2337 209.504 18.5202 209.364 18.8397C209.223 19.1638 209.106 19.4362 209.106 19.4456C209.106 19.4597 209.326 19.4691 209.588 19.4691C210.047 19.4691 210.075 19.4644 210.121 19.3658C210.234 19.1121 211.913 14.9737 211.913 14.9408C211.913 14.922 211.702 14.9173 211.44 14.922L210.968 14.9361L210.566 15.9414L210.159 16.9419L210.084 16.7634C210.037 16.6601 209.855 16.2044 209.668 15.7441L209.331 14.9127H208.84C208.391 14.9127 208.349 14.922 208.372 14.9925Z" fill="#CED1D7"/>
<path fill-rule="evenodd" clip-rule="evenodd" d="M254.028 16.0002C254.028 11.582 250.446 8.00015 246.028 8.00015C244.11 8.00015 242.366 8.67112 240.988 9.79575C242.039 10.8104 242.841 12.0809 243.272 13.5169H242.607C242.191 12.2402 241.459 11.1137 240.508 10.2097C239.55 11.1216 238.834 12.2565 238.422 13.5131H237.757C238.182 12.1033 238.96 10.8256 240.017 9.80129C238.643 8.68819 236.907 8 235 8C230.582 8 227 11.5818 227 16.0001C227 20.4182 230.582 24 235 24C236.906 24 238.643 23.3118 240.017 22.1987C238.974 21.1871 238.186 19.915 237.757 18.4871H238.422C238.834 19.7436 239.55 20.8785 240.508 21.7904C241.459 20.8863 242.191 19.76 242.607 18.4831H243.272C242.841 19.9191 242.039 21.1897 240.988 22.2042C242.366 23.3287 244.11 23.9998 246.028 23.9998C250.446 24 254.028 20.4182 254.028 16.0002Z" fill="#CED1D7"/>
<path fill-rule="evenodd" clip-rule="evenodd" d="M248.149 17.874L248.702 14.914H249.4L249.473 15.2057C249.598 15.0596 249.838 14.914 250.244 14.914L250.026 15.6851C249.828 15.6851 249.452 15.6332 249.213 16.519L248.963 17.874H248.149ZM237.445 14.1617H238.25L238.085 14.946H238.518L238.374 15.5857H237.961L237.734 16.7826C237.692 17.0098 237.713 17.2163 238.178 17.144L238.126 17.7424C237.951 17.8559 237.713 17.8871 237.527 17.8871C237.342 17.8871 236.733 17.7733 236.888 16.9686L237.445 14.1617ZM240.933 16.5558C241.026 16.0809 241.243 14.9048 239.829 14.9048C238.529 14.9048 238.364 16.1946 238.333 16.3802C238.302 16.5661 238.281 17.8765 239.674 17.8765C240.015 17.887 240.51 17.8456 240.706 17.7423L240.83 17.1337C240.706 17.1643 240.242 17.2059 239.922 17.2059C239.602 17.2059 239.086 17.2266 239.179 16.5558H240.933ZM236.682 15.6065L236.867 15.0078C236.485 14.8634 236.186 14.8945 236.073 14.8945C235.959 14.8945 234.993 14.8826 234.845 15.5962C234.731 16.1432 234.931 16.3694 235.123 16.4526C235.433 16.5869 235.609 16.7107 235.774 16.7932C235.978 16.8954 235.94 17.2369 235.67 17.2369C235.546 17.2369 235.01 17.2987 234.608 17.1645L234.494 17.7733C234.866 17.8767 235.165 17.8767 235.444 17.8767C235.639 17.8767 236.599 17.9283 236.733 17.0407C236.799 16.6079 236.609 16.4111 236.455 16.3187C236.3 16.2153 236.042 16.0709 235.877 15.9985C235.712 15.9264 235.588 15.6479 235.887 15.5653C236.073 15.5445 236.454 15.5445 236.682 15.6065ZM231.46 17.8765L232.131 14.3061H230.81L229.829 16.4732L229.675 14.3061H228.385L227.693 17.8765H228.498L228.993 15.2968L229.21 17.8765H229.974L231.099 15.3587L230.624 17.8765H231.46ZM232.347 14.9976L232.223 15.6374C232.42 15.6169 232.946 15.5344 233.224 15.5445C233.503 15.5548 233.813 15.5136 233.72 15.9573C233.513 15.978 232.069 15.7509 231.842 16.989C231.749 17.5982 232.275 17.9076 232.688 17.8871C233.101 17.8664 233.214 17.8147 233.359 17.7113L233.462 17.8765H234.215L234.535 16.2668C234.618 15.8644 234.751 14.8943 233.4 14.8943C233.152 14.9048 232.874 14.8943 232.347 14.9976ZM245.391 15.1316C245.184 15.0076 245.04 14.9872 244.772 14.9872C244.503 14.9872 243.905 15.2435 243.792 15.9676C243.657 16.824 244.245 17.2469 245.071 16.9686L245.308 17.6909C245.04 17.8147 244.772 17.8765 244.328 17.8765C243.492 17.8765 242.584 17.1337 242.997 15.6269C243.301 14.5168 244.256 14.1101 244.813 14.1308C245.473 14.1554 245.711 14.3783 245.917 14.6055L245.391 15.1316ZM252.253 15.2554C252.098 15.142 252.006 14.9048 251.624 14.9048C251.18 14.9048 250.489 14.8222 250.097 16.1636C249.834 17.0602 250.365 17.8767 250.942 17.8767C251.211 17.8665 251.479 17.7529 251.644 17.6394L251.748 17.8767H252.614L253.316 14.1206H252.47L252.253 15.2554ZM245.969 14.9976L245.845 15.6374C246.041 15.6169 246.567 15.5344 246.846 15.5445C247.125 15.5548 247.434 15.5136 247.341 15.9573C247.135 15.978 245.69 15.7509 245.463 16.989C245.37 17.5982 245.896 17.9076 246.309 17.8871C246.722 17.8664 246.836 17.8147 246.98 17.7113L247.084 17.8765H247.836L248.157 16.2668C248.239 15.8644 248.373 14.8943 247.021 14.8943C246.774 14.9048 246.495 14.8943 245.969 14.9976Z" fill="white"/>
<path fill-rule="evenodd" clip-rule="evenodd" d="M239.23 16.0194H240.231C240.282 15.7304 240.189 15.4827 239.87 15.4827C239.55 15.4827 239.323 15.6478 239.23 16.0194ZM233.585 16.5559C233.451 16.5349 233.152 16.4526 232.894 16.6281C232.636 16.8035 232.563 17.1128 232.832 17.2164C233.09 17.3156 233.471 17.1443 233.523 16.8755L233.585 16.5559ZM251.964 16.4629C252.046 16.1947 252.001 15.8597 251.912 15.7409C251.665 15.4107 251.095 15.6717 250.922 16.3188C250.808 16.7417 251.056 17.0616 251.334 17.0616C251.634 17.0614 251.819 16.8241 251.964 16.4629ZM247.207 16.5559C247.072 16.5349 246.773 16.4526 246.515 16.6281C246.257 16.8035 246.185 17.1128 246.453 17.2164C246.712 17.3156 247.093 17.1443 247.145 16.8755L247.207 16.5559Z" fill="#CED1D7"/>
<path fill-rule="evenodd" clip-rule="evenodd" d="M240.959 17.8767L241.506 14.9462H242.197L242.27 15.2351C242.394 15.0906 242.631 14.9462 243.033 14.9462L242.827 15.7202C242.631 15.7202 242.249 15.6583 242.011 16.5351L241.764 17.8769L240.959 17.8767Z" fill="white"/>
<defs>
<clipPath id="clip0_4217_111970">
<rect width="32" height="32" fill="white"/>
</clipPath>
<clipPath id="clip1_4217_111970">
<rect width="32" height="17" fill="white" transform="translate(135 8)"/>
</clipPath>
</defs>
</svg>
