<svg width="81" height="80" viewBox="0 0 81 80" fill="none" xmlns="http://www.w3.org/2000/svg">
<g id="Frame 6107">
<g clip-path="url(#clip0_3748_42588)">
<rect x="0.5" width="80" height="80" rx="40" fill="#5C75C9"/>
<g id="Group">
<g id="Group_2">
<path id="Vector" d="M50.1369 69.2624C48.3576 69.2624 46.6863 69.7405 45.2332 70.5775C43.3828 68.0532 40.4605 66.4229 37.1707 66.4229C36.0493 66.4229 34.9724 66.6117 33.9668 66.9594L39.1443 80.423C39.9708 80.4547 40.8002 80.4611 41.6312 80.4417C47.7625 80.3018 53.8628 78.7577 59.5 75.7672C57.98 71.9494 54.3611 69.2624 50.1369 69.2624Z" fill="#91A3DF"/>
</g>
<g id="Group_3">
<path id="Vector_2" d="M15.7166 61.0536C15.1692 59.4049 14.195 57.9514 12.9235 56.8234C20.6146 52.286 18.6583 40.7238 10.0377 38.8566C10.7322 33.7538 7.38185 29.1006 2.51088 28C1.20687 31.941 0.5 36.1534 0.5 40.5308C0.5 41.0265 0.50972 41.5215 0.528375 42.014L6.11547 60.9383C6.59487 61.7427 7.10171 62.5288 7.63535 63.2952C7.63535 63.2952 7.63519 63.2953 7.63504 63.2953C9.34053 65.7494 11.5061 68.2279 13.9436 70.3893C13.9441 70.3889 13.9444 70.3882 13.9448 70.3878C15.8174 72.0492 17.8464 73.5387 20.0082 74.8292L23.8257 70.6805C23.8257 65.8544 20.3219 61.8481 15.7166 61.0536Z" fill="#91A3DF"/>
</g>
</g>
<path id="Vector_3" d="M36.4691 69.7352C34.9851 68.3537 34.1128 66.4523 33.8904 64.4401C33.7012 62.7292 32.949 61.0686 31.6336 59.7566C31.6254 59.7485 31.6171 59.7403 31.6089 59.7322C30.3541 58.4916 30.3187 56.4837 31.5681 55.2378L33.0749 53.7352L27.2453 47.9217L25.7385 49.4244C24.4891 50.6703 22.4757 50.6349 21.2316 49.3837C21.2235 49.3755 21.2153 49.3672 21.2071 49.3591C19.8915 48.0471 18.2265 47.2972 16.5108 47.1085C14.493 46.8867 12.5863 46.0167 11.201 44.5369C10.9942 44.316 10.7752 44.1022 10.5441 43.8964C7.74934 41.4083 3.84993 40.7859 0.5 42.0141C0.75276 48.9132 2.76024 55.365 6.0918 60.9394C6.93768 60.7533 7.7641 60.4572 8.54718 60.0481C8.99241 59.8156 9.54142 59.8964 9.88398 60.2632C11.7324 62.2421 14.4338 63.0991 17.0211 62.6396C17.7834 62.5042 18.4519 63.1707 18.316 63.9308C17.8539 66.5137 18.7158 69.2063 20.6991 71.0484C21.067 71.39 21.1483 71.9376 20.915 72.3816C20.5038 73.1643 20.2065 73.9906 20.02 74.8362C25.608 78.1615 32.0761 80.1665 38.9934 80.4223C40.2329 77.0781 39.6106 73.1817 37.1117 70.3904C36.9051 70.1598 36.6908 69.9415 36.4691 69.7352Z" fill="#B9C4EA"/>
<g id="Group_4">
<g id="Trophy_2_">
<g id="Group_5">
<g id="Group_6">
<path id="Vector_4" d="M33.4484 68.5516C34.5601 66.2656 33.9883 63.5216 32.0495 61.8852L30.0262 60.1776L28.5825 53.9867L21.5956 53.0622L19.5723 51.3546C17.6335 49.7182 14.8324 49.6156 12.7938 51.1192L2.83261 58.3031C1.81687 59.0114 1.83111 60.4413 2.7109 61.1838L25.1926 80.1582C26.0722 80.9005 27.484 80.6753 28.0119 79.5542L33.4484 68.5516ZM31.5501 29.8647C32.2056 29.088 32.1075 27.9292 31.3309 27.2737L29.9258 26.0878C26.826 23.4716 26.4328 18.8235 29.049 15.7237L30.2349 14.3186C30.8892 13.5433 32.0507 13.4451 32.8259 14.0994L38.4463 18.843C39.223 19.4984 40.3819 19.4004 41.0374 18.6237C41.6928 17.8471 41.5948 16.6882 40.8182 16.0327L35.1977 11.2891C32.8733 9.32734 29.3865 9.62236 27.4247 11.9468L26.2388 13.3519C22.3151 18.0009 22.905 24.9744 27.554 28.898L28.9591 30.0839C29.7357 30.7394 30.8946 30.6414 31.5501 29.8647ZM68.9203 39.7506L63.2999 35.007C62.5232 34.3515 61.3643 34.4496 60.7088 35.2263C60.0533 36.0029 60.1514 37.1618 60.928 37.8173L66.5485 42.5609C67.3237 43.2152 67.422 44.3766 66.7677 45.1519L65.5817 46.557C62.9656 49.6568 58.3174 50.0501 55.2177 47.4339L53.8126 46.248C53.0359 45.5925 51.8771 45.6906 51.2216 46.4672C50.5661 47.2439 50.6641 48.4028 51.4408 49.0582L52.8459 50.2441C57.4948 54.1678 64.4683 53.5778 68.392 48.9288L69.5779 47.5237C71.5397 45.1992 71.2447 41.7124 68.9203 39.7506ZM36.4876 32.3942L34.234 34.3126C31.9259 36.2777 32.8495 40.021 35.8054 40.7023L38.6944 41.3549L39.8242 44.0918C40.9701 46.8814 44.8306 47.1849 46.3848 44.5701L47.8985 42.0249L50.8572 41.7988C53.8877 41.5562 55.322 37.9726 53.3333 35.7024L51.3804 33.4785L52.077 30.5985C52.7576 27.7706 49.7175 25.2104 47.0482 26.3566L44.3273 27.5258L41.8069 25.9743C39.2366 24.3964 35.9429 26.4074 36.2138 29.4444L36.4876 32.3942Z" fill="url(#paint0_linear_3748_42588)"/>
</g>
</g>
<g id="Group_7">
<g id="Group_8">
<path id="Vector_5" d="M65.67 32.1973L43.1883 13.223C42.4014 12.5588 41.2615 12.6553 40.5973 13.4422L26.3664 30.3037C25.1568 31.7369 24.749 33.7025 25.3213 35.5328L28.027 44.0721C28.2111 44.7087 28.0849 45.3719 27.6816 45.8498L21.5939 53.0627L30.0246 60.1781L36.1122 52.9651C36.5155 52.4873 37.1481 52.2515 37.8066 52.326L46.6792 53.5586C48.5796 53.8153 50.4487 53.083 51.6583 51.6498L65.8892 34.7883C66.5534 34.0014 66.457 32.8615 65.67 32.1973ZM50.7094 39.9654L46.8038 40.264L44.8028 43.6315C44.0338 44.9277 42.1035 44.7965 41.522 43.393L40.0291 39.772C37.2764 38.9285 35.261 39.3184 34.8288 37.554C34.662 36.8774 34.891 36.1662 35.4224 35.7147L38.4059 33.1764L38.0441 29.2761C37.9065 27.7501 39.5648 26.7569 40.8407 27.5411L44.1758 29.5945L47.7731 28.0465C49.0544 27.4972 50.6131 28.8128 50.2869 30.1681L49.3653 33.9744L51.9499 36.917C52.9399 38.0461 52.2319 39.8449 50.7094 39.9654ZM23.8758 64.6127L18.2554 59.8691C17.4788 59.2136 16.3199 59.3117 15.6644 60.0883C15.0089 60.865 15.1069 62.0239 15.8836 62.6793L21.504 67.4229C22.2807 68.0784 23.4395 67.9804 24.095 67.2037C24.7505 66.427 24.6525 65.2682 23.8758 64.6127Z" fill="url(#paint1_linear_3748_42588)"/>
</g>
</g>
</g>
</g>
</g>
</g>
<defs>
<linearGradient id="paint0_linear_3748_42588" x1="13.9518" y1="70.6711" x2="52.059" y2="25.5199" gradientUnits="userSpaceOnUse">
<stop stop-color="#FFE59A"/>
<stop offset="1" stop-color="#FFFFD5"/>
</linearGradient>
<linearGradient id="paint1_linear_3748_42588" x1="18.6938" y1="65.0511" x2="54.4292" y2="22.7102" gradientUnits="userSpaceOnUse">
<stop stop-color="#E55D5D"/>
<stop offset="1" stop-color="#FFDA4C"/>
</linearGradient>
<clipPath id="clip0_3748_42588">
<rect x="0.5" width="80" height="80" rx="40" fill="white"/>
</clipPath>
</defs>
</svg>
