<svg width="24" height="17" viewBox="0 0 24 17" fill="none" xmlns="http://www.w3.org/2000/svg">
<g id="ps">
<path id="Vector" d="M2.32715 12.3935C1.57759 12.9419 1.82745 13.9839 3.42651 14.4774C5.07555 15.0806 6.8745 15.2452 8.62348 14.9161C8.72342 14.9161 8.82336 14.8613 8.87333 14.8613V12.9968L7.17433 13.6C6.52471 13.8194 5.87508 13.8742 5.22546 13.7097C4.72575 13.5452 4.8257 13.2161 5.42535 12.9419L8.87333 11.6258V9.59677L4.07613 11.4065C3.47648 11.6258 2.87683 11.9548 2.32715 12.3935ZM13.9204 4.16774V9.4871C15.9692 10.5839 17.5683 9.4871 17.5683 6.63548C17.5683 3.72903 16.6188 2.4129 13.8704 1.37097C12.4213 0.822581 10.9221 0.329032 9.42301 0V15.8484L12.921 17V3.67419C12.921 3.07097 12.921 2.63226 13.3207 2.79677C13.8704 2.96129 13.9204 3.56452 13.9204 4.16774ZM20.4166 11.1323C18.9674 10.5839 17.4183 10.3645 15.9192 10.529C15.1197 10.5839 14.3701 10.8032 13.6705 11.0774L13.5206 11.1323V13.271L16.7687 11.9548C17.4183 11.7355 18.068 11.6806 18.7176 11.8452C19.2173 12.0097 19.1174 12.3387 18.5177 12.6129L13.5206 14.6419V16.7258L20.4166 13.929C20.9163 13.7097 21.366 13.4355 21.7658 12.9968C22.1156 12.4484 21.9657 11.6806 20.4166 11.1323Z" fill="#2C2C35"/>
</g>
</svg>
