<svg width="77" height="28" viewBox="0 0 77 28" fill="none" xmlns="http://www.w3.org/2000/svg">
<g id="QIWI_logo 1" clip-path="url(#clip0_865_18503)">
<path id="Vector" fill-rule="evenodd" clip-rule="evenodd" d="M19.0911 24.3372C21.4888 24.3372 24.0899 25.1484 26.9699 27.6658C27.2584 27.9177 27.6426 27.6045 27.3903 27.2913C24.5608 23.7659 21.9437 23.0947 19.3336 22.5278C16.1404 21.833 14.4986 20.0602 13.3542 18.1143C13.1267 17.7275 13.0241 17.7957 13.0037 18.2936C12.978 18.9018 13.0214 19.7076 13.1595 20.5004C13.0303 20.5056 12.901 20.5047 12.7701 20.5047C8.20316 20.5047 4.50008 16.8507 4.50008 12.3436C4.50008 7.83738 8.20316 4.18425 12.7709 4.18425C17.3378 4.18425 21.0409 7.83738 21.0409 12.3436C21.0409 12.6648 21.025 12.9824 20.9878 13.293C20.3842 13.1854 19.1956 13.1731 18.3618 13.244C18.0485 13.2711 18.0928 13.4155 18.33 13.4575C21.0639 13.9449 22.9411 15.617 23.3713 18.6506C23.3801 18.7206 23.4739 18.7408 23.5102 18.6804C24.6727 16.7668 25.285 14.5758 25.2812 12.3436C25.2812 5.52738 19.6797 0 12.7709 0C5.8613 0 0.259766 5.5265 0.259766 12.3436C0.259766 19.1616 5.8613 24.689 12.7709 24.689C14.603 24.689 16.4227 24.3372 19.0911 24.3372ZM20.0222 19.8555C20.5789 20.3193 20.748 20.8714 20.4541 21.2607C20.2904 21.4743 20.0249 21.5924 19.7062 21.5924C19.3954 21.5924 19.0944 21.4847 18.8557 21.2879C18.3495 20.8512 18.2008 20.1442 18.5309 19.7426C18.6601 19.5851 18.8699 19.4985 19.1212 19.4985C19.4266 19.4985 19.747 19.6254 20.0222 19.8555ZM22.5907 18.676C22.6721 19.2167 22.4995 19.4408 22.3251 19.4408C22.1348 19.4408 21.8968 19.222 21.6162 18.7889C21.3383 18.3619 21.2365 17.8719 21.3746 17.6243C21.4649 17.4606 21.6551 17.3889 21.895 17.479C22.3597 17.6514 22.5411 18.3531 22.5907 18.676ZM39.9325 15.8498L38.4898 14.1374C38.456 14.097 38.4345 14.0479 38.4279 13.9959C38.4212 13.9439 38.4298 13.8911 38.4524 13.8437C38.4751 13.7963 38.511 13.7562 38.5559 13.7283C38.6007 13.7003 38.6527 13.6856 38.7058 13.6859H41.7229C41.8663 13.2641 41.9477 12.8135 41.9477 12.3445C41.9477 10.2007 40.3299 8.35188 38.1101 8.35188C35.8904 8.35188 34.2725 10.2007 34.2725 12.3445C34.2725 14.4882 35.8904 16.3118 38.1101 16.3118C38.7828 16.3118 39.3988 16.142 39.9334 15.8489L39.9325 15.8498ZM46.4589 18.7416C46.6155 18.9131 46.4872 19.1879 46.2509 19.1879H42.9585C42.8923 19.188 42.8269 19.1737 42.767 19.146C42.707 19.1183 42.654 19.0779 42.6115 19.0278L42.054 18.3654C40.8797 19.1183 39.5097 19.5183 38.1101 19.5169C34.1017 19.5169 30.8412 16.2995 30.8412 12.3445C30.8412 8.3895 34.1017 5.17212 38.1101 5.17212C42.1186 5.17212 45.3791 8.3895 45.3791 12.3445C45.3791 13.7708 44.9543 15.099 44.2241 16.2173L46.4589 18.7416ZM76.8774 5.50375H74.1895C74.095 5.50398 74.0044 5.54121 73.9376 5.60729C73.8707 5.67337 73.8331 5.76292 73.8328 5.85637V18.8352C73.8328 19.0304 73.9921 19.1879 74.1895 19.1879H76.8774C77.0748 19.1879 77.235 19.0304 77.235 18.8352V5.8555C77.235 5.76175 77.1973 5.67183 77.1303 5.60554C77.0632 5.53924 76.9723 5.502 76.8774 5.502V5.50375ZM72.3548 5.50375H69.3491C69.2728 5.50346 69.1983 5.52734 69.1367 5.5719C69.0751 5.61646 69.0295 5.67935 69.0066 5.75138L66.6276 13.4216L64.0122 5.74263C63.9883 5.67257 63.9427 5.61173 63.8819 5.56871C63.821 5.52568 63.748 5.50265 63.6733 5.50287H61.5757C61.5008 5.5026 61.4276 5.5256 61.3667 5.56862C61.3057 5.61163 61.2599 5.6725 61.2358 5.74263L58.6213 13.4216L56.2423 5.75138C56.2196 5.67919 56.1741 5.61611 56.1124 5.57138C56.0508 5.52665 55.9763 5.50264 55.8998 5.50287H52.8933C52.8368 5.50297 52.7811 5.51626 52.7308 5.54165C52.6805 5.56704 52.637 5.60383 52.6038 5.649C52.5707 5.69375 52.5489 5.74572 52.5402 5.80053C52.5316 5.85535 52.5364 5.91141 52.5543 5.964L56.9707 18.9499C57.0194 19.0934 57.1566 19.1896 57.3097 19.1896H59.6958C59.8498 19.1896 59.9861 19.0934 60.0348 18.9508L62.6245 11.3636L65.2132 18.9499C65.2619 19.0934 65.3991 19.1896 65.5522 19.1896H67.9392C68.0932 19.1896 68.2295 19.0934 68.2782 18.9499L72.6946 5.964C72.7125 5.91145 72.7174 5.85546 72.7089 5.80067C72.7004 5.74589 72.6788 5.69389 72.646 5.649C72.6126 5.60376 72.569 5.56694 72.5185 5.54155C72.4681 5.51615 72.4123 5.5029 72.3557 5.50287L72.3548 5.50375ZM51.4161 5.85637V18.8352C51.4161 19.0304 51.2568 19.1879 51.0585 19.1879H48.3715C48.2768 19.1879 48.186 19.1508 48.119 19.0846C48.0519 19.0185 48.0142 18.9289 48.0139 18.8352V5.8555C48.0139 5.66038 48.1732 5.502 48.3715 5.502H51.0585C51.2559 5.502 51.4161 5.66037 51.4161 5.85637Z" fill="#FF8C00"/>
</g>
<defs>
<clipPath id="clip0_865_18503">
<rect width="77" height="28" fill="white"/>
</clipPath>
</defs>
</svg>
