<svg width="58" height="27" viewBox="0 0 58 27" fill="none" xmlns="http://www.w3.org/2000/svg">
<path d="M14.42 3C14.76 3 15.07 3.05333 15.35 3.16C15.63 3.26667 15.8667 3.41333 16.06 3.6C16.26 3.78 16.4133 3.99667 16.52 4.25C16.6267 4.49667 16.68 4.76 16.68 5.04C16.68 5.32667 16.6267 5.59667 16.52 5.85C16.4133 6.10333 16.26 6.32333 16.06 6.51C15.8667 6.69667 15.63 6.84667 15.35 6.96C15.07 7.06667 14.76 7.12 14.42 7.12H13.26V10H12.52V3H14.42ZM14.37 6.42C14.6167 6.42 14.8333 6.38667 15.02 6.32C15.2133 6.24667 15.3767 6.15 15.51 6.03C15.6433 5.90333 15.7433 5.75667 15.81 5.59C15.8833 5.42333 15.92 5.24667 15.92 5.06C15.92 4.87333 15.8833 4.7 15.81 4.54C15.7433 4.37333 15.6433 4.23 15.51 4.11C15.3767 3.98333 15.2133 3.88333 15.02 3.81C14.8333 3.73667 14.6167 3.7 14.37 3.7H13.26V6.42H14.37ZM19.2293 10.08C18.9026 10.08 18.5993 10.0267 18.3193 9.92C18.046 9.81333 17.806 9.66333 17.5993 9.47C17.3993 9.27 17.2393 9.03 17.1193 8.75C17.006 8.47 16.9493 8.15333 16.9493 7.8C16.9493 7.43333 17.0093 7.11 17.1293 6.83C17.256 6.54333 17.4226 6.30333 17.6293 6.11C17.8426 5.91667 18.0826 5.77 18.3493 5.67C18.6226 5.57 18.906 5.52 19.1993 5.52C19.5393 5.52 19.8393 5.58333 20.0993 5.71C20.366 5.83 20.5893 5.99333 20.7693 6.2C20.9493 6.40667 21.086 6.64 21.1793 6.9C21.2726 7.16 21.3193 7.42333 21.3193 7.69V7.94H17.6693C17.6893 8.17333 17.7426 8.38333 17.8293 8.57C17.916 8.75 18.0293 8.90667 18.1693 9.04C18.316 9.16667 18.4826 9.26333 18.6693 9.33C18.856 9.39667 19.056 9.43 19.2693 9.43C19.5493 9.43 19.8093 9.37667 20.0493 9.27C20.296 9.15667 20.4926 9.00333 20.6393 8.81L21.1093 9.24C20.896 9.52667 20.6193 9.74 20.2793 9.88C19.946 10.0133 19.596 10.08 19.2293 10.08ZM19.1293 6.17C18.776 6.17 18.4726 6.27333 18.2193 6.48C17.966 6.68667 17.7993 6.97 17.7193 7.33H20.5693C20.5026 6.99 20.336 6.71333 20.0693 6.5C19.8093 6.28 19.496 6.17 19.1293 6.17ZM22.4941 5.6H23.2141V8.69L25.8741 5.6H26.2841V10H25.5641V6.88L22.8741 10H22.4941V5.6ZM24.3941 4.9C23.9808 4.9 23.6408 4.79333 23.3741 4.58C23.1075 4.36 22.9775 4.04333 22.9841 3.63H23.6341C23.6341 3.84333 23.7008 4.01667 23.8341 4.15C23.9675 4.27667 24.1608 4.34 24.4141 4.34C24.6541 4.34 24.8441 4.28 24.9841 4.16C25.1241 4.03333 25.1941 3.85667 25.1941 3.63H25.8341C25.8275 4.04333 25.6908 4.36 25.4241 4.58C25.1575 4.79333 24.8141 4.9 24.3941 4.9ZM28.7271 6.25H27.2871V5.6H30.8871V6.25H29.4471V10H28.7271V6.25ZM31.8887 5.6H32.6087V8.69L35.2687 5.6H35.6787V10H34.9587V6.88L32.2687 10H31.8887V5.6ZM40.2516 7.98H37.9016V10H37.1816V5.6H37.9016V7.33H40.2516V5.6H40.9716V10H40.2516V7.98ZM42.4746 5.6H45.3146V6.25H43.1946V10H42.4746V5.6Z" fill="#737781"/>
<path d="M0 17V25H1.13333V17H0ZM2.26667 17V25H3.4V17H2.26667ZM4.53333 17V25H5.66667V17H4.53333ZM6.8 17V25H7.93333V17H6.8ZM9.06667 17V18.1429H17V17H9.06667ZM9.06667 19.2857V20.4286H17V19.2857H9.06667ZM9.06667 21.5714V22.7143H17V21.5714H9.06667ZM9.06667 23.8571V25H17V23.8571H9.06667Z" fill="#737781"/>
<path d="M19.82 18H22.11C22.8033 18 23.3233 18.1567 23.67 18.47C24.0233 18.7767 24.2 19.1733 24.2 19.66C24.2 20.04 24.1133 20.35 23.94 20.59C23.7667 20.83 23.5533 21.0133 23.3 21.14C23.7333 21.24 24.0767 21.44 24.33 21.74C24.5833 22.04 24.71 22.4167 24.71 22.87C24.71 23.1833 24.65 23.47 24.53 23.73C24.41 23.99 24.24 24.2133 24.02 24.4C23.8 24.5867 23.5333 24.7333 23.22 24.84C22.9133 24.9467 22.57 25 22.19 25H19.82V18ZM21.15 21.84V23.85H21.89C22.39 23.85 22.75 23.7567 22.97 23.57C23.1967 23.3833 23.31 23.1333 23.31 22.82C23.31 22.4933 23.2 22.25 22.98 22.09C22.7667 21.9233 22.47 21.84 22.09 21.84H21.15ZM21.15 19.15V20.82H21.85C22.17 20.82 22.42 20.7467 22.6 20.6C22.78 20.4467 22.87 20.2267 22.87 19.94C22.87 19.4133 22.5367 19.15 21.87 19.15H21.15ZM27.884 25.07C27.5173 25.07 27.1807 25.0133 26.874 24.9C26.574 24.7867 26.314 24.63 26.094 24.43C25.874 24.2233 25.704 23.98 25.584 23.7C25.464 23.4133 25.404 23.0967 25.404 22.75C25.404 22.3833 25.4673 22.0533 25.594 21.76C25.7207 21.46 25.894 21.2067 26.114 21C26.334 20.7933 26.5907 20.6333 26.884 20.52C27.1773 20.4067 27.4907 20.35 27.824 20.35C28.184 20.35 28.504 20.4133 28.784 20.54C29.0707 20.66 29.3107 20.83 29.504 21.05C29.6973 21.2633 29.844 21.5167 29.944 21.81C30.0507 22.0967 30.104 22.4067 30.104 22.74V23H26.604C26.664 23.3533 26.814 23.6233 27.054 23.81C27.3007 23.9967 27.6107 24.09 27.984 24.09C28.2507 24.09 28.4973 24.0433 28.724 23.95C28.9573 23.85 29.1507 23.7133 29.304 23.54L29.994 24.17C29.7607 24.4633 29.4607 24.6867 29.094 24.84C28.7273 24.9933 28.324 25.07 27.884 25.07ZM27.774 21.35C27.4807 21.35 27.234 21.43 27.034 21.59C26.8407 21.7433 26.7073 21.9633 26.634 22.25H28.914C28.874 21.9967 28.754 21.7833 28.554 21.61C28.354 21.4367 28.094 21.35 27.774 21.35ZM32.377 25.09C31.9703 25.09 31.617 25.0267 31.317 24.9C31.0236 24.7733 30.7836 24.5967 30.597 24.37L31.177 23.59C31.3303 23.7433 31.5103 23.87 31.717 23.97C31.9303 24.07 32.1603 24.12 32.407 24.12C32.807 24.12 33.007 23.9967 33.007 23.75C33.007 23.63 32.9503 23.5333 32.837 23.46C32.7303 23.3867 32.5936 23.32 32.427 23.26C32.2603 23.1933 32.0803 23.1267 31.887 23.06C31.6936 22.9867 31.5136 22.8967 31.347 22.79C31.1803 22.6767 31.0403 22.5367 30.927 22.37C30.8203 22.1967 30.767 21.98 30.767 21.72C30.767 21.28 30.9336 20.9433 31.267 20.71C31.6003 20.47 32.027 20.35 32.547 20.35C32.927 20.35 33.247 20.41 33.507 20.53C33.7736 20.6433 33.9836 20.7733 34.137 20.92L33.607 21.72C33.467 21.5933 33.3103 21.4933 33.137 21.42C32.9636 21.3467 32.7803 21.31 32.587 21.31C32.3736 21.31 32.2203 21.3467 32.127 21.42C32.0336 21.4867 31.987 21.5667 31.987 21.66C31.987 21.7733 32.0403 21.8633 32.147 21.93C32.2603 21.9967 32.4003 22.0567 32.567 22.11C32.7336 22.1567 32.9136 22.21 33.107 22.27C33.3003 22.33 33.4803 22.4133 33.647 22.52C33.8136 22.6267 33.9503 22.7667 34.057 22.94C34.1703 23.1133 34.227 23.34 34.227 23.62C34.227 23.88 34.177 24.1033 34.077 24.29C33.9836 24.4767 33.8536 24.63 33.687 24.75C33.5203 24.87 33.3236 24.9567 33.097 25.01C32.877 25.0633 32.637 25.09 32.377 25.09ZM34.7564 20.43H35.4764V18.78H36.6564V20.43H37.7564V21.52H36.6564V23.16C36.6564 23.42 36.6997 23.6167 36.7864 23.75C36.8797 23.8833 37.0731 23.95 37.3664 23.95C37.4197 23.95 37.4831 23.95 37.5564 23.95C37.6297 23.9433 37.7031 23.9367 37.7764 23.93L37.7864 25.02C37.6931 25.0267 37.5831 25.0333 37.4564 25.04C37.3364 25.0533 37.2164 25.06 37.0964 25.06C36.7831 25.06 36.5231 25.0267 36.3164 24.96C36.1097 24.8867 35.9431 24.78 35.8164 24.64C35.6964 24.4933 35.6097 24.3133 35.5564 24.1C35.5031 23.8867 35.4764 23.6367 35.4764 23.35V21.52H34.7564V20.43ZM37.8495 18.2V18H39.1895L41.0595 22.64L42.9095 18H44.1595V18.2L41.3395 25.08H40.6795L37.8495 18.2ZM47.1741 18C47.5541 18 47.8975 18.05 48.2041 18.15C48.5175 18.25 48.7808 18.3967 48.9941 18.59C49.2141 18.7767 49.3808 19.0033 49.4941 19.27C49.6141 19.5367 49.6741 19.84 49.6741 20.18C49.6741 20.52 49.6141 20.83 49.4941 21.11C49.3808 21.39 49.2141 21.63 48.9941 21.83C48.7741 22.0233 48.5041 22.1767 48.1841 22.29C47.8708 22.3967 47.5141 22.45 47.1141 22.45H46.4041V25H45.0641V18H47.1741ZM47.0441 21.29C47.4775 21.29 47.7975 21.1867 48.0041 20.98C48.2108 20.7733 48.3141 20.52 48.3141 20.22C48.3141 20.0733 48.2875 19.9367 48.2341 19.81C48.1875 19.6767 48.1108 19.5633 48.0041 19.47C47.9041 19.37 47.7708 19.2933 47.6041 19.24C47.4441 19.18 47.2508 19.15 47.0241 19.15H46.4041V21.29H47.0441ZM50.8063 18H51.7563L55.3563 22.45V18H56.6963V25H55.8463L52.1463 20.45V25H50.8063V18Z" fill="#737781"/>
</svg>
