<svg width="48" height="48" viewBox="0 0 48 48" fill="none" xmlns="http://www.w3.org/2000/svg">
<path d="M30.7539 18.5078C24.0014 18.5078 18.5078 24.0014 18.5078 30.7539C18.5078 37.5064 24.0014 43 30.7539 43C37.5064 43 43 37.5064 43 30.7539C43 24.0014 37.5064 18.5078 30.7539 18.5078Z" fill="#5C75C9"/>
<path d="M17.3945 18.5078C24.2612 18.5078 29.6406 15.5735 29.6406 11.8281C29.6406 8.08275 24.2612 5 17.3945 5C10.5278 5 5 8.08275 5 11.8281C5 15.5735 10.5278 18.5078 17.3945 18.5078Z" fill="#5C75C9"/>
<path d="M5 30.0527V31.8667C5 35.6121 10.5278 38.5464 17.3945 38.5464C17.784 38.5464 18.1614 38.5106 18.5449 38.4918C17.691 37.1491 17.0541 35.6592 16.6791 34.0665C11.7135 33.9294 7.40187 32.4035 5 30.0527Z" fill="#5C75C9"/>
<path d="M16.3348 31.81C16.3092 31.4598 16.2812 31.1101 16.2812 30.7534C16.2812 29.5929 16.4333 28.4696 16.6926 27.3874C11.7209 27.2527 7.40402 25.726 5 23.373V25.187C5 28.7337 9.9921 31.521 16.3348 31.81Z" fill="#5C75C9"/>
<path d="M17.3945 25.187C17.3957 25.187 17.3967 25.1869 17.3979 25.1869C18.1322 23.432 19.1995 21.8502 20.525 20.5248C19.5196 20.6518 18.4805 20.7339 17.3945 20.7339C12.1089 20.7339 7.51795 19.1577 5 16.6934V18.5073C5 22.2527 10.5278 25.187 17.3945 25.187Z" fill="#5C75C9"/>
<path d="M26 30.7442H31.7075V32.3431H26V30.7442ZM26 33.5916H31.7075V35.1905H26V33.5916ZM27.4764 25H29.2146V37H27.4764V25ZM28.3726 30.7442H32.3349C32.6835 30.7515 33.027 30.6628 33.3255 30.4884C33.6137 30.3134 33.8431 30.061 33.9858 29.762C34.1482 29.4236 34.2288 29.0538 34.2217 28.6807C34.2217 28.2683 34.1431 27.9053 33.9858 27.5916C33.8425 27.2917 33.6133 27.038 33.3255 26.8607C33.028 26.6834 32.6841 26.5932 32.3349 26.6007H28.3726V25H32.2736C33.012 25 33.6624 25.1523 34.225 25.4568C34.7816 25.7564 35.2362 26.2062 35.5335 26.7515C35.8445 27.3058 36 27.9488 36 28.6807C36 29.4125 35.8451 30.055 35.5354 30.608C35.2374 31.1498 34.7829 31.5957 34.2274 31.8913C33.6651 32.194 33.0146 32.3454 32.2759 32.3454H28.3712L28.3726 30.7442Z" fill="white"/>
</svg>
