<svg width="81" height="80" viewBox="0 0 81 80" fill="none" xmlns="http://www.w3.org/2000/svg">
<g id="rocket_4625166 1" clip-path="url(#clip0_3748_38181)">
<g id="Group">
<circle id="Ellipse 76" cx="40.5" cy="40" r="40" fill="#5C75C9"/>
<g id="Group_2">
<g id="Group_3">
<path id="Vector" d="M50.1369 68.8093C48.3576 68.8093 46.6863 69.2874 45.2332 70.1243C43.3828 67.6 40.4605 65.9697 37.1707 65.9697C36.0493 65.9697 34.9724 66.1585 33.9668 66.5063L39.1443 79.9698C39.9708 80.0015 40.8002 80.0079 41.6312 79.9886C47.7625 79.8486 53.8628 78.3046 59.5 75.314C57.98 71.4962 54.3611 68.8093 50.1369 68.8093Z" fill="#91A3DF"/>
</g>
<g id="Group_4">
<path id="Vector_2" d="M15.7166 60.6005C15.1692 58.9517 14.195 57.4982 12.9235 56.3702C20.6146 51.8329 18.6583 40.2707 10.0377 38.4034C10.7322 33.3007 7.38185 28.6475 2.51088 27.5469C1.20687 31.4879 0.5 35.7003 0.5 40.0777C0.5 40.5733 0.50972 41.0684 0.528375 41.5609L6.11547 60.4852C6.59487 61.2896 7.10171 62.0757 7.63535 62.8421C7.63535 62.8421 7.63519 62.8422 7.63504 62.8422C9.34053 65.2963 11.5061 67.7747 13.9436 69.9362C13.9441 69.9357 13.9444 69.9351 13.9448 69.9346C15.8174 71.596 17.8464 73.0855 20.0082 74.376L23.8257 70.2274C23.8257 65.4013 20.3219 61.395 15.7166 60.6005Z" fill="#91A3DF"/>
</g>
</g>
<g id="Group_5">
<path id="Vector_3" d="M61.3019 15.3624H44.6802C43.9885 15.3624 43.4277 14.8016 43.4277 14.1099C43.4277 13.4182 43.9885 12.8574 44.6802 12.8574H61.3019C61.9935 12.8574 62.5543 13.4182 62.5543 14.1099C62.5543 14.8016 61.9937 15.3624 61.3019 15.3624Z" fill="#27C9F4"/>
</g>
<g id="Group_6">
<g id="Group_7">
<path id="Vector_4" d="M36.4691 69.283C34.9851 67.9016 34.1128 66.0001 33.8904 63.9879C33.7012 62.277 32.949 60.6164 31.6336 59.3045C31.6254 59.2963 31.6171 59.2882 31.6089 59.28C30.3541 58.0395 30.3187 56.0316 31.5681 54.7857L33.0749 53.2831L27.2453 47.4696L25.7385 48.9722C24.4891 50.2181 22.4757 50.1827 21.2316 48.9315C21.2235 48.9234 21.2153 48.9151 21.2071 48.9069C19.8915 47.595 18.2265 46.8451 16.5108 46.6564C14.493 46.4346 12.5863 45.5646 11.201 44.0848C10.9942 43.8639 10.7752 43.65 10.5441 43.4443C7.74934 40.9561 3.84993 40.3338 0.5 41.562C0.75276 48.4611 2.76024 54.9128 6.0918 60.4872C6.93768 60.3011 7.7641 60.0051 8.54718 59.596C8.99241 59.3635 9.54142 59.4443 9.88398 59.8111C11.7324 61.79 14.4338 62.647 17.0211 62.1875C17.7834 62.0521 18.4519 62.7185 18.316 63.4786C17.8539 66.0615 18.7158 68.7542 20.6991 70.5962C21.067 70.9378 21.1483 71.4855 20.915 71.9295C20.5038 72.7121 20.2065 73.5384 20.02 74.384C25.608 77.7093 32.0761 79.7144 38.9934 79.9702C40.2329 76.6259 39.6106 72.7295 37.1117 69.9382C36.9051 69.7076 36.6908 69.4894 36.4691 69.283Z" fill="#B9C4EA"/>
</g>
<g id="Group_8">
<path id="Vector_5" d="M49.2707 31.1514C49.2707 31.1514 49.3616 46.2654 40.0957 55.5311L49.2707 64.7061C58.5366 55.4402 58.5366 40.4173 49.2707 31.1514Z" fill="#FFD65A"/>
</g>
<g id="Group_9">
<g id="Vector_6">
<path d="M32.7637 43.4092L40.2209 50.8664L34.4675 56.6198L27.0103 49.1626L32.7637 43.4092Z" fill="#5C75C9"/>
<path d="M32.7637 43.4092L40.2209 50.8664L34.4675 56.6198L27.0103 49.1626L32.7637 43.4092Z" fill="black" fill-opacity="0.1"/>
</g>
</g>
<g id="Group_10">
<g id="Vector_7">
<path d="M29.6875 40.335L32.9755 43.6229L27.2221 49.3763L23.9341 46.0884L29.6875 40.335Z" fill="#536AB5"/>
<path d="M29.6875 40.335L32.9755 43.6229L27.2221 49.3763L23.9341 46.0884L29.6875 40.335Z" fill="black" fill-opacity="0.2"/>
</g>
</g>
<g id="Group_11">
<path id="Vector_8" d="M49.2953 31.176C49.2873 31.168 49.2797 31.1597 49.2715 31.1516C40.0056 21.8857 24.9827 21.8857 15.7168 31.1516L24.8918 40.3265L49.2953 31.176Z" fill="#FFD65A"/>
</g>
<g id="Group_12">
<g id="Group_13">
<path id="Vector_9" d="M64.048 3.46777C58.0458 5.70296 51.1998 9.42389 45.0057 15.618C40.3715 20.2523 36.9018 25.3151 33.6304 31.3081C31.0014 36.1243 31.5613 42.056 35.0259 46.3108C39.0824 51.2927 46.1577 52.6329 51.7268 49.4298C51.765 49.4078 51.8034 49.3856 51.8416 49.3632C57.6021 45.9992 62.9463 42.2628 66.9169 38.2923C72.3999 32.8094 75.6837 26.4596 77.6371 20.5312L64.048 3.46777Z" fill="#B9C4EA"/>
</g>
<g id="Group_14">
<path id="Vector_10" d="M65.8374 5.61683L59.8909 2.78516C53.9626 4.73838 47.6131 8.0222 42.1298 13.5053C35.5225 20.1126 29.5641 30.5229 24.8906 40.3265L40.0956 55.5314C44.0077 53.6665 48.0159 51.5963 51.8411 49.3626C49.8716 48.9569 48.1739 48.1085 46.8492 46.784C40.3707 40.3055 45.2678 24.9044 57.7875 12.3847C60.3821 9.79021 63.1005 7.52309 65.8374 5.61683Z" fill="#91A3DF"/>
</g>
<g id="Group_15">
<path id="Vector_11" d="M77.6352 20.5302C81.2359 9.60193 80.3174 0.104774 80.3174 0.104774C80.3174 0.104774 78.9287 -0.0295534 76.6024 0.00598544C72.845 0.0632859 70.1517 1.48875 63.4023 3.71267L64.0339 6.929L77.6352 20.5302Z" fill="#E55D5D"/>
</g>
<g id="Group_16">
<g id="Vector_12">
<path d="M76.6032 0.00585938C72.8459 0.0630032 66.6428 0.562582 59.8926 2.78665L64.0345 6.92856C68.2539 3.73195 72.5735 1.38232 76.6032 0.00585938Z" fill="#E55D5D"/>
<path d="M76.6032 0.00585938C72.8459 0.0630032 66.6428 0.562582 59.8926 2.78665L64.0345 6.92856C68.2539 3.73195 72.5735 1.38232 76.6032 0.00585938Z" fill="black" fill-opacity="0.2"/>
</g>
</g>
</g>
<g id="Group_17">
<g id="Group_18">
<path id="Vector_13" d="M61.742 18.6796C65.157 22.0946 65.157 27.6512 61.742 31.0662C58.327 34.4812 52.7704 34.4812 49.3554 31.0662C45.9404 27.6512 45.9404 22.0946 49.3554 18.6796C52.7704 15.2646 58.327 15.2646 61.742 18.6796ZM64.1774 16.244C59.4119 11.4786 51.6855 11.4786 46.9198 16.244C42.1543 21.0095 42.1543 28.736 46.9198 33.5016C51.6853 38.2673 59.4118 38.2671 64.1774 33.5016C68.9431 28.7362 68.9431 21.0097 64.1774 16.244Z" fill="#B9C4EA"/>
</g>
<g id="Group_19">
<path id="Vector_14" d="M57.21 34.1748C63.2641 34.1748 68.1719 29.267 68.1719 23.2129C68.1719 17.1588 63.2641 12.251 57.21 12.251C51.1559 12.251 46.248 17.1588 46.248 23.2129C46.248 29.267 51.1559 34.1748 57.21 34.1748Z" fill="#536AB5"/>
</g>
<g id="Group_20">
<path id="Vector_15" d="M57.5312 29.1649C53.2503 24.8839 53.2503 17.9432 57.5312 13.6623C58.0028 13.1907 58.508 12.7743 59.037 12.4067C55.6586 11.8385 52.0658 12.8547 49.4587 15.4618C45.1778 19.7427 45.1778 26.6834 49.4587 30.9643C53.2681 34.7737 59.1821 35.1902 63.4556 32.2199C61.2863 31.8552 59.2051 30.8388 57.5312 29.1649Z" fill="#425591"/>
</g>
<g id="Group_21">
<g id="Group_22">
<g id="Vector_16">
<path d="M63.4021 29.4061C59.9871 32.8211 54.4305 32.8211 51.0155 29.4061L48.5801 29.0094V31.8415C53.3456 36.607 61.072 36.607 65.8377 31.8415V28.8887L63.4021 29.4061Z" fill="#5C75C9"/>
<path d="M63.4021 29.4061C59.9871 32.8211 54.4305 32.8211 51.0155 29.4061L48.5801 29.0094V31.8415C53.3456 36.607 61.072 36.607 65.8377 31.8415V28.8887L63.4021 29.4061Z" fill="white" fill-opacity="0.25"/>
</g>
</g>
<g id="Group_23">
<g id="Vector_17">
<path d="M48.5801 14.5839V17.2717L51.0155 17.0193C54.4305 13.6043 59.9871 13.6043 63.4021 17.0193L65.8375 17.3922V14.5839C61.072 9.81839 53.3456 9.81839 48.5801 14.5839Z" fill="#5C75C9"/>
<path d="M48.5801 14.5839V17.2717L51.0155 17.0193C54.4305 13.6043 59.9871 13.6043 63.4021 17.0193L65.8375 17.3922V14.5839C61.072 9.81839 53.3456 9.81839 48.5801 14.5839Z" fill="black" fill-opacity="0.15"/>
</g>
</g>
</g>
<g id="Group_24">
<path id="Vector_18" d="M51.0154 17.0194L48.58 14.584C43.8145 19.3495 43.8145 27.0759 48.58 31.8416L51.0154 29.4062C47.6005 25.991 47.6005 20.4343 51.0154 17.0194Z" fill="#5C75C9"/>
</g>
<g id="Group_25">
<g id="Vector_19">
<path d="M65.8378 14.584L63.4023 17.0194C66.8174 20.4344 66.8174 25.991 63.4023 29.406L65.8378 31.8414C70.6033 27.0759 70.6033 19.3495 65.8378 14.584Z" fill="#5C75C9"/>
<path d="M65.8378 14.584L63.4023 17.0194C66.8174 20.4344 66.8174 25.991 63.4023 29.406L65.8378 31.8414C70.6033 27.0759 70.6033 19.3495 65.8378 14.584Z" fill="white" fill-opacity="0.2"/>
</g>
</g>
</g>
</g>
</g>
</g>
<defs>
<clipPath id="clip0_3748_38181">
<rect width="80" height="80" fill="white" transform="translate(0.5)"/>
</clipPath>
</defs>
</svg>
