<svg width="24" height="24" viewBox="0 0 24 24" fill="none" xmlns="http://www.w3.org/2000/svg">
<g id="icon:rocket">
<path id="Vector" d="M8.24062 7.7889C6.91901 9.58693 5.99491 11.2971 5.64107 12.0523C5.54276 12.2621 5.32908 12.393 5.09747 12.3858L4.51497 12.3677C3.11512 12.3248 2.47477 10.5941 3.51298 9.65051L5.66176 7.69658C6.24644 7.1652 6.99548 6.87795 7.76082 6.86539C8.24102 6.85752 8.52507 7.40189 8.24062 7.7889ZM17.1344 16.2397C17.1424 15.7579 16.5964 15.4762 16.2083 15.7618C14.3855 17.1026 12.6894 18.0097 11.9489 18.3574C11.7388 18.4561 11.6069 18.6696 11.6141 18.9016L11.6323 19.4852C11.6753 20.887 13.4075 21.524 14.3494 20.4872L16.3033 18.3383C16.8346 17.7538 17.1218 17.0049 17.1344 16.2397ZM4.71279 16.5802L5.4647 15.8283C5.69148 15.6016 5.69148 15.2339 5.4647 15.0071C5.23795 14.7804 4.87029 14.7804 4.64354 15.0071L3.89163 15.7591C3.52466 16.126 3.78969 16.7503 4.30219 16.7503C4.45084 16.7503 4.59941 16.6936 4.71279 16.5802ZM8.26987 20.1374L9.02174 19.3855C9.24849 19.1587 9.24849 18.791 9.02174 18.5643C8.795 18.3375 8.42737 18.3375 8.20059 18.5643L7.44872 19.3162C7.08174 19.6832 7.34681 20.3074 7.85931 20.3074C8.00788 20.3074 8.1565 20.2508 8.26987 20.1374ZM5.20032 19.621L7.75341 17.0678C7.9802 16.841 7.9802 16.4734 7.75341 16.2466C7.52667 16.0199 7.15904 16.0199 6.93226 16.2466L4.37917 18.7998C4.01219 19.1667 4.27722 19.791 4.78972 19.791C4.93833 19.791 5.08695 19.7343 5.20032 19.621ZM17.3223 13.9746C16.4841 14.6931 15.621 15.3376 14.7191 15.9248C14.5147 16.0578 14.2448 16.0287 14.0724 15.8563L8.14376 9.92756C7.97134 9.75514 7.9422 9.48521 8.07524 9.28085C8.71933 8.29143 9.36081 7.45321 10.0754 6.61948C12.4929 3.81912 16.2193 2.5062 19.8659 3.16925L20.2869 3.24546C20.5246 3.28865 20.7112 3.47519 20.7543 3.7129L20.8306 4.13388C21.4682 7.63699 20.3078 11.3991 17.3223 13.9746ZM16.8052 7.19467C15.8293 6.21879 14.2416 6.21879 13.2657 7.19467C12.2895 8.17055 12.2895 9.75866 13.2657 10.7342C14.2408 11.7099 15.8289 11.7104 16.8052 10.7342C17.781 9.7587 17.781 8.17055 16.8052 7.19467ZM7.72572 11.1519C7.48022 10.9063 7.06563 10.9669 6.90395 11.2742C6.7928 11.4854 6.68806 11.691 6.58278 11.9057C6.22782 12.6282 6.37175 13.4999 6.94424 14.0719L9.92807 17.0558C10.291 17.4187 10.7744 17.61 11.2647 17.61C11.7783 17.61 12.0816 17.435 12.7258 17.0961C13.033 16.9344 13.0936 16.5198 12.8481 16.2743L7.72572 11.1519Z" fill="white"/>
</g>
</svg>
