<svg width="199" height="199" viewBox="0 0 199 199" fill="none" xmlns="http://www.w3.org/2000/svg">
<g clip-path="url(#clip0_1673_29464)">
<rect width="199" height="199" rx="99.5" fill="#F4F4F4"/>
<path d="M45.6198 94.8475C45.5708 94.8177 46.2212 93.6575 47.0721 92.2566C47.9234 90.8552 48.6529 89.7436 48.7015 89.773C48.7504 89.8029 48.1001 90.9627 47.2492 92.364C46.3983 93.7654 45.6687 94.877 45.6198 94.8475Z" fill="#E0E0E0"/>
<path d="M44.3307 68.8563C44.2818 68.8265 44.9321 67.6663 45.783 66.2653C46.6343 64.864 47.3635 63.7524 47.4124 63.7818C47.4614 63.8117 46.8111 64.9714 45.9601 66.3728C45.1092 67.7742 44.3797 68.8862 44.3307 68.8563Z" fill="#E0E0E0"/>
<path d="M46.987 131.016C46.938 130.987 47.5883 129.826 48.4393 128.425C49.2906 127.024 50.0197 125.913 50.0687 125.942C50.1176 125.972 49.4673 127.132 48.6164 128.533C47.7655 129.934 47.0359 131.046 46.987 131.016Z" fill="#E0E0E0"/>
<path d="M94.3854 170.442C94.3365 170.412 94.9868 169.252 95.8377 167.851C96.689 166.45 97.4182 165.338 97.4671 165.368C97.5161 165.398 96.8657 166.557 96.0148 167.959C95.1639 169.36 94.4344 170.472 94.3854 170.442Z" fill="#E0E0E0"/>
<path d="M20.5026 137.694C20.4536 137.664 21.104 136.504 21.9549 135.103C22.8062 133.702 23.5354 132.59 23.5843 132.62C23.6333 132.65 22.9829 133.809 22.132 135.211C21.2811 136.612 20.5515 137.724 20.5026 137.694Z" fill="#E0E0E0"/>
<path d="M131.549 119.684C131.501 119.655 132.151 118.495 133.002 117.093C133.853 115.692 134.583 114.58 134.631 114.61C134.68 114.64 134.03 115.8 133.179 117.201C132.328 118.602 131.598 119.714 131.549 119.684Z" fill="#E0E0E0"/>
<path d="M100.682 157.94C100.633 157.91 101.284 156.75 102.135 155.349C102.986 153.948 103.715 152.836 103.764 152.866C103.813 152.896 103.163 154.055 102.312 155.457C101.461 156.858 100.731 157.97 100.682 157.94Z" fill="#E0E0E0"/>
<path d="M115.19 172.518C115.141 172.488 115.791 171.328 116.642 169.927C117.494 168.526 118.223 167.414 118.272 167.444C118.321 167.474 117.67 168.634 116.82 170.035C115.969 171.436 115.239 172.548 115.19 172.518Z" fill="#E0E0E0"/>
<path d="M149.659 113.213C149.61 113.184 150.26 112.023 151.111 110.623C151.962 109.221 152.692 108.109 152.741 108.139C152.79 108.169 152.139 109.329 151.288 110.73C150.437 112.131 149.708 113.243 149.659 113.213Z" fill="#E0E0E0"/>
<path d="M154.112 88.979C154.063 88.9491 154.713 87.7894 155.564 86.3884C156.416 84.987 157.145 83.8754 157.194 83.9049C157.243 83.9347 156.592 85.0945 155.741 86.4958C154.89 87.8968 154.161 89.0088 154.112 88.979Z" fill="#E0E0E0"/>
<path d="M142.057 54.6053C142.008 54.5755 142.659 53.4157 143.51 52.0144C144.361 50.613 145.09 49.5014 145.139 49.5308C145.188 49.5607 144.538 50.7205 143.687 52.1218C142.836 53.5232 142.106 54.6352 142.057 54.6053Z" fill="#E0E0E0"/>
<path d="M123.393 99.3202C123.344 99.2903 123.995 98.1306 124.846 96.7292C125.697 95.3279 126.426 94.2162 126.475 94.2457C126.524 94.2755 125.874 95.4353 125.023 96.8367C124.172 98.238 123.442 99.35 123.393 99.3202Z" fill="#E0E0E0"/>
<path d="M140.878 84.1464C140.829 84.1165 141.479 82.9563 142.33 81.5554C143.181 80.154 143.91 79.0424 143.959 79.0719C144.008 79.1017 143.358 80.2615 142.507 81.6628C141.656 83.0642 140.927 84.1762 140.878 84.1464Z" fill="#E0E0E0"/>
<path d="M66.1042 99.3202C66.0552 99.2903 66.7055 98.1306 67.5565 96.7292C68.4078 95.3279 69.1369 94.2162 69.1859 94.2457C69.2348 94.2755 68.5845 95.4353 67.7336 96.8367C66.8826 98.238 66.1531 99.35 66.1042 99.3202Z" fill="#E0E0E0"/>
<path d="M31.6354 169.56C31.5865 169.53 32.2368 168.37 33.0877 166.969C33.939 165.568 34.6682 164.456 34.7171 164.486C34.7661 164.516 34.1157 165.676 33.2648 167.077C32.4139 168.478 31.6844 169.589 31.6354 169.56Z" fill="#E0E0E0"/>
<path d="M67.1276 62.326C67.0786 62.2962 67.729 61.1364 68.5799 59.7351C69.4312 58.3337 70.1604 57.2221 70.2093 57.2515C70.2583 57.2814 69.6079 58.4412 68.757 59.8425C67.9061 61.2439 67.1765 62.3555 67.1276 62.326Z" fill="#E0E0E0"/>
<path d="M23.5807 111.739C23.5318 111.709 24.1821 110.549 25.033 109.148C25.8843 107.747 26.6135 106.635 26.6624 106.665C26.7114 106.694 26.0611 107.854 25.2101 109.256C24.3592 110.657 23.6297 111.768 23.5807 111.739Z" fill="#E0E0E0"/>
<path d="M45.6198 113.908C45.5708 113.878 46.2212 112.718 47.0721 111.317C47.9234 109.916 48.6529 108.804 48.7015 108.834C48.7504 108.863 48.1001 110.023 47.2492 111.425C46.3983 112.826 45.6687 113.937 45.6198 113.908Z" fill="#E0E0E0"/>
<path d="M58.7292 70.0698C58.6802 70.0399 59.3305 68.8798 60.1815 67.4792C61.0328 66.0779 61.7619 64.9662 61.8109 64.9957C61.8598 65.0255 61.2095 66.1853 60.3586 67.5867C59.5076 68.9872 58.7777 70.0992 58.7292 70.0698Z" fill="#263238"/>
<path d="M71.1354 80.7997C71.0865 80.7698 71.7368 79.6101 72.5877 78.2087C73.439 76.8073 74.1682 75.6957 74.2171 75.7252C74.2661 75.755 73.6157 76.9148 72.7648 78.3162C71.9139 79.7175 71.1844 80.8295 71.1354 80.7997Z" fill="#263238"/>
<path d="M58.1354 88.9887C58.0865 88.9589 58.7368 87.7991 59.5877 86.3982C60.439 84.9968 61.1682 83.8852 61.2171 83.9146C61.2661 83.9445 60.6157 85.1043 59.7648 86.5056C58.9139 87.9066 58.1844 89.0186 58.1354 88.9887Z" fill="#263238"/>
<path d="M40.7057 122.55C40.6568 122.52 41.3071 121.361 42.158 119.96C43.0093 118.558 43.7385 117.447 43.7874 117.476C43.8364 117.506 43.1861 118.666 42.3351 120.067C41.4842 121.468 40.7547 122.58 40.7057 122.55Z" fill="#263238"/>
<path d="M97.9557 177.255C97.9068 177.225 98.5571 176.066 99.408 174.665C100.259 173.263 100.988 172.152 101.037 172.181C101.086 172.211 100.436 173.371 99.5851 174.772C98.7342 176.173 98.0047 177.285 97.9557 177.255Z" fill="#263238"/>
<path d="M131.003 67.4057C130.954 67.3759 131.604 66.2157 132.455 64.8151C133.306 63.4138 134.035 62.3022 134.084 62.3316C134.133 62.3615 133.483 63.5213 132.632 64.9226C131.781 66.3236 131.051 67.4356 131.003 67.4057Z" fill="#263238"/>
<path d="M151.174 68.3134C151.126 68.2835 151.776 67.1237 152.627 65.7224C153.478 64.321 154.208 63.2094 154.256 63.2389C154.305 63.2687 153.655 64.4285 152.804 65.8298C151.953 67.2312 151.223 68.3432 151.174 68.3134Z" fill="#263238"/>
<path d="M134.01 87.1444C133.961 87.1146 134.612 85.9548 135.463 84.5534C136.314 83.1521 137.043 82.0405 137.092 82.0699C137.141 82.0998 136.491 83.2595 135.64 84.6609C134.789 86.0619 134.059 87.1739 134.01 87.1444Z" fill="#263238"/>
<path d="M142.089 110.288C142.04 110.258 142.69 109.098 143.541 107.697C144.392 106.296 145.121 105.184 145.17 105.213C145.219 105.243 144.569 106.403 143.718 107.804C142.867 109.205 142.137 110.317 142.089 110.288Z" fill="#263238"/>
<path d="M143.339 137.017C143.29 136.988 143.94 135.827 144.791 134.426C145.642 133.025 146.371 131.914 146.42 131.943C146.469 131.973 145.819 133.133 144.968 134.534C144.117 135.935 143.387 137.047 143.339 137.017Z" fill="#263238"/>
<path d="M23.0495 172.665C23.0005 172.635 23.6508 171.475 24.5018 170.074C25.3531 168.673 26.0822 167.561 26.1312 167.59C26.1801 167.62 25.5298 168.78 24.6789 170.181C23.828 171.582 23.0984 172.694 23.0495 172.665Z" fill="#263238"/>
<path d="M38.8854 103.567C38.8365 103.537 39.4868 102.378 40.3377 100.976C41.189 99.5749 41.9182 98.4633 41.9671 98.4928C42.0161 98.5226 41.3657 99.6824 40.5148 101.084C39.6639 102.485 38.9344 103.597 38.8854 103.567Z" fill="#263238"/>
<path d="M60.6432 108.816C60.5943 108.786 61.2446 107.626 62.0955 106.225C62.9468 104.824 63.676 103.712 63.7249 103.742C63.7739 103.772 63.1236 104.931 62.2726 106.333C61.4217 107.734 60.6918 108.846 60.6432 108.816Z" fill="#263238"/>
<path d="M37.6901 146.593C37.6411 146.563 38.2915 145.404 39.1424 144.003C39.9937 142.601 40.7229 141.489 40.7718 141.519C40.8208 141.549 40.1704 142.709 39.3195 144.11C38.4686 145.511 37.739 146.623 37.6901 146.593Z" fill="#263238"/>
<path d="M101.479 156.614C101.43 156.584 102.081 155.425 102.931 154.023C103.783 152.622 104.512 151.51 104.561 151.54C104.61 151.569 103.959 152.729 103.109 154.131C102.258 155.532 101.528 156.644 101.479 156.614Z" fill="#263238"/>
<path d="M115.003 168.475C114.954 168.445 115.604 167.285 116.455 165.884C117.306 164.483 118.035 163.372 118.084 163.401C118.133 163.431 117.483 164.591 116.632 165.992C115.781 167.392 115.052 168.505 115.003 168.475Z" fill="#263238"/>
<path d="M112.042 101.35C111.993 101.321 112.643 100.16 113.494 98.7595C114.345 97.3581 115.074 96.2465 115.123 96.276C115.172 96.3058 114.522 97.4656 113.671 98.8669C112.82 100.268 112.091 101.38 112.042 101.35Z" fill="#263238"/>
<path d="M118.262 162.848C119.741 169.487 122.263 182.48 123.084 196.983C124.272 217.963 128.28 240.134 126.647 241.919C125.014 243.705 119.527 246.593 117.149 246.19C114.771 245.788 109.723 243.854 108.981 242.366C108.238 240.878 107.496 213.5 107.496 213.5C107.496 213.5 103.593 214.916 107.126 211.497C107.126 211.497 104.471 213.024 105.646 210.093C105.646 210.093 102.435 189.149 99.5719 181.455C98.4175 178.353 96.2307 167.165 95.9141 164.461" fill="#2C2C35"/>
<path d="M102.478 164.57C102.478 164.57 94.0876 209.908 93.4622 210.848C92.8368 211.788 95.9642 211.475 93.4622 213.774C93.4622 213.774 94.5047 214.818 92.1069 217.953C92.1069 217.953 90.6474 241.146 89.9176 242.4C89.1879 243.654 86.9986 241.878 85.2263 243.027C83.4541 244.176 77.3033 246.429 74.697 241.937C72.0907 237.444 75.531 174.696 81.2648 159.336" fill="#2C2C35"/>
<path d="M95.9076 164.461C96.2877 165.821 96.642 167.173 96.965 168.536C97.2972 169.895 97.5884 171.262 97.8808 172.628C98.1555 173.998 98.4301 175.367 98.6731 176.744C98.9248 178.12 99.1503 179.496 99.3731 180.892C98.7638 179.613 98.3278 178.266 97.9366 176.916C97.5415 175.566 97.2248 174.198 96.9323 172.825C96.6576 171.449 96.4055 170.068 96.2243 168.674C96.0407 167.282 95.8905 165.878 95.9076 164.461Z" fill="#231826"/>
<path d="M126.114 164.425L119.659 161.478C118.921 162.168 118.115 162.786 117.245 163.303C107.379 169.182 81.3608 167.416 79.875 165.024C78.4074 162.663 78.4482 151.926 78.4482 151.636C77.6916 151.799 76.9216 151.858 76.138 151.785C67.0877 150.945 66.4037 134.556 70.3581 125.259C74.3126 115.956 81.7005 114.971 83.1908 113.591C84.6811 112.211 84.903 112.547 86.3163 112.51C87.7341 112.469 87.0637 112.061 87.6571 110.912C88.255 109.764 89.8586 110.831 90.4157 110.903C90.5153 110.917 90.6512 110.917 90.8053 110.903C91.5119 110.849 92.6352 110.576 92.6352 110.576L95.3848 110.649L101.083 110.799L103.425 110.862C103.425 110.862 104.625 110.467 105.635 110.713C105.93 110.781 106.211 110.903 106.442 111.112C107.447 112.025 108.834 112.256 109.395 111.702C109.957 111.148 110.673 111.244 112.136 112.125C113.599 113.005 126.463 115.575 131.84 132.091C137.216 148.612 126.114 164.425 126.114 164.425Z" fill="#B5C2DE"/>
<path d="M130.724 155.318C130.704 155.318 130.685 155.314 130.667 155.304C130.65 155.295 130.635 155.282 130.624 155.266C130.613 155.25 130.606 155.232 130.603 155.212C130.601 155.193 130.603 155.173 130.61 155.155C130.833 154.548 131.044 153.937 131.242 153.322C131.252 153.292 131.274 153.267 131.303 153.252C131.331 153.237 131.364 153.234 131.395 153.244C131.41 153.249 131.424 153.257 131.436 153.267C131.448 153.277 131.458 153.29 131.466 153.304C131.473 153.318 131.477 153.334 131.479 153.35C131.48 153.366 131.478 153.382 131.473 153.397C131.274 154.015 131.062 154.63 130.837 155.239C130.829 155.262 130.813 155.282 130.793 155.296C130.772 155.311 130.748 155.318 130.724 155.318ZM131.913 151.618C131.894 151.618 131.876 151.614 131.859 151.606C131.842 151.597 131.828 151.585 131.816 151.571C131.805 151.556 131.797 151.538 131.794 151.52C131.79 151.502 131.791 151.483 131.796 151.465C131.966 150.842 132.123 150.215 132.265 149.585C132.279 149.519 132.346 149.479 132.409 149.492C132.475 149.507 132.516 149.572 132.501 149.638C132.359 150.272 132.201 150.902 132.029 151.529C132.022 151.555 132.007 151.577 131.986 151.594C131.965 151.61 131.939 151.618 131.913 151.618ZM132.764 147.826C132.746 147.826 132.729 147.823 132.713 147.815C132.697 147.808 132.683 147.797 132.671 147.783C132.66 147.77 132.651 147.754 132.647 147.737C132.642 147.72 132.641 147.702 132.644 147.684C132.755 147.048 132.85 146.409 132.928 145.768C132.937 145.701 132.999 145.655 133.063 145.662C133.13 145.67 133.177 145.73 133.169 145.797C133.09 146.442 132.995 147.086 132.883 147.726C132.878 147.754 132.864 147.78 132.842 147.798C132.82 147.816 132.792 147.826 132.764 147.826ZM133.232 143.969C133.23 143.969 133.227 143.969 133.224 143.969C133.208 143.968 133.193 143.964 133.178 143.957C133.164 143.95 133.151 143.94 133.141 143.928C133.13 143.916 133.122 143.902 133.117 143.887C133.112 143.872 133.11 143.856 133.111 143.84C133.155 143.195 133.18 142.55 133.187 141.904C133.188 141.837 133.247 141.774 133.309 141.784C133.376 141.785 133.43 141.84 133.429 141.907C133.422 142.557 133.397 143.207 133.353 143.856C133.351 143.886 133.337 143.915 133.315 143.936C133.293 143.957 133.263 143.969 133.232 143.969ZM133.272 140.084C133.207 140.084 133.154 140.033 133.151 139.968C133.119 139.324 133.068 138.68 132.997 138.039C132.993 138.007 133.002 137.975 133.022 137.949C133.042 137.924 133.072 137.908 133.103 137.905C133.166 137.897 133.23 137.945 133.237 138.012C133.309 138.658 133.361 139.307 133.393 139.956C133.396 140.023 133.345 140.081 133.278 140.084L133.272 140.084ZM132.84 136.224C132.783 136.224 132.732 136.182 132.721 136.123C132.609 135.488 132.476 134.856 132.323 134.23C132.319 134.214 132.319 134.198 132.321 134.182C132.323 134.167 132.329 134.151 132.337 134.138C132.345 134.124 132.356 134.112 132.369 134.103C132.382 134.093 132.396 134.087 132.412 134.083C132.427 134.079 132.443 134.078 132.459 134.08C132.475 134.083 132.49 134.088 132.504 134.096C132.517 134.105 132.529 134.116 132.539 134.129C132.548 134.142 132.555 134.156 132.558 134.172C132.713 134.804 132.847 135.44 132.96 136.081C132.963 136.099 132.962 136.116 132.958 136.134C132.953 136.151 132.945 136.167 132.934 136.18C132.922 136.194 132.908 136.205 132.892 136.212C132.876 136.22 132.858 136.224 132.84 136.224ZM131.917 132.451C131.865 132.451 131.818 132.418 131.802 132.366L131.725 132.128C131.551 131.594 131.366 131.063 131.168 130.537C131.157 130.506 131.158 130.473 131.172 130.444C131.185 130.414 131.209 130.391 131.239 130.38C131.27 130.369 131.303 130.37 131.332 130.384C131.361 130.397 131.384 130.421 131.396 130.451C131.594 130.981 131.781 131.515 131.956 132.053L132.033 132.293C132.038 132.311 132.04 132.33 132.037 132.349C132.034 132.368 132.026 132.386 132.015 132.401C132.004 132.417 131.989 132.429 131.972 132.438C131.955 132.447 131.936 132.451 131.917 132.451ZM130.552 128.816C130.505 128.816 130.461 128.789 130.441 128.743C130.182 128.152 129.907 127.568 129.615 126.993C129.608 126.979 129.603 126.963 129.602 126.948C129.601 126.932 129.603 126.916 129.608 126.9C129.613 126.885 129.62 126.871 129.631 126.859C129.641 126.847 129.654 126.837 129.668 126.83C129.682 126.823 129.698 126.818 129.714 126.817C129.729 126.816 129.745 126.818 129.76 126.823C129.776 126.828 129.79 126.835 129.802 126.846C129.814 126.856 129.824 126.869 129.831 126.883C130.125 127.462 130.402 128.05 130.663 128.645C130.671 128.664 130.674 128.684 130.672 128.704C130.671 128.724 130.664 128.744 130.653 128.761C130.642 128.778 130.627 128.791 130.609 128.801C130.592 128.811 130.572 128.816 130.552 128.816ZM128.792 125.356C128.75 125.356 128.71 125.334 128.687 125.296C128.361 124.74 128.017 124.194 127.657 123.66C127.648 123.647 127.641 123.632 127.638 123.616C127.635 123.601 127.635 123.584 127.638 123.569C127.641 123.553 127.647 123.538 127.656 123.525C127.665 123.512 127.676 123.5 127.689 123.491C127.702 123.482 127.717 123.476 127.733 123.473C127.748 123.47 127.764 123.47 127.78 123.473C127.795 123.476 127.81 123.482 127.824 123.49C127.837 123.499 127.848 123.511 127.857 123.524C128.221 124.062 128.567 124.612 128.896 125.173C128.913 125.201 128.917 125.234 128.909 125.265C128.901 125.296 128.881 125.323 128.853 125.339C128.835 125.35 128.813 125.356 128.792 125.356ZM126.617 122.141C126.581 122.141 126.545 122.125 126.521 122.095C126.126 121.586 125.713 121.091 125.283 120.61C125.262 120.586 125.251 120.555 125.253 120.523C125.254 120.49 125.269 120.46 125.293 120.439C125.317 120.417 125.348 120.406 125.381 120.408C125.413 120.41 125.443 120.424 125.464 120.448C125.897 120.933 126.314 121.432 126.713 121.945C126.726 121.963 126.735 121.985 126.737 122.007C126.74 122.03 126.736 122.053 126.726 122.073C126.716 122.094 126.7 122.111 126.681 122.123C126.662 122.135 126.64 122.141 126.617 122.141ZM124.03 119.25C124 119.25 123.969 119.239 123.946 119.216C123.483 118.767 123.006 118.334 122.513 117.919C122.488 117.898 122.473 117.869 122.47 117.837C122.467 117.804 122.478 117.773 122.498 117.748C122.508 117.736 122.521 117.725 122.535 117.718C122.549 117.711 122.565 117.706 122.581 117.705C122.596 117.703 122.612 117.705 122.628 117.71C122.643 117.715 122.657 117.723 122.669 117.733C123.166 118.152 123.648 118.588 124.115 119.041C124.132 119.058 124.144 119.08 124.149 119.103C124.154 119.127 124.151 119.152 124.142 119.174C124.133 119.196 124.118 119.216 124.098 119.229C124.078 119.243 124.054 119.25 124.03 119.25ZM121.063 116.75C121.038 116.75 121.014 116.743 120.992 116.727C120.471 116.348 119.937 115.987 119.391 115.645C119.334 115.61 119.317 115.535 119.353 115.478C119.388 115.421 119.463 115.404 119.519 115.439C120.07 115.784 120.609 116.148 121.135 116.531C121.155 116.546 121.171 116.567 121.179 116.591C121.187 116.616 121.187 116.642 121.179 116.666C121.171 116.691 121.156 116.712 121.135 116.727C121.114 116.742 121.089 116.75 121.063 116.75ZM117.776 114.691C117.756 114.691 117.737 114.686 117.719 114.677C117.15 114.373 116.572 114.088 115.985 113.821C115.956 113.808 115.933 113.783 115.922 113.753C115.91 113.723 115.912 113.689 115.925 113.66C115.938 113.631 115.963 113.608 115.993 113.597C116.023 113.585 116.056 113.586 116.086 113.6C116.677 113.869 117.26 114.156 117.833 114.462C117.857 114.475 117.876 114.495 117.887 114.52C117.898 114.545 117.9 114.573 117.894 114.599C117.887 114.625 117.872 114.649 117.851 114.665C117.829 114.682 117.803 114.691 117.776 114.691Z" fill="#231826"/>
<path d="M105.635 110.712L104.978 111.802C104.869 111.979 102.342 116.092 97.9887 116.365C97.862 116.374 97.7396 116.374 97.6174 116.378C94.0932 116.378 91.7921 113.218 90.9723 111.289L90.8047 110.903C91.5113 110.849 92.6347 110.576 92.6347 110.576L95.3842 110.649C95.2801 110.812 95.1668 110.958 95.049 111.094C95.6514 111.906 96.5936 112.805 97.7668 112.742C99.2254 112.646 100.408 111.666 101.123 110.885C101.11 110.858 101.092 110.83 101.083 110.799L103.424 110.862C103.424 110.862 104.625 110.467 105.635 110.712Z" fill="white"/>
<path d="M103.423 110.863C103.423 110.863 101.33 114.336 97.8737 114.554C94.4221 114.767 92.6328 110.577 92.6328 110.577C92.6328 110.577 93.8558 110.3 94.2408 108.774C94.3676 108.261 94.404 107.603 94.2635 106.768L102.109 106.068C102.109 106.068 102.018 107.076 102.172 108.202C102.308 109.21 102.648 110.309 103.423 110.863Z" fill="#FDB6B4"/>
<path d="M102.174 108.202C100.874 108.915 99.329 109.246 97.354 109.246C97.2454 109.246 97.1321 109.242 97.0234 109.242C96.1854 109.224 95.207 109.155 94.2422 108.774C94.369 108.261 94.4053 107.603 94.2648 106.768L102.11 106.068C102.11 106.068 102.02 107.076 102.174 108.202Z" fill="#F7888A"/>
<path d="M114.441 159.092C114.674 157.457 114.949 155.83 115.25 154.21C115.547 152.589 115.862 150.972 116.201 149.361C116.526 147.746 116.894 146.141 117.245 144.532C117.622 142.929 117.984 141.323 118.386 139.726L118.602 140.204C118.431 140.104 118.27 139.988 118.121 139.858C117.972 139.725 117.824 139.575 117.701 139.36C117.577 139.159 117.498 138.795 117.645 138.506C117.783 138.214 117.989 138.102 118.167 137.981L118.024 138.499C117.735 137.892 117.492 137.296 117.268 136.681C117.051 136.066 116.859 135.444 116.692 134.814C116.528 134.185 116.397 133.547 116.299 132.905C116.194 132.264 116.152 131.614 116.132 130.97C116.26 131.604 116.392 132.231 116.572 132.846C116.745 133.462 116.938 134.07 117.162 134.667C117.377 135.266 117.615 135.855 117.877 136.435C118.133 137.013 118.411 137.594 118.709 138.132L118.869 138.42L118.566 138.65C118.473 138.721 118.378 138.804 118.384 138.834C118.384 138.856 118.376 138.861 118.424 138.947C118.471 139.024 118.563 139.12 118.67 139.207C118.774 139.292 118.91 139.38 119.019 139.44L119.299 139.593L119.234 139.919C118.909 141.533 118.542 143.139 118.19 144.747C117.813 146.35 117.453 147.957 117.051 149.554C116.661 151.154 116.248 152.749 115.817 154.339C115.39 155.931 114.937 157.516 114.441 159.092ZM82.3031 128.146C81.7897 128.774 81.2198 129.324 80.63 129.846C80.0399 130.369 79.4302 130.864 78.7977 131.329C78.1671 131.796 77.5123 132.23 76.8387 132.638C76.1647 133.046 75.4702 133.426 74.7188 133.728C75.2313 133.1 75.801 132.549 76.391 132.027C76.9814 131.505 77.5906 131.009 78.2241 130.546C78.8557 130.08 79.51 129.645 80.184 129.237C80.8582 128.83 81.5524 128.45 82.3031 128.146ZM78.4461 151.631C80.1639 151.023 81.6457 150.019 82.9748 148.849C84.3005 147.672 85.4935 146.345 86.6013 144.948C87.7153 143.553 88.7446 142.085 89.7414 140.589C90.7321 139.088 91.6891 137.559 92.6346 136.005C92.0534 137.734 91.2701 139.387 90.3875 140.983C89.5081 142.583 88.4905 144.109 87.3587 145.553C86.7782 146.264 86.1749 146.958 85.5301 147.615C84.8765 148.263 84.1913 148.885 83.4489 149.436C81.9832 150.542 80.264 151.419 78.4461 151.631Z" fill="#231826"/>
<path d="M96.8801 167.32C95.581 149.549 95.5921 132.273 96.9136 114.505L98.3933 114.616C97.0772 132.31 97.0663 149.514 98.3598 167.211L96.8801 167.32Z" fill="white"/>
<path d="M78.7845 109.665C79.8321 109.307 80.9951 109.245 82.0876 109.47L85.7214 113.421L84.9189 114.927L89.2446 118.739L87.8139 120.87L91.3384 125.78L91.3884 125.891C91.3884 125.891 78.5664 124.872 75.4156 117.529C74.3115 114.956 75.1498 111.586 77.4919 110.237C77.6385 110.153 78.0892 109.903 78.7845 109.665Z" fill="#E00000"/>
<path d="M91.3411 125.779L89.1109 121.171L90.8929 118.638L87.0601 114.579L88.6395 112.253L85.7748 108.033C86.3764 106.986 87.2849 106.093 88.357 105.554C88.4556 105.504 88.883 105.264 89.5632 105.052C92.1638 104.24 95.2177 105.965 96.3291 108.556C99.4799 115.898 91.3911 125.891 91.3911 125.891L91.3411 125.779Z" fill="#E00000"/>
<path d="M98.5723 123.91C98.2234 125.712 97.4127 127.519 95.9088 128.563C95.3063 128.985 94.6132 129.267 94.0017 129.671C93.594 129.943 93.2317 130.257 92.9191 130.611C92.5476 131.024 92.2487 131.492 92.0222 132.018L86.6953 128.191C87.0532 127.996 87.2842 127.642 87.4246 127.247C87.4836 127.085 87.5276 126.917 87.5559 126.747C87.6555 126.175 87.6329 125.585 87.7733 125.022C87.9817 124.182 88.5434 123.456 89.2274 122.925C89.9114 122.393 91.1253 121.749 91.9407 121.463C91.9679 122.393 91.9135 123.492 91.9407 124.423C92.8783 123.928 93.1909 123.083 93.816 122.23C94.4456 121.376 95.1839 120.514 96.2032 120.228C96.6426 120.101 97.1272 120.101 97.5395 120.296C97.8702 120.455 98.1328 120.727 98.3186 121.04C98.8214 121.885 98.758 122.947 98.5723 123.91Z" fill="#FDB6B4"/>
<path d="M92.9191 130.611C92.5476 131.024 92.2487 131.492 92.0222 132.018L86.6953 128.191C87.0532 127.996 87.2842 127.642 87.4246 127.247C88.0452 127.128 88.6884 127.083 89.2319 127.374C90.2103 127.9 90.4413 129.258 91.3292 129.93C91.7821 130.27 92.3801 130.406 92.9191 130.611Z" fill="#F7888A"/>
<path d="M83.2109 128.835L85.3423 126.711L93.4284 132.452L91.3626 135.035" fill="#E5E9F6"/>
<path d="M94.3218 124.242C94.3024 124.242 94.2835 124.236 94.2675 124.225C94.2516 124.214 94.2394 124.198 94.2326 124.18C94.2258 124.161 94.2247 124.142 94.2295 124.123C94.2343 124.104 94.2447 124.087 94.2593 124.074C94.8564 123.551 95.4741 123.01 95.9711 122.377C96.527 121.669 96.8486 120.947 96.927 120.23C96.9283 120.218 96.9321 120.206 96.9382 120.195C96.9442 120.184 96.9523 120.174 96.9621 120.166C96.9718 120.159 96.983 120.153 96.995 120.149C97.007 120.146 97.0196 120.145 97.032 120.146C97.0444 120.147 97.0565 120.151 97.0674 120.157C97.0784 120.163 97.088 120.171 97.0959 120.181C97.1037 120.191 97.1095 120.202 97.113 120.214C97.1165 120.226 97.1176 120.239 97.1162 120.251C97.0338 121.004 96.6988 121.758 96.1205 122.495C95.6124 123.142 94.9881 123.689 94.3842 124.218C94.367 124.233 94.3448 124.242 94.3218 124.242ZM94.9939 125.371C94.9715 125.371 94.9499 125.363 94.9327 125.349C94.9155 125.335 94.904 125.315 94.9001 125.292C94.8963 125.27 94.9003 125.248 94.9115 125.228C94.9228 125.209 94.9405 125.194 94.9615 125.186C96.7428 124.538 98.0564 122.831 98.2295 120.939C98.2343 120.887 98.2764 120.847 98.333 120.853C98.3853 120.858 98.4238 120.904 98.4189 120.957C98.239 122.921 96.8757 124.692 95.0263 125.366C95.0159 125.369 95.005 125.371 94.9939 125.371ZM95.4028 127.303C95.3805 127.303 95.3587 127.296 95.3415 127.281C95.3243 127.267 95.3126 127.247 95.3086 127.225C95.3045 127.203 95.3084 127.18 95.3195 127.161C95.3306 127.141 95.3482 127.126 95.3692 127.119C96.8458 126.56 98.0554 125.275 98.5259 123.765C98.5295 123.753 98.5356 123.742 98.5436 123.732C98.5516 123.723 98.5614 123.715 98.5725 123.709C98.5836 123.703 98.5957 123.7 98.6081 123.699C98.6206 123.697 98.6332 123.699 98.6451 123.703C98.6692 123.71 98.6892 123.727 98.7009 123.749C98.7127 123.772 98.715 123.798 98.7076 123.822C98.2201 125.386 96.9664 126.718 95.4364 127.297C95.4257 127.301 95.4143 127.303 95.4028 127.303Z" fill="#F7888A"/>
<path d="M104.089 81.0368L101.258 79.9245C101.271 79.1073 101.829 78.322 102.603 78.0768C103.378 77.8317 104.311 78.1903 104.687 78.9121C105.063 79.634 104.8 80.6373 104.089 81.0368Z" fill="#E55D5D"/>
<path d="M107.972 89.3887L91.7734 87.5636C91.8232 84.5263 93.703 81.5891 96.4436 80.2861C99.1841 78.9785 102.645 79.369 105.027 81.2485C107.41 83.1326 108.597 86.4149 107.972 89.3887Z" fill="#E55D5D"/>
<path d="M105.638 98.4593C107.295 96.9586 108.85 94.2061 109.244 92.0027C109.405 91.1037 109.438 90.145 109.071 89.309C108.474 87.9492 106.979 87.2322 105.55 86.8383C103.124 86.1698 100.535 86.1058 98.079 86.654C95.4971 87.2303 92.6143 88.3479 90.1217 86.8463C89.0355 86.1919 88.1604 85.2469 87.2301 84.3841C86.6345 83.8316 85.8111 83.2752 85.0733 83.6142C84.4368 83.9067 84.2393 84.7179 84.2387 85.4197C84.2365 88.2132 86.3289 90.8718 89.0401 91.5199C87.2117 91.3051 85.3638 90.5198 84.0292 89.2491C83.7431 91.0969 84.3773 93.0213 85.5316 94.4906C86.6858 95.9598 88.3216 96.9995 90.0689 97.6555" fill="#453447"/>
<path d="M107.14 100.797C107.027 101.088 106.873 101.365 106.651 101.578C106.429 101.791 106.126 101.932 105.813 101.91C105.555 101.891 105.315 101.696 105.147 101.442C105.043 101.683 104.866 101.937 104.776 102.141C104.518 102.7 104.255 103.253 103.947 103.785C103.353 104.829 102.606 105.805 101.582 106.45C100.251 107.28 98.6198 107.453 97.0571 107.426C96.2961 107.412 95.517 107.348 94.8194 107.053C94.0765 106.745 93.465 106.191 92.9305 105.587C91.9703 104.511 91.2002 103.217 90.9738 101.796C91.0281 102.296 90.3034 102.641 89.7915 102.536C89.2661 102.432 88.8901 101.955 88.6636 101.465C88.2469 100.57 88.1835 99.4763 88.6727 98.6228C89.0169 98.019 89.5968 97.5922 90.0678 97.0792C90.8244 96.2666 91.3181 95.2542 91.9023 94.3098C92.4912 93.37 93.225 92.4485 94.2532 92.0308C95.4445 91.5405 96.7265 91.5179 97.9948 91.2726C99.1906 91.0501 100.427 90.8186 101.61 91.1182C103 91.4633 104.142 92.5301 104.807 93.8013C105.469 95.0725 105.695 96.5389 105.691 97.9735C105.926 97.6422 106.633 97.5468 106.941 97.8146C107.249 98.0779 107.367 98.5047 107.408 98.9087C107.475 99.5488 107.38 100.203 107.14 100.797Z" fill="#FDB6B4"/>
<path d="M103.423 95.1352C102.478 94.3744 101.262 94.082 100.204 94.2605L100.19 93.2891C101.533 93.434 102.712 94.1517 103.423 95.1352ZM92.2344 96.0376C92.6961 94.9152 93.6754 93.9415 94.948 93.4863L95.1609 94.4341C94.0905 94.5081 92.9758 95.077 92.2344 96.0376Z" fill="#453447"/>
<path d="M102.565 96.9076C102.565 97.9158 101.986 98.7606 101.197 99.0044C101.049 99.055 100.891 99.0787 100.728 99.0787C99.7132 99.0787 98.8911 98.1062 98.8911 96.9076C98.8911 95.7059 99.7132 94.7334 100.728 94.7334C101.473 94.7334 102.117 95.2598 102.405 96.0153C102.509 96.2859 102.565 96.5893 102.565 96.9076ZM96.697 97.5425C96.697 97.9465 96.6065 98.3188 96.4434 98.6411C96.2033 99.1268 95.8047 99.4946 95.329 99.6399C95.1795 99.6898 95.0256 99.7125 94.8625 99.7125C94.4412 99.7125 94.0471 99.5445 93.7391 99.2585C93.3043 98.8635 93.0234 98.2416 93.0234 97.5424C93.0234 96.3393 93.8479 95.3677 94.8625 95.3677C95.6053 95.3677 96.2486 95.8943 96.5384 96.648C96.6426 96.9205 96.697 97.2247 96.697 97.5425Z" fill="white"/>
<path d="M96.4386 98.6408C96.1986 99.1266 95.7999 99.4943 95.3243 99.6397C95.1748 99.6896 95.0208 99.7123 94.8578 99.7123C94.4365 99.7123 94.0424 99.5443 93.7344 99.2583C93.8794 98.7497 94.2009 98.3276 94.6539 98.1278C95.2789 97.8508 95.9766 98.0778 96.4386 98.6408ZM102.323 98.0069C102.082 98.4927 101.684 98.8604 101.208 99.0058C101.059 99.0557 100.905 99.0784 100.742 99.0784C100.32 99.0784 99.9263 98.9104 99.6183 98.6244C99.7633 98.1158 100.085 97.6937 100.538 97.4939C101.163 97.2169 101.861 97.4439 102.323 98.0069Z" fill="#453447"/>
<path d="M98.0617 103.407C97.8109 103.407 97.5146 103.317 97.3735 103.051C97.2767 102.868 97.2765 102.635 97.3728 102.396C97.4127 102.296 97.4659 102.203 97.5195 102.109C97.5524 102.051 97.5855 101.994 97.6144 101.934C97.7782 101.595 97.7884 101.186 97.6419 100.839L97.9921 100.69C98.1807 101.137 98.1677 101.663 97.9571 102.1C97.9235 102.167 97.8876 102.234 97.8494 102.299C97.8046 102.377 97.7593 102.455 97.7254 102.539C97.6729 102.67 97.6669 102.792 97.7096 102.872C97.7777 103 97.9779 103.041 98.1325 103.022C98.461 102.985 98.7653 102.753 98.8898 102.446L99.2424 102.59C99.0643 103.029 98.6456 103.347 98.1756 103.401C98.1391 103.405 98.1011 103.407 98.0617 103.407ZM106.308 100.897C106.291 100.897 106.274 100.893 106.259 100.884C106.245 100.875 106.233 100.863 106.225 100.848C106.216 100.833 106.212 100.816 106.213 100.799C106.213 100.782 106.219 100.765 106.228 100.751C106.512 100.305 106.665 99.7687 106.659 99.2399C106.656 98.9714 106.603 98.7902 106.493 98.6698C106.426 98.5968 106.32 98.5443 106.215 98.5547C106.164 98.5563 106.092 98.571 106.042 98.6326C106.026 98.6514 106.004 98.6632 105.979 98.6655C105.954 98.6678 105.93 98.6603 105.91 98.6448C105.891 98.6292 105.879 98.6068 105.876 98.5822C105.873 98.5576 105.879 98.5327 105.894 98.513C105.968 98.4212 106.08 98.3682 106.209 98.364C106.365 98.3552 106.529 98.4266 106.633 98.5407C106.823 98.7475 106.847 99.0376 106.849 99.238C106.856 99.8032 106.692 100.377 106.388 100.853C106.38 100.867 106.368 100.878 106.354 100.886C106.34 100.893 106.324 100.897 106.308 100.897ZM89.2997 100.875C89.284 100.875 89.2686 100.871 89.2547 100.864C89.2409 100.857 89.2291 100.846 89.2204 100.833C88.8986 100.346 88.7881 99.7162 88.9244 99.1488C88.989 98.8805 89.0998 98.676 89.2543 98.5408C89.4581 98.362 89.7473 98.3169 89.958 98.4312C89.9689 98.4371 89.9786 98.4452 89.9865 98.455C89.9943 98.4647 90.0002 98.4759 90.0037 98.4879C90.0073 98.4999 90.0084 98.5125 90.0071 98.5249C90.0058 98.5374 90.002 98.5495 89.9961 98.5604C89.9901 98.5714 89.9821 98.5812 89.9724 98.589C89.9626 98.5969 89.9515 98.6028 89.9395 98.6063C89.9275 98.6099 89.915 98.611 89.9025 98.6097C89.8901 98.6084 89.8781 98.6047 89.8671 98.5987C89.7094 98.5133 89.5022 98.5773 89.3796 98.6843C89.2554 98.7932 89.1645 98.9644 89.1096 99.1933C88.9853 99.7105 89.0861 100.284 89.3791 100.727C89.3886 100.742 89.3941 100.758 89.3949 100.776C89.3957 100.793 89.3918 100.81 89.3837 100.825C89.3755 100.84 89.3634 100.853 89.3486 100.862C89.3338 100.871 89.3169 100.875 89.2997 100.875Z" fill="#F7888A"/>
<path d="M71.3364 143.284C71.2274 144.037 71.5099 144.907 71.8049 145.593C72.1079 146.297 72.5362 146.939 73.0687 147.489C73.5544 147.99 74.2177 148.507 74.9589 148.441C75.5669 148.386 76.0845 147.951 76.1239 147.326C76.1551 146.83 75.881 146.284 75.4371 146.048C74.898 145.76 74.221 145.955 73.7919 146.35C72.5947 147.45 73.5472 149.222 74.7417 149.833C76.2639 150.613 78.1439 150.288 79.4046 149.177C79.5569 149.043 79.3426 148.773 79.1788 148.898C78.2598 149.597 77.0983 149.932 75.9505 149.752C74.747 149.563 73.1727 148.497 73.7461 147.068C73.9399 146.585 74.4535 146.233 74.9799 146.277C75.5067 146.322 75.9533 146.824 75.8493 147.368C75.7454 147.911 75.099 148.062 74.6294 147.976C74.0312 147.866 73.5235 147.381 73.1372 146.937C72.6961 146.431 72.3422 145.854 72.0899 145.231C71.8269 144.581 71.7731 143.932 71.6166 143.261C71.5785 143.098 71.359 143.129 71.3364 143.284ZM114.427 116.25C116.14 116.901 117.78 117.877 119.181 119.057C119.862 119.631 120.497 120.261 121.066 120.947C121.358 121.299 121.635 121.665 121.894 122.042C122.159 122.425 122.396 122.921 122.73 123.237C122.892 123.391 123.116 123.215 123.075 123.02C122.992 122.622 122.68 122.195 122.452 121.858C122.188 121.468 121.904 121.091 121.603 120.728C120.999 119.999 120.332 119.322 119.606 118.715C118.105 117.46 116.404 116.55 114.529 116.003C114.368 115.956 114.263 116.188 114.427 116.25ZM130.326 140.098C131.094 142.054 131.158 144.108 130.039 145.947L130.313 145.922C129.898 145.564 129.348 145.145 129.319 144.552C129.303 144.22 129.497 143.782 129.87 143.722C130.839 143.565 130.728 145.02 130.7 145.501C130.645 146.443 130.512 147.376 130.31 148.299C130.115 149.187 129.852 150.061 129.517 150.906C129.132 151.875 128.579 152.765 128.183 153.723C128.115 153.888 128.369 154.027 128.481 153.897C129.445 152.774 130.003 151.164 130.422 149.763C130.873 148.249 131.176 146.587 131.095 145.001C131.058 144.267 130.466 143.052 129.54 143.628C128.47 144.296 129.443 145.617 130.059 146.159C130.141 146.231 130.269 146.237 130.333 146.134C131.444 144.344 131.67 141.84 130.496 140.019C130.44 139.932 130.286 139.996 130.326 140.098ZM81.0246 152.624C80.5364 154.806 80.2451 157 80.1632 159.237C80.1086 160.729 80.2808 162.661 81.962 163.202C83.5753 163.72 84.0832 162.013 85.2138 161.356C86.2712 160.741 87.1801 161.758 87.7659 162.534C88.2165 163.13 88.6921 163.773 89.3911 164.095C90.0905 164.416 90.8313 164.237 91.3533 163.684C91.6833 163.334 91.9209 162.907 92.2583 162.562C92.5283 162.285 92.8465 162.056 93.2429 162.058C93.6834 162.061 94.0582 162.347 94.0687 162.813C94.0715 162.937 94.2615 162.923 94.2781 162.809C94.345 162.352 94.0443 162.008 93.6203 161.864C93.0402 161.666 92.4937 161.994 92.0879 162.393C91.3424 163.124 90.6186 164.346 89.4131 163.668C88.5921 163.206 88.1676 162.323 87.5382 161.66C86.5854 160.655 85.4523 160.497 84.4258 161.473C83.8774 161.994 83.2797 162.849 82.4229 162.784C81.3795 162.704 80.818 161.659 80.6704 160.737C80.4587 159.416 80.6391 157.983 80.7511 156.657C80.864 155.32 81.0142 153.981 81.2221 152.655C81.2423 152.527 81.0526 152.498 81.0246 152.624ZM103.092 136.165C102.68 137.394 102.526 138.743 102.382 140.027C102.231 141.373 102.168 142.728 102.18 144.082C102.191 145.336 102.266 146.588 102.405 147.833C102.552 149.143 102.671 150.619 103.157 151.852C103.22 152.012 103.497 151.939 103.485 151.771C103.399 150.541 103.05 149.309 102.9 148.081C102.734 146.727 102.646 145.364 102.637 144C102.628 142.737 102.687 141.472 102.803 140.214C102.925 138.872 103.201 137.552 103.338 136.214C103.354 136.051 103.143 136.013 103.092 136.165ZM83.4439 172.958C82.5041 175.155 81.9686 177.563 81.5741 179.913C81.1827 182.245 80.8871 184.69 81.037 187.057C81.049 187.247 81.3192 187.248 81.3316 187.057C81.4898 184.634 81.5829 182.236 81.9883 179.835C82.3798 177.517 83.0442 175.29 83.6274 173.018C83.6549 172.911 83.4873 172.857 83.4439 172.958ZM78.6727 214.09C77.9762 217.495 77.5563 220.944 77.4395 224.419C77.3205 227.958 77.4265 231.596 78.1181 235.076C78.1436 235.204 78.3584 235.183 78.348 235.049C78.0869 231.666 77.7786 228.311 77.8303 224.911C77.8853 221.287 78.2393 217.674 78.8886 214.108C78.914 213.97 78.7003 213.955 78.6727 214.09ZM74.2346 238.528C74.7673 238.065 75.268 237.631 75.9286 237.359C76.5602 237.099 77.2505 236.969 77.9305 236.932C79.4814 236.85 80.9983 237.278 82.4815 237.675C84.9094 238.325 87.799 238.963 89.9868 237.308C90.1137 237.212 89.964 236.985 89.8294 237.075C87.0636 238.912 83.8689 237.63 80.9567 236.943C79.6023 236.623 78.2042 236.444 76.8269 236.728C75.8001 236.939 74.6362 237.425 74.0486 238.34C73.9726 238.458 74.1122 238.635 74.2346 238.528ZM108.561 239.503C110.098 238.089 112.281 238.329 114.14 238.818C115.852 239.267 117.51 239.822 119.304 239.666C122.365 239.401 125.336 237.532 126.685 234.737C126.737 234.628 126.556 234.533 126.494 234.638C124.801 237.505 121.715 239.39 118.351 239.275C115.181 239.166 111.087 236.489 108.33 239.247C108.174 239.403 108.397 239.654 108.561 239.503ZM115.698 169.431C116.451 171.67 117.049 173.977 117.388 176.317C117.71 178.535 117.764 180.77 117.813 183.005C117.815 183.123 118.003 183.121 118.017 183.006C118.551 178.455 117.677 173.569 115.935 169.352C115.874 169.205 115.646 169.276 115.698 169.431Z" fill="white"/>
<path d="M122.965 165.15C122.436 165.711 122.09 166.419 121.84 167.157C121.752 167.426 121.671 167.698 121.599 167.972C121.328 168.997 121.142 170.051 120.693 171.009C119.758 173.029 117.655 174.45 115.438 174.569C114.804 174.601 114.106 174.511 113.651 174.066C113.2 173.63 113.085 172.931 113.201 172.311C113.318 171.691 113.631 171.129 113.941 170.585L116.853 165.435C115.899 165.977 114.861 166.391 113.912 166.936C113.669 167.074 113.38 167.217 113.124 167.112C112.823 166.99 112.734 166.598 112.775 166.275C112.886 165.413 113.561 164.738 114.245 164.206C114.731 163.827 115.256 163.474 115.669 163.022C115.838 162.843 115.989 162.646 116.113 162.43L122.965 165.15Z" fill="#FDB6B4"/>
<path d="M122.962 165.15C122.433 165.711 122.087 166.419 121.837 167.157C120.721 166.941 119.656 166.429 118.717 165.776C117.686 165.063 116.786 164.185 115.927 163.276C115.848 163.189 115.755 163.109 115.665 163.022C115.835 162.843 115.985 162.646 116.11 162.43L122.962 165.15ZM113.798 174.335C113.779 174.335 113.759 174.328 113.743 174.317C113.727 174.306 113.715 174.289 113.708 174.271C113.702 174.252 113.701 174.232 113.707 174.213C113.712 174.194 113.724 174.177 113.739 174.165C115.109 173.069 116.083 171.524 116.483 169.814C116.486 169.801 116.491 169.79 116.498 169.78C116.505 169.769 116.514 169.761 116.525 169.754C116.536 169.747 116.548 169.743 116.56 169.741C116.572 169.739 116.585 169.74 116.597 169.743C116.609 169.746 116.621 169.751 116.631 169.758C116.641 169.765 116.65 169.775 116.656 169.785C116.663 169.796 116.667 169.808 116.669 169.82C116.671 169.832 116.671 169.845 116.668 169.857C116.259 171.609 115.261 173.191 113.858 174.314C113.841 174.327 113.82 174.335 113.798 174.335ZM115.746 174.588C115.727 174.588 115.709 174.583 115.693 174.572C115.677 174.562 115.665 174.547 115.658 174.529C115.651 174.512 115.649 174.492 115.653 174.474C115.657 174.455 115.666 174.438 115.679 174.425C116.922 173.202 117.785 171.585 118.109 169.87C118.114 169.845 118.129 169.823 118.149 169.809C118.17 169.795 118.196 169.79 118.221 169.794C118.245 169.799 118.267 169.813 118.282 169.834C118.296 169.855 118.301 169.881 118.296 169.906C117.965 171.658 117.083 173.311 115.813 174.561C115.795 174.579 115.771 174.588 115.746 174.588ZM117.945 173.916C117.927 173.916 117.908 173.91 117.893 173.9C117.877 173.89 117.865 173.875 117.858 173.858C117.85 173.841 117.848 173.821 117.852 173.803C117.855 173.785 117.864 173.768 117.877 173.754C118.924 172.667 119.569 171.178 119.645 169.669C119.647 169.617 119.685 169.572 119.744 169.578C119.757 169.579 119.769 169.582 119.78 169.587C119.792 169.593 119.802 169.6 119.81 169.61C119.818 169.619 119.825 169.63 119.829 169.641C119.833 169.653 119.835 169.666 119.834 169.678C119.757 171.233 119.093 172.767 118.014 173.887C118.005 173.896 117.994 173.903 117.983 173.908C117.971 173.913 117.958 173.916 117.945 173.916Z" fill="#F7888A"/>
<path d="M106.828 189.325C107.802 192.134 108.429 195.075 108.678 198.039C108.923 200.971 108.703 203.831 108.395 206.746C108.373 206.948 108.663 207.001 108.707 206.8C109.341 203.925 109.368 200.85 109.084 197.929C108.795 194.956 108.111 192.055 107.058 189.261C107.004 189.119 106.777 189.178 106.828 189.325ZM121.504 217.135C121.503 219.163 121.502 221.191 121.508 223.219C121.511 224.228 121.52 225.236 121.53 226.245C121.541 227.267 121.494 228.337 121.636 229.35C121.659 229.513 121.923 229.555 121.944 229.369C122.041 228.49 121.987 227.573 121.97 226.689C121.951 225.625 121.932 224.561 121.904 223.497C121.849 221.38 121.789 219.264 121.726 217.148C121.722 217.007 121.504 216.99 121.504 217.135Z" fill="white"/>
<path d="M115.542 159.594L114.492 162.066L123.914 166.29L125.061 163.943" fill="#E5E9F6"/>
<path d="M100.265 81.0062C98.8855 80.8176 97.3873 81.4207 96.3829 82.3598C95.9131 82.8003 95.5237 83.3196 95.2322 83.8944C95.083 84.1887 94.961 84.4961 94.8678 84.8128C94.7903 85.0758 94.6484 85.4532 94.7352 85.7235C94.7827 85.8712 94.9768 85.8976 95.0602 85.7661C95.211 85.5284 95.2101 85.1666 95.2921 84.8951C95.3829 84.5936 95.4998 84.3006 95.6416 84.0196C95.9333 83.4426 96.3306 82.9209 96.816 82.494C97.7972 81.6312 98.9732 81.2632 100.251 81.1268C100.314 81.1201 100.339 81.0163 100.265 81.0062ZM87.4113 86.0882C87.2616 85.7625 87.1331 85.4598 86.8009 85.2806C86.5404 85.1401 86.2242 85.1278 85.9771 85.304C85.3836 85.7276 85.5975 86.5757 85.7794 87.1557C85.9833 87.8057 86.311 88.418 86.7331 88.9521C86.9377 89.2105 87.1641 89.4508 87.4098 89.6703C87.6371 89.8737 87.9463 90.1788 88.252 90.2417C88.3661 90.2652 88.4424 90.1143 88.3747 90.0282C88.2244 89.8369 87.9651 89.7141 87.7766 89.5584C87.5619 89.3811 87.3619 89.1868 87.1783 88.9774C86.8254 88.5753 86.5343 88.1227 86.3144 87.6346C86.1006 87.1586 85.8401 86.5127 85.9314 85.9822C85.9887 85.6488 86.2707 85.4 86.609 85.5477C86.8707 85.6621 87.0613 85.9595 87.209 86.1932C87.2868 86.3165 87.4734 86.2235 87.4113 86.0882ZM85.853 91.3306C85.6908 91.2285 85.5055 91.2602 85.3659 91.3917C85.2021 91.5462 85.1981 91.7836 85.2439 91.9896C85.3767 92.587 85.7144 93.182 86.0411 93.6924C86.3495 94.1747 86.7098 94.6217 87.1154 95.0253C87.3314 95.24 87.5599 95.4417 87.7996 95.6294C88.0185 95.8007 88.2946 96.0582 88.5672 96.1274C88.6753 96.1548 88.7604 96.0284 88.6847 95.9413C88.5509 95.7871 88.3341 95.6915 88.1675 95.5727C87.9913 95.447 87.8206 95.3137 87.6558 95.1732C87.3083 94.8765 86.9876 94.5495 86.6975 94.1962C86.3759 93.8045 86.0945 93.3813 85.8576 92.9331C85.7564 92.7432 85.6627 92.5495 85.5765 92.3524C85.5283 92.2413 85.4766 92.1278 85.4416 92.0117C85.4158 91.926 85.3935 91.8302 85.3932 91.7408C85.3928 91.5841 85.5596 91.3333 85.7634 91.4514C85.8451 91.4987 85.936 91.3828 85.853 91.3306ZM105.218 88.8184C106.143 89.2257 106.993 89.9586 107.393 90.9003C107.848 91.9703 107.68 93.1484 107.271 94.2059C107.21 94.3634 107.43 94.4487 107.523 94.3292C108.306 93.3324 108.318 91.8716 107.803 90.745C107.578 90.2544 107.258 89.8139 106.861 89.4495C106.392 89.0196 105.896 88.7708 105.278 88.6343C105.171 88.6108 105.117 88.7737 105.218 88.8184ZM102.683 79.141C102.69 79.141 102.689 79.1299 102.682 79.1299C102.675 79.1299 102.676 79.141 102.683 79.141Z" fill="white"/>
<path d="M102.699 79.1414C102.892 78.9502 103.161 78.8402 103.429 78.9202C103.669 78.9918 103.823 79.2131 103.905 79.4384C103.923 79.4887 103.987 79.5119 104.035 79.4962C104.089 79.4785 104.114 79.4302 104.11 79.3747C104.095 79.1886 104.008 79.0383 103.877 78.9077C103.758 78.7893 103.608 78.7071 103.445 78.6705C103.285 78.6369 103.12 78.6477 102.967 78.7017C102.787 78.7656 102.643 78.8694 102.545 79.0351C102.488 79.1309 102.626 79.2134 102.699 79.1414Z" fill="white"/>
<path d="M99.0734 105.118C98.8361 104.808 98.4902 104.583 98.113 104.477C97.9098 104.419 97.698 104.398 97.4873 104.414C96.8888 104.463 96.3189 104.838 96.0359 105.369C96.0112 105.416 96.0288 105.473 96.0751 105.498C96.0974 105.51 96.1234 105.512 96.1475 105.505C96.1715 105.498 96.1918 105.481 96.2039 105.459C96.4572 104.984 96.967 104.648 97.5026 104.604C98.0388 104.56 98.5955 104.807 98.9222 105.234C98.9377 105.254 98.9603 105.267 98.9851 105.27C99.0099 105.273 99.035 105.266 99.0548 105.251C99.0747 105.236 99.0878 105.213 99.0912 105.188C99.0947 105.164 99.0883 105.138 99.0734 105.118Z" fill="#F7888A"/>
<path d="M91.733 100.929C91.6263 101.019 91.5225 101.117 91.4567 101.24C91.3908 101.363 91.3946 101.506 91.4247 101.642C91.4642 101.821 91.6122 101.926 91.7879 101.98C92.1068 102.078 92.3324 101.805 92.5237 101.485C92.7147 101.165 92.7962 100.659 92.752 100.309C92.3834 100.462 92.0385 100.672 91.733 100.929Z" fill="#C2D6FF"/>
<path d="M103.466 102.745C103.467 102.844 103.473 102.945 103.51 103.037C103.547 103.128 103.628 103.191 103.715 103.236C103.831 103.296 103.956 103.263 104.064 103.191C104.262 103.061 104.215 102.814 104.126 102.565C104.038 102.316 103.798 102.042 103.587 101.908C103.505 102.179 103.463 102.462 103.466 102.745Z" fill="#C2D6FF"/>
<path d="M92.4097 99.6078C92.1737 99.6844 91.9378 99.7613 91.7014 99.8379C91.6126 99.8668 91.512 99.9063 91.4815 99.9951C91.4493 100.089 91.5203 100.194 91.6136 100.227C91.7068 100.26 91.8112 100.235 91.9001 100.192C92.126 100.083 92.2792 99.8684 92.4228 99.6625" fill="#C2D6FF"/>
</g>
<defs>
<clipPath id="clip0_1673_29464">
<rect width="199" height="199" rx="99.5" fill="white"/>
</clipPath>
</defs>
</svg>
