<svg width="22" height="22" viewBox="0 0 22 22" fill="none" xmlns="http://www.w3.org/2000/svg">
<g id="samsung">
<g id="g8872">
<path id="path22" d="M12.7902 14.5995C12.9605 15.0066 12.9086 15.5299 12.829 15.846C12.6828 16.405 12.2903 16.9747 11.1314 16.9747C10.0392 16.9747 9.37645 16.3711 9.37645 15.4478V13.8208H4.7039L4.7002 15.1227C4.7002 18.8695 7.75846 20 11.0352 20C14.186 20 16.7814 18.9606 17.1943 16.1603C17.4053 14.7084 17.2479 13.7583 17.1758 13.3993C16.4408 9.88114 9.82815 8.83103 9.33572 6.86298C9.25241 6.52545 9.27648 6.16827 9.31721 5.97718C9.43754 5.44141 9.8189 4.85028 10.9093 4.85028C11.9275 4.85028 12.5291 5.45749 12.5291 6.37543C12.5291 6.68439 12.5291 7.41304 12.5291 7.41304H16.874V6.23256C16.874 2.57148 13.4677 2 11 2C7.901 2 5.3685 2.9876 4.90569 5.72358C4.7798 6.47902 4.76129 7.1523 4.94456 7.99524C5.70542 11.4295 11.8941 12.4242 12.7902 14.5995Z" fill="#2C2C35"/>
</g>
</g>
</svg>
