<svg width="34" height="19" viewBox="0 0 34 19" fill="none" xmlns="http://www.w3.org/2000/svg">
<g id="9.5">
<path id="Vector" d="M27.2704 6.9649C29.0355 6.9649 30.4866 7.49104 31.6237 8.54331C32.7609 9.59558 33.3294 10.9279 33.3294 12.5403C33.3294 14.1866 32.7609 15.5613 31.6237 16.6645C30.4866 17.7507 29.0779 18.2938 27.3977 18.2938C26.2775 18.2938 25.2592 18.0562 24.3427 17.581C23.4431 17.0888 22.7388 16.4184 22.2296 15.5698C21.7205 14.7042 21.4574 13.7368 21.4404 12.6675H25.1319C25.1319 13.0918 25.2252 13.4737 25.4119 13.8132C25.6156 14.1526 25.8871 14.4242 26.2266 14.6278C26.583 14.8145 26.9734 14.9079 27.3977 14.9079C28.0426 14.9079 28.5772 14.6872 29.0015 14.246C29.4428 13.7877 29.6634 13.2191 29.6634 12.5403C29.6634 11.8105 29.4258 11.2164 28.9506 10.7582C28.4754 10.2999 27.8729 10.0708 27.1431 10.0708H22.3824L22.0514 9.61256L22.9934 1.05859H32.1583V4.31725H25.8702L25.5647 6.9649H27.2704Z" fill="#2C2C35"/>
<path id="Vector_2" d="M14.9888 17.9871V14.0156H18.9348V17.9871H14.9888Z" fill="#2C2C35"/>
<path id="Vector_3" d="M7.33672 0.701172C9.2376 0.701172 10.7821 1.26974 11.9701 2.40687C13.1582 3.54401 13.7522 5.0121 13.7522 6.81115C13.7522 8.40653 13.1751 10.1971 12.021 12.1828L8.63509 17.9873H4.63815C6.67481 14.491 7.82891 12.5053 8.10047 12.0301C7.57433 12.1828 7.0482 12.2592 6.52206 12.2592C4.89273 12.2592 3.56042 11.75 2.52512 10.7317C1.48982 9.71338 0.972168 8.40653 0.972168 6.81115C0.972168 5.64007 1.24372 4.58779 1.78683 3.65433C2.32994 2.72086 3.0852 1.99954 4.05261 1.49038C5.02002 0.96424 6.11473 0.701172 7.33672 0.701172ZM7.36218 9.58609C8.19382 9.58609 8.88119 9.33151 9.4243 8.82235C9.98438 8.29621 10.2644 7.62581 10.2644 6.81115C10.2644 5.99648 9.98438 5.33457 9.4243 4.8254C8.88119 4.29927 8.19382 4.0362 7.36218 4.0362C6.51357 4.0362 5.81772 4.29927 5.27461 4.8254C4.7315 5.33457 4.45994 5.99648 4.45994 6.81115C4.45994 7.62581 4.7315 8.29621 5.27461 8.82235C5.81772 9.33151 6.51357 9.58609 7.36218 9.58609Z" fill="#2C2C35"/>
</g>
</svg>
