<svg width="24" height="24" viewBox="0 0 24 24" fill="none" xmlns="http://www.w3.org/2000/svg">
<g id="icon:setting">
<g id="Layer 2">
<path id="Vector" d="M20.9343 13.9247C20.87 13.6802 20.7576 13.4509 20.6037 13.2501C20.4497 13.0494 20.2573 12.8812 20.0377 12.7555C19.8197 12.6289 19.6386 12.4476 19.5125 12.2295C19.3864 12.0115 19.3197 11.7642 19.319 11.5124V11.4868C19.3197 11.2351 19.3865 10.9878 19.5127 10.7699C19.639 10.5519 19.8202 10.3708 20.0384 10.2445C20.4796 9.98947 20.8014 9.57014 20.9334 9.07849C21.0654 8.58684 20.9968 8.06299 20.7425 7.62181L19.7376 5.88112C19.4823 5.44026 19.0622 5.11865 18.5695 4.98697C18.0768 4.85528 17.5519 4.9243 17.1102 5.17885L17.0429 5.21538C16.8438 5.33133 16.6175 5.39243 16.3871 5.39243C16.1567 5.39243 15.9304 5.33133 15.7313 5.21538L15.585 5.12988C15.3849 5.01635 15.2186 4.85179 15.1031 4.65302C14.9876 4.45426 14.9271 4.22844 14.9277 3.99865V3.91973C14.927 3.41082 14.7241 2.92298 14.3637 2.56313C14.0033 2.20328 13.5148 2.00077 13.0051 2H10.9953C10.4857 2.00077 9.99708 2.20328 9.63668 2.56313C9.27628 2.92298 9.07347 3.41082 9.0727 3.91973V3.99865C9.07419 4.22884 9.0143 4.45528 8.89919 4.65472C8.78407 4.85416 8.61788 5.01942 8.41766 5.13354L8.26763 5.21538C8.06864 5.33148 7.84233 5.39266 7.61186 5.39266C7.3814 5.39266 7.15508 5.33148 6.9561 5.21538L6.8873 5.17519C6.44545 4.92133 5.92081 4.85278 5.42841 4.98456C4.93601 5.11634 4.51605 5.43771 4.26059 5.87819L3.25791 7.61888C3.00367 8.06007 2.93501 8.58391 3.06699 9.07556C3.19898 9.56721 3.52083 9.98655 3.96198 10.2416C4.18125 10.3708 4.36298 10.5549 4.48923 10.7756C4.61548 10.9963 4.68189 11.2462 4.68189 11.5004C4.68189 11.7546 4.61548 12.0044 4.48923 12.2251C4.36298 12.4459 4.18125 12.6299 3.96198 12.7591C3.74318 12.8851 3.55139 13.0528 3.39757 13.2529C3.24375 13.4529 3.13092 13.6812 3.06553 13.9248C3.00014 14.1684 2.98348 14.4224 3.01649 14.6724C3.0495 14.9224 3.13154 15.1635 3.25791 15.3818L4.224 17.0538C4.48998 17.5121 4.92709 17.8464 5.43951 17.9834C5.95193 18.1203 6.49784 18.0489 6.95756 17.7846C7.15731 17.6676 7.38469 17.606 7.61626 17.606C7.84782 17.606 8.0752 17.6676 8.27495 17.7846L8.42132 17.8657C8.62102 17.9805 8.78658 18.1462 8.90104 18.3459C9.0155 18.5456 9.07474 18.772 9.0727 19.0021C9.07347 19.5318 9.28463 20.0397 9.65988 20.4142C10.0351 20.7888 10.5438 20.9994 11.0744 21H12.926C13.4566 20.9994 13.9653 20.7888 14.3405 20.4142C14.7158 20.0397 14.927 19.5318 14.9277 19.0021C14.9262 18.7718 14.986 18.5452 15.1012 18.3457C15.2163 18.1461 15.3825 17.9807 15.5828 17.8665L15.7291 17.7817C15.9283 17.6656 16.1547 17.6044 16.3853 17.6044C16.6158 17.6044 16.8423 17.6656 17.0414 17.7817C17.501 18.0459 18.0468 18.1174 18.5591 17.9804C19.0714 17.8434 19.5084 17.5091 19.7742 17.0509L20.7396 15.3818C20.867 15.1639 20.9498 14.9229 20.9832 14.6728C21.0166 14.4226 21 14.1684 20.9343 13.9247ZM12.0002 15.1538C11.2765 15.1538 10.5689 14.9396 9.96716 14.5381C9.36538 14.1366 8.89634 13.5659 8.61937 12.8983C8.3424 12.2306 8.26993 11.4959 8.41113 10.7872C8.55233 10.0784 8.90085 9.42734 9.41263 8.91634C9.9244 8.40534 10.5764 8.05735 11.2863 7.91636C11.9962 7.77538 12.7319 7.84773 13.4006 8.12429C14.0693 8.40084 14.6408 8.86916 15.0429 9.47003C15.445 10.0709 15.6596 10.7773 15.6596 11.5C15.6584 12.4687 15.2725 13.3974 14.5865 14.0824C13.9005 14.7674 12.9704 15.1527 12.0002 15.1538Z" fill="#2C2C35"/>
</g>
</g>
</svg>
