<svg width="61" height="60" viewBox="0 0 61 60" fill="none" xmlns="http://www.w3.org/2000/svg">
<g id="smart-tv_7301464 1" clip-path="url(#clip0_3717_21361)">
<g id="Group">
<g id="Group_2">
<path id="Vector" d="M55.2266 1.75781H5.77344C3.83176 1.75781 2.25781 3.33176 2.25781 5.27344V40.4297C2.25781 42.3714 3.83176 43.9453 5.77344 43.9453H55.2266C57.1682 43.9453 58.7422 42.3714 58.7422 40.4297V5.27344C58.7422 3.33176 57.1682 1.75781 55.2266 1.75781Z" fill="#F6F9FF"/>
<path id="Vector_2" d="M55.2266 1.75781H30.5V43.9453H55.2266C57.1682 43.9453 58.7422 42.3714 58.7422 40.4297V5.27344C58.7422 3.33176 57.1682 1.75781 55.2266 1.75781Z" fill="#E6EAF3"/>
<path id="Vector_3" d="M41.1172 54.1406H19.8828L23.3607 43.3594H37.6393L41.1172 54.1406Z" fill="#394F99"/>
<path id="Vector_4" d="M30.5 54.1406H41.1172L37.6393 43.3594H30.5V54.1406Z" fill="#4A62B4"/>
<path id="Vector_5" d="M43.9766 60H17.0234C16.0527 60 15.2656 59.213 15.2656 58.2422V56.4844C15.2656 53.5719 17.6266 51.2109 20.5391 51.2109H40.4609C43.3734 51.2109 45.7344 53.5719 45.7344 56.4844V58.2422C45.7344 59.213 44.9473 60 43.9766 60Z" fill="#5067B8"/>
<path id="Vector_6" d="M55.2266 45.7031H5.77344C2.86566 45.7031 0.5 43.3375 0.5 40.4297V5.27344C0.5 2.36566 2.86566 0 5.77344 0H55.2266C58.1343 0 60.5 2.36566 60.5 5.27344V40.4297C60.5 43.3375 58.1343 45.7031 55.2266 45.7031ZM5.77344 3.51562C4.80418 3.51562 4.01562 4.30418 4.01562 5.27344V40.4297C4.01562 41.3989 4.80418 42.1875 5.77344 42.1875H55.2266C56.1958 42.1875 56.9844 41.3989 56.9844 40.4297V5.27344C56.9844 4.30418 56.1958 3.51562 55.2266 3.51562H5.77344Z" fill="#5067B8"/>
<g id="Group_3">
<path id="Vector_7" d="M55.2266 0H30.5V3.51562H55.2266C56.1958 3.51562 56.9844 4.30418 56.9844 5.27344V40.4297C56.9844 41.3989 56.1958 42.1875 55.2266 42.1875H30.5V45.7031H55.2266C58.1343 45.7031 60.5 43.3375 60.5 40.4297V5.27344C60.5 2.36566 58.1343 0 55.2266 0Z" fill="#5C75C9"/>
<path id="Vector_8" d="M40.4609 51.2109H30.5V60H43.9766C44.9473 60 45.7344 59.213 45.7344 58.2422V56.4844C45.7344 53.5719 43.3734 51.2109 40.4609 51.2109Z" fill="#5C75C9"/>
</g>
</g>
<g id="Group_4">
<path id="Vector_9" d="M37.6971 26.3307L36.6364 25.7183C36.8375 24.7942 36.9444 23.8351 36.9444 22.8516C36.9444 21.868 36.8375 20.9089 36.6364 19.9847L37.6971 19.3723C38.5378 18.8869 38.826 17.8118 38.3405 16.9711L35.9967 12.9116C35.5113 12.0709 34.4362 11.7827 33.5955 12.2682L32.5288 12.8842C31.1162 11.5989 29.43 10.6098 27.5694 10.0139V8.78906C27.5694 7.81828 26.7824 7.03125 25.8116 7.03125H21.1241C20.1533 7.03125 19.3663 7.81828 19.3663 8.78906V10.0139C17.5057 10.6097 15.8195 11.5989 14.4069 12.8842L13.3401 12.2682C12.4994 11.7829 11.4244 12.0709 10.939 12.9116L8.59522 16.9711C8.10983 17.8118 8.39787 18.8869 9.23858 19.3723L10.2992 19.9847C10.0981 20.9089 9.99127 21.868 9.99127 22.8516C9.99127 23.8351 10.0981 24.7942 10.2992 25.7184L9.23858 26.3309C8.39787 26.8162 8.10971 27.8913 8.59522 28.732L10.939 32.7915C11.4244 33.6322 12.4994 33.9204 13.3401 33.4349L14.4069 32.8189C15.8195 34.1043 17.5057 35.0933 19.3663 35.6892V36.9141C19.3663 37.8848 20.1533 38.6719 21.1241 38.6719H25.8116C26.7824 38.6719 27.5694 37.8848 27.5694 36.9141V35.6892C29.43 35.0934 31.1162 34.1043 32.5288 32.8189L33.5955 33.4349C34.4362 33.9203 35.5113 33.6322 35.9967 32.7915L38.3405 28.732C38.826 27.8912 38.5378 26.8161 37.6971 26.3307ZM23.4678 27.5391C20.879 27.5391 18.7803 25.4404 18.7803 22.8516C18.7803 20.2628 20.879 18.1641 23.4678 18.1641C26.0566 18.1641 28.1553 20.2628 28.1553 22.8516C28.1553 25.4404 26.0566 27.5391 23.4678 27.5391Z" fill="#E2E5EB"/>
<path id="Vector_10" d="M38.3414 16.9711L35.9976 12.9116C35.5122 12.0709 34.4371 11.7828 33.5964 12.2683L32.5297 12.8842C31.904 12.3149 31.2245 11.8041 30.5 11.3594V34.3438C31.2245 33.8992 31.904 33.3883 32.5297 32.819L33.5964 33.4349C34.4371 33.9203 35.5122 33.6323 35.9976 32.7916L38.3414 28.7321C38.8268 27.8914 38.5387 26.8163 37.698 26.3309L36.6373 25.7185C36.8384 24.7942 36.9453 23.8352 36.9453 22.8516C36.9453 21.868 36.8384 20.909 36.6373 19.9847L37.698 19.3723C38.5387 18.887 38.8269 17.812 38.3414 16.9711Z" fill="#CED1D7"/>
<path id="Vector_11" d="M23.4688 29.2969C19.9148 29.2969 17.0234 26.4055 17.0234 22.8516C17.0234 19.2976 19.9148 16.4062 23.4688 16.4062C27.0227 16.4062 29.9141 19.2976 29.9141 22.8516C29.9141 26.4055 27.0227 29.2969 23.4688 29.2969ZM23.4688 19.9219C21.8533 19.9219 20.5391 21.2361 20.5391 22.8516C20.5391 24.467 21.8533 25.7812 23.4688 25.7812C25.0842 25.7812 26.3984 24.467 26.3984 22.8516C26.3984 21.2361 25.0842 19.9219 23.4688 19.9219Z" fill="#CED1D7"/>
<g id="Group_5">
<path id="Vector_12" d="M51.5938 10.5469H43.3906C42.4198 10.5469 41.6328 9.75984 41.6328 8.78906C41.6328 7.81828 42.4198 7.03125 43.3906 7.03125H51.5938C52.5645 7.03125 53.3516 7.81828 53.3516 8.78906C53.3516 9.75984 52.5645 10.5469 51.5938 10.5469Z" fill="#60AC71"/>
<path id="Vector_13" d="M51.5938 17.5781H43.3906C42.4198 17.5781 41.6328 16.7911 41.6328 15.8203C41.6328 14.8495 42.4198 14.0625 43.3906 14.0625H51.5938C52.5645 14.0625 53.3516 14.8495 53.3516 15.8203C53.3516 16.7911 52.5645 17.5781 51.5938 17.5781Z" fill="#60AC71"/>
<path id="Vector_14" d="M51.5938 24.6094H43.3906C42.4198 24.6094 41.6328 23.8223 41.6328 22.8516C41.6328 21.8808 42.4198 21.0938 43.3906 21.0938H51.5938C52.5645 21.0938 53.3516 21.8808 53.3516 22.8516C53.3516 23.8223 52.5645 24.6094 51.5938 24.6094Z" fill="#60AC71"/>
<path id="Vector_15" d="M51.5938 31.6406H43.3906C42.4198 31.6406 41.6328 30.8536 41.6328 29.8828C41.6328 28.912 42.4198 28.125 43.3906 28.125H51.5938C52.5645 28.125 53.3516 28.912 53.3516 29.8828C53.3516 30.8536 52.5645 31.6406 51.5938 31.6406Z" fill="#60AC71"/>
<path id="Vector_16" d="M51.5938 38.6719H43.3906C42.4198 38.6719 41.6328 37.8848 41.6328 36.9141C41.6328 35.9433 42.4198 35.1562 43.3906 35.1562H51.5938C52.5645 35.1562 53.3516 35.9433 53.3516 36.9141C53.3516 37.8848 52.5645 38.6719 51.5938 38.6719Z" fill="#60AC71"/>
</g>
</g>
</g>
</g>
<defs>
<clipPath id="clip0_3717_21361">
<rect width="60" height="60" fill="white" transform="translate(0.5)"/>
</clipPath>
</defs>
</svg>
