<svg width="20" height="19" viewBox="0 0 20 19" fill="none" xmlns="http://www.w3.org/2000/svg">
<path id="Star 2" d="M9.12928 1.42372C9.51795 0.777901 10.4542 0.777901 10.8429 1.42372L13.2238 5.37999C13.3634 5.612 13.5912 5.77747 13.855 5.83857L18.3534 6.8804C19.0877 7.05047 19.377 7.94094 18.8829 8.51015L15.856 11.9971C15.6785 12.2016 15.5915 12.4693 15.6149 12.7391L16.0142 17.3392C16.0793 18.0902 15.3219 18.6405 14.6278 18.3465L10.3762 16.5453C10.1268 16.4396 9.84534 16.4396 9.596 16.5453L5.34436 18.3465C4.65033 18.6405 3.89285 18.0902 3.95802 17.3392L4.35725 12.7391C4.38066 12.4693 4.29367 12.2016 4.11616 11.9971L1.08927 8.51015C0.595163 7.94094 0.884494 7.05047 1.61881 6.8804L6.11719 5.83857C6.38099 5.77747 6.60874 5.612 6.74837 5.37999L9.12928 1.42372Z" fill="#FFD65A"/>
</svg>
