<svg width="42" height="42" viewBox="0 0 42 42" fill="none" xmlns="http://www.w3.org/2000/svg">
<g id="Frame 5572">
<circle id="Ellipse 35" cx="21" cy="21" r="21" fill="#B3BAEA" fill-opacity="0.5"/>
<circle id="Ellipse 36" cx="21" cy="21" r="15" fill="#5C75C9"/>
<path id="3" d="M17.1404 24.9775L20.5263 21.2901C21.6374 20.092 22.193 19.1315 22.193 18.4085C22.193 17.6338 21.8012 17.2465 21.0175 17.2465C20.6199 17.2465 20.2749 17.3601 19.9825 17.5873C19.7018 17.8146 19.4386 18.1089 19.193 18.4704L17 17.262C17.4327 16.5906 18.0058 16.0484 18.7193 15.6352C19.4327 15.2117 20.2339 15 21.1228 15C21.6725 15 22.1813 15.0723 22.6491 15.2169C23.1287 15.3615 23.538 15.5681 23.8772 15.8366C24.2281 16.1052 24.5029 16.4305 24.7018 16.8127C24.9006 17.1845 25 17.6028 25 18.0676C25 18.6667 24.8363 19.3174 24.5088 20.0197C24.1813 20.7117 23.6316 21.4657 22.8596 22.2817L21.5263 23.6761H24.9474V26H17.1404V24.9775Z" fill="white"/>
</g>
</svg>
