<svg width="42" height="42" viewBox="0 0 42 42" fill="none" xmlns="http://www.w3.org/2000/svg">
<g id="Frame 5572">
<circle id="Ellipse 35" cx="21" cy="21" r="21" fill="#B3BAEA" fill-opacity="0.5"/>
<circle id="Ellipse 36" cx="21" cy="21" r="15" fill="#5C75C9"/>
<path id="3" d="M20.8444 26C19.9624 26 19.1894 25.8466 18.5253 25.5397C17.8612 25.2227 17.3528 24.8033 17 24.2817L18.8988 22.8243C19.0856 23.0902 19.3502 23.3152 19.6926 23.4993C20.0454 23.6834 20.4189 23.7755 20.8132 23.7755C21.0208 23.7755 21.2179 23.7499 21.4047 23.6987C21.6018 23.6374 21.773 23.5556 21.9183 23.4533C22.0739 23.3408 22.1933 23.2027 22.2763 23.0391C22.3696 22.8754 22.4163 22.6811 22.4163 22.4561C22.4163 22.0265 22.2607 21.7146 21.9494 21.5202C21.6485 21.3157 21.249 21.2134 20.751 21.2134H19.9572V19.219H20.751C21.1453 19.219 21.441 19.1167 21.6381 18.9121C21.8457 18.7076 21.9494 18.4723 21.9494 18.2064C21.9494 17.9098 21.8457 17.6746 21.6381 17.5007C21.441 17.3166 21.1505 17.2245 20.7665 17.2245C20.4345 17.2245 20.1336 17.3013 19.8638 17.4547C19.594 17.6081 19.3813 17.7871 19.2257 17.9916L17.4202 16.6262C17.7938 16.1353 18.2711 15.7415 18.8521 15.4449C19.4436 15.1483 20.1232 15 20.8911 15C21.3684 15 21.8197 15.0614 22.2451 15.1841C22.6706 15.3068 23.0389 15.4909 23.3502 15.7364C23.6719 15.9716 23.9209 16.2631 24.0973 16.6109C24.284 16.9484 24.3774 17.3371 24.3774 17.7768C24.3774 18.3087 24.2581 18.7638 24.0195 19.1423C23.7808 19.5105 23.4851 19.8071 23.1323 20.0321C23.7237 20.2366 24.1803 20.5588 24.5019 20.9986C24.834 21.4384 25 21.9907 25 22.6555C25 23.1874 24.8962 23.6629 24.6887 24.0823C24.4812 24.4914 24.1958 24.8391 23.8327 25.1255C23.4695 25.4119 23.0285 25.6318 22.5097 25.7852C22.0013 25.9284 21.4462 26 20.8444 26Z" fill="white"/>
</g>
</svg>
