<svg width="42" height="42" viewBox="0 0 42 42" fill="none" xmlns="http://www.w3.org/2000/svg">
<circle cx="21" cy="21" r="21" fill="#B3BAEA" fill-opacity="0.5"/>
<circle cx="21" cy="21" r="15" fill="#5C75C9"/>
<path d="M19.3045 25.7455C19.2395 25.7455 19.1742 25.7208 19.1245 25.6711L15.0745 21.6211C14.9752 21.5217 14.9752 21.3608 15.0745 21.2614L16.6167 19.7192C16.7161 19.6198 16.877 19.6198 16.9764 19.7192L19.2539 21.9967C19.2817 22.0245 19.327 22.0245 19.3552 21.9967L25.0236 16.3283C25.0714 16.2805 25.1361 16.2539 25.2036 16.2539C25.2711 16.2539 25.3358 16.2808 25.3836 16.3283L26.9258 17.8705C27.0252 17.9698 27.0252 18.1308 26.9258 18.2302L19.4845 25.6711C19.4348 25.7208 19.3695 25.7455 19.3045 25.7455Z" fill="white"/>
</svg>
