<svg width="22" height="22" viewBox="0 0 22 22" fill="none" xmlns="http://www.w3.org/2000/svg">
<g id="logo-tiktok-svgrepo-com 1">
<path id="Vector" d="M16.8577 5.84956C16.7362 5.78677 16.6179 5.71794 16.5033 5.64332C16.1701 5.423 15.8645 5.1634 15.5933 4.87011C14.9145 4.09352 14.6611 3.30568 14.5677 2.75409H14.5714C14.4934 2.29624 14.5257 2 14.5306 2H11.4392V13.9537C11.4392 14.1141 11.4392 14.2728 11.4325 14.4295C11.4325 14.449 11.4306 14.467 11.4295 14.488C11.4295 14.4966 11.4295 14.5056 11.4276 14.5146C11.4276 14.5169 11.4276 14.5191 11.4276 14.5214C11.395 14.9503 11.2575 15.3646 11.0272 15.7279C10.7969 16.0912 10.4809 16.3923 10.1069 16.6048C9.71713 16.8265 9.27628 16.9428 8.82784 16.9423C7.38754 16.9423 6.22022 15.7678 6.22022 14.3174C6.22022 12.867 7.38754 11.6925 8.82784 11.6925C9.10049 11.6923 9.37145 11.7352 9.63068 11.8196L9.63443 8.67204C8.84748 8.57039 8.048 8.63293 7.28643 8.85572C6.52487 9.07851 5.81773 9.45672 5.20965 9.96648C4.67682 10.4294 4.22888 10.9818 3.88596 11.5988C3.75547 11.8238 3.26312 12.7278 3.2035 14.1951C3.166 15.028 3.41611 15.8908 3.53536 16.2474V16.2549C3.61035 16.4649 3.90096 17.1815 4.37457 17.7856C4.75646 18.2702 5.20766 18.6958 5.71362 19.0489V19.0414L5.72112 19.0489C7.21767 20.0658 8.87697 19.9991 8.87697 19.9991C9.1642 19.9875 10.1264 19.9991 11.2191 19.4813C12.431 18.9072 13.121 18.0518 13.121 18.0518C13.5618 17.5408 13.9123 16.9583 14.1575 16.3295C14.4372 15.5942 14.5306 14.7122 14.5306 14.3598V8.01807C14.5681 8.04057 15.0675 8.37093 15.0675 8.37093C15.0675 8.37093 15.7871 8.83216 16.9098 9.13252C17.7153 9.34626 18.8005 9.39126 18.8005 9.39126V6.32241C18.4202 6.36366 17.6482 6.24366 16.8577 5.84956Z" fill="#2C2C35"/>
</g>
</svg>
