<svg width="16" height="17" viewBox="0 0 16 17" fill="none" xmlns="http://www.w3.org/2000/svg">
<g id="tooltip">
<path id="Vector" d="M7.99993 1.83301C4.33327 1.83301 1.33327 4.83301 1.33327 8.49968C1.33327 10.033 1.8666 11.4997 2.8666 12.6997L1.53327 14.033C1.33327 14.233 1.2666 14.4997 1.39993 14.7663C1.4666 15.033 1.73327 15.1663 1.99993 15.1663H7.99993C11.6666 15.1663 14.6666 12.1663 14.6666 8.49968C14.6666 4.83301 11.6666 1.83301 7.99993 1.83301ZM7.99993 11.1663C7.59993 11.1663 7.33327 10.8997 7.33327 10.4997C7.33327 10.0997 7.59993 9.83301 7.99993 9.83301C8.39993 9.83301 8.6666 10.0997 8.6666 10.4997C8.6666 10.8997 8.39993 11.1663 7.99993 11.1663ZM8.6666 8.49968C8.6666 8.89968 8.39993 9.16634 7.99993 9.16634C7.59993 9.16634 7.33327 8.89968 7.33327 8.49968V6.49967C7.33327 6.09968 7.59993 5.83301 7.99993 5.83301C8.39993 5.83301 8.6666 6.09968 8.6666 6.49967V8.49968Z" fill="#515151"/>
</g>
</svg>
