<svg width="32" height="32" viewBox="0 0 32 32" fill="none" xmlns="http://www.w3.org/2000/svg">
<mask id="mask0_3555_50536" style="mask-type:luminance" maskUnits="userSpaceOnUse" x="2" y="2" width="28" height="28">
<path d="M2.90918 2.90918H29.091V29.091H2.90918V2.90918Z" fill="white"/>
</mask>
<g mask="url(#mask0_3555_50536)">
<path d="M25.8185 12.7276C25.8185 12.1251 25.3301 11.6367 24.7276 11.6367H7.27304C6.67055 11.6367 6.18213 12.1251 6.18213 12.7276V23.6367C6.18213 24.2392 6.67055 24.7276 7.27304 24.7276H24.7276C25.3301 24.7276 25.8185 24.2392 25.8185 23.6367V12.7276Z" fill="#CED1D7"/>
<path fill-rule="evenodd" clip-rule="evenodd" d="M8.6141 3.30471C8.99817 2.8405 9.68583 2.77553 10.15 3.15959L13.6666 6.06904C14.2603 5.46538 15.0865 5.09103 16.0001 5.09103C16.9137 5.09103 17.7399 5.46538 18.3335 6.06904L21.8501 3.15959C22.3144 2.77553 23.002 2.8405 23.3861 3.30471C23.7701 3.76892 23.7052 4.45658 23.241 4.84065L19.2853 8.11337L19.2646 8.13006C19.2701 8.20726 19.2728 8.28518 19.2728 8.36376H25.8183C27.6258 8.36376 29.091 9.82901 29.091 11.6365V24.7274C29.091 26.5349 27.6258 28.0001 25.8183 28.0001C25.8183 28.6026 25.3299 29.091 24.7274 29.091H22.5455C21.943 29.091 21.4546 28.6026 21.4546 28.0001H10.5455C10.5455 28.6026 10.0571 29.091 9.45463 29.091H7.27282C6.67033 29.091 6.18191 28.6026 6.18191 28.0001C4.37442 28.0001 2.90918 26.5349 2.90918 24.7274V11.6365C2.90918 9.82901 4.37443 8.36376 6.18191 8.36376H12.7274C12.7274 8.28518 12.7301 8.20727 12.7356 8.13007L12.7149 8.11337L8.75922 4.84065C8.29501 4.45658 8.23003 3.76892 8.6141 3.30471ZM5.091 11.6365C5.091 11.034 5.57942 10.5456 6.18191 10.5456H25.8183C26.4208 10.5456 26.9092 11.034 26.9092 11.6365V24.7274C26.9092 25.3299 26.4208 25.8183 25.8183 25.8183H6.18191C5.57942 25.8183 5.091 25.3299 5.091 24.7274V11.6365Z" fill="#CED1D7"/>
</g>
</svg>
