<svg width="22" height="22" viewBox="0 0 22 22" fill="none" xmlns="http://www.w3.org/2000/svg">
<g id="tv_6097399 1">
<g id="Clip path group">
<mask id="mask0_3666_33020" style="mask-type:luminance" maskUnits="userSpaceOnUse" x="2" y="2" width="18" height="18">
<g id="clip0_4:2">
<path id="Vector" d="M2 2H20V20H2V2Z" fill="white"/>
</g>
</mask>
<g mask="url(#mask0_3666_33020)">
<g id="Group">
<path id="Vector_2" d="M17.75 8.75C17.75 8.33579 17.4142 8 17 8H5C4.58579 8 4.25 8.33579 4.25 8.75V16.25C4.25 16.6642 4.58579 17 5 17H17C17.4142 17 17.75 16.6642 17.75 16.25V8.75Z" fill="#2C2C35"/>
<path id="Vector_3" fill-rule="evenodd" clip-rule="evenodd" d="M5.92213 2.27193C6.18618 1.95278 6.65895 1.90811 6.9781 2.17216L9.39575 4.17241C9.8039 3.75739 10.3719 3.50002 11 3.50002C11.6281 3.50002 12.1961 3.75739 12.6042 4.17241L15.0219 2.17216C15.3411 1.90811 15.8138 1.95278 16.0779 2.27193C16.3419 2.59107 16.2973 3.06384 15.9781 3.32788L13.2586 5.57788L13.2444 5.58936C13.2481 5.64243 13.25 5.696 13.25 5.75002H17.75C18.9927 5.75002 20 6.75738 20 8.00002V17C20 18.2427 18.9927 19.25 17.75 19.25C17.75 19.6642 17.4142 20 17 20H15.5C15.0858 20 14.75 19.6642 14.75 19.25H7.25C7.25 19.6642 6.91421 20 6.5 20H5C4.58579 20 4.25 19.6642 4.25 19.25C3.00735 19.25 2 18.2427 2 17V8.00002C2 6.75738 3.00736 5.75002 4.25 5.75002H8.75C8.75 5.696 8.7519 5.64244 8.75565 5.58937L8.74143 5.57788L6.0219 3.32788C5.70276 3.06384 5.65809 2.59107 5.92213 2.27193ZM3.5 8.00002C3.5 7.58581 3.83579 7.25002 4.25 7.25002H17.75C18.1642 7.25002 18.5 7.58581 18.5 8.00002V17C18.5 17.4142 18.1642 17.75 17.75 17.75H4.25C3.83579 17.75 3.5 17.4142 3.5 17V8.00002Z" fill="#2C2C35"/>
</g>
</g>
</g>
</g>
</svg>
