<svg width="30" height="30" viewBox="0 0 30 30" fill="none" xmlns="http://www.w3.org/2000/svg">
<g clip-path="url(#clip0_2786_46788)">
<rect width="30" height="30" rx="6" fill="white"/>
<path d="M0 15V30H15H30V15V0H15H0V15ZM24.0527 8.70117C24.6328 8.88281 25.2773 9.08789 25.4824 9.15234C25.6875 9.2168 25.834 9.28711 25.8047 9.31055C25.7754 9.33984 25.1133 9.5918 24.3398 9.87305L22.9219 10.3828L21.5859 9.90234C20.8477 9.63281 20.1797 9.39258 20.0977 9.35742C19.9688 9.31055 20.1445 9.23438 21.416 8.81836C22.2246 8.54883 22.9102 8.33789 22.9395 8.34961C22.9746 8.35547 23.4727 8.51367 24.0527 8.70117ZM7.61719 11.2793L7.64648 13.6816L8.17383 13.1836C8.4668 12.9082 9.3457 12.0938 10.1367 11.3672C10.9219 10.6406 11.8594 9.7793 12.2109 9.44531L12.8613 8.84766H14.7891C16.6113 8.84766 16.7109 8.85352 16.6348 8.94727C16.5469 9.06445 13.6934 12.082 12.7148 13.0957C12.375 13.4473 11.5957 14.2676 10.9863 14.9121C10.3711 15.5566 9.60938 16.3594 9.28711 16.6992C8.96484 17.0391 7.97461 18.0762 7.08984 19.0078L5.47852 20.7012L5.46094 15.5098L5.44922 10.3125H4.77539H4.10156V9.58008V8.84766L5.84766 8.85938L7.58789 8.87695L7.61719 11.2793ZM21.2988 10.4238L22.5293 10.9336L22.5469 12.7031C22.5527 13.7227 22.5352 14.4727 22.5059 14.4727C22.4766 14.4727 21.8906 14.2148 21.2051 13.8984L19.9512 13.3242L19.9336 11.6133C19.9219 10.2656 19.9336 9.90234 19.9922 9.90234C20.0332 9.9082 20.625 10.1367 21.2988 10.4238ZM25.8984 11.6191V13.3418L24.627 13.9102C23.9238 14.2207 23.332 14.4727 23.3027 14.4727C23.2793 14.4727 23.2676 13.6816 23.2734 12.709L23.291 10.9453L24.5215 10.4297C25.2012 10.1426 25.7871 9.9082 25.8281 9.9082C25.8809 9.90234 25.8984 10.2832 25.8984 11.6191ZM15.8262 14.3203C16.5234 14.4727 16.957 14.7773 17.1914 15.293C17.2852 15.498 17.3086 15.6797 17.3086 16.1426C17.3145 17.168 17.1211 17.4199 15.2871 18.791C14.1211 19.6699 14.0801 19.7109 14.0273 19.9746L13.9863 20.168L14.6367 20.1445C15.0645 20.1328 15.3105 20.1035 15.3633 20.0508C15.4043 20.0098 15.4512 19.8223 15.4688 19.6406L15.498 19.3066H16.4355H17.373L17.3906 20.4609L17.4023 21.6211H14.7949H12.1875V20.5195C12.1934 19.3535 12.2285 19.1426 12.4863 18.8203C12.5625 18.7207 13.2305 18.1816 13.9688 17.625C14.7012 17.0684 15.3398 16.541 15.3867 16.4531C15.4922 16.248 15.4922 15.9375 15.3809 15.7793C15.1641 15.4688 14.4961 15.4629 14.2031 15.7676C14.0508 15.9258 14.0332 15.9902 14.0098 16.4121L13.9922 16.875H13.1484H12.3047V15.8848V14.8945L12.457 14.7949C12.6855 14.6484 13.3418 14.4141 13.7695 14.3262C14.2793 14.2207 15.3516 14.2207 15.8262 14.3203Z" fill="#2C2C35"/>
</g>
<defs>
<clipPath id="clip0_2786_46788">
<rect width="30" height="30" rx="6" fill="white"/>
</clipPath>
</defs>
</svg>
