<svg width="21" height="20" viewBox="0 0 21 20" fill="none" xmlns="http://www.w3.org/2000/svg">
<g id="video-camera_665948 1" clip-path="url(#clip0_257_2838)">
<g id="Group">
<g id="Group_2">
<path id="Vector" d="M11.8129 4.125H2.68818C1.48468 4.125 0.5 5.10968 0.5 6.31318V13.6874C0.5 14.8909 1.48468 15.8755 2.68818 15.8755H11.8129C13.0164 15.8755 14.0011 14.8909 14.0011 13.6874V6.31318C14.0011 5.0878 13.0164 4.125 11.8129 4.125Z" fill="white"/>
</g>
</g>
<g id="Group_3">
<g id="Group_4">
<path id="Vector_2" d="M18.8808 5.32821C18.7495 5.3501 18.6182 5.41574 18.5088 5.48139L15.0952 7.45075V12.5273L18.5307 14.4967C19.1652 14.8687 19.953 14.6499 20.325 14.0153C20.4344 13.8184 20.5 13.5995 20.5 13.3588V6.59736C20.5 5.78773 19.7342 5.13128 18.8808 5.32821Z" fill="white"/>
</g>
</g>
</g>
<defs>
<clipPath id="clip0_257_2838">
<rect width="20" height="20" fill="white" transform="translate(0.5)"/>
</clipPath>
</defs>
</svg>
