<svg width="124" height="37" viewBox="0 0 124 37" fill="none" xmlns="http://www.w3.org/2000/svg">
<g id="Frame 5821">
<g id="Group">
<g id="Group_2">
<g id="Group_3">
<g id="Group_4">
<path id="Vector" d="M52.7305 28.5216L56.4331 7.69434H62.2184L58.6315 28.5216H52.7305Z" fill="#3C58BF"/>
</g>
</g>
<g id="Group_5">
<g id="Group_6">
<path id="Vector_2" d="M52.7305 28.5216L57.4744 7.69434H62.2184L58.6315 28.5216H52.7305Z" fill="#293688"/>
</g>
</g>
<g id="Group_7">
<g id="Group_8">
<path id="Vector_3" d="M79.5723 7.92566C78.4152 7.46283 76.5639 7 74.2498 7C68.4644 7 64.299 9.89267 64.299 14.0581C64.299 17.1822 67.1917 18.8021 69.5058 19.8435C71.8199 20.8848 72.5142 21.5791 72.5142 22.5047C72.5142 23.8932 70.6629 24.5874 69.043 24.5874C66.7288 24.5874 65.4561 24.2403 63.489 23.4304L62.6791 23.0832L61.8691 27.8272C63.2576 28.4058 65.8032 28.9843 68.4644 28.9843C74.5969 28.9843 78.6466 26.0916 78.6466 21.6948C78.6466 19.2649 77.1424 17.4136 73.6712 15.9094C71.5885 14.8681 70.3157 14.2895 70.3157 13.2482C70.3157 12.3225 71.3571 11.3969 73.6712 11.3969C75.6383 11.3969 77.0267 11.744 78.0681 12.2068L78.6466 12.4382L79.5723 7.92566Z" fill="#3C58BF"/>
</g>
</g>
<g id="Group_9">
<g id="Group_10">
<path id="Vector_4" d="M79.5723 7.92566C78.4152 7.46283 76.5639 7 74.2498 7C68.4644 7 65.3403 9.89267 65.3403 14.0581C65.3403 17.1822 67.1917 18.8021 69.5058 19.8435C71.8199 20.8848 72.5142 21.5791 72.5142 22.5047C72.5142 23.8932 70.6629 24.5874 69.043 24.5874C66.7288 24.5874 65.4561 24.2403 63.489 23.4304L62.6791 23.0832L61.8691 27.8272C63.2576 28.4058 65.8032 28.9843 68.4644 28.9843C74.5969 28.9843 78.6466 26.0916 78.6466 21.6948C78.6466 19.2649 77.1424 17.4136 73.6712 15.9094C71.5885 14.8681 70.3157 14.2895 70.3157 13.2482C70.3157 12.3225 71.3571 11.3969 73.6712 11.3969C75.6383 11.3969 77.0267 11.744 78.0681 12.2068L78.6466 12.4382L79.5723 7.92566Z" fill="#293688"/>
</g>
</g>
<g id="Group_11">
<g id="Group_12">
<path id="Vector_5" d="M89.5223 7.69434C88.1338 7.69434 87.0925 7.81004 86.5139 9.19852L77.8359 28.5216H84.0841L85.2412 25.0504H92.6464L93.3407 28.5216H98.8946L94.0349 7.69434H89.5223ZM86.8611 21.5792C87.2082 20.5378 89.1752 15.4467 89.1752 15.4467C89.1752 15.4467 89.638 14.1739 89.9852 13.364L90.3323 15.331C90.3323 15.331 91.4893 20.5378 91.7208 21.6949H86.8611V21.5792Z" fill="#3C58BF"/>
</g>
</g>
<g id="Group_13">
<g id="Group_14">
<path id="Vector_6" d="M90.9108 7.69434C89.5223 7.69434 88.481 7.81004 87.9024 9.19852L77.8359 28.5216H84.0841L85.2412 25.0504H92.6464L93.3407 28.5216H98.8946L94.0349 7.69434H90.9108ZM86.8611 21.5792C87.3239 20.4221 89.1752 15.4467 89.1752 15.4467C89.1752 15.4467 89.638 14.1739 89.9852 13.364L90.3323 15.331C90.3323 15.331 91.4893 20.5378 91.7208 21.6949H86.8611V21.5792Z" fill="#293688"/>
</g>
</g>
<g id="Group_15">
<g id="Group_16">
<path id="Vector_7" d="M42.0823 22.2729L41.5038 19.2645C40.4624 15.7933 37.1069 11.975 33.4043 10.1237L38.6111 28.6368H44.8593L54.2315 7.80957H47.9834L42.0823 22.2729Z" fill="#3C58BF"/>
</g>
</g>
<g id="Group_17">
<g id="Group_18">
<path id="Vector_8" d="M42.0823 22.2729L41.5038 19.2645C40.4624 15.7933 37.1069 11.975 33.4043 10.1237L38.6111 28.6368H44.8593L54.2315 7.80957H49.1404L42.0823 22.2729Z" fill="#293688"/>
</g>
</g>
<g id="Group_19">
<g id="Group_20">
<path id="Vector_9" d="M26 7.69434L27.0414 7.92575C34.4466 9.66135 39.5377 14.0582 41.5047 19.265L39.422 9.42994C39.0749 8.04146 38.0335 7.69434 36.7607 7.69434H26Z" fill="#FFBC00"/>
</g>
</g>
<g id="Group_21">
<g id="Group_22">
<path id="Vector_10" d="M26 7.69434C33.4052 9.42994 39.5377 13.9425 41.5047 19.1493L39.5377 10.9341C39.1906 9.54564 38.0335 8.7357 36.7607 8.7357L26 7.69434Z" fill="#F7981D"/>
</g>
</g>
<g id="Group_23">
<g id="Group_24">
<path id="Vector_11" d="M26 7.69434C33.4052 9.42994 39.5377 13.9425 41.5047 19.1493L40.1162 14.6367C39.7691 13.2483 39.3063 11.8598 37.6864 11.2812L26 7.69434Z" fill="#ED7C00"/>
</g>
</g>
</g>
<g id="Group_25">
<path id="Vector_12" d="M47.8691 21.5785L43.9351 17.6445L42.0838 22.0413L41.621 19.1487C40.5796 15.6774 37.2241 11.8591 33.5215 10.0078L38.7283 28.5209H44.9765L47.8691 21.5785Z" fill="#051244"/>
</g>
<g id="Group_26">
<path id="Vector_13" d="M58.6315 28.5218L53.6561 23.4307L52.7305 28.5218H58.6315Z" fill="#051244"/>
</g>
<g id="Group_27">
<path id="Vector_14" d="M71.9356 21.3486C72.3985 21.8115 72.6299 22.1586 72.5142 22.6214C72.5142 24.0099 70.6629 24.7041 69.043 24.7041C66.7288 24.7041 65.4561 24.357 63.489 23.5471L62.6791 23.1999L61.8691 27.9439C63.2576 28.5225 65.8032 29.101 68.4644 29.101C72.167 29.101 75.1754 28.0596 76.911 26.2083L71.9356 21.3486Z" fill="#051244"/>
</g>
<g id="Group_28">
<path id="Vector_15" d="M78.6484 28.5209H84.0867L85.2437 25.0497H92.649L93.3432 28.5209H98.8971L96.9301 20.0743L89.9877 13.3633L90.3348 15.2146C90.3348 15.2146 91.4919 20.4214 91.7233 21.5785H86.8636C87.3264 20.4214 89.1778 15.446 89.1778 15.446C89.1778 15.446 89.6406 14.1732 89.9877 13.3633" fill="#051244"/>
</g>
</g>
</g>
</svg>
