<svg width="24" height="24" viewBox="0 0 24 24" fill="none" xmlns="http://www.w3.org/2000/svg">
<g clip-path="url(#clip0_408_1695)">
<path fill-rule="evenodd" clip-rule="evenodd" d="M21.2133 18.0493H19.0291C18.202 18.0493 17.9475 17.4398 16.4631 16.0439C15.1694 14.8839 14.5968 14.7266 14.2787 14.7266C13.8334 14.7266 13.7061 14.8446 13.7061 15.4147V17.2432C13.7061 17.7347 13.5365 18.0295 12.1368 18.0295C9.82531 18.0295 7.25928 16.732 5.45671 14.3137C2.74224 10.7748 2 8.12065 2 7.57015C2 7.27525 2.12724 7 2.74224 7H4.92654C5.47792 7 5.68998 7.23593 5.90205 7.78642C6.9836 10.6765 8.78618 13.2127 9.52841 13.2127C9.80409 13.2127 9.93134 13.0948 9.93134 12.446V9.45757C9.84652 8.08133 9.06186 7.96337 9.06186 7.47185C9.06186 7.23593 9.27393 7 9.61324 7H13.0487C13.5153 7 13.6849 7.23593 13.6849 7.7471V11.7775C13.6849 12.2101 13.8971 12.3673 14.0242 12.3673C14.2999 12.3673 14.5332 12.2101 15.0421 11.7382C16.6115 10.1064 17.7354 7.58982 17.7354 7.58982C17.8839 7.29491 18.1384 7.01966 18.6898 7.01966H20.874C21.5314 7.01966 21.6799 7.33423 21.5314 7.76676C21.2558 8.9464 18.5836 12.446 18.5836 12.446C18.3505 12.7999 18.2656 12.9572 18.5836 13.3504C18.8169 13.6453 19.5805 14.2548 20.0894 14.8052C21.0225 15.7883 21.7435 16.614 21.9344 17.1842C22.1465 17.7543 21.8284 18.0493 21.2133 18.0493Z" fill="white"/>
</g>
<defs>
<clipPath id="clip0_408_1695">
<rect width="20" height="12" fill="white" transform="translate(2 7)"/>
</clipPath>
</defs>
</svg>
