<svg width="29" height="30" viewBox="0 0 29 30" fill="none" xmlns="http://www.w3.org/2000/svg">
<path id="image 5 (Traced)" fill-rule="evenodd" clip-rule="evenodd" d="M12.882 0.587322C11.5842 0.728454 9.63305 1.32273 8.22318 2.00627C5.30463 3.42125 3.01158 5.71049 1.57559 8.64314C0.910836 10.0009 0.137168 12.3501 0.298317 12.5222C0.331616 12.5578 0.650402 12.3657 1.00692 12.0953C1.89148 11.4247 3.90393 10.4565 5.01548 10.1669C7.59814 9.49389 10.6719 9.82742 13.0946 11.0431L13.6893 11.3416L13.0746 11.9554L12.4601 12.5694L11.4873 12.1829C8.90612 11.1576 6.16964 11.2555 3.64075 12.4641C2.53455 12.9927 1.14775 14.0632 0.418835 14.9512L0 15.4613L0.184521 16.8584C0.596023 19.9752 1.97182 22.8009 4.17536 25.0553C6.34729 27.2774 8.76406 28.6096 11.6951 29.2005L13.1814 29.5L13.7783 29.0279C15.5308 27.6415 16.8502 25.6312 17.3939 23.5192C17.7169 22.264 17.6361 19.5449 17.2419 18.4079C16.7285 16.9269 16.0358 15.7232 15.1269 14.7326L14.2078 13.7306L16.4312 11.492L18.6545 9.25344L18.7249 8.44738C18.8072 7.5037 19.2189 6.96893 20.052 6.72267C21.1825 6.38869 22.5051 7.31543 22.5051 8.44174C22.5051 9.6007 21.7208 10.418 20.5619 10.4669C19.9273 10.4936 19.8065 10.5807 18.2363 12.1443L16.5799 13.7936L17.1094 14.4866C17.8168 15.4121 18.4278 16.6475 18.863 18.0318C19.1645 18.9912 19.221 19.4956 19.221 21.2306C19.221 22.9631 19.1642 23.4722 18.8633 24.4347C18.3968 25.927 17.6321 27.3697 16.6866 28.542L15.9253 29.4857L16.504 29.3892C19.9125 28.8215 22.5699 27.4732 24.8776 25.1408C26.7688 23.2293 28.0425 20.9405 28.7213 18.2345C29.1281 16.6123 29.0823 13.1583 28.6314 11.4658C26.7459 4.38843 20.1054 -0.198287 12.882 0.587322ZM7.2734 15.1842C8.06555 15.5214 8.4879 16.09 8.55908 16.9153C8.66936 18.1936 7.82222 19.12 6.54296 19.12C4.28366 19.12 3.6994 16.1137 5.77922 15.1904C6.36944 14.9283 6.66943 14.9271 7.2734 15.1842ZM13.5886 21.2548C15.2554 22.9199 13.2843 25.5866 11.1874 24.5035C10.243 24.0157 9.85361 22.6695 10.3691 21.674C10.9809 20.4923 12.6124 20.2799 13.5886 21.2548Z" fill="#5C75C9"/>
</svg>
