<svg width="37" height="37" viewBox="0 0 37 37" fill="none" xmlns="http://www.w3.org/2000/svg">
<g id="wmtransfer-icon 1" clip-path="url(#clip0_865_18605)">
<path id="Vector" d="M18.4122 0.28125C21.2988 0.28125 24.0455 0.942625 26.51 2.13125C26.8974 2.30584 27.2847 2.51455 27.6709 2.72325L25.9811 4.22002L23.4477 1.60978L19.0829 5.43697L16.5114 2.6822L8.4841 9.81742L13.6236 15.4206L11.6175 17.1608L16.6877 22.764L14.6816 24.503L21.9342 32.473L26.2268 28.5747L29.9603 32.7522C29.2203 33.309 28.4109 33.8668 27.5322 34.3536C24.7569 35.9069 21.6291 36.7211 18.4487 36.7182C8.27308 36.7182 0.000116019 28.5417 0.000116019 18.4841C-0.0357277 8.49467 8.2384 0.28125 18.4122 0.28125ZM15.0314 17.3695L19.4321 13.4712L23.376 17.8216L18.9742 21.7193L15.0314 17.3695ZM18.1648 24.8868L22.5296 20.9544L26.5083 25.3042L22.107 29.2025L18.1648 24.8868ZM11.9002 9.95675L16.294 6.05845L20.2368 10.4088L15.8355 14.3066L11.9002 9.95675ZM19.961 7.8622L23.2407 4.94498L26.1984 8.18249L22.9239 11.1402L19.961 7.8622ZM25.8001 21.2614L29.0798 18.3436L32.0375 21.6141L28.763 24.5394L25.8001 21.2614ZM28.6867 27.8405L31.9612 24.9163L34.9166 28.1538L31.6432 31.1115L28.6867 27.8405ZM30.025 12.8052L32.2075 10.8557L34.1789 13.0145L31.997 14.9627L30.025 12.8052ZM27.2084 6.36659L29.3908 4.38363L31.3634 6.57588L29.1792 8.52416L27.2084 6.36659ZM32.8058 19.2443L34.9882 17.296L37.0001 19.4582L34.783 21.4065L32.8058 19.2443ZM22.9777 14.4066L26.2522 11.483L29.2087 14.7193L25.9354 17.6435L22.9777 14.4066Z" fill="#106DB3"/>
</g>
<defs>
<clipPath id="clip0_865_18605">
<rect width="37" height="37" fill="white"/>
</clipPath>
</defs>
</svg>
