<svg width="22" height="22" viewBox="0 0 22 22" fill="none" xmlns="http://www.w3.org/2000/svg">
<g id="xbox-flat 1">
<path id="Vector" d="M8.26667 6.53333C4.86667 3.13333 4 3.86667 4 3.86667C2.13333 5.66667 1 8.2 1 11C1 13.2667 1.73333 15.4 3.06667 17.0667H3.13333V17C2.33333 14.6667 6.26667 8.93333 8.26667 6.53333ZM18 3.86667C18 3.86667 17.1333 3.13333 13.7333 6.46667C15.7333 8.86667 19.6667 14.6 18.8667 16.9333V17H18.9333C20.2 15.3333 21 13.2 21 10.9333C21 8.2 19.8667 5.66667 18 3.86667ZM11 3.93333C11.3333 3.8 14.2667 2.06667 16.2 2.53333H16.2667V2.46667C14.6667 1.53333 13 1 11 1C9 1 7.33333 1.53333 5.8 2.46667V2.53333H5.86667C7.53333 2.13333 10.2667 3.53333 11 3.93333ZM11 9.06667C11 9 11 9 11 9.06667C7.93333 11.3333 2.8 17 4.4 18.5333C6.2 20.0667 8.46667 21 11 21C13.5333 21 15.8 20.0667 17.6 18.5333C19.1333 16.9333 14 11.3333 11 9.06667Z" fill="#2C2C35"/>
</g>
</svg>
