<svg width="22" height="22" viewBox="0 0 22 22" fill="none" xmlns="http://www.w3.org/2000/svg">
<g id="Yandex_icon 1">
<g id="Group 4654">
<path id="Vector" d="M3 11C3 6.5816 6.5808 3 11 3C15.4176 3 19 6.5816 19 11C19 15.4184 15.4176 19 11 19C6.5808 19 3 15.4184 3 11Z" fill="#2C2C35"/>
<path id="Vector_2" d="M12.0239 7.53285H11.2847C9.92946 7.53285 9.21666 8.21925 9.21666 9.23125C9.21666 10.3752 9.70946 10.9112 10.7215 11.5984L11.5575 12.1616L9.15506 15.7512H7.35986L9.51586 12.54C8.27586 11.6512 7.57986 10.788 7.57986 9.32805C7.57986 7.49765 8.85586 6.24805 11.2759 6.24805H13.6783V15.7424H12.0239V7.53285Z" fill="white"/>
</g>
</g>
</svg>
