<svg width="32" height="32" viewBox="0 0 32 32" fill="none" xmlns="http://www.w3.org/2000/svg">
<path d="M2.5 16C2.5 8.2678 8.7664 2 16.5 2C24.2308 2 30.5 8.2678 30.5 16C30.5 23.7322 24.2308 30 16.5 30C8.7664 30 2.5 23.7322 2.5 16Z" fill="#CED1D7"/>
<path d="M18.2914 9.93297H16.9978C14.6262 9.93297 13.3788 11.1342 13.3788 12.9052C13.3788 14.9072 14.2412 15.8452 16.0122 17.0478L17.4752 18.0334L13.271 24.3152H10.1294L13.9024 18.6956C11.7324 17.1402 10.5144 15.6296 10.5144 13.0746C10.5144 9.87137 12.7474 7.68457 16.9824 7.68457H21.1866V24.2998H18.2914V9.93297Z" fill="white"/>
</svg>
