<svg width="104" height="22" viewBox="0 0 104 22" fill="none" xmlns="http://www.w3.org/2000/svg">
<g id="&#208;&#174;Money 1" clip-path="url(#clip0_865_18551)">
<g id="Group">
<path id="Vector" d="M17.8465 0.219961C13.4101 1.07063 10.1083 4.3853 9.14831 8.94663L8.88649 10.1933V6.70263L8.87195 3.22663H4.50831C2.10831 3.22663 0.144673 3.27063 0.144673 3.3293C0.130128 3.40263 1.23558 6.99596 2.57376 11.3226L5.0174 19.2133H6.9374H8.87195L8.88649 15.5026V11.8066L9.14831 13.0533C9.77376 15.9866 11.2138 18.26 13.4829 19.888C15.4029 21.2813 17.3519 21.8973 19.8538 21.8973C22.7047 21.912 25.1192 20.944 27.2138 18.964C28.6101 17.6293 29.4974 16.236 30.1229 14.3733C30.5592 13.0973 30.6029 12.8333 30.6029 11.0733C30.6174 8.9173 30.4138 7.93463 29.5992 6.2333C27.5192 1.86263 22.5447 -0.674706 17.8465 0.219961ZM21.4538 7.2453C22.4138 7.6853 23.461 8.85863 23.7229 9.78263C24.1447 11.3373 23.781 12.804 22.6756 13.9186C21.9192 14.6813 21.2065 15.004 20.1156 15.0773C18.8065 15.1653 17.861 14.8133 16.9301 13.86C15.4319 12.364 15.3156 10.3106 16.5956 8.49196C17.6283 7.0253 19.7956 6.4533 21.4538 7.2453Z" fill="#6E44E6"/>
<path id="Vector_2" d="M43.635 5.99876C43.0532 6.18942 42.3987 6.55609 42.195 6.80542C41.9041 7.15742 41.7441 7.08409 41.7441 6.60009V6.16009H40.3623H38.9805V11.2934V16.4268H40.3477H41.7296L41.7732 13.0094C41.8168 9.29876 41.8605 9.10809 42.6896 8.56542C43.155 8.25742 44.2459 8.27209 44.7841 8.59476C45.6277 9.09342 45.6714 9.32809 45.6714 12.9654V16.2801H47.1259H48.5805V12.9361C48.5805 9.85609 48.6096 9.57742 48.8714 9.12276C49.395 8.25742 50.5877 7.97876 51.4459 8.50676C52.2459 8.99076 52.2896 9.16676 52.3623 12.8334L52.435 16.2068H53.8168H55.1987V12.5401C55.1987 8.52142 55.1405 8.12542 54.3696 7.24542C53.6132 6.39476 52.7696 5.96942 51.5768 5.89609C50.3405 5.82276 49.555 6.10142 48.6241 6.95209C48.3041 7.24542 47.9841 7.48009 47.9259 7.48009C47.8677 7.48009 47.6932 7.31876 47.5332 7.11342C46.8641 6.26276 44.7114 5.64676 43.635 5.99876Z" fill="black"/>
<path id="Vector_3" d="M60.4065 6.13096C58.821 6.70296 57.6574 7.87629 57.221 9.37229C56.8865 10.5163 56.9883 12.599 57.4392 13.5376C58.3992 15.5323 60.8428 16.7936 63.0538 16.427C64.901 16.119 66.3119 15.107 67.0828 13.523C67.5192 12.643 67.5628 12.4376 67.5628 11.1616C67.5628 9.94429 67.5047 9.63629 67.1847 8.93229C66.6465 7.77362 65.8756 6.98162 64.7556 6.42429C63.9119 5.99896 63.621 5.94029 62.4719 5.89629C61.4974 5.86696 60.9738 5.92562 60.4065 6.13096ZM63.3447 8.63896C64.5083 9.18162 65.1338 10.2963 64.9447 11.4843C64.6828 12.995 64.2028 13.5963 62.9956 13.9336C61.1047 14.447 59.6501 13.2003 59.6356 11.103C59.6356 9.85629 60.1301 9.07896 61.2356 8.59496C61.9192 8.30162 62.6465 8.31629 63.3447 8.63896Z" fill="black"/>
<path id="Vector_4" d="M73.8328 6.14559C73.4401 6.30692 72.9746 6.58559 72.7855 6.76159L72.4364 7.08426V6.55625V6.01359H70.9819H69.5273V11.1469V16.2949L70.9528 16.2509L72.3637 16.2069L72.4364 12.8336C72.4946 9.79759 72.5383 9.41625 72.8001 9.03492C73.4837 8.00826 75.2728 7.94959 76.1455 8.94692C76.4073 9.24025 76.4364 9.53359 76.5092 12.7456L76.5819 16.2069L78.0073 16.2509L79.4183 16.2949V12.8483C79.4183 10.9563 79.3455 9.07892 79.2583 8.66825C79.0546 7.71492 78.4437 6.86425 77.5855 6.36559C76.6546 5.82292 74.9092 5.72025 73.8328 6.14559Z" fill="black"/>
<path id="Vector_5" d="M85.2789 6.07176C82.7771 6.8931 81.2935 9.07843 81.4971 11.6891C81.8316 16.0891 86.9807 18.0691 90.908 15.2824C91.3444 14.9891 91.708 14.6664 91.7226 14.5931C91.7516 14.5051 91.388 14.1678 90.908 13.8158L90.0353 13.1851L89.5553 13.5518C88.4062 14.4318 86.7626 14.6518 85.5698 14.0651C85.0171 13.8011 84.2171 12.9211 84.2171 12.5838C84.2171 12.5104 85.948 12.4664 88.0716 12.4664H91.9262L92.0135 12.0851C92.1735 11.4398 91.9844 9.78243 91.6644 9.0491C91.2426 8.09577 90.0207 6.83443 89.0462 6.35043C88.0862 5.8811 86.2826 5.7491 85.2789 6.07176ZM87.6644 8.5211C88.1007 8.68243 88.9444 9.43043 89.1771 9.85577C89.308 10.1051 89.1626 10.1198 86.8353 10.1198C84.1298 10.1198 84.0716 10.0904 84.6826 9.3131C85.2935 8.5211 86.6898 8.15443 87.6644 8.5211Z" fill="black"/>
<path id="Vector_6" d="M92.8419 6.2629C92.871 6.40957 93.7582 8.6829 94.8201 11.3376C95.8673 13.9776 96.7255 16.2069 96.7255 16.2949C96.7255 16.3829 96.3619 17.2776 95.9255 18.2749C95.4892 19.2869 95.1255 20.1376 95.1255 20.1669C95.1255 20.2109 95.8092 20.2402 96.6237 20.2402C98.0492 20.2402 98.1364 20.2256 98.2819 19.9176C98.631 19.1256 103.853 6.20423 103.853 6.10157C103.853 6.0429 103.198 6.02823 102.384 6.0429L100.915 6.0869L99.6637 9.22557L98.3982 12.3496L98.1655 11.7922C98.0201 11.4696 97.4528 10.0469 96.871 8.60957L95.8237 6.01357H94.2964C92.9001 6.01357 92.7692 6.0429 92.8419 6.2629Z" fill="black"/>
</g>
</g>
<defs>
<clipPath id="clip0_865_18551">
<rect width="104" height="22" fill="white"/>
</clipPath>
</defs>
</svg>
