<svg width="24" height="24" viewBox="0 0 24 24" fill="none" xmlns="http://www.w3.org/2000/svg">
<g id="Frame">
<path id="Vector" fill-rule="evenodd" clip-rule="evenodd" d="M19.0427 5.42824C19.8137 5.65882 20.4217 6.33412 20.6293 7.19059C21.0148 8.7553 20.9999 12.0165 20.9999 12.0165C20.9999 12.0165 20.9999 15.2612 20.6293 16.8259C20.4217 17.6824 19.8137 18.3577 19.0427 18.5883C17.6342 19 12 19 12 19C12 19 6.38054 19 4.95716 18.5718C4.18616 18.3412 3.57825 17.6659 3.37067 16.8094C3 15.2612 3 12 3 12C3 12 3 8.7553 3.37067 7.19059C3.57825 6.33412 4.20098 5.64235 4.95716 5.41177C6.36572 5 12 5 12 5C12 5 17.6342 5 19.0427 5.42824ZM14.891 11.9179L10.2057 14.9156V8.92024L14.891 11.9179Z" fill="white"/>
</g>
</svg>
