<svg width="20" height="14" viewBox="0 0 20 14" fill="none" xmlns="http://www.w3.org/2000/svg">
<g id="youtube-icon-5 1" clip-path="url(#clip0_3666_33176)">
<path id="Vector" d="M13.3219 6.77972C11.4995 5.80579 9.75444 4.91042 7.9707 3.97559V9.56799C9.84774 8.5476 11.8262 7.61314 13.3297 6.77972H13.3219Z" fill="white"/>
<path id="Vector_2" d="M13.3219 6.77972C11.4995 5.80579 7.9707 3.97559 7.9707 3.97559L12.6755 7.13779C12.6755 7.13779 11.8185 7.61314 13.3219 6.77972Z" fill="#2C2C35"/>
<path id="Vector_3" d="M8.31356 13.9464C4.52813 13.8767 3.23523 13.814 2.44053 13.6502C1.90286 13.5415 1.43563 13.2999 1.09304 12.9496C0.828262 12.6844 0.617694 12.2799 0.454329 11.7186C0.314196 11.251 0.259618 10.862 0.181808 9.91166C0.0626949 7.76689 0.0342996 6.01339 0.181808 4.05411C0.303502 2.97214 0.362505 1.68771 1.17085 0.93837C1.55253 0.58767 1.99653 0.361982 2.4951 0.268683C3.27395 0.120807 6.59214 0.00390625 10.0272 0.00390625C13.4546 0.00390625 16.7802 0.120807 17.5597 0.268683C18.1826 0.385584 18.7667 0.735915 19.1097 1.18766C19.8472 2.34781 19.8601 3.79044 19.935 4.91888C19.966 5.45654 19.966 8.50959 19.935 9.04726C19.8185 10.8306 19.7248 11.4616 19.46 12.1158C19.2963 12.5288 19.1565 12.7468 18.9146 12.9883C18.5352 13.36 18.0515 13.6073 17.528 13.6971C14.2522 13.9434 11.4706 13.9969 8.31356 13.9464ZM13.3299 6.78043C11.5075 5.80651 9.76246 4.90339 7.97872 3.96855V9.56133C9.85576 8.54094 11.8346 7.6061 13.3377 6.77268L13.3299 6.78043Z" fill="#2C2C35"/>
</g>
<defs>
<clipPath id="clip0_3666_33176">
<rect width="19.9317" height="14" fill="white" transform="translate(0.0341797)"/>
</clipPath>
</defs>
</svg>
