<svg width="100" height="100" viewBox="0 0 100 100" fill="none" xmlns="http://www.w3.org/2000/svg">
<rect width="100" height="100" rx="9" fill="#0957CC"/>
<path d="M53.7572 26.6642L58.0607 38.7594C58.6111 40.3131 60.0525 41.3718 61.6954 41.4217L73.129 41.7795C76.9257 41.8981 78.4232 46.7756 75.3535 49.022L66.2958 55.651C64.9022 56.6722 64.3186 58.4756 64.8503 60.125L68.487 70.7392C69.6418 74.321 65.6873 77.3806 62.5345 75.3443L52.158 68.7736C50.8433 67.925 49.1568 67.925 47.842 68.7736L37.5382 75.3464C34.3854 77.3848 30.4309 74.323 31.5857 70.7413L35.1497 60.1271C35.6814 58.4797 35.0978 56.6743 33.7042 55.653L24.6465 49.0241C21.5768 46.7777 23.0743 41.9001 26.871 41.7816L38.3046 41.4238C39.9454 41.3718 41.3889 40.3152 41.9393 38.7614L46.2428 26.6663C47.4993 23.1116 52.5007 23.1116 53.7572 26.6642Z" fill="white"/>
</svg>
